<svg xmlns="http://www.w3.org/2000/svg" xmlns:xlink="http://www.w3.org/1999/xlink" width="155" height="112" viewBox="0 0 155 112">
  <defs>
    <clipPath id="clip-path">
      <path id="Rectangle_2388" data-name="Rectangle 2388" d="M10,0H145a10,10,0,0,1,10,10V112a0,0,0,0,1,0,0H0a0,0,0,0,1,0,0V10A10,10,0,0,1,10,0Z" transform="translate(23 20)" fill="#427729"/>
    </clipPath>
  </defs>
  <g id="entity" transform="translate(-23 -20)">
    <path id="Rectangle_2201" data-name="Rectangle 2201" d="M10,0H145a10,10,0,0,1,10,10V112a0,0,0,0,1,0,0H0a0,0,0,0,1,0,0V10A10,10,0,0,1,10,0Z" transform="translate(23 20)" fill="#f3f7f9"/>
    <g id="Mask_Group_61" data-name="Mask Group 61" clip-path="url(#clip-path)">
      <g id="Resume-bro" transform="translate(0.958 -51.57)">
        <g id="freepik--Shadow--inject-18" transform="translate(50.528 169.414)">
          <ellipse id="Ellipse_1126" data-name="Ellipse 1126" cx="49.371" cy="3.399" rx="49.371" ry="3.399" transform="translate(0 0)" fill="#263238"/>
        </g>
        <g id="freepik--Plants--inject-18" transform="translate(35.247 110.166)">
          <path id="Path_18980" data-name="Path 18980" d="M139.422,247.092c-.2-.989-.477-2.407-.725-4.121-.073-.494-.143-1.018-.208-1.559a9.17,9.17,0,0,0,2.676-.878,2.821,2.821,0,0,0,1.325-1.989,1.357,1.357,0,0,0-1.413-1.462c-1.147.079-2.205,1.857-2.454,2.855-.015.064-.117.837-.161,1.234-.038-.328-.076-.652-.111-.992-.053-.491-.094-1.009-.135-1.512,0-.263-.026-.526-.038-.793s0-.526,0-.8c0-.392.029-.8.05-1.2a8.543,8.543,0,0,0,2.632-.453,2.9,2.9,0,0,0,1.612-1.755,1.363,1.363,0,0,0-1.17-1.647c-1.144-.094-2.463,1.5-2.855,2.451-.015.029-.076.24-.149.488.035-.395.067-.79.117-1.188.135-1.126.31-2.273.48-3.422.035-.24.067-.477.1-.717a9.051,9.051,0,0,0,2.711-.456,2.851,2.851,0,0,0,1.612-1.755,1.36,1.36,0,0,0-1.17-1.647c-1.147-.094-2.463,1.5-2.858,2.451,0,.032-.088.293-.17.562.085-.623.158-1.249.214-1.869a23.747,23.747,0,0,0,.091-3.217,9.291,9.291,0,0,0,2.793-.459,2.845,2.845,0,0,0,1.612-1.755,1.357,1.357,0,0,0-1.17-1.644c-1.147-.1-2.463,1.5-2.858,2.448-.029.067-.293.974-.371,1.3a.165.165,0,0,1,0-.038,17.844,17.844,0,0,0-.48-3.115,24.384,24.384,0,0,0-.819-2.7c-.292-.819-.611-1.553-.9-2.2-.158-.351-.31-.667-.453-.959h.023c.02,0-.035-1.389-.047-1.462-.158-1.012-1.056-2.878-2.191-3.06a1.357,1.357,0,0,0-1.536,1.316,2.844,2.844,0,0,0,1.141,2.1,9.186,9.186,0,0,0,2.542,1.094c.143.31.292.641.453,1.009.272.652.585,1.389.845,2.214.073.219.143.459.216.687-.2-.363-.486-.857-.521-.9-.605-.828-2.264-2.071-3.352-1.708a1.357,1.357,0,0,0-.758,1.875,2.821,2.821,0,0,0,1.983,1.337,9.7,9.7,0,0,0,2.773-.2c.152.512.292,1.041.415,1.6a17.464,17.464,0,0,1,.392,3.068v.184c-.07-.2-.526-1.249-.564-1.319-.512-.878-2.024-2.308-3.147-2.068a1.36,1.36,0,0,0-.959,1.784,2.848,2.848,0,0,0,1.825,1.544,9.579,9.579,0,0,0,2.843.1,23.767,23.767,0,0,1-.155,3.1c-.085.763-.2,1.533-.328,2.3-.1-.254-.518-1.231-.559-1.3-.509-.878-2.021-2.3-3.144-2.065a1.36,1.36,0,0,0-.959,1.781,2.846,2.846,0,0,0,1.825,1.547,9.168,9.168,0,0,0,2.828.1c-.058.348-.114.7-.173,1.05-.2,1.141-.395,2.287-.556,3.422-.059.395-.1.784-.14,1.17-.155-.377-.45-1.056-.483-1.111-.512-.878-2.024-2.308-3.147-2.065a1.36,1.36,0,0,0-.959,1.781,2.846,2.846,0,0,0,1.825,1.547,8.954,8.954,0,0,0,2.732.108c-.067.649-.117,1.3-.137,1.933,0,.275-.026.559,0,.822s0,.532.018.793c.035.541.061,1.044.105,1.547.02.254.044.494.067.74-.1-.4-.269-1.044-.292-1.1-.371-.956-1.65-2.586-2.8-2.518a1.363,1.363,0,0,0-1.217,1.618,2.81,2.81,0,0,0,1.568,1.8,9.446,9.446,0,0,0,2.767.526c.059.6.123,1.19.19,1.737.216,1.737.459,3.174.643,4.18s.316,1.577.316,1.577h0a.4.4,0,1,0,.781-.193S139.627,248.083,139.422,247.092Z" transform="translate(-104.43 -210.05)" fill="#427729"/>
          <path id="Path_18981" data-name="Path 18981" d="M151.5,228.375a9.579,9.579,0,0,0,2.6-1.19,2.733,2.733,0,0,0,1.085-2.129,1.357,1.357,0,0,0-1.568-1.275c-1.129.211-1.98,2.1-2.109,3.118C151.494,226.985,151.477,228.381,151.5,228.375Z" transform="translate(-117.488 -219.752)" fill="#427729"/>
          <path id="Path_18982" data-name="Path 18982" d="M91.108,272.055a.4.4,0,1,1-.544.585h0s-.427-.41-1.132-1.144-1.705-1.8-2.843-3.13c-.36-.421-.734-.877-1.117-1.345a9.4,9.4,0,0,1-2.6,1.085,2.847,2.847,0,0,1-2.3-.641,1.36,1.36,0,0,1,.123-2.018c.921-.69,2.887-.035,3.723.559.05.035.544.474.848.755-.155-.193-.293-.377-.465-.585-.313-.395-.614-.8-.939-1.234l-.453-.649c-.158-.214-.292-.459-.445-.69-.336-.544-.649-1.111-.951-1.691a9.026,9.026,0,0,1-2.34,1.416,2.8,2.8,0,0,1-2.375-.293,1.36,1.36,0,0,1-.184-2.015c.807-.819,2.849-.471,3.764,0,.059.029.679.433,1.015.661-.178-.351-.36-.7-.529-1.059-.491-1.035-.956-2.1-1.424-3.162-.143-.325-.293-.646-.436-.971a9.413,9.413,0,0,1-2.413,1.477,2.8,2.8,0,0,1-2.375-.293,1.36,1.36,0,0,1-.184-2.015c.8-.819,2.846-.471,3.764,0,.07.035.962.617,1.17.775-.322-.711-.646-1.416-1-2.1a24.168,24.168,0,0,0-1.579-2.673,9.557,9.557,0,0,1-2.428,1.489,2.815,2.815,0,0,1-2.375-.292,1.357,1.357,0,0,1-.181-2.015c.8-.819,2.846-.471,3.762,0,.073.035,1.033.661,1.2.787-.035-.05-.064-.1-.1-.152a17.709,17.709,0,0,0-2.047-2.34c-.41-.4-.822-.766-1.231-1.111a9.344,9.344,0,0,1-2.2,1.7,2.8,2.8,0,0,1-2.393-.023,1.357,1.357,0,0,1-.4-1.98c.711-.9,2.779-.784,3.741-.427.053.02.562.275.93.465-.187-.152-.377-.313-.559-.453-.684-.538-1.343-.989-1.928-1.381-.336-.219-.644-.412-.933-.585a9.013,9.013,0,0,1-2.723.488A2.833,2.833,0,0,1,64.9,244.7a1.363,1.363,0,0,1,.556-1.945c1.047-.474,2.826.585,3.51,1.345.059.067.877,1.2.854,1.205H69.8c.293.164.585.345.907.55.585.38,1.267.816,1.966,1.34a25.023,25.023,0,0,1,2.17,1.8,18.227,18.227,0,0,1,2.118,2.34.119.119,0,0,0,.02.032c-.111-.316-.392-1.217-.407-1.287-.193-1.006.026-3.068,1.033-3.621a1.36,1.36,0,0,1,1.89.722,2.9,2.9,0,0,1-.369,2.363,9.482,9.482,0,0,1-2.077,1.925,24.436,24.436,0,0,1,1.694,2.726c.293.55.585,1.112.854,1.679-.088-.278-.164-.526-.17-.562-.193-1.006.023-3.068,1.033-3.621a1.36,1.36,0,0,1,1.89.725,2.891,2.891,0,0,1-.369,2.36,8.833,8.833,0,0,1-2.012,1.878c.1.219.208.436.31.655.494,1.05.98,2.1,1.489,3.121.178.357.369.7.556,1.05-.076-.246-.137-.453-.146-.488-.193-1.006.026-3.065,1.033-3.618a1.36,1.36,0,0,1,1.89.722,2.843,2.843,0,0,1-.369,2.363,8.462,8.462,0,0,1-1.951,1.831c.2.348.407.7.62,1.03.152.222.293.448.445.661l.468.641c.313.395.632.807.948,1.185.216.266.427.515.641.766-.184-.354-.527-1.056-.547-1.117-.345-.968-.442-3.036.471-3.735a1.36,1.36,0,0,1,1.977.427,2.883,2.883,0,0,1,0,2.393,8.881,8.881,0,0,1-1.755,2.205c.354.415.7.813,1.035,1.188,1.152,1.29,2.162,2.322,2.878,3.036S91.108,272.055,91.108,272.055ZM73.462,247.8a9.8,9.8,0,0,0,1.512-2.428A2.842,2.842,0,0,0,74.708,243a1.36,1.36,0,0,0-2.015-.2c-.825.8-.491,2.843-.038,3.764C72.681,246.64,73.447,247.813,73.462,247.8Z" transform="translate(-56.08 -232.966)" fill="#427729"/>
          <path id="Path_18983" data-name="Path 18983" d="M91.108,272.055a.4.4,0,1,1-.544.585h0s-.427-.41-1.132-1.144-1.705-1.8-2.843-3.13c-.36-.421-.734-.877-1.117-1.345a9.4,9.4,0,0,1-2.6,1.085,2.847,2.847,0,0,1-2.3-.641,1.36,1.36,0,0,1,.123-2.018c.921-.69,2.887-.035,3.723.559.05.035.544.474.848.755-.155-.193-.293-.377-.465-.585-.313-.395-.614-.8-.939-1.234l-.453-.649c-.158-.214-.292-.459-.445-.69-.336-.544-.649-1.111-.951-1.691a9.026,9.026,0,0,1-2.34,1.416,2.8,2.8,0,0,1-2.375-.293,1.36,1.36,0,0,1-.184-2.015c.807-.819,2.849-.471,3.764,0,.059.029.679.433,1.015.661-.178-.351-.36-.7-.529-1.059-.491-1.035-.956-2.1-1.424-3.162-.143-.325-.293-.646-.436-.971a9.413,9.413,0,0,1-2.413,1.477,2.8,2.8,0,0,1-2.375-.293,1.36,1.36,0,0,1-.184-2.015c.8-.819,2.846-.471,3.764,0,.07.035.962.617,1.17.775-.322-.711-.646-1.416-1-2.1a24.168,24.168,0,0,0-1.579-2.673,9.557,9.557,0,0,1-2.428,1.489,2.815,2.815,0,0,1-2.375-.292,1.357,1.357,0,0,1-.181-2.015c.8-.819,2.846-.471,3.762,0,.073.035,1.033.661,1.2.787-.035-.05-.064-.1-.1-.152a17.709,17.709,0,0,0-2.047-2.34c-.41-.4-.822-.766-1.231-1.111a9.344,9.344,0,0,1-2.2,1.7,2.8,2.8,0,0,1-2.393-.023,1.357,1.357,0,0,1-.4-1.98c.711-.9,2.779-.784,3.741-.427.053.02.562.275.93.465-.187-.152-.377-.313-.559-.453-.684-.538-1.343-.989-1.928-1.381-.336-.219-.644-.412-.933-.585a9.013,9.013,0,0,1-2.723.488A2.833,2.833,0,0,1,64.9,244.7a1.363,1.363,0,0,1,.556-1.945c1.047-.474,2.826.585,3.51,1.345.059.067.877,1.2.854,1.205H69.8c.293.164.585.345.907.55.585.38,1.267.816,1.966,1.34a25.023,25.023,0,0,1,2.17,1.8,18.227,18.227,0,0,1,2.118,2.34.119.119,0,0,0,.02.032c-.111-.316-.392-1.217-.407-1.287-.193-1.006.026-3.068,1.033-3.621a1.36,1.36,0,0,1,1.89.722,2.9,2.9,0,0,1-.369,2.363,9.482,9.482,0,0,1-2.077,1.925,24.436,24.436,0,0,1,1.694,2.726c.293.55.585,1.112.854,1.679-.088-.278-.164-.526-.17-.562-.193-1.006.023-3.068,1.033-3.621a1.36,1.36,0,0,1,1.89.725,2.891,2.891,0,0,1-.369,2.36,8.833,8.833,0,0,1-2.012,1.878c.1.219.208.436.31.655.494,1.05.98,2.1,1.489,3.121.178.357.369.7.556,1.05-.076-.246-.137-.453-.146-.488-.193-1.006.026-3.065,1.033-3.618a1.36,1.36,0,0,1,1.89.722,2.843,2.843,0,0,1-.369,2.363,8.462,8.462,0,0,1-1.951,1.831c.2.348.407.7.62,1.03.152.222.293.448.445.661l.468.641c.313.395.632.807.948,1.185.216.266.427.515.641.766-.184-.354-.527-1.056-.547-1.117-.345-.968-.442-3.036.471-3.735a1.36,1.36,0,0,1,1.977.427,2.883,2.883,0,0,1,0,2.393,8.881,8.881,0,0,1-1.755,2.205c.354.415.7.813,1.035,1.188,1.152,1.29,2.162,2.322,2.878,3.036S91.108,272.055,91.108,272.055ZM73.462,247.8a9.8,9.8,0,0,0,1.512-2.428A2.842,2.842,0,0,0,74.708,243a1.36,1.36,0,0,0-2.015-.2c-.825.8-.491,2.843-.038,3.764C72.681,246.64,73.447,247.813,73.462,247.8Z" transform="translate(-56.08 -232.966)" opacity="0.1"/>
          <path id="Path_18984" data-name="Path 18984" d="M110.068,320.562c-.249-.98-.585-2.384-.907-4.1-.094-.488-.187-1.012-.275-1.547a9.329,9.329,0,0,0,2.632-.992,2.852,2.852,0,0,0,1.237-2.047,1.357,1.357,0,0,0-1.462-1.384c-1.144.129-2.124,1.954-2.34,2.96,0,.064-.082.842-.105,1.24-.056-.325-.108-.646-.158-.986-.073-.486-.137-1-.2-1.5l-.07-.79c-.032-.269-.026-.529-.041-.8v-1.2a8.644,8.644,0,0,0,2.615-.57,2.868,2.868,0,0,0,1.53-1.834,1.357,1.357,0,0,0-1.249-1.591c-1.147-.047-2.393,1.609-2.747,2.574,0,.029-.064.24-.123.491,0-.395.032-.787.061-1.188.088-1.135.211-2.284.331-3.44.023-.243.044-.483.07-.722a8.825,8.825,0,0,0,2.688-.585,2.851,2.851,0,0,0,1.533-1.837,1.36,1.36,0,0,0-1.249-1.591c-1.147-.044-2.4,1.612-2.747,2.574,0,.035-.076.293-.143.57.056-.629.1-1.255.132-1.878a23.888,23.888,0,0,0-.053-3.217,9.1,9.1,0,0,0,2.773-.585,2.837,2.837,0,0,0,1.53-1.837,1.357,1.357,0,0,0-1.249-1.591c-1.147-.044-2.393,1.612-2.747,2.574-.023.067-.246.983-.313,1.313v-.038a17.64,17.64,0,0,0-.614-3.092,24.529,24.529,0,0,0-.939-2.656c-.328-.807-.679-1.527-.994-2.162-.173-.342-.336-.649-.494-.939H106c.02,0-.094-1.384-.111-1.462-.2-1.006-1.17-2.831-2.34-2.963a1.357,1.357,0,0,0-1.462,1.384,2.877,2.877,0,0,0,1.234,2.047,9.564,9.564,0,0,0,2.586.983c.158.293.322.626.5.986.292.641.632,1.363.942,2.176.085.216.164.45.246.679-.216-.354-.524-.837-.559-.877-.641-.8-2.34-1.966-3.425-1.556a1.36,1.36,0,0,0-.673,1.907,2.84,2.84,0,0,0,2.047,1.249,9.342,9.342,0,0,0,2.761-.325c.176.506.342,1.03.486,1.585a17.217,17.217,0,0,1,.541,3.065v.181c-.076-.193-.585-1.226-.62-1.293-.55-.878-2.124-2.214-3.235-1.925a1.357,1.357,0,0,0-.877,1.822,2.881,2.881,0,0,0,1.89,1.462,9.63,9.63,0,0,0,2.846-.026,24.476,24.476,0,0,1-.02,3.1c-.053.766-.135,1.539-.225,2.314-.105-.249-.585-1.208-.614-1.272-.55-.878-2.124-2.214-3.235-1.925a1.357,1.357,0,0,0-.878,1.822,2.89,2.89,0,0,0,1.89,1.462,9.364,9.364,0,0,0,2.831-.026c-.044.351-.082.7-.126,1.056-.143,1.15-.292,2.3-.407,3.446-.038.395-.061.787-.088,1.17-.173-.369-.5-1.035-.532-1.088-.55-.878-2.121-2.214-3.217-1.925a1.36,1.36,0,0,0-.877,1.822,2.89,2.89,0,0,0,1.89,1.463,8.925,8.925,0,0,0,2.735-.015c-.038.652-.061,1.3-.053,1.939,0,.278,0,.559.026.822l.053.793c.059.538.108,1.038.173,1.541.032.252.067.488.1.734-.12-.4-.316-1.03-.339-1.085-.415-.939-1.755-2.51-2.907-2.393a1.36,1.36,0,0,0-1.144,1.667,2.832,2.832,0,0,0,1.647,1.734,9.319,9.319,0,0,0,2.788.4c.085.6.173,1.185.266,1.732.292,1.723.585,3.15.825,4.145s.386,1.562.386,1.562h0a.4.4,0,0,0,.772-.228S110.317,321.545,110.068,320.562Z" transform="translate(-82.538 -262.183)" fill="#427729"/>
          <path id="Path_18985" data-name="Path 18985" d="M121.583,301.326a9.7,9.7,0,0,0,2.545-1.3,2.853,2.853,0,0,0,.994-2.176,1.36,1.36,0,0,0-1.626-1.205c-1.117.26-1.884,2.185-1.969,3.217C121.518,299.946,121.562,301.335,121.583,301.326Z" transform="translate(-96.29 -271.296)" fill="#427729"/>
          <path id="Path_18986" data-name="Path 18986" d="M61.681,345.153c-.746-.679-1.8-1.667-3.01-2.907-.348-.357-.714-.74-1.082-1.138a9.438,9.438,0,0,0,1.65-2.281,2.842,2.842,0,0,0-.1-2.39,1.357,1.357,0,0,0-1.992-.339c-.877.737-.693,2.8-.307,3.75.023.061.4.749.585,1.094-.225-.24-.448-.48-.676-.737-.331-.363-.667-.76-1-1.141l-.5-.62c-.173-.208-.31-.427-.471-.641-.228-.319-.448-.661-.667-1a8.653,8.653,0,0,0,1.869-1.916,2.861,2.861,0,0,0,.263-2.375,1.357,1.357,0,0,0-1.919-.638c-.983.585-1.109,2.662-.877,3.659,0,.035.082.24.17.483-.2-.339-.409-.676-.605-1.027-.553-.994-1.085-2.021-1.623-3.051-.111-.214-.225-.427-.339-.641a9.065,9.065,0,0,0,1.928-1.966,2.821,2.821,0,0,0,.263-2.375,1.357,1.357,0,0,0-1.919-.638c-.983.585-1.109,2.662-.877,3.659a5.532,5.532,0,0,0,.2.556c-.292-.556-.608-1.1-.927-1.641a24.4,24.4,0,0,0-1.816-2.647,9.466,9.466,0,0,0,1.992-2.015,2.827,2.827,0,0,0,.263-2.375,1.357,1.357,0,0,0-1.919-.641c-.983.585-1.109,2.665-.877,3.662.018.07.339.956.462,1.269l-.02-.032a18.052,18.052,0,0,0-2.22-2.238,24.55,24.55,0,0,0-2.217-1.7c-.72-.491-1.41-.9-2.021-1.252-.333-.19-.643-.357-.93-.509h.02c.02,0-.842-1.1-.907-1.17-.722-.728-2.545-1.708-3.568-1.188a1.357,1.357,0,0,0-.471,1.966,2.839,2.839,0,0,0,2.162,1.03,9.277,9.277,0,0,0,2.7-.608c.292.164.614.342.959.55.6.366,1.281.787,1.986,1.293.19.135.386.293.585.43-.374-.176-.9-.407-.951-.424-.977-.313-3.048-.345-3.718.585a1.363,1.363,0,0,0,.491,1.963,2.848,2.848,0,0,0,2.39-.085,9.6,9.6,0,0,0,2.126-1.793c.424.325.851.67,1.278,1.053a17.39,17.39,0,0,1,2.141,2.258c.038.047.07.1.108.149-.173-.12-1.17-.7-1.234-.734-.936-.418-2.992-.679-3.759.178a1.36,1.36,0,0,0,.272,2,2.842,2.842,0,0,0,2.384.178,9.673,9.673,0,0,0,2.36-1.591,23.825,23.825,0,0,1,1.7,2.6c.38.667.737,1.357,1.088,2.047-.225-.149-1.144-.69-1.214-.722-.936-.418-2.992-.676-3.762.178a1.357,1.357,0,0,0,.275,2,2.842,2.842,0,0,0,2.384.181,9.374,9.374,0,0,0,2.34-1.582c.161.316.322.632.48.948.515,1.041,1.024,2.083,1.562,3.1.184.351.38.693.585,1.033-.348-.214-.986-.585-1.044-.614-.936-.418-2.992-.676-3.759.178a1.36,1.36,0,0,0,.272,2,2.842,2.842,0,0,0,2.384.181,8.932,8.932,0,0,0,2.276-1.521c.328.565.664,1.12,1.024,1.647.161.225.31.465.474.673l.483.629c.345.418.664.81.994,1.19l.488.559c-.319-.269-.831-.684-.877-.717-.877-.556-2.855-1.123-3.744-.395a1.36,1.36,0,0,0-.035,2.024,2.869,2.869,0,0,0,2.34.538,9.367,9.367,0,0,0,2.548-1.2c.4.453.8.877,1.17,1.3,1.193,1.278,2.238,2.3,2.978,3s1.17,1.094,1.17,1.094h0a.4.4,0,0,0,.518-.617S62.43,345.834,61.681,345.153Z" transform="translate(-35.247 -286.361)" fill="#427729"/>
          <path id="Path_18987" data-name="Path 18987" d="M62.328,321.473a9.769,9.769,0,0,0,1.4-2.492,2.843,2.843,0,0,0-.371-2.363,1.363,1.363,0,0,0-2.021-.108c-.79.834-.366,2.864.126,3.762C61.515,320.35,62.314,321.488,62.328,321.473Z" transform="translate(-53.397 -285.089)" fill="#427729"/>
          <g id="Group_36891" data-name="Group 36891" transform="translate(0 21.553)" opacity="0.1">
            <path id="Path_18988" data-name="Path 18988" d="M110.068,320.562c-.249-.98-.585-2.384-.907-4.1-.094-.488-.187-1.012-.275-1.547a9.329,9.329,0,0,0,2.632-.992,2.852,2.852,0,0,0,1.237-2.047,1.357,1.357,0,0,0-1.462-1.384c-1.144.129-2.124,1.954-2.34,2.96,0,.064-.082.842-.105,1.24-.056-.325-.108-.646-.158-.986-.073-.486-.137-1-.2-1.5l-.07-.79c-.032-.269-.026-.529-.041-.8v-1.2a8.644,8.644,0,0,0,2.615-.57,2.868,2.868,0,0,0,1.53-1.834,1.357,1.357,0,0,0-1.249-1.591c-1.147-.047-2.393,1.609-2.747,2.574,0,.029-.064.24-.123.491,0-.395.032-.787.061-1.188.088-1.135.211-2.284.331-3.44.023-.243.044-.483.07-.722a8.825,8.825,0,0,0,2.688-.585,2.851,2.851,0,0,0,1.533-1.837,1.36,1.36,0,0,0-1.249-1.591c-1.147-.044-2.4,1.612-2.747,2.574,0,.035-.076.293-.143.57.056-.629.1-1.255.132-1.878a23.888,23.888,0,0,0-.053-3.217,9.1,9.1,0,0,0,2.773-.585,2.837,2.837,0,0,0,1.53-1.837,1.357,1.357,0,0,0-1.249-1.591c-1.147-.044-2.393,1.612-2.747,2.574-.023.067-.246.983-.313,1.313v-.038a17.64,17.64,0,0,0-.614-3.092,24.529,24.529,0,0,0-.939-2.656c-.328-.807-.679-1.527-.994-2.162-.173-.342-.336-.649-.494-.939H106c.02,0-.094-1.384-.111-1.462-.2-1.006-1.17-2.831-2.34-2.963a1.357,1.357,0,0,0-1.462,1.384,2.877,2.877,0,0,0,1.234,2.047,9.564,9.564,0,0,0,2.586.983c.158.293.322.626.5.986.292.641.632,1.363.942,2.176.085.216.164.45.246.679-.216-.354-.524-.837-.559-.877-.641-.8-2.34-1.966-3.425-1.556a1.36,1.36,0,0,0-.673,1.907,2.84,2.84,0,0,0,2.047,1.249,9.342,9.342,0,0,0,2.761-.325c.176.506.342,1.03.486,1.585a17.217,17.217,0,0,1,.541,3.065v.181c-.076-.193-.585-1.226-.62-1.293-.55-.878-2.124-2.214-3.235-1.925a1.357,1.357,0,0,0-.877,1.822,2.881,2.881,0,0,0,1.89,1.462,9.63,9.63,0,0,0,2.846-.026,24.476,24.476,0,0,1-.02,3.1c-.053.766-.135,1.539-.225,2.314-.105-.249-.585-1.208-.614-1.272-.55-.878-2.124-2.214-3.235-1.925a1.357,1.357,0,0,0-.878,1.822,2.89,2.89,0,0,0,1.89,1.462,9.364,9.364,0,0,0,2.831-.026c-.044.351-.082.7-.126,1.056-.143,1.15-.292,2.3-.407,3.446-.038.395-.061.787-.088,1.17-.173-.369-.5-1.035-.532-1.088-.55-.878-2.121-2.214-3.217-1.925a1.36,1.36,0,0,0-.877,1.822,2.89,2.89,0,0,0,1.89,1.463,8.925,8.925,0,0,0,2.735-.015c-.038.652-.061,1.3-.053,1.939,0,.278,0,.559.026.822l.053.793c.059.538.108,1.038.173,1.541.032.252.067.488.1.734-.12-.4-.316-1.03-.339-1.085-.415-.939-1.755-2.51-2.907-2.393a1.36,1.36,0,0,0-1.144,1.667,2.832,2.832,0,0,0,1.647,1.734,9.319,9.319,0,0,0,2.788.4c.085.6.173,1.185.266,1.732.292,1.723.585,3.15.825,4.145s.386,1.562.386,1.562h0a.4.4,0,0,0,.772-.228S110.317,321.545,110.068,320.562Z" transform="translate(-82.538 -283.736)"/>
            <path id="Path_18989" data-name="Path 18989" d="M121.583,301.326a9.7,9.7,0,0,0,2.545-1.3,2.853,2.853,0,0,0,.994-2.176,1.36,1.36,0,0,0-1.626-1.205c-1.117.26-1.884,2.185-1.969,3.217C121.518,299.946,121.562,301.335,121.583,301.326Z" transform="translate(-96.29 -292.849)"/>
            <path id="Path_18990" data-name="Path 18990" d="M61.681,345.153c-.746-.679-1.8-1.667-3.01-2.907-.348-.357-.714-.74-1.082-1.138a9.438,9.438,0,0,0,1.65-2.281,2.842,2.842,0,0,0-.1-2.39,1.357,1.357,0,0,0-1.992-.339c-.877.737-.693,2.8-.307,3.75.023.061.4.749.585,1.094-.225-.24-.448-.48-.676-.737-.331-.363-.667-.76-1-1.141l-.5-.62c-.173-.208-.31-.427-.471-.641-.228-.319-.448-.661-.667-1a8.653,8.653,0,0,0,1.869-1.916,2.861,2.861,0,0,0,.263-2.375,1.357,1.357,0,0,0-1.919-.638c-.983.585-1.109,2.662-.877,3.659,0,.035.082.24.17.483-.2-.339-.409-.676-.605-1.027-.553-.994-1.085-2.021-1.623-3.051-.111-.214-.225-.427-.339-.641a9.065,9.065,0,0,0,1.928-1.966,2.821,2.821,0,0,0,.263-2.375,1.357,1.357,0,0,0-1.919-.638c-.983.585-1.109,2.662-.877,3.659a5.532,5.532,0,0,0,.2.556c-.292-.556-.608-1.1-.927-1.641a24.4,24.4,0,0,0-1.816-2.647,9.466,9.466,0,0,0,1.992-2.015,2.827,2.827,0,0,0,.263-2.375,1.357,1.357,0,0,0-1.919-.641c-.983.585-1.109,2.665-.877,3.662.018.07.339.956.462,1.269l-.02-.032a18.052,18.052,0,0,0-2.22-2.238,24.55,24.55,0,0,0-2.217-1.7c-.72-.491-1.41-.9-2.021-1.252-.333-.19-.643-.357-.93-.509h.02c.02,0-.842-1.1-.907-1.17-.722-.728-2.545-1.708-3.568-1.188a1.357,1.357,0,0,0-.471,1.966,2.839,2.839,0,0,0,2.162,1.03,9.277,9.277,0,0,0,2.7-.608c.292.164.614.342.959.55.6.366,1.281.787,1.986,1.293.19.135.386.293.585.43-.374-.176-.9-.407-.951-.424-.977-.313-3.048-.345-3.718.585a1.363,1.363,0,0,0,.491,1.963,2.848,2.848,0,0,0,2.39-.085,9.6,9.6,0,0,0,2.126-1.793c.424.325.851.67,1.278,1.053a17.39,17.39,0,0,1,2.141,2.258c.038.047.07.1.108.149-.173-.12-1.17-.7-1.234-.734-.936-.418-2.992-.679-3.759.178a1.36,1.36,0,0,0,.272,2,2.842,2.842,0,0,0,2.384.178,9.673,9.673,0,0,0,2.36-1.591,23.825,23.825,0,0,1,1.7,2.6c.38.667.737,1.357,1.088,2.047-.225-.149-1.144-.69-1.214-.722-.936-.418-2.992-.676-3.762.178a1.357,1.357,0,0,0,.275,2,2.842,2.842,0,0,0,2.384.181,9.374,9.374,0,0,0,2.34-1.582c.161.316.322.632.48.948.515,1.041,1.024,2.083,1.562,3.1.184.351.38.693.585,1.033-.348-.214-.986-.585-1.044-.614-.936-.418-2.992-.676-3.759.178a1.36,1.36,0,0,0,.272,2,2.842,2.842,0,0,0,2.384.181,8.932,8.932,0,0,0,2.276-1.521c.328.565.664,1.12,1.024,1.647.161.225.31.465.474.673l.483.629c.345.418.664.81.994,1.19l.488.559c-.319-.269-.831-.684-.877-.717-.877-.556-2.855-1.123-3.744-.395a1.36,1.36,0,0,0-.035,2.024,2.869,2.869,0,0,0,2.34.538,9.367,9.367,0,0,0,2.548-1.2c.4.453.8.877,1.17,1.3,1.193,1.278,2.238,2.3,2.978,3s1.17,1.094,1.17,1.094h0a.4.4,0,0,0,.518-.617S62.43,345.834,61.681,345.153Z" transform="translate(-35.247 -307.914)"/>
            <path id="Path_18991" data-name="Path 18991" d="M62.328,321.473a9.769,9.769,0,0,0,1.4-2.492,2.843,2.843,0,0,0-.371-2.363,1.363,1.363,0,0,0-2.021-.108c-.79.834-.366,2.864.126,3.762C61.515,320.35,62.314,321.488,62.328,321.473Z" transform="translate(-53.397 -306.642)"/>
          </g>
          <g id="Group_36892" data-name="Group 36892" transform="translate(28.602)" opacity="0.1">
            <path id="Path_18992" data-name="Path 18992" d="M139.422,247.092c-.2-.989-.477-2.407-.725-4.121-.073-.494-.143-1.018-.208-1.559a9.17,9.17,0,0,0,2.676-.878,2.821,2.821,0,0,0,1.325-1.989,1.357,1.357,0,0,0-1.413-1.462c-1.147.079-2.205,1.857-2.454,2.855-.015.064-.117.837-.161,1.234-.038-.328-.076-.652-.111-.992-.053-.491-.094-1.009-.135-1.512,0-.263-.026-.526-.038-.793s0-.526,0-.8c0-.392.029-.8.05-1.2a8.543,8.543,0,0,0,2.632-.453,2.9,2.9,0,0,0,1.612-1.755,1.363,1.363,0,0,0-1.17-1.647c-1.144-.094-2.463,1.5-2.855,2.451-.015.029-.076.24-.149.488.035-.395.067-.79.117-1.188.135-1.126.31-2.273.48-3.422.035-.24.067-.477.1-.717a9.051,9.051,0,0,0,2.711-.456,2.851,2.851,0,0,0,1.612-1.755,1.36,1.36,0,0,0-1.17-1.647c-1.147-.094-2.463,1.5-2.858,2.451,0,.032-.088.293-.17.562.085-.623.158-1.249.214-1.869a23.747,23.747,0,0,0,.091-3.217,9.291,9.291,0,0,0,2.793-.459,2.845,2.845,0,0,0,1.612-1.755,1.357,1.357,0,0,0-1.17-1.644c-1.147-.1-2.463,1.5-2.858,2.448-.029.067-.293.974-.371,1.3a.165.165,0,0,1,0-.038,17.844,17.844,0,0,0-.48-3.115,24.384,24.384,0,0,0-.819-2.7c-.292-.819-.611-1.553-.9-2.2-.158-.351-.31-.667-.453-.959h.023c.02,0-.035-1.389-.047-1.462-.158-1.012-1.056-2.878-2.191-3.06a1.357,1.357,0,0,0-1.536,1.316,2.844,2.844,0,0,0,1.141,2.1,9.186,9.186,0,0,0,2.542,1.094c.143.31.292.641.453,1.009.272.652.585,1.389.845,2.214.073.219.143.459.216.687-.2-.363-.486-.857-.521-.9-.605-.828-2.264-2.071-3.352-1.708a1.357,1.357,0,0,0-.758,1.875,2.821,2.821,0,0,0,1.983,1.337,9.7,9.7,0,0,0,2.773-.2c.152.512.292,1.041.415,1.6a17.464,17.464,0,0,1,.392,3.068v.184c-.07-.2-.526-1.249-.564-1.319-.512-.878-2.024-2.308-3.147-2.068a1.36,1.36,0,0,0-.959,1.784,2.848,2.848,0,0,0,1.825,1.544,9.579,9.579,0,0,0,2.843.1,23.767,23.767,0,0,1-.155,3.1c-.085.763-.2,1.533-.328,2.3-.1-.254-.518-1.231-.559-1.3-.509-.878-2.021-2.3-3.144-2.065a1.36,1.36,0,0,0-.959,1.781,2.846,2.846,0,0,0,1.825,1.547,9.168,9.168,0,0,0,2.828.1c-.058.348-.114.7-.173,1.05-.2,1.141-.395,2.287-.556,3.422-.059.395-.1.784-.14,1.17-.155-.377-.45-1.056-.483-1.111-.512-.878-2.024-2.308-3.147-2.065a1.36,1.36,0,0,0-.959,1.781,2.846,2.846,0,0,0,1.825,1.547,8.954,8.954,0,0,0,2.732.108c-.067.649-.117,1.3-.137,1.933,0,.275-.026.559,0,.822s0,.532.018.793c.035.541.061,1.044.105,1.547.02.254.044.494.067.74-.1-.4-.269-1.044-.292-1.1-.371-.956-1.65-2.586-2.8-2.518a1.363,1.363,0,0,0-1.217,1.618,2.81,2.81,0,0,0,1.568,1.8,9.446,9.446,0,0,0,2.767.526c.059.6.123,1.19.19,1.737.216,1.737.459,3.174.643,4.18s.316,1.577.316,1.577h0a.4.4,0,1,0,.781-.193S139.627,248.083,139.422,247.092Z" transform="translate(-133.031 -210.05)"/>
            <path id="Path_18993" data-name="Path 18993" d="M151.5,228.375a9.579,9.579,0,0,0,2.6-1.19,2.733,2.733,0,0,0,1.085-2.129,1.357,1.357,0,0,0-1.568-1.275c-1.129.211-1.98,2.1-2.109,3.118C151.494,226.985,151.477,228.381,151.5,228.375Z" transform="translate(-146.089 -219.752)"/>
          </g>
          <path id="Path_18994" data-name="Path 18994" d="M366.37,321.426c.038,9.164,7.33,16.564,7.33,16.564s7.231-7.462,7.19-16.625-7.315-16.564-7.315-16.564S366.329,312.262,366.37,321.426Z" transform="translate(-269.517 -277.086)" fill="#427729"/>
          <line id="Line_469" data-name="Line 469" x1="0.14" y1="33.19" transform="translate(104.042 27.714)" fill="#427729" stroke="#fff" stroke-width="0.91"/>
          <line id="Line_470" data-name="Line 470" x1="4.08" y1="3.53" transform="translate(100.012 35.98)" fill="#427729" stroke="#fff" stroke-width="0.91"/>
          <line id="Line_471" data-name="Line 471" y1="7.312" x2="5.002" transform="translate(104.18 37.683)" fill="#427729" stroke="#fff" stroke-width="0.91"/>
          <line id="Line_472" data-name="Line 472" x1="6.025" y1="5.329" transform="translate(98.104 42.828)" fill="#427729" stroke="#fff" stroke-width="0.91"/>
          <line id="Line_473" data-name="Line 473" y1="5.318" x2="5.914" transform="translate(104.212 47.098)" fill="#427729" stroke="#fff" stroke-width="0.91"/>
          <line id="Line_474" data-name="Line 474" x1="4.659" y1="3.656" transform="translate(99.567 52.436)" fill="#427729" stroke="#fff" stroke-width="0.91"/>
          <path id="Path_18995" data-name="Path 18995" d="M341.418,385.924c3.542,3.972,9.541,4.387,9.541,4.387s.266-6.017-3.276-9.977-9.553-4.364-9.553-4.364S337.876,381.975,341.418,385.924Z" transform="translate(-249.535 -327.439)" fill="#427729"/>
          <line id="Line_475" data-name="Line 475" x1="12.829" y1="14.341" transform="translate(88.607 48.52)" fill="#427729" stroke="#fff" stroke-width="0.91"/>
          <line id="Line_476" data-name="Line 476" x1="3.13" y2="0.038" transform="translate(90.037 53.615)" fill="#427729" stroke="#fff" stroke-width="0.91"/>
          <line id="Line_477" data-name="Line 477" x1="0.643" y1="5.095" transform="translate(94.671 50.865)" fill="#427729" stroke="#fff" stroke-width="0.91"/>
          <line id="Line_478" data-name="Line 478" x1="4.662" y2="0.006" transform="translate(91.845 57.353)" fill="#427729" stroke="#fff" stroke-width="0.91"/>
          <line id="Line_479" data-name="Line 479" y1="4.581" x2="0.521" transform="translate(98.183 54.586)" fill="#427729" stroke="#fff" stroke-width="0.91"/>
          <line id="Line_480" data-name="Line 480" x1="3.428" y2="0.205" transform="translate(96.177 60.758)" fill="#427729" stroke="#fff" stroke-width="0.91"/>
          <path id="Path_18996" data-name="Path 18996" d="M403.739,380.483c-3.685,3.829-3.639,9.851-3.639,9.851s6.02-.184,9.705-4.013,3.639-9.851,3.639-9.851S407.424,376.654,403.739,380.483Z" transform="translate(-293.381 -327.792)" fill="#427729"/>
          <line id="Line_481" data-name="Line 481" y1="13.864" x2="13.344" transform="translate(106.719 48.678)" fill="#427729" stroke="#fff" stroke-width="0.91"/>
          <line id="Line_482" data-name="Line 482" x1="0.272" y1="3.118" transform="translate(115.049 50.488)" fill="#427729" stroke="#fff" stroke-width="0.91"/>
          <line id="Line_483" data-name="Line 483" y1="1.021" x2="5.034" transform="translate(113.142 54.902)" fill="#427729" stroke="#fff" stroke-width="0.91"/>
          <line id="Line_484" data-name="Line 484" x1="0.354" y1="4.651" transform="translate(111.489 52.568)" fill="#427729" stroke="#fff" stroke-width="0.91"/>
          <line id="Line_485" data-name="Line 485" x2="4.607" y2="0.175" transform="translate(110.158 59.023)" fill="#427729" stroke="#fff" stroke-width="0.91"/>
          <line id="Line_486" data-name="Line 486" x1="0.462" y1="3.405" transform="translate(108.216 57.154)" fill="#427729" stroke="#fff" stroke-width="0.91"/>
          <g id="Group_36893" data-name="Group 36893" transform="translate(88.591 27.714)" opacity="0.1">
            <path id="Path_18997" data-name="Path 18997" d="M366.37,321.426c.038,9.164,7.33,16.564,7.33,16.564s7.231-7.462,7.19-16.625-7.315-16.564-7.315-16.564S366.329,312.262,366.37,321.426Z" transform="translate(-358.108 -304.8)"/>
            <line id="Line_487" data-name="Line 487" x1="0.14" y1="33.19" transform="translate(15.451)"/>
            <line id="Line_488" data-name="Line 488" x1="4.08" y1="3.53" transform="translate(11.42 8.266)"/>
            <line id="Line_489" data-name="Line 489" y1="7.312" x2="5.002" transform="translate(15.588 9.968)"/>
            <line id="Line_490" data-name="Line 490" x1="6.025" y1="5.329" transform="translate(9.513 15.113)"/>
            <line id="Line_491" data-name="Line 491" y1="5.318" x2="5.914" transform="translate(15.62 19.384)"/>
            <line id="Line_492" data-name="Line 492" x1="4.659" y1="3.656" transform="translate(10.976 24.722)"/>
            <path id="Path_18998" data-name="Path 18998" d="M341.418,385.924c3.542,3.972,9.541,4.387,9.541,4.387s.266-6.017-3.276-9.977-9.553-4.364-9.553-4.364S337.876,381.975,341.418,385.924Z" transform="translate(-338.126 -355.153)"/>
            <line id="Line_493" data-name="Line 493" x1="12.829" y1="14.341" transform="translate(0.016 20.805)"/>
            <line id="Line_494" data-name="Line 494" x1="3.13" y2="0.038" transform="translate(1.446 25.901)"/>
            <line id="Line_495" data-name="Line 495" x1="0.643" y1="5.095" transform="translate(6.079 23.151)"/>
            <line id="Line_496" data-name="Line 496" x1="4.662" y2="0.006" transform="translate(3.254 29.639)"/>
            <line id="Line_497" data-name="Line 497" y1="4.581" x2="0.521" transform="translate(9.592 26.872)"/>
            <line id="Line_498" data-name="Line 498" x1="3.428" y2="0.205" transform="translate(7.586 33.043)"/>
            <path id="Path_18999" data-name="Path 18999" d="M403.739,380.483c-3.685,3.829-3.639,9.851-3.639,9.851s6.02-.184,9.705-4.013,3.639-9.851,3.639-9.851S407.424,376.654,403.739,380.483Z" transform="translate(-381.973 -355.507)"/>
            <line id="Line_499" data-name="Line 499" y1="13.864" x2="13.344" transform="translate(18.127 20.963)"/>
            <line id="Line_500" data-name="Line 500" x1="0.272" y1="3.118" transform="translate(26.457 22.774)"/>
            <line id="Line_501" data-name="Line 501" y1="1.021" x2="5.034" transform="translate(24.55 27.188)"/>
            <line id="Line_502" data-name="Line 502" x1="0.354" y1="4.651" transform="translate(22.898 24.853)"/>
            <line id="Line_503" data-name="Line 503" x2="4.607" y2="0.175" transform="translate(21.567 31.309)"/>
            <line id="Line_504" data-name="Line 504" x1="0.462" y1="3.405" transform="translate(19.625 29.44)"/>
          </g>
        </g>
        <g id="freepik--Resume--inject-18" transform="translate(62.023 79.667)">
          <rect id="Rectangle_2507" data-name="Rectangle 2507" width="72.153" height="92.871" transform="translate(0)" fill="#fff" stroke="#263238" stroke-linecap="round" stroke-linejoin="round" stroke-width="0.987"/>
          <rect id="Rectangle_2508" data-name="Rectangle 2508" width="11.51" height="92.871" transform="translate(0)" fill="#427729"/>
          <rect id="Rectangle_2509" data-name="Rectangle 2509" width="22.127" height="2.603" transform="translate(33.994 13.721)" fill="#427729" stroke="#263238" stroke-linecap="round" stroke-linejoin="round" stroke-width="0.987"/>
          <rect id="Rectangle_2510" data-name="Rectangle 2510" width="60.655" height="2.603" transform="translate(9.079 35.901)" fill="#427729"/>
          <rect id="Rectangle_2511" data-name="Rectangle 2511" width="60.655" height="2.603" transform="translate(9.079 71.679)" fill="#427729"/>
          <rect id="Rectangle_2512" data-name="Rectangle 2512" width="13.946" height="2.603" transform="translate(33.994 18.205)" fill="#427729" stroke="#263238" stroke-linecap="round" stroke-linejoin="round" stroke-width="0.987"/>
          <rect id="Rectangle_2513" data-name="Rectangle 2513" width="13.946" height="2.603" transform="translate(33.994 22.595)" fill="#427729" stroke="#263238" stroke-linecap="round" stroke-linejoin="round" stroke-width="0.987"/>
          <rect id="Rectangle_2514" data-name="Rectangle 2514" width="1.436" height="1.436" transform="translate(30.639 41.371)" fill="#427729" stroke="#263238" stroke-linecap="round" stroke-linejoin="round" stroke-width="0.987"/>
          <rect id="Rectangle_2515" data-name="Rectangle 2515" width="1.436" height="1.436" transform="translate(30.639 59.842)" fill="#427729" stroke="#263238" stroke-linecap="round" stroke-linejoin="round" stroke-width="0.987"/>
          <rect id="Rectangle_2516" data-name="Rectangle 2516" width="1.436" height="1.436" transform="translate(50.906 41.371)" fill="#427729" stroke="#263238" stroke-linecap="round" stroke-linejoin="round" stroke-width="0.987"/>
          <rect id="Rectangle_2517" data-name="Rectangle 2517" width="1.436" height="1.436" transform="translate(50.906 59.842)" fill="#427729" stroke="#263238" stroke-linecap="round" stroke-linejoin="round" stroke-width="0.987"/>
          <rect id="Rectangle_2518" data-name="Rectangle 2518" width="72.153" height="4.724" transform="translate(0)" fill="#263238" stroke="#263238" stroke-linecap="round" stroke-linejoin="round" stroke-width="0.987"/>
          <path id="Path_19000" data-name="Path 19000" d="M256.12,248.649h-12.7a.409.409,0,0,1-.409-.41h0a.41.41,0,0,1,.41-.409h12.7a.41.41,0,0,1,.41.409h0A.41.41,0,0,1,256.12,248.649Z" transform="translate(-209.016 -206.281)" fill="#263238"/>
          <path id="Path_19001" data-name="Path 19001" d="M256.12,255.652h-12.7a.412.412,0,0,1-.409-.412h0a.41.41,0,0,1,.41-.41h12.7a.41.41,0,0,1,.41.409h0a.412.412,0,0,1-.41.412Z" transform="translate(-209.016 -211.233)" fill="#263238"/>
          <path id="Path_19002" data-name="Path 19002" d="M256.12,262.659h-12.7a.409.409,0,0,1-.409-.41h0a.41.41,0,0,1,.41-.409h12.7a.41.41,0,0,1,.41.409h0A.41.41,0,0,1,256.12,262.659Z" transform="translate(-209.016 -216.193)" fill="#263238"/>
          <path id="Path_19003" data-name="Path 19003" d="M256.12,269.659h-12.7a.409.409,0,0,1-.409-.409h0a.41.41,0,0,1,.41-.409h12.7a.41.41,0,0,1,.41.409h0A.41.41,0,0,1,256.12,269.659Z" transform="translate(-209.016 -221.145)" fill="#263238"/>
          <path id="Path_19004" data-name="Path 19004" d="M256.12,276.659h-12.7a.409.409,0,0,1-.409-.409h0a.41.41,0,0,1,.41-.41h12.7a.41.41,0,0,1,.41.409h0A.409.409,0,0,1,256.12,276.659Z" transform="translate(-209.016 -226.098)" fill="#263238"/>
          <path id="Path_19005" data-name="Path 19005" d="M321.8,248.649H309.1a.409.409,0,0,1-.409-.41h0a.409.409,0,0,1,.409-.409h12.7a.41.41,0,0,1,.41.409h0A.41.41,0,0,1,321.8,248.649Z" transform="translate(-255.485 -206.281)" fill="#263238"/>
          <path id="Path_19006" data-name="Path 19006" d="M321.8,255.652H309.1a.412.412,0,0,1-.409-.412h0a.409.409,0,0,1,.409-.41h12.7a.41.41,0,0,1,.41.41h0a.412.412,0,0,1-.41.412Z" transform="translate(-255.485 -211.233)" fill="#263238"/>
          <path id="Path_19007" data-name="Path 19007" d="M321.8,262.659H309.1a.409.409,0,0,1-.409-.41h0a.409.409,0,0,1,.409-.409h12.7a.41.41,0,0,1,.41.409h0A.41.41,0,0,1,321.8,262.659Z" transform="translate(-255.485 -216.193)" fill="#263238"/>
          <path id="Path_19008" data-name="Path 19008" d="M321.8,269.659H309.1a.409.409,0,0,1-.409-.409h0a.409.409,0,0,1,.409-.409h12.7a.41.41,0,0,1,.41.409h0A.41.41,0,0,1,321.8,269.659Z" transform="translate(-255.485 -221.145)" fill="#263238"/>
          <path id="Path_19009" data-name="Path 19009" d="M321.8,276.659H309.1a.409.409,0,0,1-.409-.409h0a.409.409,0,0,1,.409-.41h12.7a.41.41,0,0,1,.41.41h0A.41.41,0,0,1,321.8,276.659Z" transform="translate(-255.485 -226.098)" fill="#263238"/>
          <path id="Path_19010" data-name="Path 19010" d="M256.12,310.742h-12.7a.412.412,0,0,1-.409-.412h0a.41.41,0,0,1,.41-.409h12.7a.41.41,0,0,1,.41.409h0a.412.412,0,0,1-.41.412Z" transform="translate(-209.016 -250.21)" fill="#263238"/>
          <path id="Path_19011" data-name="Path 19011" d="M256.12,317.749h-12.7a.409.409,0,0,1-.409-.409h0a.41.41,0,0,1,.41-.409h12.7a.41.41,0,0,1,.41.409h0A.41.41,0,0,1,256.12,317.749Z" transform="translate(-209.016 -255.169)" fill="#263238"/>
          <path id="Path_19012" data-name="Path 19012" d="M256.12,324.749h-12.7a.409.409,0,0,1-.409-.41h0a.409.409,0,0,1,.409-.409h12.7a.41.41,0,0,1,.41.409h0A.41.41,0,0,1,256.12,324.749Z" transform="translate(-209.016 -260.122)" fill="#263238"/>
          <path id="Path_19013" data-name="Path 19013" d="M256.12,331.749h-12.7a.409.409,0,0,1-.409-.41h0a.41.41,0,0,1,.409-.409h12.7a.41.41,0,0,1,.41.409h0A.41.41,0,0,1,256.12,331.749Z" transform="translate(-209.016 -265.074)" fill="#263238"/>
          <path id="Path_19014" data-name="Path 19014" d="M256.12,338.759h-12.7a.409.409,0,0,1-.409-.409h0a.41.41,0,0,1,.41-.409h12.7a.409.409,0,0,1,.41.409h0A.41.41,0,0,1,256.12,338.759Z" transform="translate(-209.016 -270.034)" fill="#263238"/>
          <path id="Path_19015" data-name="Path 19015" d="M321.8,310.742H309.1a.412.412,0,0,1-.409-.412h0a.409.409,0,0,1,.409-.409h12.7a.41.41,0,0,1,.41.409h0a.412.412,0,0,1-.41.412Z" transform="translate(-255.485 -250.21)" fill="#263238"/>
          <path id="Path_19016" data-name="Path 19016" d="M321.8,317.749H309.1a.409.409,0,0,1-.409-.409h0a.409.409,0,0,1,.409-.409h12.7a.41.41,0,0,1,.41.409h0A.41.41,0,0,1,321.8,317.749Z" transform="translate(-255.485 -255.169)" fill="#263238"/>
          <path id="Path_19017" data-name="Path 19017" d="M321.8,324.749H309.1a.409.409,0,0,1-.409-.41h0a.409.409,0,0,1,.409-.409h12.7a.41.41,0,0,1,.41.409h0A.41.41,0,0,1,321.8,324.749Z" transform="translate(-255.485 -260.122)" fill="#263238"/>
          <path id="Path_19018" data-name="Path 19018" d="M321.8,331.749H309.1a.409.409,0,0,1-.409-.41h0a.409.409,0,0,1,.409-.409h12.7a.41.41,0,0,1,.41.409h0A.41.41,0,0,1,321.8,331.749Z" transform="translate(-255.485 -265.074)" fill="#263238"/>
          <path id="Path_19019" data-name="Path 19019" d="M321.8,338.759H309.1a.409.409,0,0,1-.409-.409h0a.409.409,0,0,1,.409-.409h12.7a.41.41,0,0,1,.41.409h0A.41.41,0,0,1,321.8,338.759Z" transform="translate(-255.485 -270.034)" fill="#263238"/>
          <path id="Path_19020" data-name="Path 19020" d="M321.8,370.719H309.1a.409.409,0,0,1-.409-.409h0a.409.409,0,0,1,.409-.409h12.7a.41.41,0,0,1,.41.409h0A.41.41,0,0,1,321.8,370.719Z" transform="translate(-255.485 -292.646)" fill="#263238"/>
          <path id="Path_19021" data-name="Path 19021" d="M321.8,377.719H309.1a.409.409,0,0,1-.409-.409h0a.409.409,0,0,1,.409-.41h12.7a.41.41,0,0,1,.41.41h0A.41.41,0,0,1,321.8,377.719Z" transform="translate(-255.485 -297.598)" fill="#263238"/>
          <path id="Path_19022" data-name="Path 19022" d="M321.8,384.729H309.1a.41.41,0,0,1-.409-.41h0a.409.409,0,0,1,.409-.409h12.7a.41.41,0,0,1,.41.409h0A.41.41,0,0,1,321.8,384.729Z" transform="translate(-255.485 -302.558)" fill="#263238"/>
          <rect id="Rectangle_2519" data-name="Rectangle 2519" width="13.519" height="0.819" rx="0.409" transform="translate(53.205 83.4)" fill="#263238"/>
          <path id="Path_19023" data-name="Path 19023" d="M321.8,398.729H309.1a.409.409,0,0,1-.409-.409h0a.409.409,0,0,1,.409-.409h12.7a.41.41,0,0,1,.41.409h0A.41.41,0,0,1,321.8,398.729Z" transform="translate(-255.485 -312.463)" fill="#263238"/>
          <path id="Path_19024" data-name="Path 19024" d="M270.1,291.25a1.638,1.638,0,0,0-1.615,1.366h-1.96a1.638,1.638,0,0,0-3.217,0h-1.96a1.638,1.638,0,0,0-3.218,0h-1.986a1.635,1.635,0,0,0-3.217,0h-1.963a1.635,1.635,0,0,0-3.217,0h-1.963a1.635,1.635,0,0,0-3.217,0H240.6a1.638,1.638,0,1,0,0,.547h1.963a1.635,1.635,0,0,0,3.217,0h1.963a1.635,1.635,0,0,0,3.217,0h1.963a1.635,1.635,0,0,0,3.217,0H258.1a1.638,1.638,0,0,0,3.217,0h1.96a1.638,1.638,0,0,0,3.217,0h1.96a1.638,1.638,0,1,0,1.615-1.913Z" transform="translate(-205.011 -237.001)" fill="#263238"/>
          <path id="Path_19025" data-name="Path 19025" d="M212,370.42a2.758,2.758,0,1,0,1.951.809A2.761,2.761,0,0,0,212,370.42Zm0,4.136a1.378,1.378,0,1,1,1.375-1.375A1.378,1.378,0,0,1,212,374.556Z" transform="translate(-185.124 -293.014)" fill="#427729" stroke="#263238" stroke-linecap="round" stroke-linejoin="round" stroke-width="0.987"/>
          <path id="Path_19026" data-name="Path 19026" d="M219.533,374.278l1.316.641a2.758,2.758,0,0,0-2.129-4.5V371.8a1.375,1.375,0,0,1,.81,2.474Z" transform="translate(-191.831 -293.014)" fill="#263238" stroke="#263238" stroke-linecap="round" stroke-linejoin="round" stroke-width="0.987"/>
          <path id="Path_19027" data-name="Path 19027" d="M215.271,397.823h-2.632a.655.655,0,0,1-.658-.655h0a.658.658,0,0,1,.658-.658h2.632a.658.658,0,0,1,.658.658h0a.655.655,0,0,1-.658.655Z" transform="translate(-187.062 -311.472)" fill="#427729" stroke="#263238" stroke-linecap="round" stroke-linejoin="round" stroke-width="0.987"/>
          <path id="Path_19028" data-name="Path 19028" d="M240.141,370.42a2.758,2.758,0,1,0,1.953.808,2.761,2.761,0,0,0-1.953-.808Zm0,4.136a1.375,1.375,0,1,1,.974-.4A1.378,1.378,0,0,1,240.141,374.556Z" transform="translate(-205.033 -293.014)" fill="#427729" stroke="#263238" stroke-linecap="round" stroke-linejoin="round" stroke-width="0.987"/>
          <path id="Path_19029" data-name="Path 19029" d="M249.6,372.892a2.767,2.767,0,0,0-2.732-2.472V371.8a1.378,1.378,0,0,1,1.363,1.378,1.468,1.468,0,0,1-.018.158Z" transform="translate(-211.747 -293.014)" fill="#263238" stroke="#263238" stroke-linecap="round" stroke-linejoin="round" stroke-width="0.987"/>
          <path id="Path_19030" data-name="Path 19030" d="M243.361,397.823h-2.632a.655.655,0,0,1-.658-.655h0a.658.658,0,0,1,.658-.658h2.632a.658.658,0,0,1,.658.658h0a.655.655,0,0,1-.658.655Z" transform="translate(-206.936 -311.472)" fill="#427729" stroke="#263238" stroke-linecap="round" stroke-linejoin="round" stroke-width="0.987"/>
          <path id="Path_19031" data-name="Path 19031" d="M268.441,370.42a2.758,2.758,0,1,0,1.953.808,2.761,2.761,0,0,0-1.953-.808Zm0,4.136a1.375,1.375,0,1,1,.974-.4A1.378,1.378,0,0,1,268.441,374.556Z" transform="translate(-225.055 -293.014)" fill="#427729" stroke="#263238" stroke-linecap="round" stroke-linejoin="round" stroke-width="0.987"/>
          <path id="Path_19032" data-name="Path 19032" d="M269.956,370.42V371.8a1.378,1.378,0,1,1-1.062,2.258l-1.094.854a2.758,2.758,0,1,0,2.156-4.5Z" transform="translate(-226.555 -293.014)" fill="#263238" stroke="#263238" stroke-linecap="round" stroke-linejoin="round" stroke-width="0.987"/>
          <path id="Path_19033" data-name="Path 19033" d="M271.661,397.823h-2.632a.655.655,0,0,1-.658-.655h0a.655.655,0,0,1,.658-.658h2.632a.658.658,0,0,1,.658.658h0a.655.655,0,0,1-.658.655Z" transform="translate(-226.958 -311.472)" fill="#427729" stroke="#263238" stroke-linecap="round" stroke-linejoin="round" stroke-width="0.987"/>
        </g>
        <g id="freepik--Character--inject-18" transform="translate(60.916 89.805)">
          <circle id="Ellipse_1127" data-name="Ellipse 1127" cx="12.355" cy="12.355" r="12.355" transform="translate(3.79)" fill="#fff"/>
          <path id="Path_19034" data-name="Path 19034" d="M182.9,416.064s1.784,2.682,1.539,3.744-1.813.734-2.556-.409-2.632-2.852-2.29-3.586S182.232,415.412,182.9,416.064Z" transform="translate(-163.01 -334.972)" fill="#fff" stroke="#263238" stroke-linecap="round" stroke-linejoin="round" stroke-width="1.023"/>
          <path id="Path_19035" data-name="Path 19035" d="M160.32,416.582s-2.156,3.2-1.811,4.074,1.462.614,2.317-.175a35.755,35.755,0,0,0,2.559-3.007S161.952,415.708,160.32,416.582Z" transform="translate(-148.098 -335.639)" fill="#fff" stroke="#263238" stroke-linecap="round" stroke-linejoin="round" stroke-width="1.023"/>
          <path id="Path_19036" data-name="Path 19036" d="M158.6,423.671a2.659,2.659,0,0,0,1.691-.331,13.5,13.5,0,0,0,2.7-2.741" transform="translate(-148.188 -338.654)" fill="none" stroke="#263238" stroke-linecap="round" stroke-linejoin="round" stroke-width="0.767"/>
          <path id="Path_19037" data-name="Path 19037" d="M181.74,418.65a12.852,12.852,0,0,0,1.983,2.749c1.05.995,1.565,1.278,2.255.711" transform="translate(-164.56 -337.274)" fill="none" stroke="#263238" stroke-linecap="round" stroke-linejoin="round" stroke-width="0.767"/>
          <path id="Path_19038" data-name="Path 19038" d="M150.075,280.65s-1.887,3.849-1.8,5.423.43,9.535.945,12.159,1.021,9.158,1.372,11.77a64.592,64.592,0,0,0,2.6,8.731s-.345,1.4-.088,1.837,2.981,1.155,3.065.892a6.938,6.938,0,0,0,.585-1.837c.07-.787-1.2-9.184-.684-11.021s.614-14.186.684-15.458-.02-3.51-.02-3.51a.8.8,0,0,0,.86-.26c.342-.439,1.477,11.451,1.822,14.25s-.43,3.586-.687,5.335-.857,7.432-.857,8.134-.772,2.972-.43,3.411,1.071.366,1.369.448a3.136,3.136,0,0,0,1.936-.228c.342-.088.632-1.354.632-1.354s2.755-7.786,3.27-11.024,1.372-9.246,1.2-12.92-1.2-11.115-1.2-11.115l-.257-2.188Z" transform="translate(-140.88 -239.639)" fill="#263238" stroke="#263238" stroke-linecap="round" stroke-linejoin="round" stroke-width="1.023"/>
          <path id="Path_19039" data-name="Path 19039" d="M150.305,295.87a4.992,4.992,0,0,0,1.246,3.568" transform="translate(-142.315 -250.407)" fill="none" stroke="#fff" stroke-linecap="round" stroke-linejoin="round" stroke-width="0.507"/>
          <path id="Path_19040" data-name="Path 19040" d="M150.6,306.37s.831,1.413,1.828,1.577" transform="translate(-142.528 -257.836)" fill="none" stroke="#fff" stroke-linecap="round" stroke-linejoin="round" stroke-width="0.507"/>
          <path id="Path_19041" data-name="Path 19041" d="M170.06,387.13a21.483,21.483,0,0,0-1.328,4.314c-.158,1.524,1.328.93,1.661,1.945s-1.992.933-1.577,1.185a6.68,6.68,0,0,0,1.658.424" transform="translate(-155.348 -314.974)" fill="none" stroke="#fff" stroke-linecap="round" stroke-linejoin="round" stroke-width="0.512"/>
          <path id="Path_19042" data-name="Path 19042" d="M181,362.457c.249-.085,3.071-.585,2.738-2.115s-1.992-1.609-1.755-3.384,2.82-5.672,2.82-6.771-1.825-5.2-1.992-7.737" transform="translate(-164.036 -283.363)" fill="none" stroke="#fff" stroke-linecap="round" stroke-linejoin="round" stroke-width="0.512"/>
          <path id="Path_19043" data-name="Path 19043" d="M189.606,295.31s-1.91,2.738-2.159,3.153,2.241-1.825,2.241-1.825" transform="translate(-168.586 -250.011)" fill="none" stroke="#fff" stroke-linecap="round" stroke-linejoin="round" stroke-width="0.507"/>
          <path id="Path_19044" data-name="Path 19044" d="M177.79,292s.208,2,.208,2.413v2.279" transform="translate(-161.765 -247.669)" fill="none" stroke="#fff" stroke-linecap="round" stroke-linejoin="round" stroke-width="0.507"/>
          <path id="Path_19045" data-name="Path 19045" d="M178.5,296.789s.9-.137,1.1-.828a8.559,8.559,0,0,0,.14-2.071" transform="translate(-162.268 -249.006)" fill="none" stroke="#fff" stroke-linecap="round" stroke-linejoin="round" stroke-width="0.507"/>
          <path id="Path_19046" data-name="Path 19046" d="M156.567,196.017a22.435,22.435,0,0,1-1.287-5.49c-.085-.857-1.03-.6-1.03-.6s-2.047,1.2-2.047,1.462.945,6.607,1.114,7.722a14.33,14.33,0,0,1,.173,1.974s-3.6-3.861-4.548-4.806a11.342,11.342,0,0,0-1.9-1.708,5.918,5.918,0,0,0-1.787-.693c-1.544-.515-3.174-1.717-5.063-1.632a11.232,11.232,0,0,0-3.6.86s-2.744,1.287-4.633,2.144a3.371,3.371,0,0,0-.623.363c-.31-.038-.956.129-1.694,1.781-1.027,2.317-5.66,8.409-6.435,10.553s.857,4.291,2.659,6a51.515,51.515,0,0,1,3.688,4.034l2.047-2.521a11.9,11.9,0,0,0,.292,1.664c.257.857,1.114,1.8,4.548,2.048s11.147.72,10.9-1.03c-.354-2.486-.173-10.468-.342-12.612a36.161,36.161,0,0,1,.085-4.124,10.341,10.341,0,0,0,1.711,1.793,48.7,48.7,0,0,0,5.323,3.446c1.287.521,3.089-.342,3.861-2.047S157.6,199.021,156.567,196.017ZM128.6,210.259c-.345-1.372-.515-1.887-.515-1.887s2.2-2.369,3.258-3.633c.143,3.39.234,7.1.135,7.643a12.727,12.727,0,0,0,.061,2.738C130.965,214.333,128.891,211.441,128.6,210.259Z" transform="translate(-123.004 -175.425)" fill="#427729" stroke="#263238" stroke-linecap="round" stroke-linejoin="round" stroke-width="1.013"/>
          <path id="Path_19047" data-name="Path 19047" d="M156.567,196.017a22.435,22.435,0,0,1-1.287-5.49c-.085-.857-1.03-.6-1.03-.6s-2.047,1.2-2.047,1.462.945,6.607,1.114,7.722a14.33,14.33,0,0,1,.173,1.974s-3.6-3.861-4.548-4.806a11.342,11.342,0,0,0-1.9-1.708,5.918,5.918,0,0,0-1.787-.693c-1.544-.515-3.174-1.717-5.063-1.632a11.232,11.232,0,0,0-3.6.86s-2.744,1.287-4.633,2.144a3.371,3.371,0,0,0-.623.363c-.31-.038-.956.129-1.694,1.781-1.027,2.317-5.66,8.409-6.435,10.553s.857,4.291,2.659,6a51.515,51.515,0,0,1,3.688,4.034l2.047-2.521a11.9,11.9,0,0,0,.292,1.664c.257.857,1.114,1.8,4.548,2.048s11.147.72,10.9-1.03c-.354-2.486-.173-10.468-.342-12.612a36.161,36.161,0,0,1,.085-4.124,10.341,10.341,0,0,0,1.711,1.793,48.7,48.7,0,0,0,5.323,3.446c1.287.521,3.089-.342,3.861-2.047S157.6,199.021,156.567,196.017ZM128.6,210.259c-.345-1.372-.515-1.887-.515-1.887s2.2-2.369,3.258-3.633c.143,3.39.234,7.1.135,7.643a12.727,12.727,0,0,0,.061,2.738C130.965,214.333,128.891,211.441,128.6,210.259Z" transform="translate(-123.004 -175.425)" opacity="0.1"/>
          <path id="Path_19048" data-name="Path 19048" d="M155.14,233.181a17.231,17.231,0,0,0,1.413-2.571" transform="translate(-145.74 -204.236)" fill="none" stroke="#263238" stroke-linecap="round" stroke-linejoin="round" stroke-width="0.76"/>
          <path id="Path_19049" data-name="Path 19049" d="M160.511,231.46a3.291,3.291,0,0,1-.831,1.079" transform="translate(-148.952 -204.837)" fill="none" stroke="#263238" stroke-linecap="round" stroke-linejoin="round" stroke-width="0.76"/>
          <path id="Path_19050" data-name="Path 19050" d="M227.19,228.15a3.744,3.744,0,0,0,1.17,2.632" transform="translate(-196.716 -202.495)" fill="none" stroke="#263238" stroke-linecap="round" stroke-linejoin="round" stroke-width="1.013"/>
          <path id="Path_19051" data-name="Path 19051" d="M228.314,232.88a3.776,3.776,0,0,0,.5,2.241" transform="translate(-197.5 -205.842)" fill="none" stroke="#263238" stroke-linecap="round" stroke-linejoin="round" stroke-width="1.013"/>
          <path id="Path_19052" data-name="Path 19052" d="M135.071,252.1a2.607,2.607,0,0,0-2.191-.339" transform="translate(-129.991 -219.154)" fill="none" stroke="#263238" stroke-linecap="round" stroke-linejoin="round" stroke-width="0.76"/>
          <path id="Path_19053" data-name="Path 19053" d="M129.93,249.851s.433-.693,2.074-.176" transform="translate(-127.904 -217.589)" fill="none" stroke="#263238" stroke-linecap="round" stroke-linejoin="round" stroke-width="0.76"/>
          <path id="Path_19054" data-name="Path 19054" d="M207.146,220.28a14.27,14.27,0,0,0-1.816,2.594l3.548-.951" transform="translate(-181.25 -196.927)" fill="none" stroke="#263238" stroke-linecap="round" stroke-linejoin="round" stroke-width="0.76"/>
          <path id="Path_19055" data-name="Path 19055" d="M176.169,207.422a1.95,1.95,0,0,0,2.159.5,2.563,2.563,0,0,0,1.755-2.989C179.845,203.935,174.841,204.766,176.169,207.422Z" transform="translate(-160.46 -185.78)" fill="#fff" stroke="#263238" stroke-linecap="round" stroke-linejoin="round" stroke-width="1.013"/>
          <path id="Path_19056" data-name="Path 19056" d="M169.033,194.007s-1,.667-1.135,1.269a9.148,9.148,0,0,0,.465,3.2c.266.667,1.138,2.2,1.138,2.2s3-1.734,3.217-1.869,2.34,1.068,2.805.877-1.135-4.273-1.869-5.139S170.1,193.2,169.033,194.007Z" transform="translate(-154.745 -178.048)" fill="#fff" stroke="#263238" stroke-linecap="round" stroke-linejoin="round" stroke-width="1.013"/>
          <path id="Path_19057" data-name="Path 19057" d="M170,187.46s.067,1.068.2,2.671a5.151,5.151,0,0,0,1.553,3.6c.877.734,2.135,1.135,2.469.734a5.585,5.585,0,0,0,.585-3.071c-.149-1-.333-3.136-.333-3.136Z" transform="translate(-156.254 -173.707)" fill="#fff" stroke="#263238" stroke-linecap="round" stroke-linejoin="round" stroke-width="1.013"/>
          <path id="Path_19058" data-name="Path 19058" d="M174.68,190.148c-.1-.933-.19-1.887-.19-1.887l-4.49-.8s.067,1.068.2,2.671a6.865,6.865,0,0,0,.506,2.156Z" transform="translate(-156.254 -173.707)" fill="#427729" opacity="0.5"/>
          <path id="Path_19059" data-name="Path 19059" d="M162.017,180.821s-1-1-1.2-.135.6,2.205,1.737,1.869v-.8Z" transform="translate(-149.733 -168.665)" fill="#fff" stroke="#263238" stroke-linecap="round" stroke-linejoin="round" stroke-width="1.013"/>
          <path id="Path_19060" data-name="Path 19060" d="M162.017,180.821s-1-1-1.2-.135.6,2.205,1.737,1.869v-.8Z" transform="translate(-149.733 -168.665)" fill="#427729" stroke="#263238" stroke-linecap="round" stroke-linejoin="round" stroke-width="1.013" opacity="0.5"/>
          <path id="Path_19061" data-name="Path 19061" d="M160.587,160.436s1.67,4.472,3.138,5.341,4.4,1.667,5.206-1.462-1.334-7.678-2.068-9.015-3.472-1.734-5.206-.4S159.528,157.5,160.587,160.436Z" transform="translate(-149.181 -150.087)" fill="#fff" stroke="#263238" stroke-linecap="round" stroke-linejoin="round" stroke-width="1.013"/>
          <path id="Path_19062" data-name="Path 19062" d="M162.449,156.638a5.718,5.718,0,0,1,2.258-.526l1.664-1.4a4.132,4.132,0,0,0-4.695.173c-1.737,1.337-2.138,2.6-1.071,5.543,0,0,1.67,4.472,3.138,5.341a6.005,6.005,0,0,0,1.673.67,23.552,23.552,0,0,1-2.141-3.1c-.527-1.129-.752-3.46-1.43-4.814S161.4,157.165,162.449,156.638Z" transform="translate(-149.191 -150.077)" fill="#427729" opacity="0.5"/>
          <path id="Path_19063" data-name="Path 19063" d="M179.646,171.25s.667,1.2.4,1.462a.693.693,0,0,1-.667.135" transform="translate(-162.89 -162.238)" fill="none" stroke="#263238" stroke-linecap="round" stroke-linejoin="round" stroke-width="1.013"/>
          <path id="Path_19064" data-name="Path 19064" d="M169.79,168.631a1.052,1.052,0,0,1,1.135-.8" transform="translate(-156.105 -159.819)" fill="none" stroke="#263238" stroke-linecap="round" stroke-linejoin="round" stroke-width="2.027"/>
          <path id="Path_19065" data-name="Path 19065" d="M171.85,172.341a.714.714,0,0,0,1-.4" transform="translate(-157.563 -162.726)" fill="none" stroke="#263238" stroke-linecap="round" stroke-linejoin="round" stroke-width="1.013"/>
          <path id="Path_19066" data-name="Path 19066" d="M182.8,170.511a.717.717,0,0,0,1-.4" transform="translate(-165.31 -161.432)" fill="none" stroke="#263238" stroke-linecap="round" stroke-linejoin="round" stroke-width="1.013"/>
          <path id="Path_19067" data-name="Path 19067" d="M180.72,165.515a1,1,0,0,1,1.369-.056" transform="translate(-163.838 -157.969)" fill="none" stroke="#263238" stroke-linecap="round" stroke-linejoin="round" stroke-width="2.027"/>
          <path id="Path_19068" data-name="Path 19068" d="M169.092,157.112c-.778-.339-2.632-1.088-3.253-.775-.8.4-2.872,1.8-2.872,2.872a8.124,8.124,0,0,1-1.334-2.472c0-.67.532-.878.067-1.735s-1.138-.936-.936-1.936c.184-.927,2.03-1.91,2.925-2.048a3.019,3.019,0,0,0,2,.714,2.162,2.162,0,1,0,0-4.2,3.24,3.24,0,0,0-.968.143c-1.4-.1-1.664.933-2.632,1.5a5.059,5.059,0,0,0-1.577,2.241h.041c-.708,1.035-.7,2.284.064,4.387,0,0,1.67,4.472,3.139,5.341s4.405,1.667,5.206-1.462A7.245,7.245,0,0,0,169.092,157.112Z" transform="translate(-149.204 -145.456)" fill="#263238" stroke="#263238" stroke-linecap="round" stroke-linejoin="round" stroke-width="1.013"/>
          <path id="Path_19069" data-name="Path 19069" d="M180.385,180.06s-1,1.4-2.135.468" transform="translate(-162.091 -168.471)" fill="none" stroke="#fff" stroke-linecap="round" stroke-linejoin="round" stroke-width="1.013"/>
          <path id="Path_19070" data-name="Path 19070" d="M147.494,276.84a3.94,3.94,0,0,1,1.03.942,17.159,17.159,0,0,0,1.117,1.375s.942.085.857.515-.257.684-.687.684-1.372-.857-1.372-.857l-1.372,2.144a5.487,5.487,0,0,1-1.717-2.144Z" transform="translate(-138.814 -236.943)" fill="#fff" stroke="#263238" stroke-linecap="round" stroke-linejoin="round" stroke-width="1.013"/>
          <circle id="Ellipse_1128" data-name="Ellipse 1128" cx="12.355" cy="12.355" r="12.355" transform="translate(3.79)" fill="none" stroke="#263238" stroke-linecap="round" stroke-linejoin="round" stroke-width="2.027"/>
          <path id="Path_19071" data-name="Path 19071" d="M212.81,174.456s-.86-.088-1.03.427a6.161,6.161,0,0,0-.43,1.375c0,.345.085.6.515.684s.687-.515.687-.515Z" transform="translate(-185.509 -164.503)" fill="#fff" stroke="#263238" stroke-linecap="round" stroke-linejoin="round" stroke-width="1.013"/>
          <path id="Path_19072" data-name="Path 19072" d="M215.887,172.181s-.427,2.317-.427,3a2.6,2.6,0,0,0,.515,1.462,1.068,1.068,0,0,0,.6.342l.43-.515a1.256,1.256,0,0,0,.17,1.544,1.294,1.294,0,0,0,1.8.515c.6-.257.772-.6.515-1.544s-.427-2.489-.6-3.431-.772-1.287-1.114-1.287S216.5,171.923,215.887,172.181Z" transform="translate(-188.417 -162.829)" fill="#fff" stroke="#263238" stroke-linecap="round" stroke-linejoin="round" stroke-width="1.013"/>
          <path id="Path_19073" data-name="Path 19073" d="M215.812,182.4s-.152-.532.494-.608,1.714-.19,1.714-.19" transform="translate(-188.655 -169.561)" fill="none" stroke="#263238" stroke-linecap="round" stroke-linejoin="round" stroke-width="0.507"/>
          <path id="Path_19074" data-name="Path 19074" d="M216.11,178.883a8.63,8.63,0,0,1,2.018-.307" transform="translate(-188.877 -167.414)" fill="none" stroke="#263238" stroke-linecap="round" stroke-linejoin="round" stroke-width="0.507"/>
          <path id="Path_19075" data-name="Path 19075" d="M216.5,175.632a9.872,9.872,0,0,1,1.676-.152" transform="translate(-189.153 -165.231)" fill="none" stroke="#263238" stroke-linecap="round" stroke-linejoin="round" stroke-width="0.507"/>
          <path id="Path_19076" data-name="Path 19076" d="M218.19,185.76a.992.992,0,0,0,.877.231" transform="translate(-190.348 -172.504)" fill="none" stroke="#263238" stroke-linecap="round" stroke-linejoin="round" stroke-width="0.507"/>
        </g>
      </g>
    </g>
  </g>
</svg>
