<svg xmlns="http://www.w3.org/2000/svg" xmlns:xlink="http://www.w3.org/1999/xlink" width="360" height="369" viewBox="0 0 360 369">
  <defs>
    <clipPath id="clip-path">
      <rect id="Rectangle_2425" data-name="Rectangle 2425" width="360" height="369" transform="translate(0 0)" fill="#fff"/>
    </clipPath>
    <clipPath id="clip-path-2">
      <circle id="Ellipse_1121" data-name="Ellipse 1121" cx="236" cy="236" r="236" transform="translate(-56 -111)" fill="#f3f7f9"/>
    </clipPath>
  </defs>
  <g id="slide1" clip-path="url(#clip-path)">
    <circle id="Ellipse_1117" data-name="Ellipse 1117" cx="236" cy="236" r="236" transform="translate(-56 -111)" fill="#f3f7f9"/>
    <rect id="Rectangle_2424" data-name="Rectangle 2424" width="326" height="73" rx="36.5" transform="translate(83.176 179.39) rotate(-30)" fill="#fff"/>
    <rect id="Rectangle_2423" data-name="Rectangle 2423" width="440" height="99" rx="49.5" transform="translate(33.725 120.632) rotate(-30)" fill="#eff2f6"/>
    <g id="Mask_Group_70" data-name="Mask Group 70" clip-path="url(#clip-path-2)">
      <g id="Resume-bro" transform="translate(-15.247 11.466)">
        <g id="freepik--Shadow--inject-18" transform="translate(75.975 331.62)">
          <ellipse id="Ellipse_1118" data-name="Ellipse 1118" cx="131.587" cy="9.059" rx="131.587" ry="9.059" fill="#263238"/>
        </g>
        <g id="freepik--Plants--inject-18" transform="translate(35.247 173.706)">
          <path id="Path_18275" data-name="Path 18275" d="M150.064,308.777c-.546-2.635-1.271-6.416-1.933-10.984-.195-1.317-.382-2.713-.553-4.155.592-.109,5.3-1.029,7.133-2.339,1.668-1.177,3.461-3.118,3.532-5.3a3.617,3.617,0,0,0-3.765-3.9c-3.056.211-5.878,4.95-6.541,7.609-.039.171-.312,2.23-.429,3.29-.1-.873-.2-1.738-.3-2.643-.14-1.31-.249-2.69-.359-4.03,0-.7-.07-1.4-.1-2.113s0-1.4,0-2.12c0-1.045.078-2.128.133-3.2,1.341-.062,5.262-.32,7.016-1.208s3.9-2.58,4.3-4.678a3.633,3.633,0,0,0-3.118-4.389c-3.048-.25-6.564,4.007-7.609,6.533-.039.078-.2.639-.4,1.3.094-1.052.179-2.1.312-3.165.359-3,.826-6.057,1.279-9.121.094-.639.179-1.271.273-1.91,1.123-.055,5.379-.288,7.227-1.216s3.9-2.588,4.3-4.678a3.625,3.625,0,0,0-3.118-4.389c-3.056-.249-6.564,4.007-7.617,6.533,0,.086-.234.78-.452,1.5.226-1.661.421-3.329.569-4.982a63.3,63.3,0,0,0,.242-8.576c.4,0,5.387-.195,7.445-1.224,1.832-.912,3.9-2.581,4.3-4.678a3.617,3.617,0,0,0-3.118-4.381c-3.056-.257-6.564,4.007-7.617,6.525-.078.179-.78,2.6-.99,3.461a.443.443,0,0,1,0-.1,47.558,47.558,0,0,0-1.279-8.3,64.982,64.982,0,0,0-2.183-7.188c-.78-2.183-1.629-4.14-2.393-5.863-.421-.935-.826-1.777-1.208-2.557h.062c.055,0-.094-3.7-.125-3.9-.421-2.7-2.814-7.671-5.839-8.155a3.617,3.617,0,0,0-4.093,3.508c-.125,2.159,1.489,4.272,3.04,5.6s5.746,2.619,6.775,2.916c.382.826.78,1.707,1.208,2.69.725,1.738,1.559,3.7,2.253,5.9.195.585.382,1.224.577,1.832-.538-.967-1.294-2.284-1.388-2.4-1.614-2.206-6.034-5.52-8.934-4.553a3.617,3.617,0,0,0-2.019,5c.881,1.972,3.29,3.118,5.286,3.563s6.439-.343,7.391-.53c.405,1.364.78,2.775,1.107,4.272a46.551,46.551,0,0,1,1.045,8.178v.491c-.187-.53-1.4-3.329-1.5-3.516-1.364-2.339-5.395-6.151-8.388-5.512a3.625,3.625,0,0,0-2.557,4.755c.663,2.05,2.939,3.446,4.865,4.116,2.222.78,7.391.281,7.578.265a63.355,63.355,0,0,1-.413,8.264c-.226,2.035-.538,4.085-.873,6.135-.257-.678-1.38-3.282-1.489-3.461-1.356-2.339-5.387-6.143-8.381-5.5a3.625,3.625,0,0,0-2.557,4.748c.663,2.058,2.931,3.446,4.865,4.124,2.167.78,7.118.3,7.539.265-.156.928-.3,1.863-.46,2.8-.522,3.04-1.052,6.1-1.481,9.121-.156,1.052-.265,2.089-.374,3.118-.413-1.006-1.2-2.814-1.286-2.962-1.364-2.339-5.395-6.151-8.388-5.5a3.625,3.625,0,0,0-2.557,4.748c.663,2.058,2.931,3.446,4.865,4.124s6.1.382,7.281.288c-.179,1.731-.312,3.454-.366,5.153,0,.733-.07,1.489,0,2.191s0,1.419.047,2.113c.094,1.442.164,2.783.281,4.124.055.678.117,1.317.179,1.972-.265-1.076-.717-2.783-.78-2.931-.99-2.549-4.4-6.892-7.461-6.712a3.633,3.633,0,0,0-3.243,4.311c.343,2.128,2.339,3.851,4.179,4.81,2,1.052,6.79,1.364,7.375,1.4.156,1.606.327,3.173.507,4.631.577,4.631,1.224,8.459,1.715,11.14s.842,4.2.842,4.2h0a1.076,1.076,0,1,0,2.081-.515S150.61,311.42,150.064,308.777Z" transform="translate(-56.8 -210.05)" fill="#427729"/>
          <path id="Path_18276" data-name="Path 18276" d="M151.513,236.055s5.145-1.559,6.931-3.173c1.559-1.356,3.118-3.516,2.892-5.675a3.617,3.617,0,0,0-4.179-3.4c-3.009.561-5.278,5.6-5.621,8.31C151.505,232.352,151.458,236.07,151.513,236.055Z" transform="translate(-60.868 -213.072)" fill="#427729"/>
          <path id="Path_18277" data-name="Path 18277" d="M135.1,321.373a1.076,1.076,0,1,1-1.45,1.559h0s-1.138-1.091-3.017-3.048-4.545-4.8-7.578-8.342c-.959-1.123-1.957-2.339-2.978-3.586-.507.288-4.678,2.674-6.923,2.892-2.035.195-4.678-.117-6.143-1.707a3.625,3.625,0,0,1,.327-5.379c2.456-1.84,7.695-.094,9.924,1.489.133.094,1.45,1.263,2.261,2.011-.413-.515-.78-1.006-1.24-1.559-.834-1.052-1.637-2.128-2.5-3.29l-1.208-1.731c-.421-.569-.78-1.224-1.185-1.84-.9-1.45-1.731-2.962-2.534-4.506-.928.725-4.249,3.266-6.237,3.773s-4.678.592-6.33-.78a3.625,3.625,0,0,1-.491-5.371c2.152-2.183,7.593-1.255,10.033,0,.156.078,1.809,1.154,2.705,1.762-.476-.936-.959-1.863-1.411-2.822-1.31-2.76-2.549-5.6-3.8-8.427-.382-.865-.78-1.723-1.162-2.588-.327.265-4.21,3.376-6.432,3.937-1.98.507-4.678.593-6.33-.78a3.625,3.625,0,0,1-.491-5.371c2.144-2.183,7.585-1.255,10.033,0,.187.094,2.565,1.645,3.118,2.066-.858-1.894-1.723-3.773-2.658-5.6a64.414,64.414,0,0,0-4.21-7.125c-.156.125-4.186,3.391-6.471,3.968-1.98.5-4.678.593-6.33-.78a3.617,3.617,0,0,1-.483-5.371c2.144-2.183,7.585-1.255,10.026,0,.195.094,2.752,1.762,3.2,2.1-.094-.133-.172-.273-.265-.405a47.2,47.2,0,0,0-5.457-6.237c-1.091-1.076-2.191-2.043-3.282-2.962-.694.686-3.9,3.781-5.87,4.529s-4.545,1.1-6.377-.062a3.617,3.617,0,0,1-1.076-5.278c1.894-2.409,7.406-2.089,9.971-1.138.14.055,1.5.733,2.479,1.24-.5-.405-1.006-.834-1.489-1.208-1.824-1.434-3.578-2.635-5.137-3.68-.9-.585-1.715-1.1-2.487-1.559-1.029.32-5.184,1.559-7.258,1.3s-4.545-1.123-5.636-2.994a3.633,3.633,0,0,1,1.481-5.184c2.791-1.263,7.531,1.559,9.355,3.586.156.179,2.339,3.2,2.276,3.212h-.062c.78.437,1.559.92,2.417,1.466,1.559,1.013,3.376,2.175,5.239,3.571a66.679,66.679,0,0,1,5.785,4.787,48.572,48.572,0,0,1,5.644,6.237.32.32,0,0,0,.055.086c-.3-.842-1.045-3.243-1.084-3.43-.515-2.682.07-8.178,2.752-9.651a3.625,3.625,0,0,1,5.036,1.926c.842,2,0,4.529-.982,6.3-1.154,2-5.215,4.9-5.535,5.13a65.126,65.126,0,0,1,4.514,7.266c.78,1.466,1.559,2.962,2.276,4.475-.234-.741-.437-1.4-.452-1.5-.515-2.682.062-8.178,2.752-9.651a3.625,3.625,0,0,1,5.036,1.933c.842,1.988,0,4.522-.982,6.291s-4.451,4.342-5.364,5c.273.585.554,1.162.826,1.746,1.318,2.8,2.612,5.605,3.968,8.318.476.951.982,1.871,1.481,2.8-.2-.655-.366-1.208-.39-1.3-.515-2.682.07-8.17,2.752-9.644a3.625,3.625,0,0,1,5.036,1.926c.842,1.988.039,4.529-.982,6.3s-4.116,4.085-5.2,4.88c.546.928,1.084,1.863,1.653,2.744.405.592.78,1.193,1.185,1.762l1.247,1.707c.834,1.052,1.684,2.152,2.526,3.157.577.709,1.138,1.372,1.707,2.042-.491-.943-1.4-2.814-1.458-2.978-.92-2.58-1.177-8.092,1.255-9.955a3.625,3.625,0,0,1,5.27,1.138c1.13,1.84.717,4.475,0,6.377-.78,2.1-4.233,5.457-4.678,5.878.943,1.107,1.863,2.167,2.76,3.165,3.072,3.438,5.761,6.19,7.671,8.092S135.1,321.373,135.1,321.373ZM88.063,256.722s3.422-4.155,4.03-6.471c.515-1.972.624-4.678-.709-6.33a3.625,3.625,0,0,0-5.371-.53c-2.2,2.128-1.31,7.578-.1,10.033C85.981,253.635,88.024,256.761,88.063,256.722Z" transform="translate(-41.737 -217.189)" fill="#427729"/>
          <path id="Path_18278" data-name="Path 18278" d="M135.1,321.373a1.076,1.076,0,1,1-1.45,1.559h0s-1.138-1.091-3.017-3.048-4.545-4.8-7.578-8.342c-.959-1.123-1.957-2.339-2.978-3.586-.507.288-4.678,2.674-6.923,2.892-2.035.195-4.678-.117-6.143-1.707a3.625,3.625,0,0,1,.327-5.379c2.456-1.84,7.695-.094,9.924,1.489.133.094,1.45,1.263,2.261,2.011-.413-.515-.78-1.006-1.24-1.559-.834-1.052-1.637-2.128-2.5-3.29l-1.208-1.731c-.421-.569-.78-1.224-1.185-1.84-.9-1.45-1.731-2.962-2.534-4.506-.928.725-4.249,3.266-6.237,3.773s-4.678.592-6.33-.78a3.625,3.625,0,0,1-.491-5.371c2.152-2.183,7.593-1.255,10.033,0,.156.078,1.809,1.154,2.705,1.762-.476-.936-.959-1.863-1.411-2.822-1.31-2.76-2.549-5.6-3.8-8.427-.382-.865-.78-1.723-1.162-2.588-.327.265-4.21,3.376-6.432,3.937-1.98.507-4.678.593-6.33-.78a3.625,3.625,0,0,1-.491-5.371c2.144-2.183,7.585-1.255,10.033,0,.187.094,2.565,1.645,3.118,2.066-.858-1.894-1.723-3.773-2.658-5.6a64.414,64.414,0,0,0-4.21-7.125c-.156.125-4.186,3.391-6.471,3.968-1.98.5-4.678.593-6.33-.78a3.617,3.617,0,0,1-.483-5.371c2.144-2.183,7.585-1.255,10.026,0,.195.094,2.752,1.762,3.2,2.1-.094-.133-.172-.273-.265-.405a47.2,47.2,0,0,0-5.457-6.237c-1.091-1.076-2.191-2.043-3.282-2.962-.694.686-3.9,3.781-5.87,4.529s-4.545,1.1-6.377-.062a3.617,3.617,0,0,1-1.076-5.278c1.894-2.409,7.406-2.089,9.971-1.138.14.055,1.5.733,2.479,1.24-.5-.405-1.006-.834-1.489-1.208-1.824-1.434-3.578-2.635-5.137-3.68-.9-.585-1.715-1.1-2.487-1.559-1.029.32-5.184,1.559-7.258,1.3s-4.545-1.123-5.636-2.994a3.633,3.633,0,0,1,1.481-5.184c2.791-1.263,7.531,1.559,9.355,3.586.156.179,2.339,3.2,2.276,3.212h-.062c.78.437,1.559.92,2.417,1.466,1.559,1.013,3.376,2.175,5.239,3.571a66.679,66.679,0,0,1,5.785,4.787,48.572,48.572,0,0,1,5.644,6.237.32.32,0,0,0,.055.086c-.3-.842-1.045-3.243-1.084-3.43-.515-2.682.07-8.178,2.752-9.651a3.625,3.625,0,0,1,5.036,1.926c.842,2,0,4.529-.982,6.3-1.154,2-5.215,4.9-5.535,5.13a65.126,65.126,0,0,1,4.514,7.266c.78,1.466,1.559,2.962,2.276,4.475-.234-.741-.437-1.4-.452-1.5-.515-2.682.062-8.178,2.752-9.651a3.625,3.625,0,0,1,5.036,1.933c.842,1.988,0,4.522-.982,6.291s-4.451,4.342-5.364,5c.273.585.554,1.162.826,1.746,1.318,2.8,2.612,5.605,3.968,8.318.476.951.982,1.871,1.481,2.8-.2-.655-.366-1.208-.39-1.3-.515-2.682.07-8.17,2.752-9.644a3.625,3.625,0,0,1,5.036,1.926c.842,1.988.039,4.529-.982,6.3s-4.116,4.085-5.2,4.88c.546.928,1.084,1.863,1.653,2.744.405.592.78,1.193,1.185,1.762l1.247,1.707c.834,1.052,1.684,2.152,2.526,3.157.577.709,1.138,1.372,1.707,2.042-.491-.943-1.4-2.814-1.458-2.978-.92-2.58-1.177-8.092,1.255-9.955a3.625,3.625,0,0,1,5.27,1.138c1.13,1.84.717,4.475,0,6.377-.78,2.1-4.233,5.457-4.678,5.878.943,1.107,1.863,2.167,2.76,3.165,3.072,3.438,5.761,6.19,7.671,8.092S135.1,321.373,135.1,321.373ZM88.063,256.722s3.422-4.155,4.03-6.471c.515-1.972.624-4.678-.709-6.33a3.625,3.625,0,0,0-5.371-.53c-2.2,2.128-1.31,7.578-.1,10.033C85.981,253.635,88.024,256.761,88.063,256.722Z" transform="translate(-41.737 -217.189)" opacity="0.1"/>
          <path id="Path_18279" data-name="Path 18279" d="M123.357,381.889c-.663-2.612-1.559-6.354-2.417-10.914-.249-1.3-.5-2.7-.733-4.124.577-.14,5.247-1.263,7.016-2.643,1.614-1.255,3.321-3.3,3.3-5.457a3.617,3.617,0,0,0-3.9-3.687c-3.048.343-5.66,5.208-6.237,7.889,0,.171-.218,2.245-.281,3.305-.148-.865-.288-1.723-.421-2.627-.195-1.294-.366-2.674-.538-4.007l-.187-2.1c-.086-.717-.07-1.411-.109-2.12v-3.2c1.333-.125,5.239-.554,6.97-1.52s3.781-2.752,4.077-4.888a3.617,3.617,0,0,0-3.329-4.241c-3.056-.125-6.377,4.288-7.32,6.86,0,.078-.172.639-.327,1.31,0-1.052.086-2.1.164-3.165.234-3.025.561-6.089.881-9.168.062-.647.117-1.286.187-1.926,1.123-.1,5.356-.53,7.164-1.559s3.781-2.752,4.085-4.9a3.625,3.625,0,0,0-3.329-4.241c-3.056-.117-6.385,4.3-7.32,6.86,0,.094-.2.78-.382,1.52.148-1.676.273-3.344.351-5a63.666,63.666,0,0,0-.14-8.576c.4,0,5.371-.437,7.391-1.559,1.777-.99,3.781-2.752,4.077-4.9a3.617,3.617,0,0,0-3.329-4.241c-3.056-.117-6.377,4.3-7.32,6.86-.062.179-.655,2.619-.834,3.5v-.1a47.016,47.016,0,0,0-1.637-8.24,65.367,65.367,0,0,0-2.5-7.079c-.873-2.152-1.809-4.07-2.651-5.761-.46-.912-.9-1.731-1.318-2.5h.062c.055,0-.249-3.687-.3-3.9-.538-2.682-3.118-7.546-6.237-7.9a3.617,3.617,0,0,0-3.9,3.687c0,2.159,1.676,4.2,3.29,5.457s5.847,2.339,6.892,2.619c.421.78.858,1.668,1.325,2.627.78,1.707,1.684,3.633,2.51,5.8.226.577.437,1.2.655,1.809-.577-.943-1.4-2.23-1.489-2.339-1.707-2.128-6.237-5.239-9.129-4.147a3.625,3.625,0,0,0-1.793,5.083c.967,1.933,3.422,2.955,5.457,3.329s6.416-.631,7.359-.865c.468,1.349.912,2.744,1.294,4.225a45.888,45.888,0,0,1,1.442,8.17v.483c-.2-.515-1.559-3.267-1.653-3.446-1.466-2.339-5.66-5.9-8.622-5.13a3.617,3.617,0,0,0-2.339,4.857c.78,2.027,3.118,3.321,5.036,3.9,2.253.678,7.391-.047,7.585-.07a65.224,65.224,0,0,1-.055,8.271c-.14,2.042-.359,4.1-.6,6.167-.281-.663-1.559-3.22-1.637-3.391-1.466-2.339-5.66-5.9-8.622-5.13a3.617,3.617,0,0,0-2.339,4.857c.78,2.027,3.118,3.313,5.036,3.9,2.2.655,7.125,0,7.546-.07-.117.936-.218,1.879-.335,2.814-.382,3.064-.78,6.143-1.084,9.184-.1,1.052-.164,2.1-.234,3.118-.46-.982-1.325-2.76-1.419-2.9-1.466-2.339-5.652-5.9-8.575-5.13a3.625,3.625,0,0,0-2.339,4.857c.78,2.027,3.118,3.313,5.036,3.9s6.12.117,7.289-.039c-.1,1.738-.164,3.469-.14,5.169,0,.741,0,1.489.07,2.191l.14,2.113c.156,1.434.288,2.768.46,4.108.086.67.179,1.3.273,1.957-.32-1.06-.842-2.744-.9-2.892-1.107-2.5-4.678-6.689-7.749-6.377a3.625,3.625,0,0,0-3.048,4.444c.437,2.12,2.541,3.75,4.389,4.623,2.035.967,6.837,1.068,7.429,1.076.226,1.606.46,3.157.709,4.615.78,4.592,1.559,8.4,2.2,11.047s1.029,4.163,1.029,4.163h0a1.076,1.076,0,0,0,2.058-.608S124.02,384.509,123.357,381.889Z" transform="translate(-49.979 -226.291)" fill="#427729"/>
          <path id="Path_18280" data-name="Path 18280" d="M121.677,309.171s5.075-1.793,6.782-3.469c1.458-1.434,2.923-3.656,2.651-5.8a3.625,3.625,0,0,0-4.335-3.212c-2.978.694-5.021,5.824-5.247,8.575C121.506,305.491,121.623,309.194,121.677,309.171Z" transform="translate(-54.264 -229.13)" fill="#427729"/>
          <path id="Path_18281" data-name="Path 18281" d="M105.7,390.521c-1.988-1.809-4.794-4.444-8.022-7.749-.928-.951-1.9-1.972-2.884-3.033.405-.437,3.672-3.953,4.4-6.081.655-1.933.951-4.576-.265-6.369a3.617,3.617,0,0,0-5.309-.9c-2.339,1.965-1.848,7.468-.819,9.994.062.164,1.06,2,1.559,2.916-.6-.639-1.193-1.279-1.8-1.965-.881-.967-1.777-2.027-2.658-3.04l-1.325-1.653c-.46-.553-.826-1.138-1.255-1.707-.608-.85-1.193-1.762-1.777-2.674,1.045-.834,4.069-3.352,4.982-5.106s1.637-4.381.7-6.33a3.617,3.617,0,0,0-5.114-1.7c-2.619,1.559-2.955,7.094-2.339,9.753,0,.094.218.639.452,1.286-.546-.9-1.091-1.8-1.614-2.736-1.473-2.651-2.892-5.387-4.327-8.131-.3-.569-.6-1.138-.9-1.707.881-.7,4.179-3.4,5.137-5.239s1.629-4.381.7-6.33a3.617,3.617,0,0,0-5.114-1.7c-2.619,1.559-2.955,7.094-2.339,9.753a14.751,14.751,0,0,0,.522,1.481c-.78-1.481-1.622-2.939-2.471-4.374a65.017,65.017,0,0,0-4.841-7.055c.32-.249,4.249-3.329,5.309-5.371.943-1.809,1.637-4.381.7-6.33a3.617,3.617,0,0,0-5.114-1.707c-2.619,1.559-2.955,7.1-2.339,9.76.047.187.9,2.549,1.232,3.383l-.055-.086a48.117,48.117,0,0,0-5.917-5.964,65.424,65.424,0,0,0-5.909-4.529c-1.918-1.31-3.758-2.393-5.387-3.337-.889-.507-1.715-.951-2.479-1.356h.055c.055,0-2.245-2.939-2.417-3.118-1.926-1.941-6.782-4.553-9.511-3.165a3.617,3.617,0,0,0-1.255,5.239c1.169,1.824,3.719,2.588,5.761,2.744s6.182-1.263,7.188-1.621c.78.436,1.637.912,2.557,1.466,1.606.974,3.415,2.1,5.293,3.446.507.359,1.029.78,1.559,1.146-1-.468-2.393-1.084-2.534-1.13-2.6-.834-8.123-.92-9.909,1.559a3.633,3.633,0,0,0,1.31,5.231c1.879,1.068,4.49.577,6.369-.226s5-4.069,5.668-4.779c1.13.865,2.269,1.785,3.407,2.807a46.348,46.348,0,0,1,5.707,6.018c.1.125.187.265.288.4-.46-.32-3.118-1.871-3.29-1.957-2.495-1.115-7.975-1.809-10.018.476a3.625,3.625,0,0,0,.725,5.34c1.746,1.271,4.4,1.068,6.354.476,2.253-.678,6.143-4.116,6.291-4.241a63.516,63.516,0,0,1,4.522,6.931c1.013,1.778,1.965,3.617,2.9,5.457-.6-.4-3.048-1.84-3.235-1.926-2.495-1.115-7.975-1.8-10.026.476a3.617,3.617,0,0,0,.733,5.34c1.746,1.279,4.4,1.068,6.354.483,2.2-.67,5.94-3.945,6.237-4.218.429.842.858,1.684,1.279,2.526,1.372,2.775,2.729,5.551,4.163,8.256.491.936,1.013,1.848,1.559,2.752-.928-.569-2.627-1.559-2.783-1.637-2.495-1.115-7.975-1.8-10.018.475a3.625,3.625,0,0,0,.725,5.34c1.746,1.279,4.4,1.068,6.354.483s5.169-3.282,6.065-4.054c.873,1.5,1.77,2.986,2.729,4.389.429.6.826,1.24,1.263,1.793l1.286,1.676c.92,1.115,1.77,2.159,2.651,3.173l1.3,1.489c-.85-.717-2.214-1.824-2.339-1.91-2.339-1.481-7.609-2.994-9.979-1.052a3.625,3.625,0,0,0-.094,5.395c1.559,1.52,4.194,1.723,6.237,1.434,2.23-.32,6.291-2.885,6.79-3.2,1.068,1.208,2.128,2.339,3.118,3.453,3.181,3.407,5.964,6.128,7.936,8s3.118,2.916,3.118,2.916h0a1.076,1.076,0,0,0,1.38-1.645S107.7,392.337,105.7,390.521Z" transform="translate(-35.247 -233.823)" fill="#427729"/>
          <path id="Path_18282" data-name="Path 18282" d="M64.7,330.4s3.235-4.3,3.742-6.642c.429-2,.421-4.678-.99-6.3a3.633,3.633,0,0,0-5.387-.288c-2.1,2.222-.974,7.632.335,10.026C62.537,327.407,64.666,330.439,64.7,330.4Z" transform="translate(-40.901 -233.427)" fill="#427729"/>
          <g id="Group_36870" data-name="Group 36870" transform="translate(0 57.445)" opacity="0.1">
            <path id="Path_18283" data-name="Path 18283" d="M123.357,381.889c-.663-2.612-1.559-6.354-2.417-10.914-.249-1.3-.5-2.7-.733-4.124.577-.14,5.247-1.263,7.016-2.643,1.614-1.255,3.321-3.3,3.3-5.457a3.617,3.617,0,0,0-3.9-3.687c-3.048.343-5.66,5.208-6.237,7.889,0,.171-.218,2.245-.281,3.305-.148-.865-.288-1.723-.421-2.627-.195-1.294-.366-2.674-.538-4.007l-.187-2.1c-.086-.717-.07-1.411-.109-2.12v-3.2c1.333-.125,5.239-.554,6.97-1.52s3.781-2.752,4.077-4.888a3.617,3.617,0,0,0-3.329-4.241c-3.056-.125-6.377,4.288-7.32,6.86,0,.078-.172.639-.327,1.31,0-1.052.086-2.1.164-3.165.234-3.025.561-6.089.881-9.168.062-.647.117-1.286.187-1.926,1.123-.1,5.356-.53,7.164-1.559s3.781-2.752,4.085-4.9a3.625,3.625,0,0,0-3.329-4.241c-3.056-.117-6.385,4.3-7.32,6.86,0,.094-.2.78-.382,1.52.148-1.676.273-3.344.351-5a63.666,63.666,0,0,0-.14-8.576c.4,0,5.371-.437,7.391-1.559,1.777-.99,3.781-2.752,4.077-4.9a3.617,3.617,0,0,0-3.329-4.241c-3.056-.117-6.377,4.3-7.32,6.86-.062.179-.655,2.619-.834,3.5v-.1a47.016,47.016,0,0,0-1.637-8.24,65.367,65.367,0,0,0-2.5-7.079c-.873-2.152-1.809-4.07-2.651-5.761-.46-.912-.9-1.731-1.318-2.5h.062c.055,0-.249-3.687-.3-3.9-.538-2.682-3.118-7.546-6.237-7.9a3.617,3.617,0,0,0-3.9,3.687c0,2.159,1.676,4.2,3.29,5.457s5.847,2.339,6.892,2.619c.421.78.858,1.668,1.325,2.627.78,1.707,1.684,3.633,2.51,5.8.226.577.437,1.2.655,1.809-.577-.943-1.4-2.23-1.489-2.339-1.707-2.128-6.237-5.239-9.129-4.147a3.625,3.625,0,0,0-1.793,5.083c.967,1.933,3.422,2.955,5.457,3.329s6.416-.631,7.359-.865c.468,1.349.912,2.744,1.294,4.225a45.888,45.888,0,0,1,1.442,8.17v.483c-.2-.515-1.559-3.267-1.653-3.446-1.466-2.339-5.66-5.9-8.622-5.13a3.617,3.617,0,0,0-2.339,4.857c.78,2.027,3.118,3.321,5.036,3.9,2.253.678,7.391-.047,7.585-.07a65.224,65.224,0,0,1-.055,8.271c-.14,2.042-.359,4.1-.6,6.167-.281-.663-1.559-3.22-1.637-3.391-1.466-2.339-5.66-5.9-8.622-5.13a3.617,3.617,0,0,0-2.339,4.857c.78,2.027,3.118,3.313,5.036,3.9,2.2.655,7.125,0,7.546-.07-.117.936-.218,1.879-.335,2.814-.382,3.064-.78,6.143-1.084,9.184-.1,1.052-.164,2.1-.234,3.118-.46-.982-1.325-2.76-1.419-2.9-1.466-2.339-5.652-5.9-8.575-5.13a3.625,3.625,0,0,0-2.339,4.857c.78,2.027,3.118,3.313,5.036,3.9s6.12.117,7.289-.039c-.1,1.738-.164,3.469-.14,5.169,0,.741,0,1.489.07,2.191l.14,2.113c.156,1.434.288,2.768.46,4.108.086.67.179,1.3.273,1.957-.32-1.06-.842-2.744-.9-2.892-1.107-2.5-4.678-6.689-7.749-6.377a3.625,3.625,0,0,0-3.048,4.444c.437,2.12,2.541,3.75,4.389,4.623,2.035.967,6.837,1.068,7.429,1.076.226,1.606.46,3.157.709,4.615.78,4.592,1.559,8.4,2.2,11.047s1.029,4.163,1.029,4.163h0a1.076,1.076,0,0,0,2.058-.608S124.02,384.509,123.357,381.889Z" transform="translate(-49.979 -283.736)"/>
            <path id="Path_18284" data-name="Path 18284" d="M121.677,309.171s5.075-1.793,6.782-3.469c1.458-1.434,2.923-3.656,2.651-5.8a3.625,3.625,0,0,0-4.335-3.212c-2.978.694-5.021,5.824-5.247,8.575C121.506,305.491,121.623,309.194,121.677,309.171Z" transform="translate(-54.264 -286.575)"/>
            <path id="Path_18285" data-name="Path 18285" d="M105.7,390.521c-1.988-1.809-4.794-4.444-8.022-7.749-.928-.951-1.9-1.972-2.884-3.033.405-.437,3.672-3.953,4.4-6.081.655-1.933.951-4.576-.265-6.369a3.617,3.617,0,0,0-5.309-.9c-2.339,1.965-1.848,7.468-.819,9.994.062.164,1.06,2,1.559,2.916-.6-.639-1.193-1.279-1.8-1.965-.881-.967-1.777-2.027-2.658-3.04l-1.325-1.653c-.46-.553-.826-1.138-1.255-1.707-.608-.85-1.193-1.762-1.777-2.674,1.045-.834,4.069-3.352,4.982-5.106s1.637-4.381.7-6.33a3.617,3.617,0,0,0-5.114-1.7c-2.619,1.559-2.955,7.094-2.339,9.753,0,.094.218.639.452,1.286-.546-.9-1.091-1.8-1.614-2.736-1.473-2.651-2.892-5.387-4.327-8.131-.3-.569-.6-1.138-.9-1.707.881-.7,4.179-3.4,5.137-5.239s1.629-4.381.7-6.33a3.617,3.617,0,0,0-5.114-1.7c-2.619,1.559-2.955,7.094-2.339,9.753a14.751,14.751,0,0,0,.522,1.481c-.78-1.481-1.622-2.939-2.471-4.374a65.017,65.017,0,0,0-4.841-7.055c.32-.249,4.249-3.329,5.309-5.371.943-1.809,1.637-4.381.7-6.33a3.617,3.617,0,0,0-5.114-1.707c-2.619,1.559-2.955,7.1-2.339,9.76.047.187.9,2.549,1.232,3.383l-.055-.086a48.117,48.117,0,0,0-5.917-5.964,65.424,65.424,0,0,0-5.909-4.529c-1.918-1.31-3.758-2.393-5.387-3.337-.889-.507-1.715-.951-2.479-1.356h.055c.055,0-2.245-2.939-2.417-3.118-1.926-1.941-6.782-4.553-9.511-3.165a3.617,3.617,0,0,0-1.255,5.239c1.169,1.824,3.719,2.588,5.761,2.744s6.182-1.263,7.188-1.621c.78.436,1.637.912,2.557,1.466,1.606.974,3.415,2.1,5.293,3.446.507.359,1.029.78,1.559,1.146-1-.468-2.393-1.084-2.534-1.13-2.6-.834-8.123-.92-9.909,1.559a3.633,3.633,0,0,0,1.31,5.231c1.879,1.068,4.49.577,6.369-.226s5-4.069,5.668-4.779c1.13.865,2.269,1.785,3.407,2.807a46.348,46.348,0,0,1,5.707,6.018c.1.125.187.265.288.4-.46-.32-3.118-1.871-3.29-1.957-2.495-1.115-7.975-1.809-10.018.476a3.625,3.625,0,0,0,.725,5.34c1.746,1.271,4.4,1.068,6.354.476,2.253-.678,6.143-4.116,6.291-4.241a63.516,63.516,0,0,1,4.522,6.931c1.013,1.778,1.965,3.617,2.9,5.457-.6-.4-3.048-1.84-3.235-1.926-2.495-1.115-7.975-1.8-10.026.476a3.617,3.617,0,0,0,.733,5.34c1.746,1.279,4.4,1.068,6.354.483,2.2-.67,5.94-3.945,6.237-4.218.429.842.858,1.684,1.279,2.526,1.372,2.775,2.729,5.551,4.163,8.256.491.936,1.013,1.848,1.559,2.752-.928-.569-2.627-1.559-2.783-1.637-2.495-1.115-7.975-1.8-10.018.475a3.625,3.625,0,0,0,.725,5.34c1.746,1.279,4.4,1.068,6.354.483s5.169-3.282,6.065-4.054c.873,1.5,1.77,2.986,2.729,4.389.429.6.826,1.24,1.263,1.793l1.286,1.676c.92,1.115,1.77,2.159,2.651,3.173l1.3,1.489c-.85-.717-2.214-1.824-2.339-1.91-2.339-1.481-7.609-2.994-9.979-1.052a3.625,3.625,0,0,0-.094,5.395c1.559,1.52,4.194,1.723,6.237,1.434,2.23-.32,6.291-2.885,6.79-3.2,1.068,1.208,2.128,2.339,3.118,3.453,3.181,3.407,5.964,6.128,7.936,8s3.118,2.916,3.118,2.916h0a1.076,1.076,0,0,0,1.38-1.645S107.7,392.337,105.7,390.521Z" transform="translate(-35.247 -291.268)"/>
            <path id="Path_18286" data-name="Path 18286" d="M64.7,330.4s3.235-4.3,3.742-6.642c.429-2,.421-4.678-.99-6.3a3.633,3.633,0,0,0-5.387-.288c-2.1,2.222-.974,7.632.335,10.026C62.537,327.407,64.666,330.439,64.7,330.4Z" transform="translate(-40.901 -290.872)"/>
          </g>
          <g id="Group_36871" data-name="Group 36871" transform="translate(76.232)" opacity="0.1">
            <path id="Path_18287" data-name="Path 18287" d="M150.064,308.777c-.546-2.635-1.271-6.416-1.933-10.984-.195-1.317-.382-2.713-.553-4.155.592-.109,5.3-1.029,7.133-2.339,1.668-1.177,3.461-3.118,3.532-5.3a3.617,3.617,0,0,0-3.765-3.9c-3.056.211-5.878,4.95-6.541,7.609-.039.171-.312,2.23-.429,3.29-.1-.873-.2-1.738-.3-2.643-.14-1.31-.249-2.69-.359-4.03,0-.7-.07-1.4-.1-2.113s0-1.4,0-2.12c0-1.045.078-2.128.133-3.2,1.341-.062,5.262-.32,7.016-1.208s3.9-2.58,4.3-4.678a3.633,3.633,0,0,0-3.118-4.389c-3.048-.25-6.564,4.007-7.609,6.533-.039.078-.2.639-.4,1.3.094-1.052.179-2.1.312-3.165.359-3,.826-6.057,1.279-9.121.094-.639.179-1.271.273-1.91,1.123-.055,5.379-.288,7.227-1.216s3.9-2.588,4.3-4.678a3.625,3.625,0,0,0-3.118-4.389c-3.056-.249-6.564,4.007-7.617,6.533,0,.086-.234.78-.452,1.5.226-1.661.421-3.329.569-4.982a63.3,63.3,0,0,0,.242-8.576c.4,0,5.387-.195,7.445-1.224,1.832-.912,3.9-2.581,4.3-4.678a3.617,3.617,0,0,0-3.118-4.381c-3.056-.257-6.564,4.007-7.617,6.525-.078.179-.78,2.6-.99,3.461a.443.443,0,0,1,0-.1,47.558,47.558,0,0,0-1.279-8.3,64.982,64.982,0,0,0-2.183-7.188c-.78-2.183-1.629-4.14-2.393-5.863-.421-.935-.826-1.777-1.208-2.557h.062c.055,0-.094-3.7-.125-3.9-.421-2.7-2.814-7.671-5.839-8.155a3.617,3.617,0,0,0-4.093,3.508c-.125,2.159,1.489,4.272,3.04,5.6s5.746,2.619,6.775,2.916c.382.826.78,1.707,1.208,2.69.725,1.738,1.559,3.7,2.253,5.9.195.585.382,1.224.577,1.832-.538-.967-1.294-2.284-1.388-2.4-1.614-2.206-6.034-5.52-8.934-4.553a3.617,3.617,0,0,0-2.019,5c.881,1.972,3.29,3.118,5.286,3.563s6.439-.343,7.391-.53c.405,1.364.78,2.775,1.107,4.272a46.551,46.551,0,0,1,1.045,8.178v.491c-.187-.53-1.4-3.329-1.5-3.516-1.364-2.339-5.395-6.151-8.388-5.512a3.625,3.625,0,0,0-2.557,4.755c.663,2.05,2.939,3.446,4.865,4.116,2.222.78,7.391.281,7.578.265a63.355,63.355,0,0,1-.413,8.264c-.226,2.035-.538,4.085-.873,6.135-.257-.678-1.38-3.282-1.489-3.461-1.356-2.339-5.387-6.143-8.381-5.5a3.625,3.625,0,0,0-2.557,4.748c.663,2.058,2.931,3.446,4.865,4.124,2.167.78,7.118.3,7.539.265-.156.928-.3,1.863-.46,2.8-.522,3.04-1.052,6.1-1.481,9.121-.156,1.052-.265,2.089-.374,3.118-.413-1.006-1.2-2.814-1.286-2.962-1.364-2.339-5.395-6.151-8.388-5.5a3.625,3.625,0,0,0-2.557,4.748c.663,2.058,2.931,3.446,4.865,4.124s6.1.382,7.281.288c-.179,1.731-.312,3.454-.366,5.153,0,.733-.07,1.489,0,2.191s0,1.419.047,2.113c.094,1.442.164,2.783.281,4.124.055.678.117,1.317.179,1.972-.265-1.076-.717-2.783-.78-2.931-.99-2.549-4.4-6.892-7.461-6.712a3.633,3.633,0,0,0-3.243,4.311c.343,2.128,2.339,3.851,4.179,4.81,2,1.052,6.79,1.364,7.375,1.4.156,1.606.327,3.173.507,4.631.577,4.631,1.224,8.459,1.715,11.14s.842,4.2.842,4.2h0a1.076,1.076,0,1,0,2.081-.515S150.61,311.42,150.064,308.777Z" transform="translate(-133.031 -210.05)"/>
            <path id="Path_18288" data-name="Path 18288" d="M151.513,236.055s5.145-1.559,6.931-3.173c1.559-1.356,3.118-3.516,2.892-5.675a3.617,3.617,0,0,0-4.179-3.4c-3.009.561-5.278,5.6-5.621,8.31C151.505,232.352,151.458,236.07,151.513,236.055Z" transform="translate(-137.099 -213.072)"/>
          </g>
          <path id="Path_18289" data-name="Path 18289" d="M366.37,349.112c.1,24.425,19.537,44.148,19.537,44.148s19.271-19.887,19.162-44.312-19.5-44.148-19.5-44.148S366.261,324.687,366.37,349.112Z" transform="translate(-108.23 -230.934)" fill="#427729"/>
          <line id="Line_433" data-name="Line 433" x1="0.374" y1="88.46" transform="translate(277.303 73.866)" fill="#427729" stroke="#fff" stroke-width="0.91"/>
          <line id="Line_434" data-name="Line 434" x1="10.875" y1="9.41" transform="translate(266.56 95.898)" fill="#427729" stroke="#fff" stroke-width="0.91"/>
          <line id="Line_435" data-name="Line 435" y1="19.49" x2="13.331" transform="translate(277.669 100.435)" fill="#427729" stroke="#fff" stroke-width="0.91"/>
          <line id="Line_436" data-name="Line 436" x1="16.06" y1="14.204" transform="translate(261.477 114.148)" fill="#427729" stroke="#fff" stroke-width="0.91"/>
          <line id="Line_437" data-name="Line 437" y1="14.173" x2="15.763" transform="translate(277.755 125.53)" fill="#427729" stroke="#fff" stroke-width="0.91"/>
          <line id="Line_438" data-name="Line 438" x1="12.419" y1="9.745" transform="translate(265.375 139.757)" fill="#427729" stroke="#fff" stroke-width="0.91"/>
          <path id="Path_18290" data-name="Path 18290" d="M346.9,402.5c9.441,10.587,25.43,11.694,25.43,11.694s.709-16.036-8.732-26.592-25.461-11.632-25.461-11.632S337.459,391.975,346.9,402.5Z" transform="translate(-102.005 -246.62)" fill="#427729"/>
          <line id="Line_439" data-name="Line 439" x1="34.193" y1="38.223" transform="translate(236.164 129.319)" fill="#427729" stroke="#fff" stroke-width="0.91"/>
          <line id="Line_440" data-name="Line 440" x1="8.342" y2="0.101" transform="translate(239.976 142.899)" fill="#427729" stroke="#fff" stroke-width="0.91"/>
          <line id="Line_441" data-name="Line 441" x1="1.715" y1="13.58" transform="translate(252.324 135.571)" fill="#427729" stroke="#fff" stroke-width="0.91"/>
          <line id="Line_442" data-name="Line 442" x1="12.427" y2="0.016" transform="translate(244.794 152.862)" fill="#427729" stroke="#fff" stroke-width="0.91"/>
          <line id="Line_443" data-name="Line 443" y1="12.208" x2="1.388" transform="translate(261.687 145.487)" fill="#427729" stroke="#fff" stroke-width="0.91"/>
          <line id="Line_444" data-name="Line 444" x1="9.137" y2="0.546" transform="translate(256.339 161.937)" fill="#427729" stroke="#fff" stroke-width="0.91"/>
          <path id="Path_18291" data-name="Path 18291" d="M409.8,387.166c-9.823,10.2-9.7,26.257-9.7,26.257s16.044-.491,25.867-10.7,9.7-26.257,9.7-26.257S419.621,376.961,409.8,387.166Z" transform="translate(-115.664 -246.73)" fill="#427729"/>
          <line id="Line_445" data-name="Line 445" y1="36.953" x2="35.565" transform="translate(284.436 129.74)" fill="#427729" stroke="#fff" stroke-width="0.91"/>
          <line id="Line_446" data-name="Line 446" x1="0.725" y1="8.31" transform="translate(306.638 134.565)" fill="#427729" stroke="#fff" stroke-width="0.91"/>
          <line id="Line_447" data-name="Line 447" y1="2.721" x2="13.417" transform="translate(301.556 146.329)" fill="#427729" stroke="#fff" stroke-width="0.91"/>
          <line id="Line_448" data-name="Line 448" x1="0.943" y1="12.395" transform="translate(297.151 140.108)" fill="#427729" stroke="#fff" stroke-width="0.91"/>
          <line id="Line_449" data-name="Line 449" x2="12.279" y2="0.468" transform="translate(293.604 157.314)" fill="#427729" stroke="#fff" stroke-width="0.91"/>
          <line id="Line_450" data-name="Line 450" x1="1.232" y1="9.074" transform="translate(288.427 152.332)" fill="#427729" stroke="#fff" stroke-width="0.91"/>
          <g id="Group_36872" data-name="Group 36872" transform="translate(236.122 73.866)" opacity="0.1">
            <path id="Path_18292" data-name="Path 18292" d="M366.37,349.112c.1,24.425,19.537,44.148,19.537,44.148s19.271-19.887,19.162-44.312-19.5-44.148-19.5-44.148S366.261,324.687,366.37,349.112Z" transform="translate(-344.351 -304.8)"/>
            <line id="Line_451" data-name="Line 451" x1="0.374" y1="88.46" transform="translate(41.181)"/>
            <line id="Line_452" data-name="Line 452" x1="10.875" y1="9.41" transform="translate(30.438 22.031)"/>
            <line id="Line_453" data-name="Line 453" y1="19.49" x2="13.331" transform="translate(41.547 26.568)"/>
            <line id="Line_454" data-name="Line 454" x1="16.06" y1="14.204" transform="translate(25.355 40.281)"/>
            <line id="Line_455" data-name="Line 455" y1="14.173" x2="15.763" transform="translate(41.633 51.663)"/>
            <line id="Line_456" data-name="Line 456" x1="12.419" y1="9.745" transform="translate(29.253 65.891)"/>
            <path id="Path_18293" data-name="Path 18293" d="M346.9,402.5c9.441,10.587,25.43,11.694,25.43,11.694s.709-16.036-8.732-26.592-25.461-11.632-25.461-11.632S337.459,391.975,346.9,402.5Z" transform="translate(-338.126 -320.487)"/>
            <line id="Line_457" data-name="Line 457" x1="34.193" y1="38.223" transform="translate(0.042 55.452)"/>
            <line id="Line_458" data-name="Line 458" x1="8.342" y2="0.101" transform="translate(3.854 69.033)"/>
            <line id="Line_459" data-name="Line 459" x1="1.715" y1="13.58" transform="translate(16.203 61.705)"/>
            <line id="Line_460" data-name="Line 460" x1="12.427" y2="0.016" transform="translate(8.672 78.996)"/>
            <line id="Line_461" data-name="Line 461" y1="12.208" x2="1.388" transform="translate(25.566 71.621)"/>
            <line id="Line_462" data-name="Line 462" x1="9.137" y2="0.546" transform="translate(20.218 88.07)"/>
            <path id="Path_18294" data-name="Path 18294" d="M409.8,387.166c-9.823,10.2-9.7,26.257-9.7,26.257s16.044-.491,25.867-10.7,9.7-26.257,9.7-26.257S419.621,376.961,409.8,387.166Z" transform="translate(-351.786 -320.597)"/>
            <line id="Line_463" data-name="Line 463" y1="36.953" x2="35.565" transform="translate(48.314 55.873)"/>
            <line id="Line_464" data-name="Line 464" x1="0.725" y1="8.31" transform="translate(70.517 60.699)"/>
            <line id="Line_465" data-name="Line 465" y1="2.721" x2="13.417" transform="translate(65.434 72.463)"/>
            <line id="Line_466" data-name="Line 466" x1="0.943" y1="12.395" transform="translate(61.029 66.242)"/>
            <line id="Line_467" data-name="Line 467" x2="12.279" y2="0.468" transform="translate(57.482 83.447)"/>
            <line id="Line_468" data-name="Line 468" x1="1.232" y1="9.074" transform="translate(52.306 78.466)"/>
          </g>
        </g>
        <g id="freepik--Resume--inject-18" transform="translate(106.613 92.419)">
          <rect id="Rectangle_2426" data-name="Rectangle 2426" width="192.309" height="247.528" transform="translate(0)" fill="#fff" stroke="#263238" stroke-linecap="round" stroke-linejoin="round" stroke-width="0.987"/>
          <rect id="Rectangle_2427" data-name="Rectangle 2427" width="30.677" height="247.528" transform="translate(0)" fill="#427729"/>
          <rect id="Rectangle_2428" data-name="Rectangle 2428" width="58.976" height="6.938" transform="translate(90.604 36.571)" fill="#427729" stroke="#263238" stroke-linecap="round" stroke-linejoin="round" stroke-width="0.987"/>
          <rect id="Rectangle_2429" data-name="Rectangle 2429" width="161.663" height="6.938" transform="translate(24.198 95.687)" fill="#427729"/>
          <rect id="Rectangle_2430" data-name="Rectangle 2430" width="161.663" height="6.938" transform="translate(24.198 191.046)" fill="#427729"/>
          <rect id="Rectangle_2431" data-name="Rectangle 2431" width="37.171" height="6.938" transform="translate(90.604 48.522)" fill="#427729" stroke="#263238" stroke-linecap="round" stroke-linejoin="round" stroke-width="0.987"/>
          <rect id="Rectangle_2432" data-name="Rectangle 2432" width="37.171" height="6.938" transform="translate(90.604 60.223)" fill="#427729" stroke="#263238" stroke-linecap="round" stroke-linejoin="round" stroke-width="0.987"/>
          <rect id="Rectangle_2433" data-name="Rectangle 2433" width="3.828" height="3.828" transform="translate(81.662 110.265)" fill="#427729" stroke="#263238" stroke-linecap="round" stroke-linejoin="round" stroke-width="0.987"/>
          <rect id="Rectangle_2434" data-name="Rectangle 2434" width="3.828" height="3.828" transform="translate(81.662 159.496)" fill="#427729" stroke="#263238" stroke-linecap="round" stroke-linejoin="round" stroke-width="0.987"/>
          <rect id="Rectangle_2435" data-name="Rectangle 2435" width="3.828" height="3.828" transform="translate(135.68 110.265)" fill="#427729" stroke="#263238" stroke-linecap="round" stroke-linejoin="round" stroke-width="0.987"/>
          <rect id="Rectangle_2436" data-name="Rectangle 2436" width="3.828" height="3.828" transform="translate(135.68 159.496)" fill="#427729" stroke="#263238" stroke-linecap="round" stroke-linejoin="round" stroke-width="0.987"/>
          <rect id="Rectangle_2437" data-name="Rectangle 2437" width="192.309" height="12.59" transform="translate(0)" fill="#263238" stroke="#263238" stroke-linecap="round" stroke-linejoin="round" stroke-width="0.987"/>
          <path id="Path_18295" data-name="Path 18295" d="M277.951,250.013H244.1a1.091,1.091,0,0,1-1.091-1.091h0a1.091,1.091,0,0,1,1.091-1.091h33.85a1.091,1.091,0,0,1,1.091,1.091h0A1.091,1.091,0,0,1,277.951,250.013Z" transform="translate(-152.406 -137.089)" fill="#263238"/>
          <path id="Path_18296" data-name="Path 18296" d="M277.951,257.021H244.1a1.1,1.1,0,0,1-1.091-1.1h0a1.091,1.091,0,0,1,1.091-1.091h33.85a1.091,1.091,0,0,1,1.091,1.091h0a1.1,1.1,0,0,1-1.091,1.1Z" transform="translate(-152.406 -138.632)" fill="#263238"/>
          <path id="Path_18297" data-name="Path 18297" d="M277.951,264.023H244.1a1.091,1.091,0,0,1-1.091-1.091h0a1.091,1.091,0,0,1,1.091-1.091h33.85a1.091,1.091,0,0,1,1.091,1.091h0A1.091,1.091,0,0,1,277.951,264.023Z" transform="translate(-152.406 -140.177)" fill="#263238"/>
          <path id="Path_18298" data-name="Path 18298" d="M277.951,271.023H244.1a1.091,1.091,0,0,1-1.091-1.091h0a1.091,1.091,0,0,1,1.091-1.091h33.85a1.091,1.091,0,0,1,1.091,1.091h0A1.091,1.091,0,0,1,277.951,271.023Z" transform="translate(-152.406 -141.72)" fill="#263238"/>
          <path id="Path_18299" data-name="Path 18299" d="M277.951,278.023H244.1a1.091,1.091,0,0,1-1.091-1.091h0a1.091,1.091,0,0,1,1.091-1.091h33.85a1.091,1.091,0,0,1,1.091,1.091h0A1.091,1.091,0,0,1,277.951,278.023Z" transform="translate(-152.406 -143.263)" fill="#263238"/>
          <path id="Path_18300" data-name="Path 18300" d="M343.631,250.013h-33.85a1.091,1.091,0,0,1-1.091-1.091h0a1.091,1.091,0,0,1,1.091-1.091h33.85a1.091,1.091,0,0,1,1.091,1.091h0A1.091,1.091,0,0,1,343.631,250.013Z" transform="translate(-166.883 -137.089)" fill="#263238"/>
          <path id="Path_18301" data-name="Path 18301" d="M343.631,257.021h-33.85a1.1,1.1,0,0,1-1.091-1.1h0a1.091,1.091,0,0,1,1.091-1.091h33.85a1.091,1.091,0,0,1,1.091,1.091h0a1.1,1.1,0,0,1-1.091,1.1Z" transform="translate(-166.883 -138.632)" fill="#263238"/>
          <path id="Path_18302" data-name="Path 18302" d="M343.631,264.023h-33.85a1.091,1.091,0,0,1-1.091-1.091h0a1.091,1.091,0,0,1,1.091-1.091h33.85a1.091,1.091,0,0,1,1.091,1.091h0A1.091,1.091,0,0,1,343.631,264.023Z" transform="translate(-166.883 -140.177)" fill="#263238"/>
          <path id="Path_18303" data-name="Path 18303" d="M343.631,271.023h-33.85a1.091,1.091,0,0,1-1.091-1.091h0a1.091,1.091,0,0,1,1.091-1.091h33.85a1.091,1.091,0,0,1,1.091,1.091h0A1.091,1.091,0,0,1,343.631,271.023Z" transform="translate(-166.883 -141.72)" fill="#263238"/>
          <path id="Path_18304" data-name="Path 18304" d="M343.631,278.023h-33.85a1.091,1.091,0,0,1-1.091-1.091h0a1.091,1.091,0,0,1,1.091-1.091h33.85a1.091,1.091,0,0,1,1.091,1.091h0A1.091,1.091,0,0,1,343.631,278.023Z" transform="translate(-166.883 -143.263)" fill="#263238"/>
          <path id="Path_18305" data-name="Path 18305" d="M277.951,312.111H244.1a1.1,1.1,0,0,1-1.091-1.1h0a1.091,1.091,0,0,1,1.091-1.091h33.85a1.091,1.091,0,0,1,1.091,1.091h0A1.1,1.1,0,0,1,277.951,312.111Z" transform="translate(-152.406 -150.775)" fill="#263238"/>
          <path id="Path_18306" data-name="Path 18306" d="M277.951,319.113H244.1a1.091,1.091,0,0,1-1.091-1.091h0a1.091,1.091,0,0,1,1.091-1.091h33.85a1.091,1.091,0,0,1,1.091,1.091h0A1.091,1.091,0,0,1,277.951,319.113Z" transform="translate(-152.406 -152.32)" fill="#263238"/>
          <path id="Path_18307" data-name="Path 18307" d="M277.951,326.113H244.1a1.091,1.091,0,0,1-1.091-1.091h0a1.091,1.091,0,0,1,1.091-1.091h33.85a1.091,1.091,0,0,1,1.091,1.091h0A1.091,1.091,0,0,1,277.951,326.113Z" transform="translate(-152.406 -153.863)" fill="#263238"/>
          <path id="Path_18308" data-name="Path 18308" d="M277.951,333.113H244.1a1.091,1.091,0,0,1-1.091-1.091h0a1.091,1.091,0,0,1,1.091-1.091h33.85a1.091,1.091,0,0,1,1.091,1.091h0A1.091,1.091,0,0,1,277.951,333.113Z" transform="translate(-152.406 -155.405)" fill="#263238"/>
          <path id="Path_18309" data-name="Path 18309" d="M277.951,340.123H244.1a1.091,1.091,0,0,1-1.091-1.091h0a1.091,1.091,0,0,1,1.091-1.091h33.85a1.091,1.091,0,0,1,1.091,1.091h0A1.091,1.091,0,0,1,277.951,340.123Z" transform="translate(-152.406 -156.95)" fill="#263238"/>
          <path id="Path_18310" data-name="Path 18310" d="M343.631,312.111h-33.85a1.1,1.1,0,0,1-1.091-1.1h0a1.091,1.091,0,0,1,1.091-1.091h33.85a1.091,1.091,0,0,1,1.091,1.091h0A1.1,1.1,0,0,1,343.631,312.111Z" transform="translate(-166.883 -150.775)" fill="#263238"/>
          <path id="Path_18311" data-name="Path 18311" d="M343.631,319.113h-33.85a1.091,1.091,0,0,1-1.091-1.091h0a1.091,1.091,0,0,1,1.091-1.091h33.85a1.091,1.091,0,0,1,1.091,1.091h0A1.091,1.091,0,0,1,343.631,319.113Z" transform="translate(-166.883 -152.32)" fill="#263238"/>
          <path id="Path_18312" data-name="Path 18312" d="M343.631,326.113h-33.85a1.091,1.091,0,0,1-1.091-1.091h0a1.091,1.091,0,0,1,1.091-1.091h33.85a1.091,1.091,0,0,1,1.091,1.091h0A1.091,1.091,0,0,1,343.631,326.113Z" transform="translate(-166.883 -153.863)" fill="#263238"/>
          <path id="Path_18313" data-name="Path 18313" d="M343.631,333.113h-33.85a1.091,1.091,0,0,1-1.091-1.091h0a1.091,1.091,0,0,1,1.091-1.091h33.85a1.091,1.091,0,0,1,1.091,1.091h0A1.091,1.091,0,0,1,343.631,333.113Z" transform="translate(-166.883 -155.405)" fill="#263238"/>
          <path id="Path_18314" data-name="Path 18314" d="M343.631,340.123h-33.85a1.091,1.091,0,0,1-1.091-1.091h0a1.091,1.091,0,0,1,1.091-1.091h33.85a1.091,1.091,0,0,1,1.091,1.091h0A1.091,1.091,0,0,1,343.631,340.123Z" transform="translate(-166.883 -156.95)" fill="#263238"/>
          <path id="Path_18315" data-name="Path 18315" d="M343.631,372.083h-33.85a1.091,1.091,0,0,1-1.091-1.092h0a1.091,1.091,0,0,1,1.091-1.091h33.85a1.091,1.091,0,0,1,1.091,1.091h0A1.091,1.091,0,0,1,343.631,372.083Z" transform="translate(-166.883 -163.995)" fill="#263238"/>
          <path id="Path_18316" data-name="Path 18316" d="M343.631,379.083h-33.85a1.091,1.091,0,0,1-1.091-1.091h0a1.091,1.091,0,0,1,1.091-1.091h33.85a1.091,1.091,0,0,1,1.091,1.091h0A1.091,1.091,0,0,1,343.631,379.083Z" transform="translate(-166.883 -165.538)" fill="#263238"/>
          <path id="Path_18317" data-name="Path 18317" d="M343.631,386.093h-33.85A1.091,1.091,0,0,1,308.69,385h0a1.091,1.091,0,0,1,1.091-1.091h33.85A1.091,1.091,0,0,1,344.723,385h0A1.091,1.091,0,0,1,343.631,386.093Z" transform="translate(-166.883 -167.083)" fill="#263238"/>
          <rect id="Rectangle_2438" data-name="Rectangle 2438" width="36.033" height="2.183" rx="1.091" transform="translate(141.807 222.284)" fill="#263238"/>
          <path id="Path_18318" data-name="Path 18318" d="M343.631,400.093h-33.85A1.091,1.091,0,0,1,308.69,399h0a1.091,1.091,0,0,1,1.091-1.091h33.85A1.091,1.091,0,0,1,344.723,399h0A1.091,1.091,0,0,1,343.631,400.093Z" transform="translate(-166.883 -170.169)" fill="#263238"/>
          <path id="Path_18319" data-name="Path 18319" d="M324.633,291.25a4.366,4.366,0,0,0-4.3,3.641h-5.223a4.366,4.366,0,0,0-8.575,0h-5.223a4.366,4.366,0,0,0-8.575,0h-5.293a4.358,4.358,0,0,0-8.575,0h-5.231a4.358,4.358,0,0,0-8.575,0h-5.231a4.358,4.358,0,0,0-8.575,0h-5.231a4.365,4.365,0,1,0,0,1.458h5.231a4.358,4.358,0,0,0,8.575,0h5.231a4.358,4.358,0,0,0,8.575,0h5.231a4.358,4.358,0,0,0,8.575,0h5.231a4.366,4.366,0,0,0,8.576,0h5.223a4.366,4.366,0,0,0,8.576,0h5.223a4.366,4.366,0,1,0,4.3-5.1Z" transform="translate(-151.158 -146.66)" fill="#263238"/>
          <path id="Path_18320" data-name="Path 18320" d="M216.607,370.42a7.352,7.352,0,1,0,5.2,2.156,7.359,7.359,0,0,0-5.2-2.156Zm0,11.023a3.672,3.672,0,1,1,3.664-3.664,3.672,3.672,0,0,1-3.664,3.664Z" transform="translate(-144.963 -164.109)" fill="#427729" stroke="#263238" stroke-linecap="round" stroke-linejoin="round" stroke-width="0.987"/>
          <path id="Path_18321" data-name="Path 18321" d="M220.887,380.7l3.508,1.707a7.351,7.351,0,0,0-5.675-11.99v3.688a3.664,3.664,0,0,1,2.159,6.6Z" transform="translate(-147.052 -164.109)" fill="#263238" stroke="#263238" stroke-linecap="round" stroke-linejoin="round" stroke-width="0.987"/>
          <path id="Path_18322" data-name="Path 18322" d="M220.75,400.01h-7.016a1.746,1.746,0,0,1-1.754-1.746h0a1.754,1.754,0,0,1,1.754-1.754h7.016a1.754,1.754,0,0,1,1.754,1.754h0a1.746,1.746,0,0,1-1.754,1.746Z" transform="translate(-145.567 -169.86)" fill="#427729" stroke="#263238" stroke-linecap="round" stroke-linejoin="round" stroke-width="0.987"/>
          <path id="Path_18323" data-name="Path 18323" d="M244.739,370.42a7.352,7.352,0,1,0,5.206,2.153,7.359,7.359,0,0,0-5.206-2.153Zm0,11.023a3.664,3.664,0,1,1,2.6-1.07,3.672,3.672,0,0,1-2.6,1.07Z" transform="translate(-151.165 -164.109)" fill="#427729" stroke="#263238" stroke-linecap="round" stroke-linejoin="round" stroke-width="0.987"/>
          <path id="Path_18324" data-name="Path 18324" d="M254.151,377.008a7.375,7.375,0,0,0-7.281-6.587v3.687a3.672,3.672,0,0,1,3.633,3.672,3.914,3.914,0,0,1-.047.421Z" transform="translate(-153.257 -164.109)" fill="#263238" stroke="#263238" stroke-linecap="round" stroke-linejoin="round" stroke-width="0.987"/>
          <path id="Path_18325" data-name="Path 18325" d="M248.84,400.01h-7.016a1.746,1.746,0,0,1-1.754-1.746h0a1.754,1.754,0,0,1,1.754-1.754h7.016a1.754,1.754,0,0,1,1.754,1.754h0a1.746,1.746,0,0,1-1.754,1.746Z" transform="translate(-151.758 -169.86)" fill="#427729" stroke="#263238" stroke-linecap="round" stroke-linejoin="round" stroke-width="0.987"/>
          <path id="Path_18326" data-name="Path 18326" d="M273.039,370.42a7.352,7.352,0,1,0,5.206,2.153,7.359,7.359,0,0,0-5.206-2.153Zm0,11.023a3.664,3.664,0,1,1,2.6-1.07A3.672,3.672,0,0,1,273.039,381.443Z" transform="translate(-157.403 -164.109)" fill="#427729" stroke="#263238" stroke-linecap="round" stroke-linejoin="round" stroke-width="0.987"/>
          <path id="Path_18327" data-name="Path 18327" d="M273.546,370.42v3.688a3.672,3.672,0,1,1-2.83,6.018L267.8,382.4a7.352,7.352,0,1,0,5.746-11.982Z" transform="translate(-157.87 -164.109)" fill="#263238" stroke="#263238" stroke-linecap="round" stroke-linejoin="round" stroke-width="0.987"/>
          <path id="Path_18328" data-name="Path 18328" d="M277.14,400.01h-7.016a1.746,1.746,0,0,1-1.754-1.746h0a1.746,1.746,0,0,1,1.754-1.754h7.016a1.754,1.754,0,0,1,1.754,1.754h0a1.746,1.746,0,0,1-1.754,1.746Z" transform="translate(-157.996 -169.86)" fill="#427729" stroke="#263238" stroke-linecap="round" stroke-linejoin="round" stroke-width="0.987"/>
        </g>
        <g id="freepik--Character--inject-18" transform="translate(103.661 119.439)">
          <circle id="Ellipse_1119" data-name="Ellipse 1119" cx="32.93" cy="32.93" r="32.93" transform="translate(10.1)" fill="#fff"/>
          <path id="Path_18329" data-name="Path 18329" d="M188.476,417.177s4.755,7.149,4.1,9.979-4.833,1.957-6.814-1.091-7.016-7.6-6.1-9.558S186.7,415.438,188.476,417.177Z" transform="translate(-135.467 -201.043)" fill="#fff" stroke="#263238" stroke-linecap="round" stroke-linejoin="round" stroke-width="1.023"/>
          <path id="Path_18330" data-name="Path 18330" d="M163.4,416.987s-5.746,8.529-4.826,10.86,3.9,1.637,6.174-.468a95.275,95.275,0,0,0,6.821-8.014S167.748,414.656,163.4,416.987Z" transform="translate(-130.821 -201.251)" fill="#fff" stroke="#263238" stroke-linecap="round" stroke-linejoin="round" stroke-width="1.023"/>
          <path id="Path_18331" data-name="Path 18331" d="M158.6,428.786a7.087,7.087,0,0,0,4.506-.881c2.619-1.325,7.188-7.3,7.188-7.3" transform="translate(-130.85 -202.19)" fill="none" stroke="#263238" stroke-linecap="round" stroke-linejoin="round" stroke-width="0.767"/>
          <path id="Path_18332" data-name="Path 18332" d="M181.74,418.65a34.26,34.26,0,0,0,5.286,7.328c2.8,2.651,4.171,3.407,6.011,1.894" transform="translate(-135.95 -201.76)" fill="none" stroke="#263238" stroke-linecap="round" stroke-linejoin="round" stroke-width="0.767"/>
          <path id="Path_18333" data-name="Path 18333" d="M153.08,280.65s-5.028,10.259-4.8,14.454,1.146,25.415,2.518,32.408,2.721,24.409,3.656,31.371,6.931,23.271,6.931,23.271-.92,3.734-.234,4.9,7.944,3.079,8.17,2.378a18.494,18.494,0,0,0,1.559-4.9c.187-2.1-3.2-24.479-1.824-29.375s1.637-37.81,1.824-41.2-.055-9.355-.055-9.355a2.144,2.144,0,0,0,2.292-.694c.912-1.169,3.937,30.521,4.857,37.982s-1.146,9.558-1.832,14.22-2.284,19.809-2.284,21.68-2.058,7.921-1.146,9.09,2.853.974,3.648,1.193c2.386.663,4.249-.374,5.161-.608s1.684-3.609,1.684-3.609,7.344-20.753,8.716-29.383,3.656-24.643,3.2-34.434-3.2-29.624-3.2-29.624l-.686-5.831Z" transform="translate(-128.573 -171.344)" fill="#263238" stroke="#263238" stroke-linecap="round" stroke-linejoin="round" stroke-width="1.023"/>
          <path id="Path_18334" data-name="Path 18334" d="M150.315,295.87s-.444,5.753,3.321,9.511" transform="translate(-129.02 -174.698)" fill="none" stroke="#fff" stroke-linecap="round" stroke-linejoin="round" stroke-width="0.507"/>
          <path id="Path_18335" data-name="Path 18335" d="M150.6,306.37s2.214,3.765,4.872,4.2" transform="translate(-129.086 -177.013)" fill="none" stroke="#fff" stroke-linecap="round" stroke-linejoin="round" stroke-width="0.507"/>
          <path id="Path_18336" data-name="Path 18336" d="M172.291,387.13s-3.118,7.437-3.539,11.5,3.539,2.479,4.428,5.184-5.309,2.487-4.2,3.157a17.8,17.8,0,0,0,4.42,1.13" transform="translate(-133.08 -194.813)" fill="none" stroke="#fff" stroke-linecap="round" stroke-linejoin="round" stroke-width="0.512"/>
          <path id="Path_18337" data-name="Path 18337" d="M181,395.774c.663-.226,8.186-1.559,7.3-5.636s-5.309-4.288-4.678-9.02,7.515-15.116,7.515-18.047-4.865-13.853-5.309-20.62" transform="translate(-135.787 -184.965)" fill="none" stroke="#fff" stroke-linecap="round" stroke-linejoin="round" stroke-width="0.512"/>
          <path id="Path_18338" data-name="Path 18338" d="M193.23,295.31s-5.091,7.3-5.753,8.4,5.972-4.865,5.972-4.865" transform="translate(-137.204 -174.575)" fill="none" stroke="#fff" stroke-linecap="round" stroke-linejoin="round" stroke-width="0.507"/>
          <path id="Path_18339" data-name="Path 18339" d="M177.79,292s.554,5.332.554,6.432V304.5" transform="translate(-135.079 -173.845)" fill="none" stroke="#fff" stroke-linecap="round" stroke-linejoin="round" stroke-width="0.507"/>
          <path id="Path_18340" data-name="Path 18340" d="M178.5,301.616s2.393-.366,2.939-2.206a22.811,22.811,0,0,0,.374-5.52" transform="translate(-135.236 -174.262)" fill="none" stroke="#fff" stroke-linecap="round" stroke-linejoin="round" stroke-width="0.507"/>
          <path id="Path_18341" data-name="Path 18341" d="M212.459,206.222a59.8,59.8,0,0,1-3.43-14.633c-.226-2.284-2.744-1.606-2.744-1.606s-5.457,3.2-5.457,3.9,2.518,17.611,2.97,20.581a38.2,38.2,0,0,1,.46,5.262s-9.6-10.291-12.123-12.809a30.23,30.23,0,0,0-5.067-4.553c-.881-.78-2.409-1.068-4.763-1.848-4.116-1.372-8.459-4.576-13.495-4.35a29.936,29.936,0,0,0-9.6,2.292s-7.313,3.43-12.349,5.714a8.979,8.979,0,0,0-1.661.967c-.826-.1-2.549.343-4.514,4.748-2.736,6.174-15.085,22.413-17.151,28.128s2.284,11.437,7.086,16a137.305,137.305,0,0,1,9.831,10.751l5.457-6.72a31.7,31.7,0,0,0,.78,4.436c.686,2.284,2.97,4.8,12.123,5.457s29.71,1.918,29.04-2.744c-.943-6.627-.46-27.9-.912-33.616a96.38,96.38,0,0,1,.226-10.992,27.563,27.563,0,0,0,4.561,4.779c2.058,1.372,10.758,7.8,14.189,9.184s8.232-.912,10.291-5.457S215.2,214.229,212.459,206.222ZM137.914,244.18c-.92-3.656-1.372-5.028-1.372-5.028s5.863-6.315,8.685-9.683c.382,9.035.624,18.921.359,20.371a33.92,33.92,0,0,0,.164,7.3C144.221,255.04,138.694,247.33,137.914,244.18Z" transform="translate(-123.004 -151.339)" fill="#427729" stroke="#263238" stroke-linecap="round" stroke-linejoin="round" stroke-width="1.013"/>
          <path id="Path_18342" data-name="Path 18342" d="M212.459,206.222a59.8,59.8,0,0,1-3.43-14.633c-.226-2.284-2.744-1.606-2.744-1.606s-5.457,3.2-5.457,3.9,2.518,17.611,2.97,20.581a38.2,38.2,0,0,1,.46,5.262s-9.6-10.291-12.123-12.809a30.23,30.23,0,0,0-5.067-4.553c-.881-.78-2.409-1.068-4.763-1.848-4.116-1.372-8.459-4.576-13.495-4.35a29.936,29.936,0,0,0-9.6,2.292s-7.313,3.43-12.349,5.714a8.979,8.979,0,0,0-1.661.967c-.826-.1-2.549.343-4.514,4.748-2.736,6.174-15.085,22.413-17.151,28.128s2.284,11.437,7.086,16a137.305,137.305,0,0,1,9.831,10.751l5.457-6.72a31.7,31.7,0,0,0,.78,4.436c.686,2.284,2.97,4.8,12.123,5.457s29.71,1.918,29.04-2.744c-.943-6.627-.46-27.9-.912-33.616a96.38,96.38,0,0,1,.226-10.992,27.563,27.563,0,0,0,4.561,4.779c2.058,1.372,10.758,7.8,14.189,9.184s8.232-.912,10.291-5.457S215.2,214.229,212.459,206.222ZM137.914,244.18c-.92-3.656-1.372-5.028-1.372-5.028s5.863-6.315,8.685-9.683c.382,9.035.624,18.921.359,20.371a33.92,33.92,0,0,0,.164,7.3C144.221,255.04,138.694,247.33,137.914,244.18Z" transform="translate(-123.004 -151.339)" opacity="0.1"/>
          <path id="Path_18343" data-name="Path 18343" d="M155.14,237.463a45.924,45.924,0,0,0,3.765-6.853" transform="translate(-130.087 -160.314)" fill="none" stroke="#263238" stroke-linecap="round" stroke-linejoin="round" stroke-width="0.76"/>
          <path id="Path_18344" data-name="Path 18344" d="M161.894,231.46a8.77,8.77,0,0,1-2.214,2.877" transform="translate(-131.088 -160.502)" fill="none" stroke="#263238" stroke-linecap="round" stroke-linejoin="round" stroke-width="0.76"/>
          <path id="Path_18345" data-name="Path 18345" d="M227.19,228.15a9.979,9.979,0,0,0,3.118,7.016" transform="translate(-145.968 -159.772)" fill="none" stroke="#263238" stroke-linecap="round" stroke-linejoin="round" stroke-width="1.013"/>
          <path id="Path_18346" data-name="Path 18346" d="M228.339,232.88a10.064,10.064,0,0,0,1.333,5.972" transform="translate(-146.212 -160.815)" fill="none" stroke="#263238" stroke-linecap="round" stroke-linejoin="round" stroke-width="1.013"/>
          <path id="Path_18347" data-name="Path 18347" d="M138.719,252.775s-1.684-1.6-5.839-.9" transform="translate(-125.181 -164.962)" fill="none" stroke="#263238" stroke-linecap="round" stroke-linejoin="round" stroke-width="0.76"/>
          <path id="Path_18348" data-name="Path 18348" d="M129.93,250.463s1.154-1.848,5.527-.468" transform="translate(-124.53 -164.474)" fill="none" stroke="#263238" stroke-linecap="round" stroke-linejoin="round" stroke-width="0.76"/>
          <path id="Path_18349" data-name="Path 18349" d="M210.171,220.28c-.92.226-4.841,6.915-4.841,6.915l9.456-2.534" transform="translate(-141.149 -158.038)" fill="none" stroke="#263238" stroke-linecap="round" stroke-linejoin="round" stroke-width="0.76"/>
          <path id="Path_18350" data-name="Path 18350" d="M176.541,212.247s1.77,2.432,5.753,1.333a6.832,6.832,0,0,0,4.678-7.967C186.341,202.954,173,205.168,176.541,212.247Z" transform="translate(-134.673 -154.565)" fill="#fff" stroke="#263238" stroke-linecap="round" stroke-linejoin="round" stroke-width="1.013"/>
          <path id="Path_18351" data-name="Path 18351" d="M170.972,194.691s-2.674,1.777-3.025,3.383.53,6.759,1.24,8.537,3.033,5.87,3.033,5.87,8.006-4.623,8.575-4.982,6.237,2.846,7.476,2.339-3.025-11.39-4.982-13.7S173.818,192.547,170.972,194.691Z" transform="translate(-132.892 -152.156)" fill="#fff" stroke="#263238" stroke-linecap="round" stroke-linejoin="round" stroke-width="1.013"/>
          <path id="Path_18352" data-name="Path 18352" d="M170,187.46s.179,2.845.538,7.118,1.8,7.648,4.14,9.6,5.691,3.025,6.58,1.957,1.957-5.512,1.559-8.186-.889-8.357-.889-8.357Z" transform="translate(-133.362 -150.804)" fill="#fff" stroke="#263238" stroke-linecap="round" stroke-linejoin="round" stroke-width="1.013"/>
          <path id="Path_18353" data-name="Path 18353" d="M182.473,194.624c-.265-2.487-.507-5.028-.507-5.028L170,187.46s.179,2.845.538,7.118a18.3,18.3,0,0,0,1.349,5.746Z" transform="translate(-133.362 -150.804)" fill="#427729" opacity="0.5"/>
          <path id="Path_18354" data-name="Path 18354" d="M164.071,181.633s-2.666-2.666-3.2-.359,1.606,5.878,4.631,4.982v-2.128Z" transform="translate(-131.331 -149.233)" fill="#fff" stroke="#263238" stroke-linecap="round" stroke-linejoin="round" stroke-width="1.013"/>
          <path id="Path_18355" data-name="Path 18355" d="M164.071,181.633s-2.666-2.666-3.2-.359,1.606,5.878,4.631,4.982v-2.128Z" transform="translate(-131.331 -149.233)" fill="#427729" stroke="#263238" stroke-linecap="round" stroke-linejoin="round" stroke-width="1.013" opacity="0.5"/>
          <path id="Path_18356" data-name="Path 18356" d="M161.56,171.027s4.451,11.92,8.365,14.235,11.741,4.444,13.877-3.9-3.555-20.464-5.512-24.027-9.254-4.623-13.877-1.068S158.738,163.192,161.56,171.027Z" transform="translate(-131.159 -143.445)" fill="#fff" stroke="#263238" stroke-linecap="round" stroke-linejoin="round" stroke-width="1.013"/>
          <path id="Path_18357" data-name="Path 18357" d="M166.5,160.929a15.241,15.241,0,0,1,6.018-1.4l4.436-3.734c-2.916-2.245-8.646-2.518-12.512.46-4.631,3.563-5.7,6.938-2.853,14.773,0,0,4.451,11.92,8.365,14.235a16,16,0,0,0,4.459,1.785,62.773,62.773,0,0,1-5.707-8.271c-1.4-3.009-2-9.223-3.812-12.832S163.691,162.332,166.5,160.929Z" transform="translate(-131.162 -143.442)" fill="#427729" opacity="0.5"/>
          <path id="Path_18358" data-name="Path 18358" d="M180.089,171.25s1.777,3.2,1.068,3.9a1.848,1.848,0,0,1-1.777.359" transform="translate(-135.43 -147.231)" fill="none" stroke="#263238" stroke-linecap="round" stroke-linejoin="round" stroke-width="1.013"/>
          <path id="Path_18359" data-name="Path 18359" d="M169.79,169.966a2.8,2.8,0,0,1,3.025-2.136" transform="translate(-133.316 -146.477)" fill="none" stroke="#263238" stroke-linecap="round" stroke-linejoin="round" stroke-width="2.027"/>
          <path id="Path_18360" data-name="Path 18360" d="M171.85,173.008a1.9,1.9,0,0,0,2.666-1.068" transform="translate(-133.77 -147.383)" fill="none" stroke="#263238" stroke-linecap="round" stroke-linejoin="round" stroke-width="1.013"/>
          <path id="Path_18361" data-name="Path 18361" d="M182.8,171.178a1.911,1.911,0,0,0,2.674-1.068" transform="translate(-136.184 -146.98)" fill="none" stroke="#263238" stroke-linecap="round" stroke-linejoin="round" stroke-width="1.013"/>
          <path id="Path_18362" data-name="Path 18362" d="M180.72,166.014a2.666,2.666,0,0,1,3.648-.148" transform="translate(-135.725 -145.901)" fill="none" stroke="#263238" stroke-linecap="round" stroke-linejoin="round" stroke-width="2.027"/>
          <path id="Path_18363" data-name="Path 18363" d="M184.175,173.069c-2.074-.9-7.016-2.9-8.669-2.066-2.136,1.068-7.656,4.81-7.656,7.656,0,0-3.555-4.8-3.555-6.588s1.419-2.339.179-4.623-3.033-2.495-2.495-5.161c.491-2.471,5.41-5.091,7.8-5.457a8.045,8.045,0,0,0,5.34,1.9c3.9,0,7.118-2.5,7.118-5.605s-3.189-5.6-7.118-5.6a8.638,8.638,0,0,0-2.58.382c-3.726-.273-4.436,2.487-7.016,4s-4.2,5.972-4.2,5.972h.109c-1.887,2.76-1.879,6.089.172,11.694,0,0,4.451,11.92,8.365,14.235s11.741,4.444,13.877-3.9A19.31,19.31,0,0,0,184.175,173.069Z" transform="translate(-131.166 -142.003)" fill="#263238" stroke="#263238" stroke-linecap="round" stroke-linejoin="round" stroke-width="1.013"/>
          <path id="Path_18364" data-name="Path 18364" d="M183.941,180.06s-2.666,3.734-5.691,1.247" transform="translate(-135.181 -149.173)" fill="none" stroke="#fff" stroke-linecap="round" stroke-linejoin="round" stroke-width="1.013"/>
          <path id="Path_18365" data-name="Path 18365" d="M151.064,276.84a10.5,10.5,0,0,1,2.744,2.51,45.74,45.74,0,0,0,2.978,3.664s2.51.226,2.284,1.372-.686,1.824-1.832,1.824-3.656-2.284-3.656-2.284l-3.656,5.714s-3.43-2.51-4.576-5.714Z" transform="translate(-127.929 -170.504)" fill="#fff" stroke="#263238" stroke-linecap="round" stroke-linejoin="round" stroke-width="1.013"/>
          <circle id="Ellipse_1120" data-name="Ellipse 1120" cx="32.93" cy="32.93" r="32.93" transform="translate(10.1)" fill="none" stroke="#263238" stroke-linecap="round" stroke-linejoin="round" stroke-width="2.027"/>
          <path id="Path_18366" data-name="Path 18366" d="M215.24,174.466s-2.292-.234-2.744,1.138a16.419,16.419,0,0,0-1.146,3.664c0,.92.226,1.6,1.372,1.824s1.832-1.372,1.832-1.372Z" transform="translate(-142.476 -147.936)" fill="#fff" stroke="#263238" stroke-linecap="round" stroke-linejoin="round" stroke-width="1.013"/>
          <path id="Path_18367" data-name="Path 18367" d="M216.6,172.339s-1.138,6.174-1.138,8.006a6.922,6.922,0,0,0,1.372,3.9,2.845,2.845,0,0,0,1.6.912l1.146-1.372a3.348,3.348,0,0,0,.452,4.116c1.824,2.284,3.2,2.058,4.8,1.372s2.058-1.6,1.372-4.116-1.138-6.634-1.6-9.145-2.058-3.43-2.97-3.43S218.22,171.652,216.6,172.339Z" transform="translate(-143.382 -147.415)" fill="#fff" stroke="#263238" stroke-linecap="round" stroke-linejoin="round" stroke-width="1.013"/>
          <path id="Path_18368" data-name="Path 18368" d="M215.838,183.728s-.405-1.419,1.318-1.622,4.568-.507,4.568-.507" transform="translate(-143.456 -149.512)" fill="none" stroke="#263238" stroke-linecap="round" stroke-linejoin="round" stroke-width="0.507"/>
          <path id="Path_18369" data-name="Path 18369" d="M216.11,179.411s3.952-1.021,5.379-.819" transform="translate(-143.525 -148.843)" fill="none" stroke="#263238" stroke-linecap="round" stroke-linejoin="round" stroke-width="0.507"/>
          <path id="Path_18370" data-name="Path 18370" d="M216.5,175.885a26.308,26.308,0,0,1,4.467-.405" transform="translate(-143.611 -148.163)" fill="none" stroke="#263238" stroke-linecap="round" stroke-linejoin="round" stroke-width="0.507"/>
          <path id="Path_18371" data-name="Path 18371" d="M218.19,185.76a2.643,2.643,0,0,0,2.339.616" transform="translate(-143.984 -150.429)" fill="none" stroke="#263238" stroke-linecap="round" stroke-linejoin="round" stroke-width="0.507"/>
        </g>
      </g>
    </g>
  </g>
</svg>
