<svg xmlns="http://www.w3.org/2000/svg" xmlns:xlink="http://www.w3.org/1999/xlink" width="360" height="369" viewBox="0 0 360 369">
  <defs>
    <clipPath id="clip-path">
      <rect id="Rectangle_2425" data-name="Rectangle 2425" width="360" height="369" transform="translate(0 0)" fill="#fff"/>
    </clipPath>
    <clipPath id="clip-path-2">
      <circle id="Ellipse_1121" data-name="Ellipse 1121" cx="236" cy="236" r="236" transform="translate(-56 -111)" fill="#f3f7f9"/>
    </clipPath>
  </defs>
  <g id="slide2" clip-path="url(#clip-path)">
    <circle id="Ellipse_1117" data-name="Ellipse 1117" cx="236" cy="236" r="236" transform="translate(-56 -111)" fill="#f3f7f9"/>
    <rect id="Rectangle_2424" data-name="Rectangle 2424" width="326" height="73" rx="36.5" transform="translate(83.176 179.39) rotate(-30)" fill="#fff"/>
    <rect id="Rectangle_2423" data-name="Rectangle 2423" width="440" height="99" rx="49.5" transform="translate(33.725 120.632) rotate(-30)" fill="#eff2f6"/>
    <g id="Mask_Group_70" data-name="Mask Group 70" clip-path="url(#clip-path-2)">
      <g id="Hiring-pana" transform="translate(-46.573 88.673)">
        <g id="freepik--background-complete--inject-23" transform="translate(66.573 50.506)">
          <path id="Path_18372" data-name="Path 18372" d="M654.3,251.312l-.4-4.472,18.407,1.356v3.115Z" transform="translate(-354.433 -146.733)" fill="#fafafa"/>
          <path id="Path_18373" data-name="Path 18373" d="M655.91,244.49v-2.6h17.112l-.342,3.834Z" transform="translate(-355.418 -144.307)" fill="#fafafa"/>
          <path id="Path_18374" data-name="Path 18374" d="M652.6,237.19l.352,2.4h16.9v-2.4Z" transform="translate(-353.796 -142.003)" fill="#fafafa"/>
          <g id="Group_36873" data-name="Group 36873" transform="translate(300.492 97.583)" opacity="0.29">
            <path id="Path_18375" data-name="Path 18375" d="M655.91,241.89v.561l16.52-.561Z" transform="translate(-655.91 -241.89)" fill="#e0e0e0"/>
          </g>
          <g id="Group_36874" data-name="Group 36874" transform="translate(300.492 100.184)" opacity="0.29">
            <path id="Path_18376" data-name="Path 18376" d="M655.91,246.99l16.77,1.234.056-.617Z" transform="translate(-655.91 -246.99)" fill="#e0e0e0"/>
          </g>
          <g id="Group_36875" data-name="Group 36875" transform="translate(309.711 98.807)" opacity="0.29">
            <path id="Path_18377" data-name="Path 18377" d="M673.99,244.657l2.9-.367,4.4.367Z" transform="translate(-673.99 -244.29)" fill="#e0e0e0"/>
          </g>
          <g id="Group_36876" data-name="Group 36876" transform="translate(299.702 102.723)" opacity="0.29">
            <path id="Path_18378" data-name="Path 18378" d="M654.36,251.97h5.471l-5.44.388Z" transform="translate(-654.36 -251.97)" fill="#e0e0e0"/>
          </g>
          <g id="Group_36877" data-name="Group 36877" transform="translate(304.795 96.033)" opacity="0.29">
            <path id="Path_18379" data-name="Path 18379" d="M664.35,239.2l11.258-.352C675.618,239.12,664.35,239.2,664.35,239.2Z" transform="translate(-664.35 -238.85)" fill="#e0e0e0"/>
          </g>
          <rect id="Rectangle_2439" data-name="Rectangle 2439" width="2.57" height="19.238" transform="translate(277.262 90.251) rotate(-90)" fill="#e0e0e0"/>
          <path id="Path_18380" data-name="Path 18380" d="M615.382,222.68a6.232,6.232,0,0,1,0,2.407A5.978,5.978,0,0,1,615.382,222.68Z" transform="translate(-335.495 -134.892)" fill="#fafafa"/>
          <path id="Path_18381" data-name="Path 18381" d="M614.562,222.57a6.254,6.254,0,0,1,0,2.412A6,6,0,0,1,614.562,222.57Z" transform="translate(-335.093 -134.838)" fill="#fafafa"/>
          <path id="Path_18382" data-name="Path 18382" d="M645.052,222.68a5.976,5.976,0,0,1,0,2.407A5.974,5.974,0,0,1,645.052,222.68Z" transform="translate(-350.036 -134.892)" fill="#fafafa"/>
          <path id="Path_18383" data-name="Path 18383" d="M644.232,222.57a6,6,0,0,1,0,2.412A6,6,0,0,1,644.232,222.57Z" transform="translate(-349.635 -134.838)" fill="#fafafa"/>
          <path id="Path_18384" data-name="Path 18384" d="M629.961,225.022c0,.066-2.2.122-4.92.122s-4.92-.056-4.92-.122,2.2-.122,4.92-.122A48.2,48.2,0,0,1,629.961,225.022Z" transform="translate(-337.877 -135.98)" fill="#fafafa"/>
          <rect id="Rectangle_2440" data-name="Rectangle 2440" width="5.14" height="19.238" transform="translate(277.185 104.39) rotate(-90)" fill="#e0e0e0"/>
          <path id="Path_18385" data-name="Path 18385" d="M629.722,249.288l-.107.056c-.071.041-.178.087-.321.148a5.323,5.323,0,0,1-1.3.372,3.385,3.385,0,0,1-2.116-.3,2.836,2.836,0,0,1-1.02-.908,2.126,2.126,0,0,1-.347-1.484,1.564,1.564,0,0,1,.352-.765,1.019,1.019,0,0,1,.811-.367,1.178,1.178,0,0,1,.816.439,1.617,1.617,0,0,1,.372.877,2.325,2.325,0,0,1-.663,1.82,2.932,2.932,0,0,1-1.851.908,4.916,4.916,0,0,1-2.142-.27,3.942,3.942,0,0,1-1.871-1.244,2.041,2.041,0,0,1-.439-1.106,1.453,1.453,0,0,1,.408-1.157.943.943,0,0,1,.6-.265,1.126,1.126,0,0,1,.632.178,1.677,1.677,0,0,1,.709,1.02,2.432,2.432,0,0,1-.76,2.264,3.834,3.834,0,0,1-2.167.882,5.354,5.354,0,0,1-2.243-.224,3.059,3.059,0,0,1-1.708-1.326,2.279,2.279,0,0,1-.214-2.04,1.081,1.081,0,0,1,.785-.663,1.234,1.234,0,0,1,.969.235,1.611,1.611,0,0,1,.459,1.734,2.988,2.988,0,0,1-.974,1.361,4.265,4.265,0,0,1-5.818-.26,2.4,2.4,0,0,1-.229-.27.45.45,0,0,1-.066-.1,4.927,4.927,0,0,0,1.428,1.091,4.171,4.171,0,0,0,4.589-.6,2.81,2.81,0,0,0,.9-1.29,1.418,1.418,0,0,0-.4-1.53,1.02,1.02,0,0,0-.811-.189.857.857,0,0,0-.627.546,2.04,2.04,0,0,0,.209,1.841,2.875,2.875,0,0,0,1.591,1.224,5.124,5.124,0,0,0,2.147.2,3.569,3.569,0,0,0,2.039-.821,2.187,2.187,0,0,0,.683-2.04,1.448,1.448,0,0,0-.6-.887.739.739,0,0,0-.938.061,1.188,1.188,0,0,0-.337.959,1.79,1.79,0,0,0,.387.984,3.754,3.754,0,0,0,1.759,1.188,4.732,4.732,0,0,0,2.04.26,2.718,2.718,0,0,0,1.723-.826,2.121,2.121,0,0,0,.617-1.657,1.224,1.224,0,0,0-1.02-1.147.816.816,0,0,0-.668.3,1.35,1.35,0,0,0-.316.673,1.948,1.948,0,0,0,.311,1.366,2.641,2.641,0,0,0,.938.877,3.339,3.339,0,0,0,2.04.326,6.232,6.232,0,0,0,1.3-.326C629.569,249.344,629.717,249.277,629.722,249.288Z" transform="translate(-333.054 -146.34)" fill="#fafafa"/>
          <rect id="Rectangle_2441" data-name="Rectangle 2441" width="8.918" height="17.52" transform="translate(278.898 99.24) rotate(-90)" fill="#ebebeb"/>
          <path id="Path_18386" data-name="Path 18386" d="M619.138,228.25a76.214,76.214,0,0,1,0,8.632,76.138,76.138,0,0,1,0-8.632Z" transform="translate(-337.328 -137.622)" fill="#e0e0e0"/>
          <path id="Path_18387" data-name="Path 18387" d="M621.748,228a77.45,77.45,0,0,1,0,8.52,74.229,74.229,0,0,1,0-8.52Z" transform="translate(-338.608 -137.499)" fill="#e0e0e0"/>
          <path id="Path_18388" data-name="Path 18388" d="M643.868,227.47a82.454,82.454,0,0,1,0,8.979,82.372,82.372,0,0,1,0-8.979Z" transform="translate(-349.449 -137.239)" fill="#e0e0e0"/>
          <path id="Path_18389" data-name="Path 18389" d="M640.868,227.71a78.245,78.245,0,0,1,0,8.744,78.167,78.167,0,0,1,0-8.744Z" transform="translate(-347.979 -137.357)" fill="#e0e0e0"/>
          <rect id="Rectangle_2442" data-name="Rectangle 2442" width="26.065" height="84.365" transform="translate(271.806 104.258)" fill="#f5f5f5"/>
          <rect id="Rectangle_2443" data-name="Rectangle 2443" width="22.129" height="84.334" transform="translate(297.871 104.273)" fill="#e0e0e0"/>
          <rect id="Rectangle_2444" data-name="Rectangle 2444" width="20.91" height="18.172" transform="translate(273.84 107.674)" fill="#e0e0e0"/>
          <rect id="Rectangle_2445" data-name="Rectangle 2445" width="20.91" height="18.172" transform="translate(273.84 127.906)" fill="#e0e0e0"/>
          <rect id="Rectangle_2446" data-name="Rectangle 2446" width="20.91" height="18.172" transform="translate(273.84 148.138)" fill="#e0e0e0"/>
          <rect id="Rectangle_2447" data-name="Rectangle 2447" width="20.91" height="18.172" transform="translate(273.84 168.375)" fill="#e0e0e0"/>
          <path id="Path_18390" data-name="Path 18390" d="M622.748,267.564a.729.729,0,1,1-.724-.724A.729.729,0,0,1,622.748,267.564Z" transform="translate(-338.45 -156.535)" fill="#fafafa"/>
          <path id="Path_18391" data-name="Path 18391" d="M622.748,307.709a.729.729,0,1,1-.724-.729A.729.729,0,0,1,622.748,307.709Z" transform="translate(-338.45 -176.209)" fill="#fafafa"/>
          <path id="Path_18392" data-name="Path 18392" d="M622.748,347.849a.724.724,0,1,1-.21-.515A.729.729,0,0,1,622.748,347.849Z" transform="translate(-338.45 -195.882)" fill="#fafafa"/>
          <path id="Path_18393" data-name="Path 18393" d="M622.748,387.994a.729.729,0,1,1-.724-.724A.729.729,0,0,1,622.748,387.994Z" transform="translate(-338.45 -215.56)" fill="#fafafa"/>
          <rect id="Rectangle_2448" data-name="Rectangle 2448" width="3.013" height="16.923" transform="translate(271.806 188.623)" fill="#e0e0e0"/>
          <rect id="Rectangle_2449" data-name="Rectangle 2449" width="3.013" height="16.923" transform="translate(294.756 188.623)" fill="#e0e0e0"/>
          <rect id="Rectangle_2450" data-name="Rectangle 2450" width="3.013" height="16.923" transform="translate(316.665 188.623)" fill="#e0e0e0"/>
          <rect id="Rectangle_2451" data-name="Rectangle 2451" width="4.099" height="182.334" transform="matrix(1, -0.005, 0.005, 1, 0.002, 23.938)" fill="#e0e0e0"/>
          <rect id="Rectangle_2452" data-name="Rectangle 2452" width="4.099" height="182.334" transform="matrix(1, -0.005, 0.005, 1, 9.821, 23.88)" fill="#e0e0e0"/>
          <rect id="Rectangle_2453" data-name="Rectangle 2453" width="4.099" height="182.334" transform="matrix(1, -0.005, 0.005, 1, 95.646, 23.415)" fill="#e0e0e0"/>
          <rect id="Rectangle_2454" data-name="Rectangle 2454" width="4.099" height="182.334" transform="matrix(1, -0.005, 0.005, 1, 105.477, 23.362)" fill="#e0e0e0"/>
          <rect id="Rectangle_2455" data-name="Rectangle 2455" width="109.574" height="4.161" transform="matrix(1, -0.005, 0.005, 1, 0, 23.93)" fill="#e0e0e0"/>
          <rect id="Rectangle_2456" data-name="Rectangle 2456" width="109.574" height="1.244" transform="matrix(1, -0.005, 0.005, 1, 0.203, 61.369)" fill="#e0e0e0"/>
          <rect id="Rectangle_2457" data-name="Rectangle 2457" width="109.574" height="1.244" transform="matrix(1, -0.005, 0.005, 1, 0.393, 96.652)" fill="#e0e0e0"/>
          <rect id="Rectangle_2458" data-name="Rectangle 2458" width="109.574" height="1.244" transform="matrix(1, -0.005, 0.005, 1, 0.584, 131.934)" fill="#e0e0e0"/>
          <rect id="Rectangle_2459" data-name="Rectangle 2459" width="109.574" height="1.244" transform="matrix(1, -0.005, 0.005, 1, 0.775, 167.222)" fill="#e0e0e0"/>
          <rect id="Rectangle_2460" data-name="Rectangle 2460" width="19.411" height="20.589" transform="matrix(1, -0.005, 0.005, 1, 45.151, 146.388)" fill="#ebebeb"/>
          <rect id="Rectangle_2461" data-name="Rectangle 2461" width="19.411" height="20.589" transform="matrix(1, -0.005, 0.005, 1, 64.464, 146.283)" fill="#f5f5f5"/>
          <path id="Path_18394" data-name="Path 18394" d="M155.037,348.174c12.895.127,25.831,0,38.751-.184a.153.153,0,0,0,0-.3c-12.895-.071-25.831-.036-38.751.229a.127.127,0,0,0,0,.255Z" transform="translate(-109.869 -196.145)" fill="#e0e0e0"/>
          <rect id="Rectangle_2462" data-name="Rectangle 2462" width="14.215" height="15.082" transform="matrix(1, -0.005, 0.005, 1, 44.726, 68.848)" fill="#ebebeb"/>
          <rect id="Rectangle_2463" data-name="Rectangle 2463" width="14.215" height="15.082" transform="matrix(1, -0.005, 0.005, 1, 58.875, 68.771)" fill="#f5f5f5"/>
          <path id="Path_18395" data-name="Path 18395" d="M154.223,193.285q14.17.112,28.365-.133a.153.153,0,0,0,0-.3c-9.448-.051-18.922,0-28.37.173a.133.133,0,0,0,0,.26Z" transform="translate(-109.477 -120.263)" fill="#e0e0e0"/>
          <rect id="Rectangle_2464" data-name="Rectangle 2464" width="25.831" height="12.288" transform="matrix(1, -0.005, 0.005, 1, 35.863, 83.743)" fill="#ebebeb"/>
          <rect id="Rectangle_2465" data-name="Rectangle 2465" width="25.831" height="12.288" transform="matrix(1, -0.005, 0.005, 1, 61.57, 83.604)" fill="#f5f5f5"/>
          <path id="Path_18396" data-name="Path 18396" d="M136.833,220.878c17.158.194,34.376,0,51.534-.255a.153.153,0,0,0,0-.306c-17.163-.087-34.381-.076-51.539.3a.133.133,0,0,0,0,.26Z" transform="translate(-100.954 -133.712)" fill="#e0e0e0"/>
          <rect id="Rectangle_2466" data-name="Rectangle 2466" width="6.486" height="25.3" transform="matrix(1, -0.005, 0.005, 1, 36.563, 35.939)" fill="#ebebeb"/>
          <rect id="Rectangle_2467" data-name="Rectangle 2467" width="6.486" height="18.391" transform="matrix(1, -0.005, 0.005, 1, 29.993, 42.817)" fill="#e0e0e0"/>
          <rect id="Rectangle_2468" data-name="Rectangle 2468" width="10.08" height="20.502" transform="matrix(1, -0.005, 0.005, 1, 43.161, 40.645)" fill="#e0e0e0"/>
          <rect id="Rectangle_2469" data-name="Rectangle 2469" width="3.202" height="20.502" transform="matrix(1, -0.005, 0.005, 1, 53.088, 40.586)" fill="#ebebeb"/>
          <rect id="Rectangle_2470" data-name="Rectangle 2470" width="3.202" height="15.766" transform="matrix(1, -0.005, 0.005, 1, 56.316, 45.31)" fill="#e0e0e0"/>
          <rect id="Rectangle_2471" data-name="Rectangle 2471" width="6.486" height="23.72" transform="matrix(0.925, 0.379, -0.379, 0.925, 35.686, 107.525)" fill="#e0e0e0"/>
          <rect id="Rectangle_2472" data-name="Rectangle 2472" width="6.486" height="25.3" transform="matrix(1, -0.005, 0.005, 1, 40.816, 106.569)" fill="#ebebeb"/>
          <rect id="Rectangle_2473" data-name="Rectangle 2473" width="10.08" height="20.502" transform="matrix(1, -0.005, 0.005, 1, 50.656, 111.263)" fill="#e0e0e0"/>
          <rect id="Rectangle_2474" data-name="Rectangle 2474" width="2.208" height="28.094" transform="matrix(1, -0.005, 0.005, 1, 48.407, 103.678)" fill="#ebebeb"/>
          <rect id="Rectangle_2475" data-name="Rectangle 2475" width="1.101" height="23.72" transform="matrix(1, -0.005, 0.005, 1, 47.33, 108.064)" fill="#f5f5f5"/>
          <rect id="Rectangle_2476" data-name="Rectangle 2476" width="1.101" height="23.72" transform="matrix(-0.005, -1, 1, -0.005, 60.94, 131.757)" fill="#f5f5f5"/>
          <rect id="Rectangle_2477" data-name="Rectangle 2477" width="25.856" height="6.557" transform="matrix(1, -0.005, 0.005, 1, 60.811, 124.103)" fill="#ebebeb"/>
          <rect id="Rectangle_2478" data-name="Rectangle 2478" width="20.762" height="6.557" transform="matrix(1, -0.005, 0.005, 1, 60.77, 117.495)" fill="#e0e0e0"/>
          <circle id="Ellipse_1122" data-name="Ellipse 1122" cx="15.342" cy="15.342" r="15.342" transform="translate(228.001 11.802) rotate(-22.62)" fill="#e0e0e0"/>
          <path id="Path_18397" data-name="Path 18397" d="M559.834,82.06a1.989,1.989,0,0,1-.541.051l-1.489.041c-1.27,0-3.029.036-5.022.041h-.133V81.066c0-2.223,0-4.232.041-5.69,0-.683.031-1.265.041-1.723a3.164,3.164,0,0,1,.051-.632,2.737,2.737,0,0,1,.051.632c0,.459,0,1.02.046,1.723,0,1.458.036,3.467.036,5.69v1.02l-.133-.133c1.994,0,3.753,0,5.022.046l1.489.041a2.548,2.548,0,0,1,.54.02Z" transform="translate(-304.808 -61.541)" fill="#fafafa"/>
          <path id="Path_18398" data-name="Path 18398" d="M552.858,64.68a6.086,6.086,0,0,1,0,2.575,6.318,6.318,0,0,1,0-2.575Z" transform="translate(-304.838 -57.453)" fill="#fafafa"/>
          <path id="Path_18399" data-name="Path 18399" d="M564.985,68.736c.051.051-.311.51-.806.989s-.943.857-.994.806.311-.51.806-.989S564.929,68.685,564.985,68.736Z" transform="translate(-309.97 -59.438)" fill="#fafafa"/>
          <path id="Path_18400" data-name="Path 18400" d="M572.663,77.5c.036.066-.444.372-1.02.734a3.8,3.8,0,0,1-1.127.581c-.046-.056.382-.444.989-.811A2.7,2.7,0,0,1,572.663,77.5Z" transform="translate(-313.564 -63.736)" fill="#fafafa"/>
          <path id="Path_18401" data-name="Path 18401" d="M576.053,90.363a11.728,11.728,0,0,1-3.513,0A11.728,11.728,0,0,1,576.053,90.363Z" transform="translate(-314.557 -69.976)" fill="#fafafa"/>
          <path id="Path_18402" data-name="Path 18402" d="M528.439,89.873a10.457,10.457,0,0,1-3.319,0,10.457,10.457,0,0,1,3.319,0Z" transform="translate(-291.315 -69.735)" fill="#fafafa"/>
          <path id="Path_18403" data-name="Path 18403" d="M532.476,99.71a5.282,5.282,0,0,1-1.224,1.168,5.67,5.67,0,0,1-1.4.959,5.476,5.476,0,0,1,1.234-1.168,5.552,5.552,0,0,1,1.392-.959Z" transform="translate(-293.634 -74.622)" fill="#fafafa"/>
          <path id="Path_18404" data-name="Path 18404" d="M541.659,107.19a7.481,7.481,0,0,1-.821,1.5,7.138,7.138,0,0,1-.938,1.428,4.645,4.645,0,0,1,.709-1.565A4.589,4.589,0,0,1,541.659,107.19Z" transform="translate(-298.559 -78.288)" fill="#fafafa"/>
          <path id="Path_18405" data-name="Path 18405" d="M552.858,113.488a11.532,11.532,0,0,1,0-3.488,11.107,11.107,0,0,1,0,3.488Z" transform="translate(-304.838 -79.665)" fill="#fafafa"/>
          <path id="Path_18406" data-name="Path 18406" d="M565.331,110.044a4.273,4.273,0,0,1-1.469-.969,4.333,4.333,0,0,1-1.162-1.326,9.384,9.384,0,0,1,1.336,1.127A8.888,8.888,0,0,1,565.331,110.044Z" transform="translate(-309.734 -78.562)" fill="#fafafa"/>
          <path id="Path_18407" data-name="Path 18407" d="M572.718,102.618a4.59,4.59,0,0,1-1.188-1.02,4.5,4.5,0,0,1-1.02-1.188,4.762,4.762,0,0,1,1.188,1.02,4.665,4.665,0,0,1,1.02,1.188Z" transform="translate(-313.562 -74.965)" fill="#fafafa"/>
          <path id="Path_18408" data-name="Path 18408" d="M532.853,78.92c-.051.056-.51-.331-1.05-.862a3.725,3.725,0,0,1-.867-1.05,4.427,4.427,0,0,1,1.055.862C532.537,78.4,532.9,78.869,532.853,78.92Z" transform="translate(-294.164 -63.494)" fill="#fafafa"/>
          <path id="Path_18409" data-name="Path 18409" d="M541.5,69.908c-.051.051-.51-.326-1.02-.841a3.82,3.82,0,0,1-.846-1.02,3.609,3.609,0,0,1,1.02.841C541.165,69.4,541.553,69.857,541.5,69.908Z" transform="translate(-298.428 -59.102)" fill="#fafafa"/>
          <rect id="Rectangle_2479" data-name="Rectangle 2479" width="44.62" height="29.339" transform="translate(129.937 55.136)" fill="#e0e0e0"/>
          <rect id="Rectangle_2480" data-name="Rectangle 2480" width="41.494" height="26.825" transform="translate(131.492 56.339)" fill="#fafafa"/>
          <rect id="Rectangle_2481" data-name="Rectangle 2481" width="13.537" height="7.383" transform="translate(145.467 66.113)" fill="#e0e0e0"/>
        </g>
        <g id="freepik--Floor--inject-23" transform="translate(87.186 256.133)">
          <path id="Path_18410" data-name="Path 18410" d="M403.705,453.923c0,.071-66.417.133-148.335.133S107,453.994,107,453.923s66.407-.133,148.376-.133S403.705,453.851,403.705,453.923Z" transform="translate(-107 -453.79)" fill="#263238"/>
        </g>
        <g id="freepik--Desk--inject-23" transform="translate(200.813 152.122)">
          <rect id="Rectangle_2482" data-name="Rectangle 2482" width="53.981" height="10.463" transform="translate(53.252 28.915)" fill="#455a64"/>
          <rect id="Rectangle_2483" data-name="Rectangle 2483" width="31.964" height="1.555" transform="translate(51.58 22.47) rotate(180)" fill="#263238"/>
          <path id="Path_18411" data-name="Path 18411" d="M417.273,272.265l6-22.465H398.31l-5.43,22.465Z" transform="translate(-360.742 -249.8)" fill="#263238"/>
          <path id="Path_18412" data-name="Path 18412" d="M395.81,271.562h22.3L423.3,251.83H400.888Z" transform="translate(-362.178 -250.795)" fill="#e0e0e0"/>
          <rect id="Rectangle_2484" data-name="Rectangle 2484" width="1.616" height="77.074" transform="translate(6.97 27.07)" fill="#455a64"/>
          <rect id="Rectangle_2485" data-name="Rectangle 2485" width="1.616" height="76.854" transform="translate(8.586 27.289)" fill="#263238"/>
          <rect id="Rectangle_2486" data-name="Rectangle 2486" width="1.616" height="77.074" transform="translate(106.428 27.07)" fill="#455a64"/>
          <rect id="Rectangle_2487" data-name="Rectangle 2487" width="1.616" height="76.854" transform="translate(108.039 27.289)" fill="#263238"/>
          <rect id="Rectangle_2488" data-name="Rectangle 2488" width="122.621" height="6.323" transform="translate(0 22.593)" fill="#455a64"/>
          <path id="Path_18413" data-name="Path 18413" d="M489.627,314.193a1.2,1.2,0,1,1-1.2-1.2A1.2,1.2,0,0,1,489.627,314.193Z" transform="translate(-406.98 -280.771)" fill="#263238"/>
        </g>
        <g id="freepik--Chair--inject-23" transform="translate(177.154 157.507)">
          <path id="Path_18414" data-name="Path 18414" d="M294.909,311.434l-10.988-44.712a5.1,5.1,0,0,1,4.946-6.3h25.968a5.1,5.1,0,0,1,4.925,3.809l11.549,44.457a5.1,5.1,0,0,1-4.874,6.368l-26.514.255A5.1,5.1,0,0,1,294.909,311.434Z" transform="translate(-283.61 -260.389)" fill="#427729"/>
          <path id="Path_18415" data-name="Path 18415" d="M288.864,260.38a5.415,5.415,0,0,0-5.262,6.695l11.7,48.235h8.724Z" transform="translate(-283.449 -260.37)" fill="#427729"/>
          <rect id="Rectangle_2489" data-name="Rectangle 2489" width="35.569" height="13.976" rx="6.988" transform="translate(23.883 40.984)" fill="#427729"/>
          <g id="Group_36878" data-name="Group 36878" opacity="0.4">
            <path id="Path_18416" data-name="Path 18416" d="M312.222,315.31l-3.141-13.976h-8.9L288.864,260.36a5.415,5.415,0,0,0-5.262,6.695l11.7,48.235h.4Z" transform="translate(-283.449 -260.36)"/>
          </g>
          <path id="Path_18417" data-name="Path 18417" d="M349.721,340.613c0,.071-7.342.133-16.4.133s-16.4-.061-16.4-.133,7.342-.133,16.4-.133S349.721,340.536,349.721,340.613Z" transform="translate(-299.854 -299.628)" fill="#e0e0e0"/>
          <path id="Path_18418" data-name="Path 18418" d="M320.78,294.957a1.4,1.4,0,0,0,0,.8.984.984,0,0,0,.571.561.826.826,0,0,0,.872-.3.836.836,0,0,0,.143-.913.964.964,0,0,0-.658-.459,1.367,1.367,0,0,0-.78.117.4.4,0,0,1,.163-.173,1.02,1.02,0,0,1,.648-.133,1.069,1.069,0,1,1-1.132,1.341,1.021,1.021,0,0,1,0-.663A1.363,1.363,0,0,1,320.78,294.957Z" transform="translate(-301.634 -277.065)" fill="#e0e0e0"/>
          <path id="Path_18419" data-name="Path 18419" d="M320.028,303.167a1.877,1.877,0,0,1-.291-.892,4.482,4.482,0,0,1,.224-2.254,4.533,4.533,0,0,1,1.29-1.861,2.04,2.04,0,0,1,.8-.51c.026.036-.275.229-.673.627a4.941,4.941,0,0,0-1.458,3.957C319.967,302.815,320.069,303.157,320.028,303.167Z" transform="translate(-301.208 -278.636)" fill="#e0e0e0"/>
          <path id="Path_18420" data-name="Path 18420" d="M316.3,288.17a7.957,7.957,0,0,0,.8,2.121,7.761,7.761,0,0,0,1.565,1.637c0,.031-.27-.051-.627-.291a3.991,3.991,0,0,1-1.163-1.2,4.08,4.08,0,0,1-.586-1.57A1.316,1.316,0,0,1,316.3,288.17Z" transform="translate(-299.525 -273.99)" fill="#e0e0e0"/>
          <path id="Path_18421" data-name="Path 18421" d="M313.9,296.173c.041-.066.729.357,1.678.551s1.749.1,1.759.178a2.865,2.865,0,0,1-1.815.082A2.815,2.815,0,0,1,313.9,296.173Z" transform="translate(-298.374 -277.909)" fill="#e0e0e0"/>
          <path id="Path_18422" data-name="Path 18422" d="M347.47,294.956a1.4,1.4,0,0,0,0,.8.984.984,0,0,0,.571.561.826.826,0,0,0,.872-.3.836.836,0,0,0,.143-.913.969.969,0,0,0-.653-.459,1.377,1.377,0,0,0-.785.117.441.441,0,0,1,.168-.173.984.984,0,0,1,.642-.133,1.07,1.07,0,1,1-1.132,1.341,1.02,1.02,0,0,1,0-.663C347.394,295.007,347.46,294.951,347.47,294.956Z" transform="translate(-314.715 -277.064)" fill="#e0e0e0"/>
          <path id="Path_18423" data-name="Path 18423" d="M346.67,303.167a1.948,1.948,0,0,1-.291-.892,4.5,4.5,0,0,1,1.53-4.115,2,2,0,0,1,.8-.51c0,.036-.275.229-.668.627a4.92,4.92,0,0,0-1.463,3.957A8.467,8.467,0,0,1,346.67,303.167Z" transform="translate(-314.266 -278.636)" fill="#e0e0e0"/>
          <path id="Path_18424" data-name="Path 18424" d="M342.952,288.17a7.955,7.955,0,0,0,.8,2.121,7.759,7.759,0,0,0,1.565,1.637c0,.031-.27-.051-.627-.291a3.992,3.992,0,0,1-1.163-1.2,4.079,4.079,0,0,1-.586-1.57A1.382,1.382,0,0,1,342.952,288.17Z" transform="translate(-312.588 -273.99)" fill="#e0e0e0"/>
          <path id="Path_18425" data-name="Path 18425" d="M340.55,296.173c.041-.066.729.357,1.677.551s1.749.1,1.759.178a2.85,2.85,0,0,1-1.81.082A2.82,2.82,0,0,1,340.55,296.173Z" transform="translate(-311.435 -277.909)" fill="#e0e0e0"/>
          <path id="Path_18426" data-name="Path 18426" d="M351.253,371.909H309.559a2.04,2.04,0,0,1-2.039-2.04h0a2.04,2.04,0,0,1,2.039-2.04h41.693a2.04,2.04,0,0,1,2.04,2.04h0A2.04,2.04,0,0,1,351.253,371.909Z" transform="translate(-295.247 -313.033)" fill="#263238"/>
          <path id="Path_18427" data-name="Path 18427" d="M310.673,375.83l-6.863,39.883h1.876l9.025-39.883Z" transform="translate(-293.428 -316.954)" fill="#263238"/>
          <path id="Path_18428" data-name="Path 18428" d="M341.986,375.83l-7.3,39.883h1.881l9.453-39.883Z" transform="translate(-308.563 -316.954)" fill="#263238"/>
          <path id="Path_18429" data-name="Path 18429" d="M380.208,375.83l8.138,39.883h-1.881L376.17,375.83Z" transform="translate(-328.893 -316.954)" fill="#263238"/>
        </g>
        <g id="freepik--character-2--inject-23" transform="translate(280.569 82.342)">
          <path id="Path_18430" data-name="Path 18430" d="M515.019,132.365a9.811,9.811,0,0,0-10.5,5.848,24.685,24.685,0,0,0-1.81,9.219,43.637,43.637,0,0,1-1.05,9.372,34.485,34.485,0,0,0-1.28,4.742,5.24,5.24,0,0,0,1.331,4.543" transform="translate(-493.155 -122.419)" fill="#263238"/>
          <path id="Path_18431" data-name="Path 18431" d="M535.279,138.6c1.581,3.217.418,7.138,1.244,10.606a35.258,35.258,0,0,0,1.53,4.171,42.006,42.006,0,0,1,1.861,8.719,7.333,7.333,0,0,1-.3,4.4,4.538,4.538,0,0,1-4.079,2.213,5.838,5.838,0,0,1-5.155-3.391,11.524,11.524,0,0,1-.637-4.88c.1-7.164.209-14.358,1.468-21.415" transform="translate(-507.572 -125.518)" fill="#263238"/>
          <path id="Path_18432" data-name="Path 18432" d="M571.434,168.98l-3.727-1.438a.9.9,0,0,0-1.219.729c-.107.892-.688,3.3-1.31,2.453l-.046-.051a4.137,4.137,0,0,0-2.407-1.912.581.581,0,0,0-.143,1.05,1.009,1.009,0,0,1,.092.066,7.405,7.405,0,0,1,1.02,1.183,4.131,4.131,0,0,1,.658,1.275c.153.51.27.948.352,1.321l-.224,2.483-4.589,12.446-8.041-8.372s-4.3,9.5-4.4,9.82c-.071.214,4.028,4.482,6.725,7.256a7.613,7.613,0,0,0,12.864-3.569l3.493-17.535h-.092l.367-1.275,1.173-4.864a.908.908,0,0,0-.546-1.066Z" transform="translate(-516.255 -139.674)" fill="#ffbe9d"/>
          <path id="Path_18433" data-name="Path 18433" d="M555.727,392.425l.087-4.676-8.75-.219-.2,6.837.541.046c2.412.194,12.278.826,13.909.377C563.12,394.286,555.727,392.425,555.727,392.425Z" transform="translate(-515.966 -247.524)" fill="#427729"/>
          <g id="Group_36879" data-name="Group 36879" transform="translate(30.894 144.286)" opacity="0.5">
            <path id="Path_18434" data-name="Path 18434" d="M550.037,398.512a3.059,3.059,0,0,0-1.071-1.9,2.962,2.962,0,0,0-2.04-.688l-.066,2.447Z" transform="translate(-546.86 -395.924)" fill="#fff"/>
          </g>
          <g id="Group_36880" data-name="Group 36880" transform="translate(30.894 145.941)" opacity="0.4">
            <path id="Path_18435" data-name="Path 18435" d="M559.337,399.17s2.59.816,2.254,1.239-10.33.163-14.73-.337v-.2l11.656.4S558.827,399.18,559.337,399.17Z" transform="translate(-546.86 -399.17)" fill="#fff"/>
          </g>
          <path id="Path_18436" data-name="Path 18436" d="M546.63,400.53a.431.431,0,0,0,.148,0l.433.041,1.591.107c1.341.087,3.2.173,5.247.229s3.911.066,5.257.051h0c-1.346,0-3.2-.031-5.252-.087s-3.906-.133-5.252-.194l-1.591-.077h-.433Z" transform="translate(-515.854 -253.895)" fill="#263238"/>
          <path id="Path_18437" data-name="Path 18437" d="M569.734,400.316a4,4,0,0,1,.321-.755,3.361,3.361,0,0,1,.556-.591,1.163,1.163,0,0,0-.648.51A1.2,1.2,0,0,0,569.734,400.316Z" transform="translate(-527.174 -253.131)" fill="#263238"/>
          <path id="Path_18438" data-name="Path 18438" d="M564.746,398.218a1.929,1.929,0,0,0,.28-.331c.133-.2.224-.372.2-.388s-.153.133-.286.331S564.72,398.2,564.746,398.218Z" transform="translate(-524.73 -252.409)" fill="#263238"/>
          <path id="Path_18439" data-name="Path 18439" d="M563.369,397.676a1.489,1.489,0,0,0,.316-.2c.153-.127.265-.26.245-.28s-.158.066-.311.2S563.353,397.651,563.369,397.676Z" transform="translate(-524.057 -252.26)" fill="#263238"/>
          <path id="Path_18440" data-name="Path 18440" d="M562.54,396.444a1.019,1.019,0,0,0,.454.071.991.991,0,0,0,.459-.036,1.02,1.02,0,0,0-.454-.071A.989.989,0,0,0,562.54,396.444Z" transform="translate(-523.651 -251.869)" fill="#263238"/>
          <path id="Path_18441" data-name="Path 18441" d="M562.27,395.34a1.275,1.275,0,0,0,1.02.107,2.709,2.709,0,0,0-.51-.051A2.852,2.852,0,0,0,562.27,395.34Z" transform="translate(-523.519 -251.351)" fill="#263238"/>
          <path id="Path_18442" data-name="Path 18442" d="M565.37,396.676a1.494,1.494,0,0,0,.561,0,4.009,4.009,0,0,0,.6-.117,1.725,1.725,0,0,0,.347-.133.291.291,0,0,0,.143-.173.219.219,0,0,0-.076-.224,1.02,1.02,0,0,0-1.479.637.351.351,0,0,0,0,.153,1.654,1.654,0,0,1,.27-.474,1.02,1.02,0,0,1,.51-.3.872.872,0,0,1,.668.066c.087.066.051.168-.051.224a1.419,1.419,0,0,1-.316.127,3.641,3.641,0,0,1-.586.138C565.584,396.666,565.37,396.661,565.37,396.676Z" transform="translate(-525.038 -251.627)" fill="#263238"/>
          <path id="Path_18443" data-name="Path 18443" d="M564.967,396.426a.545.545,0,0,0,.077-.393.911.911,0,0,0-.143-.413.576.576,0,0,0-.464-.3.23.23,0,0,0-.178.255.6.6,0,0,0,.092.255,1.488,1.488,0,0,0,.255.347.856.856,0,0,0,.316.24,3.319,3.319,0,0,1-.26-.291,1.729,1.729,0,0,1-.229-.342c-.071-.122-.117-.337,0-.357s.286.133.367.25a.847.847,0,0,1,.148.367A1.927,1.927,0,0,1,564.967,396.426Z" transform="translate(-524.492 -251.342)" fill="#263238"/>
          <path id="Path_18444" data-name="Path 18444" d="M547.1,395.8s.25,0,.648.036a2.764,2.764,0,0,1,2.243,1.892,6.207,6.207,0,0,1,.148.627v-.178a2.126,2.126,0,0,0-.082-.474,2.661,2.661,0,0,0-2.31-1.938,2.11,2.11,0,0,0-.479,0C547.161,395.777,547.1,395.792,547.1,395.8Z" transform="translate(-516.084 -251.554)" fill="#263238"/>
          <path id="Path_18445" data-name="Path 18445" d="M548.917,388.75a17.082,17.082,0,0,0-.122,1.795,15.424,15.424,0,0,0,0,1.8,30.231,30.231,0,0,0,.138-3.595Z" transform="translate(-516.902 -248.122)" fill="#263238"/>
          <path id="Path_18446" data-name="Path 18446" d="M555.29,399.331a7.357,7.357,0,0,0,2.55.092c0-.031-.576,0-1.28-.036A12.632,12.632,0,0,0,555.29,399.331Z" transform="translate(-520.098 -253.303)" fill="#263238"/>
          <path id="Path_18447" data-name="Path 18447" d="M551.93,399.247s.041.122.1.255.082.25.112.25.051-.138,0-.291S551.966,399.227,551.93,399.247Z" transform="translate(-518.451 -253.265)" fill="#263238"/>
          <path id="Path_18448" data-name="Path 18448" d="M550.7,397.636a.513.513,0,0,0,.122.2c.092.092.173.158.2.138s-.036-.112-.122-.209S550.72,397.616,550.7,397.636Z" transform="translate(-517.848 -252.475)" fill="#263238"/>
          <path id="Path_18449" data-name="Path 18449" d="M548.9,396.826c0,.031.122.031.25.082s.219.117.245.1-.046-.143-.209-.2S548.895,396.8,548.9,396.826Z" transform="translate(-516.966 -252.057)" fill="#263238"/>
          <path id="Path_18450" data-name="Path 18450" d="M547.62,396.48c0,.025.041.071.112.1s.138.031.148,0-.036-.077-.107-.1S547.63,396.449,547.62,396.48Z" transform="translate(-516.339 -251.9)" fill="#263238"/>
          <path id="Path_18451" data-name="Path 18451" d="M603.6,336.737l-2.04-4.207-7.908,3.763,2.911,6.19.51-.2c2.238-.918,11.325-4.818,12.574-5.955C611.037,335.054,603.6,336.737,603.6,336.737Z" transform="translate(-538.899 -220.567)" fill="#427729"/>
          <g id="Group_36881" data-name="Group 36881" transform="translate(56.571 119.203)" opacity="0.5">
            <path id="Path_18452" data-name="Path 18452" d="M601.156,348.015a3.06,3.06,0,0,0-1.815-1.208,2.953,2.953,0,0,0-2.121.306l1.05,2.213Z" transform="translate(-597.22 -346.73)" fill="#fff"/>
          </g>
          <g id="Group_36882" data-name="Group 36882" transform="translate(57.576 115.292)" opacity="0.4">
            <path id="Path_18453" data-name="Path 18453" d="M610,339.233s2.682-.444,2.549.087-9.137,4.818-13.287,6.363l-.071-.184,10.611-4.915S609.551,339.473,610,339.233Z" transform="translate(-599.19 -339.059)" fill="#fff"/>
          </g>
          <path id="Path_18454" data-name="Path 18454" d="M599,345.678l.143-.051.4-.163,1.468-.622c1.234-.51,2.932-1.29,4.783-2.172s3.518-1.713,4.711-2.33l1.412-.744.377-.209a.686.686,0,0,0,.127-.076l-.138.061-.388.189-1.422.714c-1.2.6-2.871,1.423-4.722,2.3s-3.569,1.652-4.772,2.2l-1.474.653-.393.178A.589.589,0,0,0,599,345.678Z" transform="translate(-541.521 -223.89)" fill="#263238"/>
          <path id="Path_18455" data-name="Path 18455" d="M619.915,340.756a3.657,3.657,0,0,1-.056-.811,3.445,3.445,0,0,1,.23-.785A1.407,1.407,0,0,0,619.915,340.756Z" transform="translate(-551.688 -223.817)" fill="#263238"/>
          <path id="Path_18456" data-name="Path 18456" d="M614.378,341.317a.915.915,0,0,0,.107-.418.9.9,0,0,0,0-.439.95.95,0,0,0-.107.423A1.021,1.021,0,0,0,614.378,341.317Z" transform="translate(-549.047 -224.454)" fill="#263238"/>
          <path id="Path_18457" data-name="Path 18457" d="M612.822,341.428a1.314,1.314,0,0,0,.189-.321c.077-.189.123-.347.1-.357s-.112.133-.194.316S612.8,341.417,612.822,341.428Z" transform="translate(-548.292 -224.595)" fill="#263238"/>
          <path id="Path_18458" data-name="Path 18458" d="M611.34,340.632a1.021,1.021,0,0,0,.438-.143c.229-.107.408-.214.393-.24a1.019,1.019,0,0,0-.438.143A1.085,1.085,0,0,0,611.34,340.632Z" transform="translate(-547.569 -224.351)" fill="#263238"/>
          <path id="Path_18459" data-name="Path 18459" d="M610.58,339.727a.938.938,0,0,0,.51-.087.882.882,0,0,0,.444-.291,2.974,2.974,0,0,0-.51.194,2.769,2.769,0,0,0-.444.184Z" transform="translate(-547.197 -223.91)" fill="#263238"/>
          <path id="Path_18460" data-name="Path 18460" d="M614.29,339.31a1.646,1.646,0,0,0,.51-.245,3.154,3.154,0,0,0,.51-.377,1.661,1.661,0,0,0,.25-.275.3.3,0,0,0,.051-.214.225.225,0,0,0-.173-.168,1.02,1.02,0,0,0-1.02.821,1.046,1.046,0,0,0,0,.418.33.33,0,0,0,.051.143,1.949,1.949,0,0,1,.026-.546,1.02,1.02,0,0,1,.3-.484.9.9,0,0,1,.627-.25c.107,0,.122.133.056.229a1.524,1.524,0,0,1-.224.255,3.945,3.945,0,0,1-.459.388C614.473,339.2,614.279,339.294,614.29,339.31Z" transform="translate(-549.015 -223.263)" fill="#263238"/>
          <path id="Path_18461" data-name="Path 18461" d="M613.552,339.712a.572.572,0,0,0-.112-.382.893.893,0,0,0-.311-.306.586.586,0,0,0-.551-.056.219.219,0,0,0-.041.306.617.617,0,0,0,.194.189,1.686,1.686,0,0,0,.382.194.744.744,0,0,0,.393.066,2.735,2.735,0,0,1-.362-.138,1.745,1.745,0,0,1-.357-.2c-.122-.071-.26-.245-.148-.326a.51.51,0,0,1,.438.056.9.9,0,0,1,.3.26A2.347,2.347,0,0,1,613.552,339.712Z" transform="translate(-548.134 -223.701)" fill="#263238"/>
          <path id="Path_18462" data-name="Path 18462" d="M597.28,346.927a3.576,3.576,0,0,1,.6-.255,2.784,2.784,0,0,1,1.53-.082,2.83,2.83,0,0,1,1.331.744,4.87,4.87,0,0,1,.418.51.608.608,0,0,0-.076-.158,2.42,2.42,0,0,0-.291-.388,2.667,2.667,0,0,0-2.932-.683,1.982,1.982,0,0,0-.433.219.671.671,0,0,0-.143.092Z" transform="translate(-540.678 -227.382)" fill="#263238"/>
          <path id="Path_18463" data-name="Path 18463" d="M595.82,340.18a16.365,16.365,0,0,0,.7,1.657,15.749,15.749,0,0,0,.8,1.611,15.511,15.511,0,0,0-.7-1.657A14.087,14.087,0,0,0,595.82,340.18Z" transform="translate(-539.962 -224.316)" fill="#263238"/>
          <path id="Path_18464" data-name="Path 18464" d="M606.17,345.774a4.89,4.89,0,0,0,1.208-.433,5.131,5.131,0,0,0,1.111-.642c0-.025-.51.25-1.157.546S606.16,345.744,606.17,345.774Z" transform="translate(-545.035 -226.53)" fill="#263238"/>
          <path id="Path_18465" data-name="Path 18465" d="M603.13,348.24c0,.031.092.092.2.184s.183.184.214.168,0-.143-.148-.25S603.135,348.215,603.13,348.24Z" transform="translate(-543.545 -228.262)" fill="#263238"/>
          <path id="Path_18466" data-name="Path 18466" d="M601.3,347.356c0,.026.082.087.2.127s.224.061.235.031-.076-.087-.2-.127S601.31,347.325,601.3,347.356Z" transform="translate(-542.648 -227.826)" fill="#263238"/>
          <path id="Path_18467" data-name="Path 18467" d="M599.348,347.375a1.893,1.893,0,0,1,.26-.041,1.938,1.938,0,0,1,.26,0,.315.315,0,0,0-.27-.087C599.43,347.268,599.333,347.355,599.348,347.375Z" transform="translate(-541.691 -227.779)" fill="#263238"/>
          <path id="Path_18468" data-name="Path 18468" d="M598,347.68c0,.031.066.051.143.046s.143-.036.138-.066-.066-.046-.143-.041S598,347.655,598,347.68Z" transform="translate(-541.031 -227.962)" fill="#263238"/>
          <path id="Path_18469" data-name="Path 18469" d="M486.27,199.239l1.81-8.744c1.463-8.219,13.328-9.04,13.328-9.04l9.04-.163s6.695-.908,10.835,3.748c4.288,4.818,6.537,7.225,6.537,7.225l-6.241,9.963-4.263-4.405a9.723,9.723,0,0,1,1.285,4.563c0,2.672-2.789,3.911-2.789,3.911l-.7,6.792,3.467,6.628-28.37,6.292c.566-4.767.214-8.413,2.463-11.967l2.2-13.288Z" transform="translate(-486.27 -146.407)" fill="#427729"/>
          <path id="Path_18470" data-name="Path 18470" d="M493.439,259.23s40.128-11.7,43.748-9.994,18.641,43.7,18.641,43.7l-11.513,5.609-14.649-35.8s-28.5,11.1-33.076,10.157S493.439,259.23,493.439,259.23Z" transform="translate(-489.681 -179.66)" fill="#263238"/>
          <path id="Path_18471" data-name="Path 18471" d="M513.386,266.69c.571.189,22.572,7.388,24.1,10.238s-1.392,53.655-1.392,53.655l-13.451,1.428.826-49.831-24.087-.607Z" transform="translate(-492.695 -188.298)" fill="#263238"/>
          <path id="Path_18472" data-name="Path 18472" d="M499.12,286.073a1.531,1.531,0,0,0,.352-.046l1.02-.178c.872-.163,2.131-.413,3.681-.744,3.105-.658,7.378-1.652,12.028-2.993,2.33-.678,4.528-1.382,6.511-2.065s3.748-1.366,5.206-1.994c.734-.3,1.392-.591,1.963-.857s1.066-.51,1.463-.688l.913-.459a1.484,1.484,0,0,0,.306-.178,1.728,1.728,0,0,0-.331.128l-.933.413c-.4.184-.9.4-1.479.642s-1.239.51-1.978.816c-1.463.6-3.238,1.239-5.216,1.932s-4.181,1.361-6.5,2.04c-4.645,1.336-8.9,2.361-11.992,3.059l-3.661.831-.994.229A1.381,1.381,0,0,0,499.12,286.073Z" transform="translate(-492.568 -192.797)" fill="#455a64"/>
          <path id="Path_18473" data-name="Path 18473" d="M568.825,294.795a4.21,4.21,0,0,0,.112-.709c.051-.51.117-1.168.2-1.943s.168-1.815.265-2.886a13.056,13.056,0,0,0,0-3.569,5.532,5.532,0,0,0-1.8-3.085,9.269,9.269,0,0,0-2.463-1.576q-.884-.4-1.8-.719a3.477,3.477,0,0,0-.693-.2c0,.051.953.388,2.432,1.1a9.83,9.83,0,0,1,2.376,1.586,5.41,5.41,0,0,1,1.7,2.947,13.41,13.41,0,0,1,0,3.5c-.071,1.071-.143,2.039-.2,2.891s-.081,1.433-.112,1.948A3.266,3.266,0,0,0,568.825,294.795Z" transform="translate(-523.7 -194.875)" fill="#455a64"/>
          <path id="Path_18474" data-name="Path 18474" d="M577.63,128.32s3.37-.642,8.214-5.043,7.235-10.366,7.811-10.32,3.131-1.05,7.648,9.514,2.549,12.931,1.586,12.885-7.378-2.04-11.437-1.688a43.913,43.913,0,0,0-9.321,2.3Z" transform="translate(-531.047 -112.944)" fill="#455a64"/>
          <path id="Path_18475" data-name="Path 18475" d="M563.063,146.714l1.081,2.2.484.989a2.835,2.835,0,0,0,3.661,1.361l7.256-2.3-3.911-9.688-7.286,3.62a2.84,2.84,0,0,0-1.285,3.814Z" transform="translate(-523.762 -125.852)" fill="#263238"/>
          <path id="Path_18476" data-name="Path 18476" d="M571.28,159.518l2.162,4.553,1.152-.286,7.3,6.292,2.208-4.028s-4.365-2.04-5.135-3.63.179-1.927.179-1.927l-2.009-2.422Z" transform="translate(-527.935 -135.061)" fill="#263238"/>
          <path id="Path_18477" data-name="Path 18477" d="M616.325,122.915c2.391,5.721,3.309,10.784,2.04,11.309s-4.217-3.686-6.629-9.407-3.309-10.784-2.039-11.309S613.934,117.184,616.325,122.915Z" transform="translate(-546.482 -113.198)" fill="#263238"/>
          <path id="Path_18478" data-name="Path 18478" d="M561.333,157.211l1.963-.556-1.142-2.325-1.484.867Z" transform="translate(-522.735 -133.228)" fill="#455a64"/>
          <path id="Path_18479" data-name="Path 18479" d="M578.405,159.7l-5.328,3.187-.617-1.3Z" transform="translate(-528.513 -135.86)" fill="#455a64"/>
          <path id="Path_18480" data-name="Path 18480" d="M563.409,154.33l1.142,2.325-.4.117-.918-2.34Z" transform="translate(-523.99 -133.228)" fill="#455a64"/>
          <g id="Group_36883" data-name="Group 36883" transform="translate(51.493 21.948)" opacity="0.2">
            <path id="Path_18481" data-name="Path 18481" d="M587.26,156.439l1.331-.449" transform="translate(-587.26 -155.99)"/>
          </g>
          <path id="Path_18482" data-name="Path 18482" d="M566.18,153.715a21.228,21.228,0,0,0,4.293-1.795,10.931,10.931,0,0,0-2.193.785A11.171,11.171,0,0,0,566.18,153.715Z" transform="translate(-525.435 -132.047)" fill="#455a64"/>
          <path id="Path_18483" data-name="Path 18483" d="M565.09,151.01a8.873,8.873,0,0,0,1.984-.77,9.412,9.412,0,0,0,1.887-1.02,17.944,17.944,0,0,0-3.87,1.769Z" transform="translate(-524.901 -130.723)" fill="#455a64"/>
          <path id="Path_18484" data-name="Path 18484" d="M567.59,156.746c0,.036.24,0,.612-.117l.653-.194c.24-.082.51-.2.765-.311a8.417,8.417,0,0,0,1.881-.984,9.858,9.858,0,0,0-1.978.755c-.27.112-.51.235-.755.326l-.622.24A1.565,1.565,0,0,0,567.59,156.746Z" transform="translate(-526.126 -133.625)" fill="#455a64"/>
          <path id="Path_18485" data-name="Path 18485" d="M613.12,128.873s2.962-1.723,4.446,2.254-1.6,4.543-1.6,4.543A26.217,26.217,0,0,1,613.12,128.873Z" transform="translate(-548.441 -120.569)" fill="#455a64"/>
          <path id="Path_18486" data-name="Path 18486" d="M607.3,119.86a4.529,4.529,0,0,0,.092.755c.082.479.189,1.183.352,2.04l.367,1.392c.061.25.133.51.2.77l.107.408c.041.133.092.265.138.4.194.551.4,1.122.612,1.718l.158.449c.051.153.128.3.194.449l.408.9c.138.306.275.607.408.908.071.143.127.3.209.438l.229.418.882,1.591c.071.127.138.255.214.377l.235.347.444.668.8,1.193c.54.688.989,1.234,1.3,1.611a4.771,4.771,0,0,0,.51.571,4,4,0,0,0-.428-.627l-1.234-1.667c-.24-.367-.51-.77-.77-1.2-.143-.214-.286-.438-.433-.668l-.224-.347c-.076-.122-.138-.25-.209-.372L611,130.8l-.229-.418c-.077-.138-.133-.291-.2-.439-.133-.3-.27-.6-.4-.9l-.408-.9c-.066-.148-.138-.291-.194-.444l-.158-.444c-.219-.591-.423-1.157-.622-1.7-.046-.133-.1-.265-.143-.4s-.077-.265-.112-.4q-.117-.4-.214-.765c-.143-.51-.27-.953-.393-1.377-.178-.841-.321-1.53-.428-2.04a3.67,3.67,0,0,0-.194-.714Z" transform="translate(-545.589 -116.334)" fill="#263238"/>
          <path id="Path_18487" data-name="Path 18487" d="M587.3,168.1a4.916,4.916,0,0,0,.082,2c.056.224.2.51.428.464a.439.439,0,0,0,.281-.235,2.392,2.392,0,0,0,.387-1.168,3.956,3.956,0,0,0,.112,1.795c.087.27.25.566.51.591s.51-.321.566-.627a3.987,3.987,0,0,1,.1-.928,8.506,8.506,0,0,0-.025,1.8,1.375,1.375,0,0,0,.128.535.51.51,0,0,0,.428.311.546.546,0,0,0,.474-.306,1.464,1.464,0,0,0,.153-.571c.082-.663.133-1.326.148-1.994" transform="translate(-535.752 -139.977)" fill="#ffbe9d"/>
          <path id="Path_18488" data-name="Path 18488" d="M542.894,162.579c0-.1.342-.163.846-.423a3.911,3.911,0,0,0,1.626-1.657,4.339,4.339,0,0,0,.51-1.53,5.289,5.289,0,0,0-.112-1.83,11.8,11.8,0,0,0-1.963-3.972,31.317,31.317,0,0,1-2.6-4.028,9.651,9.651,0,0,1-.989-3.911,8.117,8.117,0,0,1,.331-2.677c.189-.607.383-.9.464-.882s.071.372.041.974a12.842,12.842,0,0,0,.1,2.5,10.167,10.167,0,0,0,1.137,3.437,45.968,45.968,0,0,0,2.605,3.829,11.728,11.728,0,0,1,2.07,4.487,6.006,6.006,0,0,1,0,2.259,5.016,5.016,0,0,1-.775,1.82,3.88,3.88,0,0,1-2.254,1.647C543.251,162.783,542.894,162.656,542.894,162.579Z" transform="translate(-512.704 -127.022)" fill="#263238"/>
          <path id="Path_18489" data-name="Path 18489" d="M523.916,157.92c.056-1.892.138-3.641.138-3.641a4.632,4.632,0,0,0,3.972-4.38c.163-3.87-.245-12.859-.245-12.859l-7.026-3.36-6.119,7-.066,17.081a4.671,4.671,0,0,0,4.65,4.691h0A4.671,4.671,0,0,0,523.916,157.92Z" transform="translate(-500.14 -123.107)" fill="#ffbe9d"/>
          <path id="Path_18490" data-name="Path 18490" d="M537.86,152.74a.51.51,0,1,1-.51-.51A.51.51,0,0,1,537.86,152.74Z" transform="translate(-511.055 -132.199)" fill="#263238"/>
          <path id="Path_18491" data-name="Path 18491" d="M538.276,151.433c-.061.066-.423-.24-.948-.26s-.908.245-.964.173.036-.148.2-.27a1.239,1.239,0,0,1,1.53.066C538.256,151.3,538.307,151.433,538.276,151.433Z" transform="translate(-510.814 -131.519)" fill="#263238"/>
          <path id="Path_18492" data-name="Path 18492" d="M526.894,152.587a.51.51,0,1,1-.184-.571A.51.51,0,0,1,526.894,152.587Z" transform="translate(-505.693 -132.046)" fill="#263238"/>
          <path id="Path_18493" data-name="Path 18493" d="M526.921,151.69c-.061.066-.428-.24-.948-.26s-.913.25-.969.178.036-.153.209-.275a1.234,1.234,0,0,1,.77-.224,1.254,1.254,0,0,1,.755.291C526.9,151.562,526.952,151.664,526.921,151.69Z" transform="translate(-505.246 -131.648)" fill="#263238"/>
          <path id="Path_18494" data-name="Path 18494" d="M532.473,156.57a3.57,3.57,0,0,1,.851-.133c.133,0,.26-.031.286-.127a.815.815,0,0,0-.082-.428l-.382-1.1a20.682,20.682,0,0,1-.846-2.881,19.057,19.057,0,0,1,1.06,2.8l.362,1.112a.863.863,0,0,1,.061.561.342.342,0,0,1-.224.2.891.891,0,0,1-.224,0,3.3,3.3,0,0,1-.862-.01Z" transform="translate(-508.83 -132.037)" fill="#263238"/>
          <path id="Path_18495" data-name="Path 18495" d="M528.308,172.5a9.305,9.305,0,0,1-5.058-1.647,4.887,4.887,0,0,0,4.992,2.6Z" transform="translate(-504.395 -141.325)" fill="#eb996e"/>
          <path id="Path_18496" data-name="Path 18496" d="M530.747,162.963a1.02,1.02,0,0,0-.607-.744.8.8,0,0,0-.673,0,.566.566,0,0,0-.311.571.658.658,0,0,0,.541.51,1.815,1.815,0,0,0,.775-.051.509.509,0,0,0,.2-.076.184.184,0,0,0,.087-.184" transform="translate(-507.288 -137.058)" fill="#eb996e"/>
          <path id="Path_18497" data-name="Path 18497" d="M529.653,161c-.036,0-.1.143-.076.393a1.377,1.377,0,0,0,1.331,1.254c.255,0,.4-.066.393-.1a2.218,2.218,0,0,1-1.1-.484C529.719,161.607,529.734,161,529.653,161Z" transform="translate(-507.493 -136.497)" fill="#263238"/>
          <path id="Path_18498" data-name="Path 18498" d="M526.084,135.989a4.676,4.676,0,0,1-4.62,4.079l1.055-2.33a11.061,11.061,0,0,1-3.2,2.871,3.789,3.789,0,0,1-4.079-.2c-.352.953-.347,2.009-.673,2.973s-1.086,4.936-2.1,4.788c-.923-.138-1.586-4.145-1.82-5.048a8.25,8.25,0,0,1,1.815-7.225,9.892,9.892,0,0,1,8.158-3.452,6.863,6.863,0,0,1,3.788,1.326,5.288,5.288,0,0,1,1.866,2.973" transform="translate(-498.122 -122.49)" fill="#263238"/>
          <path id="Path_18499" data-name="Path 18499" d="M540.076,144.386a3.208,3.208,0,0,1-1.086-1.744,9.36,9.36,0,0,1-.26-2.07c0-.2,0-.459.214-.51s.347.143.438.316a6.719,6.719,0,0,1,.7,4.217l-.127-.117" transform="translate(-511.982 -126.231)" fill="#263238"/>
          <path id="Path_18500" data-name="Path 18500" d="M509.148,142.838c-2.228,8.388-2.947,17.193-1.81,24.622a13.883,13.883,0,0,0,.143,2.31,2.039,2.039,0,0,0,1.637,1.479c.724.061,1.53-.382,2.141,0,.479.291.6.923.953,1.351a1.8,1.8,0,0,0,1.881.454,3.182,3.182,0,0,0,1.576-1.249c1.387-1.932,1.326-4.589.663-6.868s-1.836-4.4-2.549-6.674c-1.321-4.247-.938-8.811-.541-13.257l.347-3.885" transform="translate(-496.335 -126.754)" fill="#263238"/>
          <path id="Path_18501" data-name="Path 18501" d="M520.684,207.254c1.82-1.851,1.657-2.04,1.412-2.2-.668-.51-3.319,3.136-3.192,2.014s3.748-4.043,3.059-4.523c-.933-.627-3.641,3.222-3.9,3.528s-.7-.056-.454-.321c.347-.382,3.921-4.487,3.008-5.1-.51-.347-1.02.637-1.02.637s-3.059,4.079-3.488,3.783,1.3-2.779,1.932-3.569.51-1.4-.046-1.4c-.388,0-2.4,2.366-3.008,3.161s-2.254,3.008-2.315,1.239v-.082a4.753,4.753,0,0,0-1.02-3.36.607.607,0,0,0-.872.648.738.738,0,0,0,.056.25.872.872,0,0,1,.046.122,8.665,8.665,0,0,1,.209,1.79,4.642,4.642,0,0,1-.214,1.586c-.184.586-.367,1.081-.51,1.494l-.265.321-14.832,8.388V208.6s-8.189-.357-8.49-.122a40.317,40.317,0,0,0,0,11.217,8.694,8.694,0,0,0,14.419,4.976l12.319-11.217.046.036,1.754-1.443.342-.54.408-.372A55.27,55.27,0,0,0,520.684,207.254Z" transform="translate(-486.333 -155.661)" fill="#ffbe9d"/>
        </g>
        <g id="freepik--character-1--inject-23" transform="translate(105.955 89.818)">
          <path id="Path_18502" data-name="Path 18502" d="M257.1,215.514s6.736,14.756,7.169,15.327,8.872,5.961,8.872,5.961l8.189-.464-9.372-9.825-7.873-15.592Z" transform="translate(-199.336 -168.44)" fill="#ffbe9d"/>
          <path id="Path_18503" data-name="Path 18503" d="M213.992,139.59a.821.821,0,0,1-.2.867.836.836,0,0,1-.887.153c-.546-.24-.658-.979-.581-1.57a3,3,0,0,0-.041-1.774,3.957,3.957,0,0,0-.974-.959,2.59,2.59,0,0,1-.836-2.157,2.182,2.182,0,0,1,1.4-1.795c.775-.26,1.754-.071,2.31-.673.4-.433.388-1.112.693-1.621a2.508,2.508,0,0,1,2.453-.9,7.289,7.289,0,0,0,2.738.046,12.313,12.313,0,0,0,1.994-1.137A4.023,4.023,0,0,1,227.6,133.3a2.549,2.549,0,0,1-1.183,1.305" transform="translate(-176.475 -127.606)" fill="#263238"/>
          <path id="Path_18504" data-name="Path 18504" d="M217.886,159.922l8.668-.693c.056-1.02,0-4.925,0-4.925a4.324,4.324,0,0,0,3.646-4.161c.046-3.6-.581-11.88-.581-11.88h0a12.523,12.523,0,0,0-12.579,1.581l-.51.413Z" transform="translate(-179.451 -132.331)" fill="#ffbe9d"/>
          <path id="Path_18505" data-name="Path 18505" d="M239.619,150.386a.51.51,0,1,1,.377.141A.51.51,0,0,1,239.619,150.386Z" transform="translate(-190.691 -138.341)" fill="#263238"/>
          <path id="Path_18506" data-name="Path 18506" d="M240.477,149.28c-.056.066-.408-.209-.908-.209s-.857.255-.908.189,0-.143.184-.26a1.2,1.2,0,0,1,.729-.229,1.219,1.219,0,0,1,.724.245C240.452,149.142,240.5,149.254,240.477,149.28Z" transform="translate(-190.29 -137.979)" fill="#263238"/>
          <path id="Path_18507" data-name="Path 18507" d="M229.641,150.549a.524.524,0,1,1-.551.892.524.524,0,0,1,.551-.892Z" transform="translate(-185.491 -138.814)" fill="#263238"/>
          <path id="Path_18508" data-name="Path 18508" d="M229.9,150.139c-.056.061-.413-.209-.908-.209s-.857.25-.913.189.031-.143.189-.26a1.173,1.173,0,0,1,.729-.229,1.188,1.188,0,0,1,.724.245C229.878,150,229.929,150.114,229.9,150.139Z" transform="translate(-185.106 -138.4)" fill="#263238"/>
          <path id="Path_18509" data-name="Path 18509" d="M235.291,154.5a2.352,2.352,0,0,1,.806-.168c.127,0,.229-.046.24-.112a.719.719,0,0,0-.092-.372c-.128-.331-.26-.663-.393-1.02A13.831,13.831,0,0,1,235,150.18a14.066,14.066,0,0,1,1.112,2.549c.133.352.255.688.372,1.02a.8.8,0,0,1,.071.535.337.337,0,0,1-.224.209.938.938,0,0,1-.219.031A2.412,2.412,0,0,1,235.291,154.5Z" transform="translate(-188.504 -138.67)" fill="#263238"/>
          <path id="Path_18510" data-name="Path 18510" d="M232.382,159.74a9.4,9.4,0,0,0,2.432.7,1.366,1.366,0,0,1-1.616.546C232.117,160.6,232.382,159.74,232.382,159.74Z" transform="translate(-187.207 -143.355)" fill="#fff"/>
          <path id="Path_18511" data-name="Path 18511" d="M231.636,169.316a8.382,8.382,0,0,1-4.7-1.336s1.106,2.6,4.7,2.269Z" transform="translate(-184.553 -147.394)" fill="#eb996e"/>
          <path id="Path_18512" data-name="Path 18512" d="M228.843,138.3a5.989,5.989,0,0,1-5.058,0c-1.938-.8-4.145-1.086-4.589-.678s-.413,2.345-2.218,3.059c0,0,.4,3.661-1.076,3.635s-.979-5.767-.979-5.767l3.452-2.04,3.85-1.02,3.722.25,2.906.566Z" transform="translate(-178.625 -131.47)" fill="#263238"/>
          <path id="Path_18513" data-name="Path 18513" d="M214.994,150.361c-.061-.025-2.478-.734-2.4,1.734a1.859,1.859,0,0,0,2.549,1.8C215.147,153.828,214.994,150.361,214.994,150.361Z" transform="translate(-177.523 -138.703)" fill="#ffbe9d"/>
          <path id="Path_18514" data-name="Path 18514" d="M214.9,153.747a.577.577,0,0,1-.112.071.474.474,0,0,1-.321,0,1.055,1.055,0,0,1-.51-.938,1.417,1.417,0,0,1,.1-.617.51.51,0,0,1,.316-.342.214.214,0,0,1,.255.112c.036.066,0,.117.036.117s.051-.041,0-.143a.245.245,0,0,0-.1-.148.3.3,0,0,0-.24-.056.6.6,0,0,0-.433.393,1.468,1.468,0,0,0-.127.693,1.117,1.117,0,0,0,.658,1.045.469.469,0,0,0,.393-.082C214.9,153.808,214.93,153.752,214.9,153.747Z" transform="translate(-178.091 -139.463)" fill="#eb996e"/>
          <path id="Path_18515" data-name="Path 18515" d="M214,135.358c-.025-.066.382-.24.877-.087s.734.51.673.571-.337-.189-.755-.316S214.024,135.429,214,135.358Z" transform="translate(-178.21 -131.333)" fill="#263238"/>
          <path id="Path_18516" data-name="Path 18516" d="M216.631,132.45c.087,0,.076.51.194,1.117s.393,1.02.331,1.066-.459-.347-.591-1.02A1.769,1.769,0,0,1,216.631,132.45Z" transform="translate(-179.435 -129.98)" fill="#263238"/>
          <path id="Path_18517" data-name="Path 18517" d="M237.5,147.658c-.082-.122.382-.51,1.091-.551s1.2.326,1.137.449-.546.051-1.112.082S237.572,147.79,237.5,147.658Z" transform="translate(-189.725 -137.162)" fill="#263238"/>
          <path id="Path_18518" data-name="Path 18518" d="M226.661,146.753c-.082-.117.377-.51,1.091-.546s1.2.321,1.137.449-.546.051-1.117.082S226.732,146.886,226.661,146.753Z" transform="translate(-184.412 -136.722)" fill="#263238"/>
          <path id="Path_18519" data-name="Path 18519" d="M178.024,445.89l-.852,3.625s-5.9,7.648-7.72,7.286c-1.188-.245.275-2.243,2.519-8.061l.469-2.4Z" transform="translate(-156.171 -283.603)" fill="#427729"/>
          <path id="Path_18520" data-name="Path 18520" d="M169.38,458.25a.867.867,0,0,0,.316.3,1.1,1.1,0,0,0,1.127-.158,32.484,32.484,0,0,0,2.937-2.784c1.091-1.142,2.009-2.249,2.656-3.059.286-.367.51-.693.755-.969l.2-.265c.046-.061.071-.092.076-.087l-.061.1-.189.28c-.168.235-.413.576-.729.989a37.544,37.544,0,0,1-2.636,3.09,28.876,28.876,0,0,1-2.968,2.769,1.413,1.413,0,0,1-.668.245,1.02,1.02,0,0,1-.51-.112.632.632,0,0,1-.245-.23.428.428,0,0,1-.066-.107Z" transform="translate(-156.342 -286.219)" fill="#263238"/>
          <path id="Path_18521" data-name="Path 18521" d="M171,460.147a.954.954,0,0,1,.484-.056,2.548,2.548,0,0,1,1.112.388,2.04,2.04,0,0,1,.811.851,1.061,1.061,0,0,1,.127.474,2.908,2.908,0,0,0-.194-.439,2.161,2.161,0,0,0-.811-.816,2.687,2.687,0,0,0-1.061-.4A4.608,4.608,0,0,0,171,460.147Z" transform="translate(-157.136 -290.558)" fill="#263238"/>
          <path id="Path_18522" data-name="Path 18522" d="M181.794,453.19a.943.943,0,0,1-.071-.173,3.06,3.06,0,0,1-.112-.51,2.631,2.631,0,0,1,.275-1.637,2.55,2.55,0,0,1,1.188-1.163,2.151,2.151,0,0,1,.51-.148h.184a3.971,3.971,0,0,0-.637.229A2.6,2.6,0,0,0,182,450.927a2.794,2.794,0,0,0-.3,1.581A3.119,3.119,0,0,0,181.794,453.19Z" transform="translate(-162.321 -285.402)" fill="#263238"/>
          <path id="Path_18523" data-name="Path 18523" d="M185.435,447.09c.025,0-.107.51-.219,1.152a3.958,3.958,0,0,1-.306,1.132s.092-.51.2-1.152a3.686,3.686,0,0,1,.321-1.132Z" transform="translate(-163.954 -284.191)" fill="#263238"/>
          <path id="Path_18524" data-name="Path 18524" d="M174.58,452.389a1.392,1.392,0,0,1,.76,0,1.366,1.366,0,0,1,.683.321c0,.025-.311-.127-.709-.219S174.585,452.42,174.58,452.389Z" transform="translate(-158.891 -286.762)" fill="#263238"/>
          <path id="Path_18525" data-name="Path 18525" d="M174.35,453.6a.928.928,0,0,1,.637,0,.913.913,0,0,1,.556.306c0,.026-.25-.127-.581-.2S174.355,453.626,174.35,453.6Z" transform="translate(-158.778 -287.352)" fill="#263238"/>
          <path id="Path_18526" data-name="Path 18526" d="M173.42,455.064a.964.964,0,0,1,1.219.275,2.675,2.675,0,0,0-.581-.255A2.853,2.853,0,0,0,173.42,455.064Z" transform="translate(-158.322 -288.045)" fill="#263238"/>
          <path id="Path_18527" data-name="Path 18527" d="M175.38,450.5s.27-.071.693-.234a5.172,5.172,0,0,0,.709-.342,4.615,4.615,0,0,0,.393-.25c.122-.092.255-.224.25-.362s-.178-.214-.316-.184a.863.863,0,0,0-.362.245c-.219.2-.4.4-.556.571-.3.337-.469.561-.479.551s.025-.066.1-.173.184-.255.326-.428a7.437,7.437,0,0,1,.54-.591.928.928,0,0,1,.413-.27.342.342,0,0,1,.444.275.607.607,0,0,1-.3.449,3.942,3.942,0,0,1-.4.25,4.888,4.888,0,0,1-.734.331,3.668,3.668,0,0,1-.51.138A.73.73,0,0,1,175.38,450.5Z" transform="translate(-159.283 -285.135)" fill="#263238"/>
          <path id="Path_18528" data-name="Path 18528" d="M174.968,449.941a6.019,6.019,0,0,1-.107-.663,2.953,2.953,0,0,0-.2-.678,1.5,1.5,0,0,0-.219-.352c-.092-.1-.224-.189-.337-.122a.356.356,0,0,0-.112.357,1.9,1.9,0,0,0,.117.4,2.32,2.32,0,0,0,.388.6c.27.3.484.449.474.464a.556.556,0,0,1-.158-.092,3.216,3.216,0,0,1-.352-.311,2.3,2.3,0,0,1-.423-.607,1.785,1.785,0,0,1-.127-.423.449.449,0,0,1,.163-.464.388.388,0,0,1,.464.148,1.49,1.49,0,0,1,.235.377,2.513,2.513,0,0,1,.184.709c.025.209.036.372.041.51A.675.675,0,0,1,174.968,449.941Z" transform="translate(-158.555 -284.646)" fill="#263238"/>
          <g id="Group_36884" data-name="Group 36884" transform="translate(12.869 164.184)" opacity="0.4">
            <path id="Path_18529" data-name="Path 18529" d="M177.182,451.339l.413-1.729s-1.443.265-1.82,1.346a4.589,4.589,0,0,0-.28,1.851l-3.141,3.386s-.79-1.53-2.218-1.173a14.8,14.8,0,0,0-1.086,3.09c.036.617.755.546,1.02.428a12.507,12.507,0,0,0,2.815-2.218C174.53,454.571,176.371,452.384,177.182,451.339Z" transform="translate(-169.048 -449.61)"/>
          </g>
          <path id="Path_18530" data-name="Path 18530" d="M235.412,444.74v-4.813l-9-.107-.117,7.036.556.041c2.488.168,12.645.683,14.312.2C243.045,446.54,235.412,444.74,235.412,444.74Z" transform="translate(-184.235 -280.628)" fill="#427729"/>
          <g id="Group_36885" data-name="Group 36885" transform="translate(42.091 163.577)" opacity="0.4">
            <path id="Path_18531" data-name="Path 18531" d="M229.618,451.041a3.156,3.156,0,0,0-1.127-1.938,3.059,3.059,0,0,0-2.1-.678l-.031,2.519Z" transform="translate(-226.36 -448.42)"/>
          </g>
          <g id="Group_36886" data-name="Group 36886" transform="translate(42.081 165.132)" opacity="0.4">
            <path id="Path_18532" data-name="Path 18532" d="M239.163,451.47s2.677.806,2.335,1.244-10.626.306-15.159-.148v-.2l12,.255S238.638,451.485,239.163,451.47Z" transform="translate(-226.34 -451.47)"/>
          </g>
          <path id="Path_18533" data-name="Path 18533" d="M226.1,453.21a.716.716,0,0,0,.153,0l.444.031,1.637.092c1.382.066,3.294.133,5.4.163s4.023,0,5.41,0l1.637-.051h-7.047c-2.111,0-4.018-.087-5.4-.133l-1.637-.056h-.449Z" transform="translate(-184.142 -287.19)" fill="#263238"/>
          <path id="Path_18534" data-name="Path 18534" d="M249.884,452.657a4.076,4.076,0,0,1,.316-.78,3.725,3.725,0,0,1,.566-.617,1.2,1.2,0,0,0-.658.561A1.213,1.213,0,0,0,249.884,452.657Z" transform="translate(-195.796 -286.235)" fill="#263238"/>
          <path id="Path_18535" data-name="Path 18535" d="M244.706,450.573a1.807,1.807,0,0,0,.291-.342c.133-.2.224-.387.2-.4s-.158.138-.291.342S244.68,450.558,244.706,450.573Z" transform="translate(-193.259 -285.533)" fill="#263238"/>
          <path id="Path_18536" data-name="Path 18536" d="M243.288,450.032c0,.026.163-.071.321-.2s.27-.27.25-.291-.163.066-.321.2S243.267,450.011,243.288,450.032Z" transform="translate(-192.565 -285.389)" fill="#263238"/>
          <path id="Path_18537" data-name="Path 18537" d="M242.41,448.782a2.106,2.106,0,0,0,.943.026,1.056,1.056,0,0,0-.469-.066,1.109,1.109,0,0,0-.474.041Z" transform="translate(-192.136 -284.995)" fill="#263238"/>
          <path id="Path_18538" data-name="Path 18538" d="M242.11,447.65a.918.918,0,0,0,.51.163.948.948,0,0,0,.54-.066,3.216,3.216,0,0,0-.51-.046A3.372,3.372,0,0,0,242.11,447.65Z" transform="translate(-191.989 -284.465)" fill="#263238"/>
          <path id="Path_18539" data-name="Path 18539" d="M245.33,448.987a1.53,1.53,0,0,0,.581,0,3.335,3.335,0,0,0,.617-.128,1.794,1.794,0,0,0,.357-.143.286.286,0,0,0,.143-.178.224.224,0,0,0-.082-.229,1.066,1.066,0,0,0-1.321.291,1.132,1.132,0,0,0-.194.387.3.3,0,0,0,0,.153,1.661,1.661,0,0,1,.27-.51,1.046,1.046,0,0,1,.51-.316.923.923,0,0,1,.688.056c.092.071.051.179-.051.24a1.528,1.528,0,0,1-.326.133,3.749,3.749,0,0,1-.6.148C245.554,448.971,245.33,448.971,245.33,448.987Z" transform="translate(-193.567 -284.731)" fill="#263238"/>
          <path id="Path_18540" data-name="Path 18540" d="M244.912,448.727a.591.591,0,0,0,.071-.4,1.066,1.066,0,0,0-.153-.428.591.591,0,0,0-.479-.3.235.235,0,0,0-.184.265.657.657,0,0,0,.1.26,1.592,1.592,0,0,0,.27.357c.178.178.321.25.326.235s-.112-.1-.27-.291a2.268,2.268,0,0,1-.24-.347c-.076-.127-.127-.347,0-.372s.291.138.382.255a.953.953,0,0,1,.158.377A2.315,2.315,0,0,1,244.912,448.727Z" transform="translate(-192.996 -284.441)" fill="#263238"/>
          <path id="Path_18541" data-name="Path 18541" d="M226.52,448.324s.255,0,.663.031a2.809,2.809,0,0,1,2.335,1.912c.133.388.143.648.163.648s0-.066,0-.184a2.743,2.743,0,0,0-2.493-2.453,2.551,2.551,0,0,0-.51,0,.535.535,0,0,0-.158.046Z" transform="translate(-184.348 -284.767)" fill="#263238"/>
          <path id="Path_18542" data-name="Path 18542" d="M228.333,441.05a30.592,30.592,0,0,0-.092,3.7A30.6,30.6,0,0,0,228.333,441.05Z" transform="translate(-185.182 -281.231)" fill="#263238"/>
          <path id="Path_18543" data-name="Path 18543" d="M235,451.854a5.016,5.016,0,0,0,1.315.148,5.182,5.182,0,0,0,1.321-.087c0-.031-.591,0-1.321,0S235,451.823,235,451.854Z" transform="translate(-188.504 -286.523)" fill="#263238"/>
          <path id="Path_18544" data-name="Path 18544" d="M231.53,451.807a1.649,1.649,0,0,0,.107.265c.061.138.087.255.117.25s.051-.138,0-.3S231.55,451.787,231.53,451.807Z" transform="translate(-186.803 -286.501)" fill="#263238"/>
          <path id="Path_18545" data-name="Path 18545" d="M230.244,450.166c-.025,0,.036.117.127.214s.184.153.2.133-.036-.112-.127-.209S230.265,450.146,230.244,450.166Z" transform="translate(-186.17 -285.697)" fill="#263238"/>
          <path id="Path_18546" data-name="Path 18546" d="M228.389,449.361c0,.031.122.031.255.077s.229.122.25.1-.046-.148-.214-.2S228.379,449.331,228.389,449.361Z" transform="translate(-185.264 -285.279)" fill="#263238"/>
          <path id="Path_18547" data-name="Path 18547" d="M227.06,448.99c0,.031.041.076.117.107s.143.031.153,0-.041-.071-.112-.1A.274.274,0,0,0,227.06,448.99Z" transform="translate(-184.612 -285.117)" fill="#263238"/>
          <path id="Path_18548" data-name="Path 18548" d="M212.923,262.12l-4.2,93.451-14.032.3,2.33-78.236-15.781,78.833H167.9l17.815-94.343" transform="translate(-155.617 -193.534)" fill="#263238"/>
          <path id="Path_18549" data-name="Path 18549" d="M181.932,444.091l-.321,1.382-13.711.184.209-2.157Z" transform="translate(-155.617 -282.431)" fill="#455a64"/>
          <path id="Path_18550" data-name="Path 18550" d="M174.278,444.539c.071,0,.1.189.066.4s-.117.367-.194.357-.1-.194-.066-.4S174.207,444.524,174.278,444.539Z" transform="translate(-158.64 -282.94)" fill="#455a64"/>
          <path id="Path_18551" data-name="Path 18551" d="M175.192,438.54c.071,0,.071.362,0,.785s-.184.755-.255.744-.076-.367,0-.79S175.12,438.524,175.192,438.54Z" transform="translate(-159.039 -280)" fill="#455a64"/>
          <path id="Path_18552" data-name="Path 18552" d="M176.2,432.53c.071,0,.071.367,0,.79s-.184.755-.26.739-.071-.362,0-.785S176.125,432.52,176.2,432.53Z" transform="translate(-159.529 -277.055)" fill="#455a64"/>
          <path id="Path_18553" data-name="Path 18553" d="M177.209,426.53c.071,0,.071.362,0,.785s-.189.755-.26.744-.071-.367,0-.785S177.137,426.514,177.209,426.53Z" transform="translate(-160.026 -274.114)" fill="#455a64"/>
          <path id="Path_18554" data-name="Path 18554" d="M178.219,420.52c.071,0,.071.367,0,.79s-.189.755-.26.744-.071-.367,0-.79S178.147,420.51,178.219,420.52Z" transform="translate(-160.521 -271.168)" fill="#455a64"/>
          <path id="Path_18555" data-name="Path 18555" d="M179.227,414.519c.071,0,.076.362,0,.785s-.189.755-.26.744-.076-.362,0-.785S179.155,414.5,179.227,414.519Z" transform="translate(-161.014 -268.227)" fill="#455a64"/>
          <path id="Path_18556" data-name="Path 18556" d="M180.249,408.51c.071,0,.071.367,0,.79s-.189.755-.26.744-.071-.367,0-.79S180.177,408.5,180.249,408.51Z" transform="translate(-161.516 -265.282)" fill="#455a64"/>
          <path id="Path_18557" data-name="Path 18557" d="M181.269,402.51c.071,0,.071.367,0,.79s-.189.755-.26.739-.071-.362,0-.785S181.2,402.5,181.269,402.51Z" transform="translate(-162.015 -262.341)" fill="#455a64"/>
          <path id="Path_18558" data-name="Path 18558" d="M182.289,396.51c.071,0,.071.362,0,.785s-.189.755-.26.744-.071-.367,0-.79S182.217,396.494,182.289,396.51Z" transform="translate(-162.515 -259.4)" fill="#455a64"/>
          <path id="Path_18559" data-name="Path 18559" d="M183.312,390.5c.071,0,.071.367,0,.79s-.189.755-.265.744-.071-.367,0-.79S183.24,390.49,183.312,390.5Z" transform="translate(-163.013 -256.455)" fill="#455a64"/>
          <path id="Path_18560" data-name="Path 18560" d="M184.344,384.5c.071,0,.071.367,0,.79s-.194.755-.265.739-.071-.362,0-.785S184.272,384.49,184.344,384.5Z" transform="translate(-163.52 -253.514)" fill="#455a64"/>
          <path id="Path_18561" data-name="Path 18561" d="M185.389,378.5c.071,0,.071.367,0,.79s-.189.755-.26.739-.071-.362,0-.785S185.312,378.49,185.389,378.5Z" transform="translate(-164.035 -250.573)" fill="#455a64"/>
          <path id="Path_18562" data-name="Path 18562" d="M186.429,372.5c.071,0,.071.367,0,.79s-.189.755-.26.739-.071-.362,0-.785S186.357,372.49,186.429,372.5Z" transform="translate(-164.544 -247.633)" fill="#455a64"/>
          <path id="Path_18563" data-name="Path 18563" d="M187.464,366.5c.076,0,.071.367,0,.79s-.194.755-.265.739-.071-.362,0-.785S187.392,366.49,187.464,366.5Z" transform="translate(-165.049 -244.692)" fill="#455a64"/>
          <path id="Path_18564" data-name="Path 18564" d="M188.524,360.509c.071,0,.071.362,0,.785s-.194.755-.265.739-.071-.362,0-.785S188.452,360.494,188.524,360.509Z" transform="translate(-165.569 -241.756)" fill="#455a64"/>
          <path id="Path_18565" data-name="Path 18565" d="M189.584,354.509c.071,0,.071.367,0,.785s-.194.755-.265.744-.071-.367,0-.79S189.512,354.494,189.584,354.509Z" transform="translate(-166.088 -238.815)" fill="#455a64"/>
          <path id="Path_18566" data-name="Path 18566" d="M190.689,348.51c.071,0,.071.367,0,.79s-.194.755-.27.739-.066-.367,0-.785S190.6,348.5,190.689,348.51Z" transform="translate(-166.627 -235.875)" fill="#455a64"/>
          <path id="Path_18567" data-name="Path 18567" d="M191.694,342.519c.071,0,.066.367,0,.785s-.194.755-.265.744-.071-.367,0-.79S191.638,342.5,191.694,342.519Z" transform="translate(-167.122 -232.939)" fill="#455a64"/>
          <path id="Path_18568" data-name="Path 18568" d="M192.814,336.53c.071,0,.066.362,0,.785s-.194.755-.265.739-.071-.362,0-.785S192.752,336.514,192.814,336.53Z" transform="translate(-167.671 -230.003)" fill="#455a64"/>
          <path id="Path_18569" data-name="Path 18569" d="M193.9,330.539c.076,0,.071.362,0,.785s-.2.755-.27.739-.071-.367,0-.785S193.827,330.524,193.9,330.539Z" transform="translate(-168.201 -227.067)" fill="#455a64"/>
          <path id="Path_18570" data-name="Path 18570" d="M195.009,324.549c.071,0,.066.367,0,.785s-.2.755-.27.739-.071-.367,0-.785S194.937,324.534,195.009,324.549Z" transform="translate(-168.745 -224.131)" fill="#455a64"/>
          <path id="Path_18571" data-name="Path 18571" d="M196.114,318.559c.071,0,.066.367,0,.785s-.2.755-.275.739-.066-.362,0-.785S196.042,318.544,196.114,318.559Z" transform="translate(-169.284 -221.196)" fill="#455a64"/>
          <path id="Path_18572" data-name="Path 18572" d="M197.246,312.579c.071,0,.066.362,0,.785s-.2.749-.275.739-.066-.367,0-.79S197.174,312.564,197.246,312.579Z" transform="translate(-169.84 -218.265)" fill="#455a64"/>
          <path id="Path_18573" data-name="Path 18573" d="M198.377,306.59c.071,0,.066.367,0,.79s-.2.75-.275.734-.061-.362,0-.785S198.306,306.58,198.377,306.59Z" transform="translate(-170.395 -215.329)" fill="#455a64"/>
          <path id="Path_18574" data-name="Path 18574" d="M199.526,300.609c.071,0,.066.367,0,.79s-.2.75-.275.734-.066-.367,0-.785S199.454,300.594,199.526,300.609Z" transform="translate(-170.957 -212.398)" fill="#455a64"/>
          <path id="Path_18575" data-name="Path 18575" d="M200.681,294.63c.071,0,.066.367,0,.79s-.209.75-.28.734-.066-.367,0-.785S200.609,294.62,200.681,294.63Z" transform="translate(-171.521 -209.467)" fill="#455a64"/>
          <path id="Path_18576" data-name="Path 18576" d="M201.861,288.659c.071,0,.061.367,0,.785s-.209.749-.28.739-.066-.367,0-.79S201.769,288.644,201.861,288.659Z" transform="translate(-172.099 -206.541)" fill="#455a64"/>
          <path id="Path_18577" data-name="Path 18577" d="M203.028,282.689c.071,0,.061.367-.025.785s-.209.75-.28.734-.061-.367,0-.785S202.957,282.674,203.028,282.689Z" transform="translate(-172.66 -203.615)" fill="#455a64"/>
          <path id="Path_18578" data-name="Path 18578" d="M204.253,276.72c.071,0,.061.367,0,.785s-.209.75-.28.734-.061-.367,0-.785S204.181,276.7,204.253,276.72Z" transform="translate(-173.272 -200.689)" fill="#455a64"/>
          <path id="Path_18579" data-name="Path 18579" d="M205.468,270.749c.071,0,.061.367,0,.785s-.214.75-.286.734-.061-.367,0-.785S205.4,270.734,205.468,270.749Z" transform="translate(-173.865 -197.763)" fill="#455a64"/>
          <path id="Path_18580" data-name="Path 18580" d="M206.492,266.289c.071,0,.1.194.056.4s-.138.362-.209.347-.1-.194-.051-.4S206.42,266.274,206.492,266.289Z" transform="translate(-174.42 -195.577)" fill="#455a64"/>
          <path id="Path_18581" data-name="Path 18581" d="M225.032,444.52c.076,0,.127.178.112.387s-.076.377-.148.377-.127-.178-.117-.393S224.94,444.515,225.032,444.52Z" transform="translate(-183.543 -282.931)" fill="#455a64"/>
          <path id="Path_18582" data-name="Path 18582" d="M225.28,438.41c.071,0,.117.352.1.785s-.092.775-.163.775-.117-.357-.1-.785S225.2,438.41,225.28,438.41Z" transform="translate(-183.659 -279.937)" fill="#455a64"/>
          <path id="Path_18583" data-name="Path 18583" d="M225.477,432.3c.071,0,.122.352.107.78s-.082.78-.153.775-.122-.352-.112-.78S225.4,432.3,225.477,432.3Z" transform="translate(-183.758 -276.942)" fill="#455a64"/>
          <path id="Path_18584" data-name="Path 18584" d="M225.632,426.19c.071,0,.122.352.112.78s-.076.78-.148.775-.127-.352-.117-.78S225.56,426.185,225.632,426.19Z" transform="translate(-183.837 -273.947)" fill="#455a64"/>
          <path id="Path_18585" data-name="Path 18585" d="M225.782,420.07c.071,0,.122.352.112.785s-.076.775-.153.775-.122-.352-.112-.78S225.705,420.07,225.782,420.07Z" transform="translate(-183.91 -270.948)" fill="#455a64"/>
          <path id="Path_18586" data-name="Path 18586" d="M225.932,414c.076,0,.127.352.112.78s-.076.78-.153.78-.122-.357-.112-.785S225.86,414,225.932,414Z" transform="translate(-183.984 -267.973)" fill="#455a64"/>
          <path id="Path_18587" data-name="Path 18587" d="M226.131,407.84c.071,0,.117.357.1.785s-.087.775-.158.775-.122-.352-.107-.785S226.054,407.84,226.131,407.84Z" transform="translate(-184.075 -264.954)" fill="#455a64"/>
          <path id="Path_18588" data-name="Path 18588" d="M226.379,401.73c.076,0,.117.357.1.785s-.092.775-.163.775-.122-.357-.1-.785S226.307,401.73,226.379,401.73Z" transform="translate(-184.196 -261.959)" fill="#455a64"/>
          <path id="Path_18589" data-name="Path 18589" d="M226.621,395.62c.076,0,.122.357.1.785s-.087.775-.158.775-.122-.352-.107-.785S226.549,395.62,226.621,395.62Z" transform="translate(-184.316 -258.965)" fill="#455a64"/>
          <path id="Path_18590" data-name="Path 18590" d="M226.845,389.51c.076,0,.122.357.107.785s-.082.775-.158.775-.122-.352-.107-.785S226.769,389.51,226.845,389.51Z" transform="translate(-184.428 -255.97)" fill="#455a64"/>
          <path id="Path_18591" data-name="Path 18591" d="M227.03,383.4c.076,0,.122.352.112.78s-.082.78-.158.775-.122-.352-.107-.78S226.938,383.395,227.03,383.4Z" transform="translate(-184.521 -252.975)" fill="#455a64"/>
          <path id="Path_18592" data-name="Path 18592" d="M227.192,377.28c.076,0,.127.357.112.785s-.076.775-.148.775-.127-.352-.117-.78S227.12,377.28,227.192,377.28Z" transform="translate(-184.601 -249.976)" fill="#455a64"/>
          <path id="Path_18593" data-name="Path 18593" d="M227.327,371.17c.076,0,.127.352.117.785s-.071.775-.148.775-.122-.352-.117-.78S227.256,371.17,227.327,371.17Z" transform="translate(-184.671 -246.981)" fill="#455a64"/>
          <path id="Path_18594" data-name="Path 18594" d="M227.438,365.06c.071,0,.127.352.117.78s-.071.78-.143.78-.127-.352-.122-.785S227.361,365.06,227.438,365.06Z" transform="translate(-184.725 -243.987)" fill="#455a64"/>
          <path id="Path_18595" data-name="Path 18595" d="M227.512,359c.071,0,.127.347.122.78s-.066.775-.138.775-.133-.347-.127-.78S227.441,358.968,227.512,359Z" transform="translate(-184.764 -241.015)" fill="#455a64"/>
          <path id="Path_18596" data-name="Path 18596" d="M227.558,352.83c.076,0,.133.352.133.78s-.066.78-.138.78-.133-.352-.133-.78S227.486,352.83,227.558,352.83Z" transform="translate(-184.789 -237.992)" fill="#455a64"/>
          <path id="Path_18597" data-name="Path 18597" d="M227.582,346.72c.071,0,.133.347.133.78s-.061.775-.138.775-.133-.347-.127-.775S227.506,346.72,227.582,346.72Z" transform="translate(-184.803 -234.998)" fill="#455a64"/>
          <path id="Path_18598" data-name="Path 18598" d="M227.567,340.6c.071,0,.133.352.138.78s-.056.78-.133.78-.133-.347-.133-.78S227.5,340.6,227.567,340.6Z" transform="translate(-184.799 -231.998)" fill="#455a64"/>
          <path id="Path_18599" data-name="Path 18599" d="M227.517,334.49c.076,0,.138.347.143.78s-.056.78-.127.78-.138-.352-.143-.78S227.446,334.49,227.517,334.49Z" transform="translate(-184.774 -229.004)" fill="#455a64"/>
          <path id="Path_18600" data-name="Path 18600" d="M227.441,328.38c.076,0,.138.347.143.775s-.046.78-.117.78-.138-.347-.148-.775S227.37,328.38,227.441,328.38Z" transform="translate(-184.739 -226.009)" fill="#455a64"/>
          <path id="Path_18601" data-name="Path 18601" d="M227.336,322.27c.076,0,.143.342.148.775s-.046.78-.117.78-.138-.347-.148-.775S227.265,322.27,227.336,322.27Z" transform="translate(-184.69 -223.014)" fill="#455a64"/>
          <path id="Path_18602" data-name="Path 18602" d="M227.2,316.15c.076,0,.143.347.153.775s-.041.78-.112.785-.143-.347-.153-.78S227.13,316.15,227.2,316.15Z" transform="translate(-184.626 -220.015)" fill="#455a64"/>
          <path id="Path_18603" data-name="Path 18603" d="M227,310c.071,0,.148.347.163.775s-.031.78-.1.785-.148-.347-.163-.775A1.491,1.491,0,0,1,227,310Z" transform="translate(-184.532 -217.001)" fill="#455a64"/>
          <path id="Path_18604" data-name="Path 18604" d="M226.652,303.93c.076,0,.158.337.184.765s0,.785-.082.79-.153-.342-.184-.77S226.58,303.935,226.652,303.93Z" transform="translate(-184.367 -214.026)" fill="#455a64"/>
          <path id="Path_18605" data-name="Path 18605" d="M226.106,297.84c.071,0,.168.331.214.76a1.387,1.387,0,0,1-.056.79c-.056.01-.168-.336-.209-.765S226.014,297.845,226.106,297.84Z" transform="translate(-184.107 -211.041)" fill="#455a64"/>
          <path id="Path_18606" data-name="Path 18606" d="M225.506,293.33c.077,0,.158.153.189.362s0,.387-.076.4-.158-.153-.189-.362S225.435,293.34,225.506,293.33Z" transform="translate(-183.808 -208.83)" fill="#455a64"/>
          <path id="Path_18607" data-name="Path 18607" d="M234.418,444.148l-14.838.245.117-2.473,14.72.076Z" transform="translate(-180.946 -281.657)" fill="#455a64"/>
          <path id="Path_18608" data-name="Path 18608" d="M227.159,264.45a2.214,2.214,0,0,1,0,.576c0,.428-.036.953-.056,1.57-.061,1.326-.158,3.151-.28,5.17-.066,1.02-.133,1.963-.189,2.845a8.22,8.22,0,0,1-.342,2.325,1.948,1.948,0,0,1-1.081,1.152,1.188,1.188,0,0,1-.433.087c-.1,0-.148,0-.148-.025a2.549,2.549,0,0,0,.54-.153,1.948,1.948,0,0,0,.948-1.127,8.767,8.767,0,0,0,.27-2.274c.051-.882.107-1.841.168-2.845.122-2.04.25-3.845.357-5.165.056-.617.1-1.142.138-1.565a2.888,2.888,0,0,1,.107-.571Z" transform="translate(-183.421 -194.676)" fill="#455a64"/>
          <path id="Path_18609" data-name="Path 18609" d="M225.986,266.764c0-.036.235,0,.316.316a.586.586,0,0,1-.112.51.6.6,0,0,1-1.02-.418.581.581,0,0,1,.28-.449c.275-.163.474-.031.449,0s-.173,0-.337.158a.418.418,0,0,0-.148.306.377.377,0,0,0,.6.245.439.439,0,0,0,.107-.326C226.1,266.892,225.965,266.825,225.986,266.764Z" transform="translate(-183.686 -195.751)" fill="#455a64"/>
          <path id="Path_18610" data-name="Path 18610" d="M200.88,268.289c0-.046.449.153,1.193.255a5.1,5.1,0,0,0,5.038-2.249c.423-.627.566-1.081.607-1.066a2.667,2.667,0,0,1-.449,1.163,4.931,4.931,0,0,1-5.226,2.335A2.7,2.7,0,0,1,200.88,268.289Z" transform="translate(-171.781 -195.058)" fill="#455a64"/>
          <path id="Path_18611" data-name="Path 18611" d="M246.592,264.45c.041,0,.051.382.229.964a4.176,4.176,0,0,0,3.345,2.932c.6.1.984.056.989.1a1.983,1.983,0,0,1-1.02.082,3.977,3.977,0,0,1-3.5-3.059,1.917,1.917,0,0,1-.041-1.02Z" transform="translate(-194.161 -194.676)" fill="#455a64"/>
          <path id="Path_18612" data-name="Path 18612" d="M221.523,224.029l-30.205-2.04.352-14.883V196.338L188.3,201.3l-8.974-9.377,10.029-9.621h0a15.745,15.745,0,0,1,6.119-3.952,12.681,12.681,0,0,1,3.824-.729h0a15.342,15.342,0,0,0,9.234,0l1.53.173a18.218,18.218,0,0,1,10.631,5.1l9.637,13.991-10.86,5.644-1.259-4.319S221.594,221.047,221.523,224.029Z" transform="translate(-161.219 -152.119)" fill="#455a64"/>
          <path id="Path_18613" data-name="Path 18613" d="M203,212.161a7.649,7.649,0,0,1,.974-1.774,7.409,7.409,0,0,1,1.2-1.627,7.8,7.8,0,0,1-.974,1.769A8.112,8.112,0,0,1,203,212.161Z" transform="translate(-172.82 -167.381)" fill="#263238"/>
          <path id="Path_18614" data-name="Path 18614" d="M204.134,281.882,143.81,270.414l4.288-21.9,60.329,11.467,4.976,12.084Z" transform="translate(-143.81 -186.863)" fill="#427729"/>
          <g id="Group_36887" data-name="Group 36887" transform="translate(0 61.647)" opacity="0.3">
            <path id="Path_18615" data-name="Path 18615" d="M204.134,281.882,143.81,270.414l4.288-21.9,60.329,11.467,4.976,12.084Z" transform="translate(-143.81 -248.51)"/>
          </g>
          <path id="Path_18616" data-name="Path 18616" d="M203.764,277.959,144.72,266.395l4.288-21.9,59.049,11.569,4.976,12.084Z" transform="translate(-144.256 -184.893)" fill="#427729"/>
          <path id="Path_18617" data-name="Path 18617" d="M184.029,267.9l-3.7,5.563-.852-.148-1.6-6.486.933.158,1.305,5.328,3.059-4.563Z" transform="translate(-160.508 -195.842)" fill="#fff"/>
          <path id="Path_18618" data-name="Path 18618" d="M192.252,274.624l-3.2-.561-.9,1.392-.887-.158,3.778-5.548.852.148,1.688,6.506-.9-.158Zm-.178-.744-.785-3.177-1.815,2.743Z" transform="translate(-165.106 -197.273)" fill="#fff"/>
          <path id="Path_18619" data-name="Path 18619" d="M201.22,274.5a3.095,3.095,0,0,1,3.732-2.524,3.013,3.013,0,0,1,2.121,1.336l-.653.449a2.259,2.259,0,0,0-1.57-1.02,2.35,2.35,0,1,0-.811,4.63,2.279,2.279,0,0,0,1.825-.424l.464.637a3.029,3.029,0,0,1-2.463.546,3.09,3.09,0,0,1-2.646-3.63Z" transform="translate(-171.922 -198.329)" fill="#fff"/>
          <path id="Path_18620" data-name="Path 18620" d="M216.342,278.854l-3.2-.561-.923,1.392-.887-.153L215.108,274l.852.153,1.688,6.475-.908-.158Zm-.184-.744-.78-3.177-1.815,2.723Z" transform="translate(-176.903 -199.356)" fill="#fff"/>
          <path id="Path_18621" data-name="Path 18621" d="M231.706,276.4l-1.05,6.027-.709-.122-2.83-5.124-.785,4.492-.862-.148,1.055-6.027.7.122,2.83,5.124.78-4.482Z" transform="translate(-183.833 -200.092)" fill="#fff"/>
          <path id="Path_18622" data-name="Path 18622" d="M241.355,278.706l-2.065-.357.127-.75,4.987.867-.133.75-2.065-.357-.923,5.272-.852-.148Z" transform="translate(-190.606 -201.121)" fill="#fff"/>
          <path id="Path_18623" data-name="Path 18623" d="M165.819,271.295l.586,1.433a13.433,13.433,0,0,0,.943,2.427,3.778,3.778,0,0,0,.749,1.02,5.656,5.656,0,0,0,1.249,1.02.51.51,0,0,1-.031.943,4.086,4.086,0,0,1-2.718-1.683c-1.025-1.219-.984,1.29-.984,2.208s-.138,3.743-.418,3.967c-.413.326-.836-.056-.816-.969s-.107-3.661-.591-3.635-.413,4.681-.413,4.681.173.989-.382,1.02c-1.02.082-.709-4.869-.668-5.344.031-.326-.51-.321-.51.031s.173,4.645-.852,4.737c-.785.071.209-4.079-.321-4.941s-.433,3.222-1.188,3.258c-.275,0-.51,0-.2-2.371s2.136-8.826,2.136-8.826l4.492,1.066" transform="translate(-151.307 -197.528)" fill="#ffbe9d"/>
          <path id="Path_18624" data-name="Path 18624" d="M178.4,214.488s-6.333,5.236-6.741,7.026-3.462,21.66-3.462,21.66l-6.2-.933s.311-24.7,2.478-27.1,7.536-8.02,7.536-8.02Z" transform="translate(-152.725 -166.577)" fill="#ffbe9d"/>
          <path id="Path_18625" data-name="Path 18625" d="M167.461,225.971a.6.6,0,0,1-.178-.2,1.265,1.265,0,0,1,.413-1.683,1.3,1.3,0,0,1,1.351-.066,1.02,1.02,0,0,1,.474.566.9.9,0,0,1-.051.693.744.744,0,0,1-1.02.291.612.612,0,0,1-.214-.714c.071-.173.178-.214.184-.2a1.228,1.228,0,0,0-.1.229.51.51,0,0,0,.219.561.576.576,0,0,0,.78-.255.714.714,0,0,0,.026-.51.806.806,0,0,0-.382-.444,1.1,1.1,0,0,0-1.132.051,1.122,1.122,0,0,0-.51.8A1.683,1.683,0,0,0,167.461,225.971Z" transform="translate(-155.234 -174.782)" fill="#eb996e"/>
          <path id="Path_18626" data-name="Path 18626" d="M294.56,259.039s5.792-2.04,6.19-1.713a16.767,16.767,0,0,1,1.479,2.651.831.831,0,0,1-.75,1.2h0a.831.831,0,0,1-.729-.428l-.948-1.729Z" transform="translate(-217.695 -191.167)" fill="#ffbe9d"/>
          <path id="Path_18627" data-name="Path 18627" d="M299,259.039s5.792-2.04,6.185-1.713a16.357,16.357,0,0,1,1.479,2.651.831.831,0,0,1-.75,1.2h0a.836.836,0,0,1-.729-.428l-.948-1.729Z" transform="translate(-219.871 -191.167)" fill="#ffbe9d"/>
          <path id="Path_18628" data-name="Path 18628" d="M303.46,259.039s5.8-2.04,6.19-1.713a16.344,16.344,0,0,1,1.479,2.651.831.831,0,0,1-.75,1.2h0a.836.836,0,0,1-.729-.428l-.948-1.729Z" transform="translate(-222.057 -191.167)" fill="#ffbe9d"/>
          <path id="Path_18629" data-name="Path 18629" d="M303.994,259.6a2.9,2.9,0,0,1-.51-.974,4.685,4.685,0,0,0-.54-1.02.948.948,0,0,0-.469-.357,1.53,1.53,0,0,0-.658.148,26.688,26.688,0,0,0-3.437,1.377,3.323,3.323,0,0,1,.9-.622,12.569,12.569,0,0,1,2.437-1.02,1.636,1.636,0,0,1,.8-.158,1.122,1.122,0,0,1,.622.464,4.08,4.08,0,0,1,.51,1.091A10.517,10.517,0,0,1,303.994,259.6Z" transform="translate(-219.568 -191.012)" fill="#eb996e"/>
          <path id="Path_18630" data-name="Path 18630" d="M310.512,259.429a2.914,2.914,0,0,1-.311-.612,10.591,10.591,0,0,0-.821-1.407.714.714,0,0,0-.693-.27,3.61,3.61,0,0,0-.693.184c-.418.148-.709.1-.7.066s.255-.056.637-.24a2.749,2.749,0,0,1,.729-.25,1.02,1.02,0,0,1,.51.026.974.974,0,0,1,.438.316A4.307,4.307,0,0,1,310.512,259.429Z" transform="translate(-223.934 -190.965)" fill="#eb996e"/>
          <path id="Path_18631" data-name="Path 18631" d="M314.952,259.429a2.873,2.873,0,0,1-.311-.612,10.584,10.584,0,0,0-.821-1.407.714.714,0,0,0-.693-.27,3.612,3.612,0,0,0-.693.184c-.418.148-.709.1-.7.066s.255-.056.637-.24a2.816,2.816,0,0,1,.729-.25,1.02,1.02,0,0,1,.51.026.947.947,0,0,1,.438.316A4.308,4.308,0,0,1,314.952,259.429Z" transform="translate(-226.111 -190.965)" fill="#eb996e"/>
        </g>
        <g id="freepik--speech-bubble--inject-23" transform="translate(254.085 86.411)">
          <path id="Path_18632" data-name="Path 18632" d="M459.442,141.871a2.7,2.7,0,0,0,1.611-2.5,2.549,2.549,0,1,0-5.1-.025,2.708,2.708,0,0,0,1.616,2.549c-3.906.591-3.732,4.839-3.732,4.839l9.244.041S463.318,142.457,459.442,141.871Z" transform="translate(-443.891 -128.708)" fill="#427729"/>
          <path id="Path_18633" data-name="Path 18633" d="M453.992,140a2.072,2.072,0,0,0,.566-.112,2.371,2.371,0,0,0,1.254-.841,2.243,2.243,0,1,0-3.595-.071,2.351,2.351,0,0,0,1.219.892c.347.107.561.107.556.133s-.051,0-.148,0a1.79,1.79,0,0,1-.439-.051,2.35,2.35,0,0,1-1.341-.877,2.432,2.432,0,0,1-.337-2.33,2.468,2.468,0,0,1,4.655.092,2.437,2.437,0,0,1-.428,2.315,2.35,2.35,0,0,1-1.372.826,1.822,1.822,0,0,1-.439.031C454.043,140.012,453.992,140.007,453.992,140Z" transform="translate(-442.78 -127.889)" fill="#455a64"/>
          <path id="Path_18634" data-name="Path 18634" d="M449.78,146.321a5.128,5.128,0,0,1,.867-1.382,5.038,5.038,0,0,1,1.081-1.229,5.266,5.266,0,0,1-.867,1.387A5.194,5.194,0,0,1,449.78,146.321Z" transform="translate(-441.902 -132.092)" fill="#455a64"/>
          <path id="Path_18635" data-name="Path 18635" d="M458.579,138.931s.071.092.2.275l.561.8c.51.719,1.193,1.754,2.1,3.059a.061.061,0,0,1,0,.087.056.056,0,0,1-.036,0h-5.889a.076.076,0,0,1-.076-.071.1.1,0,0,1,0-.041h0l.138.112a12.7,12.7,0,0,1-5.609,2.947,12.126,12.126,0,0,1-3.625.291,11.971,11.971,0,0,1-3.8-.826,12.894,12.894,0,0,1-3.569-2.09,12.529,12.529,0,0,1-2.789-3.3,12.657,12.657,0,1,1,23.4-8.337c.025.189.056.372.082.556s0,.367.031.54c0,.357.046.7.036,1.02a12.927,12.927,0,0,1-.163,1.78,11.977,11.977,0,0,1-.653,2.381c-.1.26-.189.459-.25.586a1.618,1.618,0,0,1-.1.2,1.53,1.53,0,0,1,.071-.2c.056-.138.133-.337.224-.6a12.748,12.748,0,0,0,.6-2.376,12.985,12.985,0,0,0,.138-1.764c0-.326-.031-.663-.046-1.02a2.754,2.754,0,0,0-.036-.535l-.087-.551A12.44,12.44,0,1,0,436.4,140a12.309,12.309,0,0,0,2.733,3.243,12.8,12.8,0,0,0,3.482,2.04,11.788,11.788,0,0,0,3.732.821,12.074,12.074,0,0,0,3.569-.27,12.482,12.482,0,0,0,5.542-2.871.092.092,0,0,1,.127,0,.087.087,0,0,1,0,.1h0l-.138-.117a.918.918,0,0,1,.27-.036H458.7l2.672.031-.051.1-2.065-3.131-.51-.816A.591.591,0,0,1,458.579,138.931Z" transform="translate(-434.329 -120.924)" fill="#263238"/>
        </g>
      </g>
    </g>
  </g>
</svg>
