<svg xmlns="http://www.w3.org/2000/svg" xmlns:xlink="http://www.w3.org/1999/xlink" width="360" height="369" viewBox="0 0 360 369">
  <defs>
    <clipPath id="clip-path">
      <rect id="Rectangle_2425" data-name="Rectangle 2425" width="360" height="369" transform="translate(0 0)" fill="#fff"/>
    </clipPath>
    <clipPath id="clip-path-2">
      <circle id="Ellipse_1121" data-name="Ellipse 1121" cx="236" cy="236" r="236" transform="translate(-56 -111)" fill="#f3f7f9"/>
    </clipPath>
  </defs>
  <g id="slide3" clip-path="url(#clip-path)">
    <circle id="Ellipse_1117" data-name="Ellipse 1117" cx="236" cy="236" r="236" transform="translate(-56 -111)" fill="#f3f7f9"/>
    <rect id="Rectangle_2424" data-name="Rectangle 2424" width="326" height="73" rx="36.5" transform="translate(83.176 179.39) rotate(-30)" fill="#fff"/>
    <rect id="Rectangle_2423" data-name="Rectangle 2423" width="440" height="99" rx="49.5" transform="translate(33.725 120.632) rotate(-30)" fill="#eff2f6"/>
    <g id="Mask_Group_70" data-name="Mask Group 70" clip-path="url(#clip-path-2)">
      <g id="Resume_folder-pana" data-name="Resume folder-pana" transform="translate(-12.92 2.33)">
        <g id="freepik--background-complete--inject-15" transform="translate(162.05 212.572)">
          <path id="Path_18636" data-name="Path 18636" d="M337.551,367.82l-1.693,73.261H332.63l.2-73.074Z" transform="translate(-237.273 -292.926)" fill="#e0e0e0"/>
          <path id="Path_18637" data-name="Path 18637" d="M354.78,366.74l15.714,74.07h3.6l-13.07-74.07Z" transform="translate(-242.833 -292.655)" fill="#e0e0e0"/>
          <path id="Path_18638" data-name="Path 18638" d="M308.437,367.722l-17.385,73.261h-3.6l15.774-73.553Z" transform="translate(-225.934 -292.828)" fill="#e0e0e0"/>
          <path id="Path_18639" data-name="Path 18639" d="M350.319,267.852s18.823-1.079,16.943,20.71-2.959,43.81-9.954,51.367-77.455,7.8-83.38,1.618,11.3-5.917,14.531-5.917,23.129,1.88,29.586-15.063S322.883,266.774,350.319,267.852Z" transform="translate(-222.231 -267.829)" fill="#f5f5f5"/>
          <path id="Path_18640" data-name="Path 18640" d="M351.559,267.87s14.388,2.951,13.048,18.014-5.116,41.42-12.1,48.139-34.395,8.194-49.217,7.265c-17.227-1.079-28.08-4.352-28.08-4.352s-3.146,2.015-2.195,3.318,9.348,6.531,50.034,5.663,37.855-6.876,39.548-13.43,5.243-41.518,4.734-49.2S362.966,269.218,351.559,267.87Z" transform="translate(-222.264 -267.839)" fill="#e0e0e0"/>
          <path id="Path_18641" data-name="Path 18641" d="M362.167,306.332a1.61,1.61,0,1,0,1.558-1.992A1.82,1.82,0,0,0,362.167,306.332Z" transform="translate(-244.684 -276.993)" fill="#ebebeb"/>
          <path id="Path_18642" data-name="Path 18642" d="M363.271,295.25a11.678,11.678,0,0,0-.532,2.9,6.921,6.921,0,0,0,.689,3.056,6.585,6.585,0,0,0,1.026,1.5,7.49,7.49,0,0,1,.749.749,1.566,1.566,0,0,1,.27,1.2,14.223,14.223,0,0,1-.8,1.955,5.993,5.993,0,0,0-.232,1.813,6.741,6.741,0,0,0,.786,3,11.457,11.457,0,0,0,1.813,2.322,2.673,2.673,0,0,1-.689-.427,6.547,6.547,0,0,1-1.5-1.708,6.862,6.862,0,0,1-.944-3.206,6.29,6.29,0,0,1,.225-2,15.532,15.532,0,0,0,.749-1.873c.142-.592-.345-1.019-.839-1.5a6.74,6.74,0,0,1-1.094-1.678,7.034,7.034,0,0,1-.622-3.281,6.584,6.584,0,0,1,.5-2.187C363.068,295.467,363.241,295.235,363.271,295.25Z" transform="translate(-244.725 -274.711)" fill="#ebebeb"/>
          <path id="Path_18643" data-name="Path 18643" d="M357.835,303.57c.09,0,0,.472.217,1.138a3.992,3.992,0,0,0,1.565,2.112,6.291,6.291,0,0,0,2.562.914c.7.1,1.161.12,1.168.2s-.449.187-1.206.172a5.168,5.168,0,0,1-2.824-.846,3.812,3.812,0,0,1-1.64-2.472C357.558,304.012,357.776,303.547,357.835,303.57Z" transform="translate(-243.551 -276.799)" fill="#ebebeb"/>
          <path id="Path_18644" data-name="Path 18644" d="M418.3,430.511l2.809-.007L416.671,323.11l-2.8.15Z" transform="translate(-257.664 -281.704)" fill="#e0e0e0"/>
          <path id="Path_18645" data-name="Path 18645" d="M211.68,430.666l2.8.165,5.273-107.408-2.8-.172Z" transform="translate(-206.916 -281.739)" fill="#e0e0e0"/>
          <path id="Path_18646" data-name="Path 18646" d="M246.53,431.834l2.8.172,5.131-106.644-2.794-.172Z" transform="translate(-215.663 -282.226)" fill="#e0e0e0"/>
          <path id="Path_18647" data-name="Path 18647" d="M441.714,430.536h2.809l-4.5-107.3-2.8.15Z" transform="translate(-263.524 -281.737)" fill="#e0e0e0"/>
          <rect id="Rectangle_2490" data-name="Rectangle 2490" width="183.897" height="5.528" transform="translate(0 40.245)" fill="#e0e0e0"/>
          <path id="Path_18648" data-name="Path 18648" d="M224.2,274.355l13.145,34.724h59.516l-.442-1.79-24.066-.674L261.269,274.34Z" transform="translate(-210.059 -269.463)" fill="#ebebeb"/>
          <path id="Path_18649" data-name="Path 18649" d="M257.877,296.8a2.4,2.4,0,0,1-1.5,3.116,2.607,2.607,0,0,1-2.929-2.045,2.4,2.4,0,0,1,1.5-3.108,2.592,2.592,0,0,1,2.929,2.037Z" transform="translate(-217.363 -274.581)" fill="#fff"/>
        </g>
        <g id="freepik--Floor--inject-15" transform="translate(32.92 361.169)">
          <path id="Path_18650" data-name="Path 18650" d="M352.92,466.422c0,.12-71.643.21-160,.21s-160-.09-160-.21,71.62-.2,160-.2S352.92,466.31,352.92,466.422Z" transform="translate(-32.92 -466.22)" fill="#263238"/>
        </g>
        <g id="freepik--Documents--inject-15" transform="translate(100.96 47.67)">
          <rect id="Rectangle_2491" data-name="Rectangle 2491" width="20.965" height="28.867" transform="translate(179.935 58.55) rotate(180)" fill="#ebebeb"/>
          <path id="Path_18651" data-name="Path 18651" d="M357.344,95.042c0,.045-1.5.075-3.348.075a26.843,26.843,0,0,1-3.356-.075A25.847,25.847,0,0,1,354,94.96,31.551,31.551,0,0,1,357.344,95.042Z" transform="translate(-180.704 -59.539)" fill="#263238"/>
          <path id="Path_18652" data-name="Path 18652" d="M354,100.095a17.121,17.121,0,0,1-3.356,0,18.831,18.831,0,0,1,3.356,0Z" transform="translate(-180.704 -60.809)" fill="#263238"/>
          <path id="Path_18653" data-name="Path 18653" d="M343.228,101.562a18.725,18.725,0,0,1-3.348,0A17.047,17.047,0,0,1,343.228,101.562Z" transform="translate(-178.004 -61.176)" fill="#263238"/>
          <path id="Path_18654" data-name="Path 18654" d="M344.951,103.715a42.949,42.949,0,0,1-5.071,0A42.955,42.955,0,0,1,344.951,103.715Z" transform="translate(-178.004 -61.718)" fill="#263238"/>
          <path id="Path_18655" data-name="Path 18655" d="M343.228,107.382a18.725,18.725,0,0,1-3.348,0A17.047,17.047,0,0,1,343.228,107.382Z" transform="translate(-178.004 -62.636)" fill="#263238"/>
          <path id="Path_18656" data-name="Path 18656" d="M344.951,109.532a42.949,42.949,0,0,1-5.071,0A39.054,39.054,0,0,1,344.951,109.532Z" transform="translate(-178.004 -63.176)" fill="#263238"/>
          <path id="Path_18657" data-name="Path 18657" d="M343.228,112.972a18.725,18.725,0,0,1-3.348,0A17.048,17.048,0,0,1,343.228,112.972Z" transform="translate(-178.004 -64.039)" fill="#263238"/>
          <path id="Path_18658" data-name="Path 18658" d="M344.951,115.085a42.947,42.947,0,0,1-5.071,0A42.95,42.95,0,0,1,344.951,115.085Z" transform="translate(-178.004 -64.572)" fill="#263238"/>
          <path id="Path_18659" data-name="Path 18659" d="M358.28,103.845c0,.045-1.708.075-3.82.075a34.689,34.689,0,0,1-3.82-.075,34.788,34.788,0,0,1,3.82-.075C356.565,103.77,358.28,103.8,358.28,103.845Z" transform="translate(-180.704 -61.75)" fill="#263238"/>
          <path id="Path_18660" data-name="Path 18660" d="M353.676,107.593a15.317,15.317,0,0,1-3,0A13.931,13.931,0,0,1,353.676,107.593Z" transform="translate(-180.714 -62.69)" fill="#263238"/>
          <path id="Path_18661" data-name="Path 18661" d="M358.28,111.335c0,.045-1.708.082-3.82.082a31.548,31.548,0,0,1-3.82-.082,32.685,32.685,0,0,1,3.82-.075C356.565,111.26,358.28,111.3,358.28,111.335Z" transform="translate(-180.704 -63.63)" fill="#263238"/>
          <path id="Path_18662" data-name="Path 18662" d="M358.28,115.085c0,.045-1.708.075-3.82.075a34.689,34.689,0,0,1-3.82-.075,34.788,34.788,0,0,1,3.82-.075C356.565,115.01,358.28,115.04,358.28,115.085Z" transform="translate(-180.704 -64.572)" fill="#263238"/>
          <path id="Path_18663" data-name="Path 18663" d="M357.75,118.975c0,.045-1.715.082-3.82.082a31.637,31.637,0,0,1-3.82-.082,32.6,32.6,0,0,1,3.82-.075C356.042,118.9,357.75,118.975,357.75,118.975Z" transform="translate(-180.571 -65.548)" fill="#263238"/>
          <path id="Path_18664" data-name="Path 18664" d="M345.505,96.973v-1.52c0-1.049,0-2.382-.037-3.947l.067.067h-5.468s.142-.15.075-.075h0v5.46l-.067-.067,3.94.037h1.528a3.588,3.588,0,0,1-.375,0H340V91.512h0l.082-.082h5.535v5.161a3.583,3.583,0,0,1-.112.382Z" transform="translate(-178.034 -58.653)" fill="#263238"/>
          <path id="Path_18665" data-name="Path 18665" d="M345.518,94.559a1.6,1.6,0,0,1-.285-.165l-.749-.5h.075l-1.685,1.633h-.037l-.045.045h-.052l-1.026-.749h.09l-1.251,1.041a3.279,3.279,0,0,1-.5.375,3,3,0,0,1,.449-.442l1.213-1.094.037-.037h.052l1.026.749h-.06c.592-.562,1.146-1.071,1.715-1.6h.045l.712.547A1.183,1.183,0,0,1,345.518,94.559Z" transform="translate(-178.046 -59.251)" fill="#263238"/>
          <path id="Path_18666" data-name="Path 18666" d="M344.041,93a.831.831,0,0,0-.292-.487.6.6,0,0,0-.569-.075.592.592,0,0,0,0,1.116.6.6,0,0,0,.569-.075.847.847,0,0,0,.292-.479.573.573,0,0,1-.225.569.713.713,0,1,1,0-1.146C344.131,92.71,344.056,93.017,344.041,93Z" transform="translate(-178.696 -58.869)" fill="#263238"/>
          <rect id="Rectangle_2492" data-name="Rectangle 2492" width="20.965" height="28.867" transform="translate(20.965 58.55) rotate(180)" fill="#ebebeb"/>
          <path id="Path_18667" data-name="Path 18667" d="M145.1,95.042c0,.045-1.5.075-3.348.075a26.843,26.843,0,0,1-3.356-.075,25.847,25.847,0,0,1,3.356-.082A31.552,31.552,0,0,1,145.1,95.042Z" transform="translate(-127.434 -59.539)" fill="#263238"/>
          <path id="Path_18668" data-name="Path 18668" d="M141.756,100.095a17.122,17.122,0,0,1-3.356,0A18.831,18.831,0,0,1,141.756,100.095Z" transform="translate(-127.434 -60.809)" fill="#263238"/>
          <path id="Path_18669" data-name="Path 18669" d="M130.988,101.562a18.725,18.725,0,0,1-3.348,0A17.047,17.047,0,0,1,130.988,101.562Z" transform="translate(-124.734 -61.176)" fill="#263238"/>
          <path id="Path_18670" data-name="Path 18670" d="M132.711,103.711a20.536,20.536,0,0,1-2.532.075,20.619,20.619,0,0,1-2.539-.075,20.619,20.619,0,0,1,2.539-.075,20.54,20.54,0,0,1,2.532.075Z" transform="translate(-124.734 -61.714)" fill="#263238"/>
          <path id="Path_18671" data-name="Path 18671" d="M130.988,107.382a18.725,18.725,0,0,1-3.348,0,17.047,17.047,0,0,1,3.348,0Z" transform="translate(-124.734 -62.636)" fill="#263238"/>
          <path id="Path_18672" data-name="Path 18672" d="M132.711,109.529a20.537,20.537,0,0,1-2.532.075,20.619,20.619,0,0,1-2.539-.075,39.06,39.06,0,0,1,5.071,0Z" transform="translate(-124.734 -63.173)" fill="#263238"/>
          <path id="Path_18673" data-name="Path 18673" d="M130.988,112.972a18.725,18.725,0,0,1-3.348,0A17.048,17.048,0,0,1,130.988,112.972Z" transform="translate(-124.734 -64.039)" fill="#263238"/>
          <path id="Path_18674" data-name="Path 18674" d="M132.711,115.079a20.536,20.536,0,0,1-2.532.075,20.621,20.621,0,0,1-2.539-.075,39.047,39.047,0,0,1,5.071,0Z" transform="translate(-124.734 -64.566)" fill="#263238"/>
          <path id="Path_18675" data-name="Path 18675" d="M146.04,103.845c0,.045-1.708.075-3.82.075a34.689,34.689,0,0,1-3.82-.075,34.788,34.788,0,0,1,3.82-.075C144.325,103.77,146.04,103.8,146.04,103.845Z" transform="translate(-127.434 -61.75)" fill="#263238"/>
          <path id="Path_18676" data-name="Path 18676" d="M141.446,107.593a15.391,15.391,0,0,1-3,0A14,14,0,0,1,141.446,107.593Z" transform="translate(-127.447 -62.69)" fill="#263238"/>
          <path id="Path_18677" data-name="Path 18677" d="M146.04,111.335c0,.045-1.708.082-3.82.082a31.548,31.548,0,0,1-3.82-.082,32.685,32.685,0,0,1,3.82-.075C144.325,111.26,146.04,111.3,146.04,111.335Z" transform="translate(-127.434 -63.63)" fill="#263238"/>
          <path id="Path_18678" data-name="Path 18678" d="M146.04,115.085c0,.045-1.708.075-3.82.075a34.689,34.689,0,0,1-3.82-.075,34.788,34.788,0,0,1,3.82-.075C144.325,115.01,146.04,115.04,146.04,115.085Z" transform="translate(-127.434 -64.572)" fill="#263238"/>
          <path id="Path_18679" data-name="Path 18679" d="M145.51,118.975c0,.045-1.708.082-3.82.082a31.551,31.551,0,0,1-3.82-.082,32.6,32.6,0,0,1,3.82-.075C143.8,118.9,145.51,118.975,145.51,118.975Z" transform="translate(-127.301 -65.548)" fill="#263238"/>
          <path id="Path_18680" data-name="Path 18680" d="M133.28,96.925V91.457l.067.067H127.88l.075-.075h0v5.46l-.067-.067,3.947.037h1.52a3.407,3.407,0,0,1-.374,0H127.82V91.322h0l.082-.082h5.543V96.4A.885.885,0,0,1,133.28,96.925Z" transform="translate(-124.779 -58.606)" fill="#263238"/>
          <path id="Path_18681" data-name="Path 18681" d="M133.275,94.559a2.007,2.007,0,0,1-.285-.165l-.749-.5h.067l-1.678,1.633h-.045l-.045.045h-.052l-1.026-.749h.09L128.3,95.862a3.282,3.282,0,0,1-.5.375,3.6,3.6,0,0,1,.449-.442l1.2-1.094.037-.037h.052l1.026.749h-.06c.592-.562,1.146-1.071,1.715-1.6h.075l.712.547a1.184,1.184,0,0,1,.27.2Z" transform="translate(-124.774 -59.251)" fill="#263238"/>
          <path id="Path_18682" data-name="Path 18682" d="M131.8,93a.832.832,0,0,0-.292-.487.6.6,0,0,0-.569-.075.592.592,0,0,0,0,1.116.6.6,0,0,0,.569-.075A.846.846,0,0,0,131.8,93a.554.554,0,0,1-.225.569.713.713,0,1,1,0-1.146C131.9,92.71,131.816,93.017,131.8,93Z" transform="translate(-125.427 -58.869)" fill="#263238"/>
          <rect id="Rectangle_2493" data-name="Rectangle 2493" width="2.112" height="2.112" transform="translate(69.748)" fill="#427729"/>
          <rect id="Rectangle_2494" data-name="Rectangle 2494" width="2.112" height="2.112" transform="translate(69.748 31.159)" fill="#427729"/>
          <rect id="Rectangle_2495" data-name="Rectangle 2495" width="2.112" height="2.112" transform="translate(113.063 31.159)" fill="#427729"/>
          <rect id="Rectangle_2496" data-name="Rectangle 2496" width="2.112" height="2.112" transform="translate(69.748 61.808)" fill="#427729"/>
          <rect id="Rectangle_2497" data-name="Rectangle 2497" width="2.112" height="2.112" transform="translate(90.96)" fill="#427729"/>
          <rect id="Rectangle_2498" data-name="Rectangle 2498" width="2.112" height="2.112" transform="translate(90.96 62.318)" fill="#427729"/>
          <rect id="Rectangle_2499" data-name="Rectangle 2499" width="2.112" height="2.112" transform="translate(113.063)" fill="#427729"/>
          <rect id="Rectangle_2500" data-name="Rectangle 2500" width="2.112" height="2.112" transform="translate(113.063 62.318)" fill="#427729"/>
          <path id="Path_18683" data-name="Path 18683" d="M261.745,110.792v-4.6c0-3,0-7.325-.052-12.823,0-10.973-.052-26.53-.09-44.9l.18.18H218.475l.195-.195c0,23.4,0,45.016-.037,62.318l-.157-.15,31.458.075,8.726.045h.1l-8.7.037-31.586.082h-.157V110.7c0-17.3,0-38.949-.037-62.318V48.19h43.682v.18c-.037,18.411-.067,34.005-.09,45.016,0,5.475-.037,9.8-.045,12.778V110.4A3.1,3.1,0,0,0,261.745,110.792Z" transform="translate(-147.483 -47.801)" fill="#427729"/>
          <rect id="Rectangle_2501" data-name="Rectangle 2501" width="39.832" height="57.262" transform="translate(72.647 3.535)" fill="#e0e0e0"/>
          <path id="Path_18684" data-name="Path 18684" d="M251.256,75.595a30.448,30.448,0,0,1-6.876,0A30.448,30.448,0,0,1,251.256,75.595Z" transform="translate(-154.034 -54.63)" fill="#263238"/>
          <path id="Path_18685" data-name="Path 18685" d="M236.1,76.727a30.53,30.53,0,0,1-4.831.195,30.53,30.53,0,0,1-4.831-.195,30.53,30.53,0,0,1,4.831-.195A30.531,30.531,0,0,1,236.1,76.727Z" transform="translate(-149.532 -54.908)" fill="#263238"/>
          <path id="Path_18686" data-name="Path 18686" d="M236.1,80.106a30.53,30.53,0,0,1-4.831.195,30.53,30.53,0,0,1-4.831-.195,29.5,29.5,0,0,1,4.831-.195,29.5,29.5,0,0,1,4.831.195Z" transform="translate(-149.532 -55.756)" fill="#263238"/>
          <path id="Path_18687" data-name="Path 18687" d="M236.1,83.477a29.5,29.5,0,0,1-4.831.195,29.5,29.5,0,0,1-4.831-.195,30.531,30.531,0,0,1,4.831-.195,30.531,30.531,0,0,1,4.831.195Z" transform="translate(-149.532 -56.602)" fill="#263238"/>
          <path id="Path_18688" data-name="Path 18688" d="M236.1,86.857a30.53,30.53,0,0,1-4.831.195,30.53,30.53,0,0,1-4.831-.195,30.531,30.531,0,0,1,4.831-.195,30.529,30.529,0,0,1,4.831.195Z" transform="translate(-149.532 -57.451)" fill="#263238"/>
          <path id="Path_18689" data-name="Path 18689" d="M236.1,90.236a30.529,30.529,0,0,1-4.831.195,30.529,30.529,0,0,1-4.831-.195,29.5,29.5,0,0,1,4.831-.195A29.5,29.5,0,0,1,236.1,90.236Z" transform="translate(-149.532 -58.298)" fill="#263238"/>
          <path id="Path_18690" data-name="Path 18690" d="M236.1,96.317a28.957,28.957,0,0,1-4.831.2,28.958,28.958,0,0,1-4.831-.2,30.529,30.529,0,0,1,4.831-.195,30.529,30.529,0,0,1,4.831.195Z" transform="translate(-149.532 -59.825)" fill="#263238"/>
          <path id="Path_18691" data-name="Path 18691" d="M236.1,99.7a29.5,29.5,0,0,1-4.831.195,29.5,29.5,0,0,1-4.831-.195,30.53,30.53,0,0,1,4.831-.195A30.529,30.529,0,0,1,236.1,99.7Z" transform="translate(-149.532 -60.673)" fill="#263238"/>
          <path id="Path_18692" data-name="Path 18692" d="M236.1,103.077a30.53,30.53,0,0,1-4.831.195,30.53,30.53,0,0,1-4.831-.195,30.53,30.53,0,0,1,4.831-.195A30.529,30.529,0,0,1,236.1,103.077Z" transform="translate(-149.532 -61.522)" fill="#263238"/>
          <path id="Path_18693" data-name="Path 18693" d="M231.81,106.465a18.614,18.614,0,0,1-5.37,0,18.613,18.613,0,0,1,5.37,0Z" transform="translate(-149.532 -62.378)" fill="#263238"/>
          <path id="Path_18694" data-name="Path 18694" d="M259.9,81.075c0,.1-3.475.195-7.76.195s-7.76-.09-7.76-.195,3.468-.195,7.76-.195S259.9,80.97,259.9,81.075Z" transform="translate(-154.034 -56.005)" fill="#263238"/>
          <path id="Path_18695" data-name="Path 18695" d="M260.19,84.364c0,.1-3.475.195-7.76.195s-7.76-.09-7.76-.195a74.415,74.415,0,0,1,7.737-.2,74.416,74.416,0,0,1,7.782.2Z" transform="translate(-154.107 -56.822)" fill="#263238"/>
          <path id="Path_18696" data-name="Path 18696" d="M251.256,91.935a30.448,30.448,0,0,1-6.876,0A30.447,30.447,0,0,1,251.256,91.935Z" transform="translate(-154.034 -58.731)" fill="#263238"/>
          <path id="Path_18697" data-name="Path 18697" d="M259.9,97.375a75.8,75.8,0,0,1-7.76.195,75.651,75.651,0,0,1-7.76-.195c0-.1,3.468-.195,7.76-.195S259.9,97.27,259.9,97.375Z" transform="translate(-154.034 -60.096)" fill="#263238"/>
          <path id="Path_18698" data-name="Path 18698" d="M260.19,100.666c0,.1-3.475.195-7.76.195s-7.76-.09-7.76-.195a75.8,75.8,0,0,1,7.76-.195A75.8,75.8,0,0,1,260.19,100.666Z" transform="translate(-154.107 -60.916)" fill="#263238"/>
          <path id="Path_18699" data-name="Path 18699" d="M251.256,108.835a30.447,30.447,0,0,1-6.876,0,30.448,30.448,0,0,1,6.876,0Z" transform="translate(-154.034 -62.973)" fill="#263238"/>
          <path id="Path_18700" data-name="Path 18700" d="M259.9,114.315a75.8,75.8,0,0,1-7.76.195,75.649,75.649,0,0,1-7.76-.195c0-.1,3.468-.195,7.76-.195S259.9,114.21,259.9,114.315Z" transform="translate(-154.034 -64.348)" fill="#263238"/>
          <path id="Path_18701" data-name="Path 18701" d="M260.19,117.606c0,.1-3.475.195-7.76.195s-7.76-.09-7.76-.195a75.8,75.8,0,0,1,7.76-.195A75.8,75.8,0,0,1,260.19,117.606Z" transform="translate(-154.107 -65.168)" fill="#263238"/>
          <path id="Path_18702" data-name="Path 18702" d="M236.229,68.3a5.193,5.193,0,0,1,0-.749c0-.539,0-1.236-.045-2.1,0-1.835-.052-4.359-.09-7.37l.172.172H226.027l.187-.187h0V68.281l-.172-.172,7.37.09,2.1.045a5.191,5.191,0,0,1,.749.037,6.832,6.832,0,0,1-.7,0l-2.127.1-7.49.082h-.165V58.072h0l.2-.2h10.449v.165c0,3.056-.06,5.618-.082,7.49,0,.846-.037,1.535-.045,2.06A6.828,6.828,0,0,1,236.229,68.3Z" transform="translate(-149.366 -50.23)" fill="#263238"/>
          <path id="Path_18703" data-name="Path 18703" d="M262.478,63.855c0,.112-3.678.195-8.239.195S246,63.967,246,63.855s3.678-.195,8.239-.195S262.478,63.75,262.478,63.855Z" transform="translate(-154.441 -51.683)" fill="#263238"/>
          <path id="Path_18704" data-name="Path 18704" d="M254.489,67.006a43.353,43.353,0,0,1-8.209,0,43.352,43.352,0,0,1,8.209,0Z" transform="translate(-154.511 -52.468)" fill="#263238"/>
          <path id="Path_18705" data-name="Path 18705" d="M248.66,60.312a1.689,1.689,0,0,1-.749.33,1.326,1.326,0,0,1-.959-.172,1.408,1.408,0,0,1-.644-1.019,1.5,1.5,0,0,1,.389-1.138,1.393,1.393,0,0,1,.869-.434c.569-.052.854.187.824.225a3.634,3.634,0,0,0-.749.045,1.228,1.228,0,0,0-.652.4,1.146,1.146,0,0,0-.27.854,1.071,1.071,0,0,0,.457.749,1.161,1.161,0,0,0,.749.2C248.323,60.342,248.645,60.252,248.66,60.312Z" transform="translate(-154.517 -50.23)" fill="#263238"/>
          <path id="Path_18706" data-name="Path 18706" d="M252.317,57.72a9.684,9.684,0,0,1-1.034,2.554h0l-.165.337-.18-.315a9.91,9.91,0,0,1-1.228-2.472,9.685,9.685,0,0,1,1.558,2.247h-.345a10.337,10.337,0,0,1,1.393-2.352Z" transform="translate(-155.372 -50.192)" fill="#263238"/>
          <path id="Path_18707" data-name="Path 18707" d="M236.326,70.881a6.555,6.555,0,0,0-1.034-1.161,5.543,5.543,0,0,0-3.408-1.318,4.809,4.809,0,0,0-3.386,1.273,9.87,9.87,0,0,0-1.019,1.183,1.5,1.5,0,0,1,.18-.389,4.651,4.651,0,0,1,.749-.914,4.764,4.764,0,0,1,3.513-1.386,5.325,5.325,0,0,1,3.505,1.431,4.493,4.493,0,0,1,.749.891A1,1,0,0,1,236.326,70.881Z" transform="translate(-149.793 -52.814)" fill="#263238"/>
          <path id="Path_18708" data-name="Path 18708" d="M231.225,60.51a1.221,1.221,0,0,1,.607-.247,2.247,2.247,0,0,1,1.708.464,3,3,0,0,1,1.064,2.382,3.393,3.393,0,0,1-.337,1.55,2.03,2.03,0,0,1-1.348,1.071,2.494,2.494,0,0,1-1.7-.135,2.719,2.719,0,0,1-1.153-1.041,2.532,2.532,0,0,1-.375-1.386,4.149,4.149,0,0,1,.18-1.228,2.247,2.247,0,0,1,1.094-1.393,1.7,1.7,0,0,1,.622-.195,2.89,2.89,0,0,0-.577.277,2.2,2.2,0,0,0-.981,1.356,3.221,3.221,0,0,0,.217,2.457,2.389,2.389,0,0,0,2.674,1.064,1.813,1.813,0,0,0,1.146-.951,3.3,3.3,0,0,0,.322-1.446,2.884,2.884,0,0,0-.951-2.247,2.247,2.247,0,0,0-1.6-.5,3.138,3.138,0,0,0-.614.15Z" transform="translate(-150.347 -50.825)" fill="#263238"/>
          <path id="Path_18709" data-name="Path 18709" d="M234.51,63.13a.127.127,0,0,1,.112.135.135.135,0,0,1-.12.135.12.12,0,0,1-.112-.135.127.127,0,0,1,.12-.135Z" transform="translate(-151.527 -51.55)" fill="#263238"/>
          <path id="Path_18710" data-name="Path 18710" d="M231.452,63.56a.12.12,0,0,1,.112.135c0,.082-.052.142-.12.135a.135.135,0,0,1,0-.27Z" transform="translate(-150.754 -51.658)" fill="#263238"/>
          <path id="Path_18711" data-name="Path 18711" d="M229.88,62.218a1.8,1.8,0,0,1,.607-.052,5.812,5.812,0,0,0,1.416-.157,2.09,2.09,0,0,0,1.176-.682c.21-.285.255-.524.292-.517s.045.255-.15.607a2.022,2.022,0,0,1-1.258.816,4.412,4.412,0,0,1-1.5.1,1.408,1.408,0,0,1-.584-.112Z" transform="translate(-150.395 -50.968)" fill="#263238"/>
          <path id="Path_18712" data-name="Path 18712" d="M229.669,64.871a.33.33,0,0,1-.232.052.5.5,0,0,1-.419-.4.4.4,0,0,1,.09-.345.36.36,0,0,1,.27-.112c.172,0,.225.127.195.135a1.349,1.349,0,0,1-.18,0,.21.21,0,0,0-.142.255C229.3,64.767,229.684,64.8,229.669,64.871Z" transform="translate(-150.176 -51.786)" fill="#263238"/>
          <path id="Path_18713" data-name="Path 18713" d="M236.172,64.571c0-.052.21-.187.165-.4s-.337-.217-.337-.285.052-.09.18-.082a.412.412,0,0,1,.367.315.419.419,0,0,1-.187.449C236.262,64.623,236.172,64.6,236.172,64.571Z" transform="translate(-151.931 -51.718)" fill="#263238"/>
          <path id="Path_18714" data-name="Path 18714" d="M233.776,65.219a.444.444,0,0,1-.12.27.891.891,0,0,1-.637.315.921.921,0,0,1-.682-.225c-.135-.12-.172-.232-.15-.247a1.5,1.5,0,0,0,.816.24C233.476,65.541,233.723,65.182,233.776,65.219Z" transform="translate(-150.973 -52.074)" fill="#263238"/>
          <path id="Path_18715" data-name="Path 18715" d="M233.221,64.5c0-.045.247-.157.322-.472l.112.142a.479.479,0,0,1-.389-.127.749.749,0,0,1-.225-.749c0-.18.082-.277.112-.277s.037.12.052.285a.749.749,0,0,0,.21.532.345.345,0,0,0,.217.09h.172l-.052.142C233.588,64.5,233.214,64.555,233.221,64.5Z" transform="translate(-151.182 -51.523)" fill="#263238"/>
          <path id="Path_18716" data-name="Path 18716" d="M232.5,68.144c-.067,0-.127-.135-.142-.315s0-.322.1-.33.127.135.142.315S232.561,68.137,232.5,68.144Z" transform="translate(-151.016 -52.647)" fill="#263238"/>
          <path id="Path_18717" data-name="Path 18717" d="M234.044,68.024c-.06,0-.127-.135-.135-.315s0-.33.1-.33.127.135.135.315S234.112,68.017,234.044,68.024Z" transform="translate(-151.406 -52.617)" fill="#263238"/>
          <rect id="Rectangle_2502" data-name="Rectangle 2502" width="25.511" height="36.672" transform="translate(124.268 21.714)" fill="#ebebeb"/>
          <path id="Path_18718" data-name="Path 18718" d="M309.124,91.63a20.29,20.29,0,0,1-4.4,0A20.29,20.29,0,0,1,309.124,91.63Z" transform="translate(-169.179 -58.673)" fill="#263238"/>
          <path id="Path_18719" data-name="Path 18719" d="M299.2,92.862a39.983,39.983,0,0,1-6.187,0,42.642,42.642,0,0,1,6.187,0Z" transform="translate(-166.24 -58.985)" fill="#263238"/>
          <path id="Path_18720" data-name="Path 18720" d="M299.2,95.03a42.641,42.641,0,0,1-6.187,0A39.983,39.983,0,0,1,299.2,95.03Z" transform="translate(-166.24 -59.527)" fill="#263238"/>
          <path id="Path_18721" data-name="Path 18721" d="M299.2,97.19a39.983,39.983,0,0,1-6.187,0,39.981,39.981,0,0,1,6.187,0Z" transform="translate(-166.24 -60.069)" fill="#263238"/>
          <path id="Path_18722" data-name="Path 18722" d="M296.448,99.348a6.164,6.164,0,0,1-1.715.12,6.239,6.239,0,0,1-1.723-.12,6.815,6.815,0,0,1,1.723-.112,6.742,6.742,0,0,1,1.715.112Z" transform="translate(-166.24 -60.609)" fill="#263238"/>
          <path id="Path_18723" data-name="Path 18723" d="M314.669,95.14c0,.067-2.247.12-4.966.12s-4.973-.052-4.973-.12,2.247-.12,4.973-.12S314.669,95.072,314.669,95.14Z" transform="translate(-169.181 -59.554)" fill="#263238"/>
          <path id="Path_18724" data-name="Path 18724" d="M314.849,97.25c0,.067-2.247.12-4.966.12s-4.973-.052-4.973-.12,2.247-.12,4.973-.12S314.849,97.182,314.849,97.25Z" transform="translate(-169.227 -60.084)" fill="#263238"/>
          <path id="Path_18725" data-name="Path 18725" d="M309.124,102.07a20.29,20.29,0,0,1-4.4,0A20.291,20.291,0,0,1,309.124,102.07Z" transform="translate(-169.179 -61.294)" fill="#263238"/>
          <path id="Path_18726" data-name="Path 18726" d="M314.669,105.582c0,.067-2.247.12-4.966.12s-4.973-.052-4.973-.12,2.247-.112,4.973-.112S314.669,105.522,314.669,105.582Z" transform="translate(-169.181 -62.177)" fill="#263238"/>
          <path id="Path_18727" data-name="Path 18727" d="M314.849,107.692c0,.067-2.247.12-4.966.12s-4.973-.052-4.973-.12,2.247-.112,4.973-.112S314.849,107.632,314.849,107.692Z" transform="translate(-169.227 -62.707)" fill="#263238"/>
          <path id="Path_18728" data-name="Path 18728" d="M309.124,112.96a20.29,20.29,0,0,1-4.4,0A20.291,20.291,0,0,1,309.124,112.96Z" transform="translate(-169.179 -64.027)" fill="#263238"/>
          <path id="Path_18729" data-name="Path 18729" d="M314.669,116.43c0,.067-2.247.12-4.966.12s-4.973-.052-4.973-.12,2.247-.12,4.973-.12S314.669,116.362,314.669,116.43Z" transform="translate(-169.181 -64.898)" fill="#263238"/>
          <path id="Path_18730" data-name="Path 18730" d="M314.849,118.54c0,.067-2.247.12-4.966.12s-4.973-.052-4.973-.12,2.247-.12,4.973-.12S314.849,118.472,314.849,118.54Z" transform="translate(-169.227 -65.427)" fill="#263238"/>
          <path id="Path_18731" data-name="Path 18731" d="M316.306,86.14c0,.06-2.352.112-5.243.112s-5.243-.052-5.243-.112,2.352-.12,5.243-.12S316.306,86.072,316.306,86.14Z" transform="translate(-169.455 -57.295)" fill="#263238"/>
          <path id="Path_18732" data-name="Path 18732" d="M311.243,88.16a30.817,30.817,0,0,1-5.243,0,28.9,28.9,0,0,1,5.243,0Z" transform="translate(-169.5 -57.803)" fill="#263238"/>
          <path id="Path_18733" data-name="Path 18733" d="M307.489,83.868a1.282,1.282,0,0,1-.5.21.884.884,0,0,1-.607-.112.906.906,0,0,1-.412-.652.929.929,0,0,1,.772-1c.36,0,.547.12.524.142a3.024,3.024,0,0,0-.494,0,.728.728,0,0,0-.3,1.311.8.8,0,0,0,.472.127C307.257,83.89,307.489,83.83,307.489,83.868Z" transform="translate(-169.491 -56.364)" fill="#263238"/>
          <path id="Path_18734" data-name="Path 18734" d="M309.808,82.21a7.116,7.116,0,0,1-.674,1.625h0l-.1.2-.1-.187a6.78,6.78,0,0,1-.794-1.58,6.681,6.681,0,0,1,1,1.5h-.21a6.7,6.7,0,0,1,.891-1.558Z" transform="translate(-170.035 -56.339)" fill="#263238"/>
          <path id="Path_18735" data-name="Path 18735" d="M299.78,86.958a4.59,4.59,0,0,1,0-.494V85.123c0-1.221,0-2.831-.052-4.726l.1.1h-6.554s.217-.225.112-.12h0v6.546l-.1-.1,4.719.052h1.835a3.26,3.26,0,0,1-.449,0h-1.318l-4.786.045h-.1V80.411h0c-.1.1.142-.142.12-.112h6.659v.1c0,1.925-.037,3.55-.052,4.786v1.326A3.265,3.265,0,0,1,299.78,86.958Z" transform="translate(-166.276 -55.859)" fill="#263238"/>
          <path id="Path_18736" data-name="Path 18736" d="M296.441,82.343a.876.876,0,0,1,.389-.157,1.5,1.5,0,0,1,1.094.292,1.925,1.925,0,0,1,.682,1.5,2.052,2.052,0,0,1-.21.989,1.326,1.326,0,0,1-.846.689,1.685,1.685,0,0,1-1.858-.749,1.655,1.655,0,0,1-.232-.891,2.847,2.847,0,0,1,.112-.749,1.438,1.438,0,0,1,.7-.891,1.108,1.108,0,0,1,.4-.127,2.787,2.787,0,0,0-.367.18,1.431,1.431,0,0,0-.629.869,2.06,2.06,0,0,0,.142,1.573,1.5,1.5,0,0,0,1.685.689,1.453,1.453,0,0,0,.959-1.5,1.835,1.835,0,0,0-.607-1.446,1.408,1.408,0,0,0-1.019-.322,2.547,2.547,0,0,0-.4.052Z" transform="translate(-166.855 -56.33)" fill="#263238"/>
          <path id="Path_18737" data-name="Path 18737" d="M299.517,84.918a.4.4,0,0,0,.217-.337c-.007-.225-.285-.262-.285-.292s.06-.06.165,0a.352.352,0,0,1,.067.659C299.585,84.963,299.51,84.94,299.517,84.918Z" transform="translate(-167.856 -56.852)" fill="#263238"/>
          <path id="Path_18738" data-name="Path 18738" d="M295.447,84.644a.386.386,0,0,0-.142.375c.06.217.33.195.337.225s-.045.067-.157.067a.359.359,0,0,1-.33-.24.374.374,0,0,1,.127-.4C295.372,84.615,295.447,84.622,295.447,84.644Z" transform="translate(-166.775 -56.946)" fill="#263238"/>
          <path id="Path_18739" data-name="Path 18739" d="M298.143,85.259c.045,0-.112.412-.592.479a.622.622,0,0,1-.682-.322,1.5,1.5,0,0,0,.667.165C297.919,85.536,298.106,85.229,298.143,85.259Z" transform="translate(-167.209 -57.104)" fill="#263238"/>
          <path id="Path_18740" data-name="Path 18740" d="M298.214,83.052a.961.961,0,0,1-.337.2.794.794,0,0,1-.449,0,.539.539,0,0,1-.4-.4l.135.045h0a1.438,1.438,0,0,1-.891.4c-.255,0-.4,0-.4-.052a1.918,1.918,0,0,0,1.176-.464h0l.112-.112v.15a.412.412,0,0,0,.285.292.824.824,0,0,0,.382,0A3.743,3.743,0,0,1,298.214,83.052Z" transform="translate(-166.958 -56.455)" fill="#263238"/>
          <path id="Path_18741" data-name="Path 18741" d="M299.234,88.739a5.756,5.756,0,0,0-.569-.607,2.749,2.749,0,0,0-1.842-.577,3,3,0,0,0-1.835.637,3.789,3.789,0,0,0-.547.622.434.434,0,0,1,.082-.21,2.249,2.249,0,0,1,.389-.494,2.914,2.914,0,0,1,1.9-.712,2.7,2.7,0,0,1,1.925.652,2.164,2.164,0,0,1,.4.479A.584.584,0,0,1,299.234,88.739Z" transform="translate(-166.599 -57.64)" fill="#263238"/>
          <path id="Path_18742" data-name="Path 18742" d="M297.615,84.866a1.33,1.33,0,0,0,.127-.195v.09a.666.666,0,0,1-.157-.21c-.142-.255-.112-.5-.067-.5s.082.21.2.427c.037.075.082.142.12.2v.045h0C297.742,84.881,297.622,84.9,297.615,84.866Z" transform="translate(-167.362 -56.801)" fill="#263238"/>
          <path id="Path_18743" data-name="Path 18743" d="M298.7,84.316h-.217c-.09,0-.157.082-.2.067s0-.187.18-.225S298.741,84.3,298.7,84.316Z" transform="translate(-167.56 -56.827)" fill="#263238"/>
          <path id="Path_18744" data-name="Path 18744" d="M296.637,84.522h-.419c-.03,0,.052-.142.21-.142S296.667,84.492,296.637,84.522Z" transform="translate(-167.044 -56.884)" fill="#263238"/>
          <path id="Path_18745" data-name="Path 18745" d="M295.738,86.313a1.932,1.932,0,0,1-.539.27.592.592,0,0,1-.434-.1.749.749,0,0,1-.307-.449.569.569,0,0,1,0-.315c.037-.1.06-.157,0-.232a.622.622,0,0,1-.1-.667c.12-.24.345-.352.367-.554s0-.449,0-.682a1.917,1.917,0,0,1,.142-.659,1.408,1.408,0,0,1,.749-.794,1.019,1.019,0,0,1,1,0,1.453,1.453,0,0,0-.959.06,1.356,1.356,0,0,0-.689.749,1.738,1.738,0,0,0-.112.6,2.76,2.76,0,0,1,0,.7c-.06.27-.315.419-.389.592a.517.517,0,0,0,.09.539.352.352,0,0,1,0,.345.4.4,0,0,0,0,.247.681.681,0,0,0,.255.382.562.562,0,0,0,.644,0A.749.749,0,0,1,295.738,86.313Z" transform="translate(-166.563 -56.285)" fill="#263238"/>
          <path id="Path_18746" data-name="Path 18746" d="M299.005,86.511a1.5,1.5,0,0,1,.255,0,.442.442,0,0,0,.464-.375.749.749,0,0,0,0-.457.442.442,0,0,1,.06-.307.682.682,0,0,0,.1-.255.749.749,0,0,0-.082-.547c-.1-.172-.262-.33-.389-.539a9.577,9.577,0,0,1-.389-1.243,1.034,1.034,0,0,0-.749-.6,7.091,7.091,0,0,0-.959-.067,2.247,2.247,0,0,1,.989,0,1.138,1.138,0,0,1,.854.644c.18.382.18.846.4,1.221.1.187.277.345.389.547a.854.854,0,0,1,.09.659c-.052.225-.225.352-.172.5a.846.846,0,0,1,0,.509.667.667,0,0,1-.255.352.434.434,0,0,1-.322.052.577.577,0,0,1-.285-.1Z" transform="translate(-167.322 -56.303)" fill="#263238"/>
          <path id="Path_18747" data-name="Path 18747" d="M296.959,87.4a.96.96,0,0,1-.112-.352c-.022-.2,0-.367.045-.367s.09.15.112.352A.855.855,0,0,1,296.959,87.4Z" transform="translate(-167.201 -57.461)" fill="#263238"/>
          <path id="Path_18748" data-name="Path 18748" d="M298.563,86.62c.037,0,.052.165,0,.36s-.09.345-.135.337-.052-.165,0-.36S298.518,86.612,298.563,86.62Z" transform="translate(-167.59 -57.446)" fill="#263238"/>
          <rect id="Rectangle_2503" data-name="Rectangle 2503" width="25.511" height="36.672" transform="translate(31.683 21.714)" fill="#ebebeb"/>
          <path id="Path_18749" data-name="Path 18749" d="M185.524,91.63a20.289,20.289,0,0,1-4.4,0A20.289,20.289,0,0,1,185.524,91.63Z" transform="translate(-138.157 -58.673)" fill="#263238"/>
          <path id="Path_18750" data-name="Path 18750" d="M175.587,92.858a39.983,39.983,0,0,1-6.187,0,42.644,42.644,0,0,1,6.187,0Z" transform="translate(-135.215 -58.98)" fill="#263238"/>
          <path id="Path_18751" data-name="Path 18751" d="M175.587,95.025a42.64,42.64,0,0,1-6.187,0,39.981,39.981,0,0,1,6.187,0Z" transform="translate(-135.215 -59.522)" fill="#263238"/>
          <path id="Path_18752" data-name="Path 18752" d="M175.587,97.185a39.983,39.983,0,0,1-6.187,0,39.987,39.987,0,0,1,6.187,0Z" transform="translate(-135.215 -60.064)" fill="#263238"/>
          <path id="Path_18753" data-name="Path 18753" d="M172.848,99.348a6.164,6.164,0,0,1-1.715.12,6.239,6.239,0,0,1-1.723-.12,6.816,6.816,0,0,1,1.723-.112A6.741,6.741,0,0,1,172.848,99.348Z" transform="translate(-135.218 -60.609)" fill="#263238"/>
          <path id="Path_18754" data-name="Path 18754" d="M191.049,95.14c0,.067-2.247.12-4.966.12s-4.973-.052-4.973-.12,2.247-.12,4.973-.12S191.049,95.072,191.049,95.14Z" transform="translate(-138.154 -59.554)" fill="#263238"/>
          <path id="Path_18755" data-name="Path 18755" d="M191.239,97.25c0,.067-2.247.12-4.973.12s-4.966-.052-4.966-.12,2.247-.12,4.966-.12S191.239,97.182,191.239,97.25Z" transform="translate(-138.202 -60.084)" fill="#263238"/>
          <path id="Path_18756" data-name="Path 18756" d="M185.524,102.07a20.289,20.289,0,0,1-4.4,0A20.29,20.29,0,0,1,185.524,102.07Z" transform="translate(-138.157 -61.294)" fill="#263238"/>
          <path id="Path_18757" data-name="Path 18757" d="M191.049,105.582c0,.067-2.247.12-4.966.12s-4.973-.052-4.973-.12,2.247-.112,4.973-.112S191.049,105.522,191.049,105.582Z" transform="translate(-138.154 -62.177)" fill="#263238"/>
          <path id="Path_18758" data-name="Path 18758" d="M191.239,107.692c0,.067-2.247.12-4.973.12s-4.966-.052-4.966-.12,2.247-.112,4.966-.112S191.239,107.632,191.239,107.692Z" transform="translate(-138.202 -62.707)" fill="#263238"/>
          <path id="Path_18759" data-name="Path 18759" d="M185.524,112.96a20.289,20.289,0,0,1-4.4,0A20.29,20.29,0,0,1,185.524,112.96Z" transform="translate(-138.157 -64.027)" fill="#263238"/>
          <path id="Path_18760" data-name="Path 18760" d="M191.049,116.43c0,.067-2.247.12-4.966.12s-4.973-.052-4.973-.12,2.247-.12,4.973-.12S191.049,116.362,191.049,116.43Z" transform="translate(-138.154 -64.898)" fill="#263238"/>
          <path id="Path_18761" data-name="Path 18761" d="M191.239,118.54c0,.067-2.247.12-4.973.12s-4.966-.052-4.966-.12,2.247-.12,4.966-.12S191.239,118.472,191.239,118.54Z" transform="translate(-138.202 -65.427)" fill="#263238"/>
          <path id="Path_18762" data-name="Path 18762" d="M192.7,86.14c0,.06-2.352.112-5.243.112s-5.243-.052-5.243-.112,2.359-.12,5.243-.12S192.7,86.072,192.7,86.14Z" transform="translate(-138.43 -57.295)" fill="#263238"/>
          <path id="Path_18763" data-name="Path 18763" d="M187.593,88.16a30.817,30.817,0,0,1-5.243,0A28.9,28.9,0,0,1,187.593,88.16Z" transform="translate(-138.465 -57.803)" fill="#263238"/>
          <path id="Path_18764" data-name="Path 18764" d="M176.01,86.906a4.59,4.59,0,0,1,0-.494V85.071c0-1.221,0-2.831-.052-4.726l.1.1h-6.561l.12-.12h0v6.546l-.1-.1,4.726.052h1.835a3.26,3.26,0,0,1-.449,0H174.3l-4.794.052h-.1V80.359h0c-.1.1.142-.142.112-.12h6.666v.1c0,1.925-.037,3.55-.052,4.786v1.326a3.258,3.258,0,0,1-.127.457Z" transform="translate(-135.211 -55.844)" fill="#263238"/>
          <path id="Path_18765" data-name="Path 18765" d="M172.671,82.293a.749.749,0,0,1,.389-.157,1.5,1.5,0,0,1,1.094.292,1.94,1.94,0,0,1,.682,1.5,2.149,2.149,0,0,1-.21,1,1.326,1.326,0,0,1-.854.689,1.67,1.67,0,0,1-1.85-.749,1.6,1.6,0,0,1-.232-.891,2.592,2.592,0,0,1,.112-.749,1.438,1.438,0,0,1,.7-.891,1.108,1.108,0,0,1,.4-.127,1.935,1.935,0,0,0-.367.18,1.408,1.408,0,0,0-.614.846,2.03,2.03,0,0,0,.142,1.573,1.5,1.5,0,0,0,1.685.689,1.453,1.453,0,0,0,.959-1.5,1.835,1.835,0,0,0-.607-1.446,1.408,1.408,0,0,0-1.019-.322A2.547,2.547,0,0,0,172.671,82.293Z" transform="translate(-135.79 -56.318)" fill="#263238"/>
          <path id="Path_18766" data-name="Path 18766" d="M175.76,84.868a.4.4,0,0,0,.225-.337c-.007-.225-.285-.262-.285-.292s.06-.06.165,0a.367.367,0,0,1,.27.315.345.345,0,0,1-.2.352C175.827,84.913,175.76,84.89,175.76,84.868Z" transform="translate(-136.796 -56.84)" fill="#263238"/>
          <path id="Path_18767" data-name="Path 18767" d="M171.7,84.594a.386.386,0,0,0-.142.375c.06.217.33.195.337.225s-.045.067-.157.067a.352.352,0,0,1-.2-.637C171.621,84.565,171.689,84.572,171.7,84.594Z" transform="translate(-135.714 -56.933)" fill="#263238"/>
          <path id="Path_18768" data-name="Path 18768" d="M174.382,85.209c.052,0-.1.4-.584.479s-.749-.315-.682-.322a1.5,1.5,0,0,0,.667.165C174.165,85.486,174.352,85.179,174.382,85.209Z" transform="translate(-136.145 -57.091)" fill="#263238"/>
          <path id="Path_18769" data-name="Path 18769" d="M174.427,83a.894.894,0,0,1-.337.195.749.749,0,0,1-.449,0,.532.532,0,0,1-.4-.4l.135.045h0a1.393,1.393,0,0,1-.884.412c-.255,0-.4,0-.4-.052a1.918,1.918,0,0,0,1.176-.464h0l.112-.112v.15a.4.4,0,0,0,.285.292.749.749,0,0,0,.382,0A3.789,3.789,0,0,1,174.427,83Z" transform="translate(-135.89 -56.442)" fill="#263238"/>
          <path id="Path_18770" data-name="Path 18770" d="M175.481,88.677a6.985,6.985,0,0,0-.569-.607,2.764,2.764,0,0,0-1.843-.577,3,3,0,0,0-1.835.637,4.748,4.748,0,0,0-.554.622.636.636,0,0,1,.09-.21,1.925,1.925,0,0,1,.389-.494,2.914,2.914,0,0,1,1.9-.749,2.689,2.689,0,0,1,1.917.652,2.03,2.03,0,0,1,.4.479A.584.584,0,0,1,175.481,88.677Z" transform="translate(-135.536 -57.615)" fill="#263238"/>
          <path id="Path_18771" data-name="Path 18771" d="M173.867,84.814a1.33,1.33,0,0,0,.127-.195V84.7a.944.944,0,0,1-.15-.21c-.142-.262-.112-.5-.067-.5s.082.21.2.427c.037.075.082.142.12.2l.037.045H174.1C173.995,84.829,173.875,84.836,173.867,84.814Z" transform="translate(-136.305 -56.786)" fill="#263238"/>
          <path id="Path_18772" data-name="Path 18772" d="M174.948,84.266h-.21c-.09,0-.165.082-.2.067s0-.187.18-.225S174.992,84.251,174.948,84.266Z" transform="translate(-136.501 -56.814)" fill="#263238"/>
          <path id="Path_18773" data-name="Path 18773" d="M172.858,84.472h-.419c-.022,0,.052-.142.21-.142S172.911,84.435,172.858,84.472Z" transform="translate(-135.977 -56.871)" fill="#263238"/>
          <path id="Path_18774" data-name="Path 18774" d="M173.169,87.349c-.037,0-.09-.15-.112-.352s0-.367.045-.367.09.15.112.345S173.214,87.342,173.169,87.349Z" transform="translate(-136.131 -57.449)" fill="#263238"/>
          <path id="Path_18775" data-name="Path 18775" d="M174.813,86.57a.7.7,0,0,1,0,.36c-.052.195-.09.345-.135.337s-.052-.165,0-.36S174.768,86.562,174.813,86.57Z" transform="translate(-136.531 -57.433)" fill="#263238"/>
          <path id="Path_18776" data-name="Path 18776" d="M171.612,87.5c-.045,0,.067-.457.1-1.019a9.627,9.627,0,0,0,0-1.019,2.771,2.771,0,0,1-.12,2.037Z" transform="translate(-135.765 -57.155)" fill="#263238"/>
          <path id="Path_18777" data-name="Path 18777" d="M176.131,87.247a4.7,4.7,0,0,1-.232-1.116A3.992,3.992,0,0,1,175.817,85a4.112,4.112,0,0,1,.24,1.109A4.194,4.194,0,0,1,176.131,87.247Z" transform="translate(-136.823 -57.039)" fill="#263238"/>
        </g>
        <g id="freepik--Folder--inject-15" transform="translate(103.544 126.518)">
          <path id="Path_18778" data-name="Path 18778" d="M213.679,154.715l1.543,25.032a1.7,1.7,0,0,0,1.693,1.588h45.068a1.693,1.693,0,0,0,1.685-1.693V160.168a1.685,1.685,0,0,0-1.7-1.685l-27.713.172a1.678,1.678,0,0,1-1.2-.487l-4.816-4.741a1.678,1.678,0,0,0-1.191-.487H215.365a1.693,1.693,0,0,0-1.685,1.775Z" transform="translate(-148.912 -152.94)" fill="#427729"/>
          <path id="Path_18779" data-name="Path 18779" d="M213.679,154.715l1.543,25.032a1.7,1.7,0,0,0,1.693,1.588h45.068a1.693,1.693,0,0,0,1.685-1.693V160.168a1.685,1.685,0,0,0-1.7-1.685l-27.713.172a1.678,1.678,0,0,1-1.2-.487l-4.816-4.741a1.678,1.678,0,0,0-1.191-.487H215.365a1.693,1.693,0,0,0-1.685,1.775Z" transform="translate(-148.912 -152.94)" opacity="0.4"/>
          <path id="Path_18780" data-name="Path 18780" d="M209.877,168.868l3.745,30.709a1.094,1.094,0,0,0,1.079.951H262.69a1.086,1.086,0,0,0,1.086-1l2.412-30.709a1.086,1.086,0,0,0-1.079-1.176H210.955a1.086,1.086,0,0,0-1.079,1.228Z" transform="translate(-147.956 -156.63)" fill="#427729"/>
          <path id="Path_18781" data-name="Path 18781" d="M130.768,173.078l1.618,21.294a1.446,1.446,0,0,0,1.453,1.333l38.379-.547a1.438,1.438,0,0,0,1.423-1.453l-.24-16.621a1.423,1.423,0,0,0-1.5-1.416l-23.6.479a1.446,1.446,0,0,1-1.026-.4l-4.157-3.985a1.416,1.416,0,0,0-1.019-.4l-9.947.142a1.438,1.438,0,0,0-1.386,1.565Z" transform="translate(-128.101 -157.566)" fill="#427729"/>
          <rect id="Rectangle_2504" data-name="Rectangle 2504" width="41.937" height="25.062" transform="translate(3.318 16.17) rotate(-0.81)" fill="#f5f5f5"/>
          <path id="Path_18782" data-name="Path 18782" d="M127.217,177.02l3.58,26.088a.936.936,0,0,0,.929.8l40.866-.584a.921.921,0,0,0,.914-.861l1.685-26.163a.921.921,0,0,0-.936-.981l-46.124.652a.929.929,0,0,0-.914,1.049Z" transform="translate(-127.21 -158.557)" fill="#427729"/>
          <path id="Path_18783" data-name="Path 18783" d="M312.488,170.673l1.58,20.8a1.393,1.393,0,0,0,1.423,1.3l37.488-.524a1.408,1.408,0,0,0,1.386-1.431l-.225-16.216a1.416,1.416,0,0,0-1.438-1.386l-23.055.472a1.423,1.423,0,0,1-1-.389l-4.06-3.887a1.408,1.408,0,0,0-1-.4l-9.737.142a1.4,1.4,0,0,0-1.363,1.521Z" transform="translate(-173.711 -156.973)" fill="#427729"/>
          <path id="Path_18784" data-name="Path 18784" d="M312.488,170.673l1.58,20.8a1.393,1.393,0,0,0,1.423,1.3l37.488-.524a1.408,1.408,0,0,0,1.386-1.431l-.225-16.216a1.416,1.416,0,0,0-1.438-1.386l-23.055.472a1.423,1.423,0,0,1-1-.389l-4.06-3.887a1.408,1.408,0,0,0-1-.4l-9.737.142a1.4,1.4,0,0,0-1.363,1.521Z" transform="translate(-173.711 -156.973)" opacity="0.4"/>
          <rect id="Rectangle_2505" data-name="Rectangle 2505" width="40.971" height="24.478" transform="translate(139.404 14.343) rotate(-0.81)" fill="#ebebeb"/>
          <path id="Path_18785" data-name="Path 18785" d="M309,174.518l3.49,25.466a.906.906,0,0,0,.914.786l39.915-.569a.9.9,0,0,0,.891-.846l1.648-25.549a.9.9,0,0,0-.914-.966l-45.06.637a.906.906,0,0,0-.884,1.041Z" transform="translate(-172.834 -157.935)" fill="#427729"/>
        </g>
        <g id="freepik--Character--inject-15" transform="translate(68.476 114.708)">
          <path id="Path_18786" data-name="Path 18786" d="M228.792,212.544l-4.03,1.91-3.693-5.8,2.157-4.494c.21-.419.427-.884.659-1.416a5.992,5.992,0,0,0,.472-1.97,9.5,9.5,0,0,0-.06-2.517c-.2-.749.592-1.363,1.124-.929s1.139,2.479.749,4.951,2.472-.15,3.535-1.086,4.494-3.67,5.018-3.565c.786.157.749,1.056-.315,1.962s-4.142,3.865-3.64,4.412h0a3,3,0,0,1,2.622,2.344c.277,1.213.494,2.891-.187,3.445a40.106,40.106,0,0,1-4.412,2.749Z" transform="translate(-115.699 -152.235)" fill="#ffbe9d"/>
          <path id="Path_18787" data-name="Path 18787" d="M126.277,147.455l-.1,30.919,13.265.637.382-7.49s4.711.936,5.932-3.445c.749-2.794.577-24.4.577-24.4Z" transform="translate(-91.883 -138.806)" fill="#ffbe9d"/>
          <path id="Path_18788" data-name="Path 18788" d="M147.684,145.073c-.891,1.843-5.146,5.243-5.146,5.243l-1.925,5.146c-1.663-1.3-3.91-1.228-4.329,1.7-.307,2.12,2.329,2.554,2.329,2.554a37.045,37.045,0,0,1-4.809,7.205c-2.419,2.689-3.745,2.959-6.4,3h-2.891s-5.917-4.943-4.749-17.976,12.876-9.22,15.669-12.479C139.992,134.167,150.673,138.9,147.684,145.073Z" transform="translate(-90.235 -137.172)" fill="#263238"/>
          <path id="Path_18789" data-name="Path 18789" d="M120.7,164.5h.367a6.255,6.255,0,0,0,1.049-.12,7.528,7.528,0,0,0,3.393-1.805,18.86,18.86,0,0,0,3.438-4.606c1.124-1.843,2.352-4.015,4.494-5.475a10.771,10.771,0,0,1,3.393-1.446c1.153-.3,2.284-.479,3.348-.689a12.576,12.576,0,0,0,5.355-2,5.79,5.79,0,0,0,2.172-3.123,5.041,5.041,0,0,0,.12-1.416,2.663,2.663,0,0,0,.037.367,4.067,4.067,0,0,1-.1,1.064,5.775,5.775,0,0,1-2.157,3.2,12.643,12.643,0,0,1-5.393,2.052c-2.112.434-4.584.749-6.681,2.12s-3.3,3.58-4.434,5.423a18.725,18.725,0,0,1-3.483,4.614,7.49,7.49,0,0,1-3.453,1.783,4.345,4.345,0,0,1-1.461.06Z" transform="translate(-90.507 -138.841)" fill="#455a64"/>
          <path id="Path_18790" data-name="Path 18790" d="M136.46,351.12l5.393,82.489,12.516-1.386s.307-80.444-.277-80.369S136.46,351.12,136.46,351.12Z" transform="translate(-94.463 -190.871)" fill="#ffbe9d"/>
          <path id="Path_18791" data-name="Path 18791" d="M96.7,350.46,82.63,432.237l11.123,1.693,19.5-79.582Z" transform="translate(-80.952 -190.705)" fill="#ffbe9d"/>
          <path id="Path_18792" data-name="Path 18792" d="M100.535,280.718,81.33,390.965l22.261,4.824,16.9-91.9,3.783,89.409h20.673L141.228,277.34Z" transform="translate(-80.626 -172.353)" fill="#263238"/>
          <path id="Path_18793" data-name="Path 18793" d="M103.747,396.11,80.76,391.129l.06-.352,19.25-110.539h.292l41.091-3.408v.389L145.2,393.571H123.776v-.352l-3.663-86.114Zm-22.126-5.565,21.527,4.666,17.429-94.787,3.91,92.376h19.931l-3.693-115.183-40.02,3.318Z" transform="translate(-80.483 -172.225)" fill="#263238"/>
          <path id="Path_18794" data-name="Path 18794" d="M135.03,312.629a3.281,3.281,0,0,1-.749.1l-2.06.157c-1.745.12-4.157.24-6.809.5s-5.033.614-6.741.839l-2.052.255a2.584,2.584,0,0,1-.749.037,3.08,3.08,0,0,1,.749-.187c.479-.1,1.176-.232,2.037-.382,1.73-.292,4.112-.689,6.779-.951s5.086-.337,6.831-.389h2.075A2.525,2.525,0,0,1,135.03,312.629Z" transform="translate(-89.295 -181.202)" fill="#455a64"/>
          <path id="Path_18795" data-name="Path 18795" d="M158.6,298.946a1.415,1.415,0,0,1-.517.142,7.208,7.208,0,0,1-1.446.067,8.337,8.337,0,0,1-7.393-5.31,6.868,6.868,0,0,1-.4-1.393,1.318,1.318,0,0,1,0-.532c.067,0,.187.749.682,1.813a8.733,8.733,0,0,0,7.161,5.146C157.847,299.006,158.588,298.878,158.6,298.946Z" transform="translate(-97.566 -176.012)" fill="#455a64"/>
          <path id="Path_18796" data-name="Path 18796" d="M159.667,425.621c0,.1-4.674-.045-10.426-.337s-10.419-.614-10.411-.749,4.674.045,10.434.337S159.675,425.508,159.667,425.621Z" transform="translate(-95.058 -209.286)" fill="#455a64"/>
          <path id="Path_18797" data-name="Path 18797" d="M105.413,424.843a4.3,4.3,0,0,1-.884-.217l-2.367-.712c-2-.6-4.764-1.393-7.85-2.172s-5.9-1.386-7.94-1.805l-2.427-.5a3.742,3.742,0,0,1-.876-.225,5.093,5.093,0,0,1,.906.075c.577.075,1.416.2,2.442.375,2.06.352,4.9.921,7.992,1.7s5.857,1.625,7.835,2.292c.989.33,1.79.614,2.329.831A4.644,4.644,0,0,1,105.413,424.843Z" transform="translate(-81.063 -207.961)" fill="#455a64"/>
          <path id="Path_18798" data-name="Path 18798" d="M104.33,265.621h43.555l-1.685-35.2c-.277-6.921-.24-7.745-.412-14.126,0,0,6.509,7.857,11.617,13.37a10.426,10.426,0,0,0,12.1,2.322l26.762-18.673-5.011-12.816-24.32,14.883c-1.116-.689-10.584-14.194-17.122-20.785a23.129,23.129,0,0,0-15.767-6.823,114.409,114.409,0,0,0-14.771.592,15.445,15.445,0,0,0-13.752,14.089c-.479,5.648-.1,12.209-.1,23.362Z" transform="translate(-86.399 -149.863)" fill="#455a64"/>
          <path id="Path_18799" data-name="Path 18799" d="M106.141,192.88c-4.1,1.82-21.257,23.8-22.47,38.065-.906,10.643,19.8,9.482,19.8,9.482s1.408-43.652.794-43.031" transform="translate(-81.206 -151.154)" fill="#455a64"/>
          <path id="Path_18800" data-name="Path 18800" d="M107.39,197.85v.457c0,.3-.067.749-.1,1.3-.09,1.131-.21,2.779-.315,4.809-.232,4.06-.427,9.677-.622,15.887s-.367,11.827-.577,15.887c-.1,2.037-.2,3.678-.285,4.816q-.067.8-.112,1.3a1.836,1.836,0,0,1-.045.457v-.457c0-.3.045-.749.075-1.311.06-1.183.142-2.816.24-4.809.18-4.067.337-9.685.532-15.894s.4-11.827.667-15.887c.127-2.03.255-3.67.367-4.809.052-.532.1-.959.127-1.3A4.511,4.511,0,0,1,107.39,197.85Z" transform="translate(-86.65 -152.402)" fill="#263238"/>
          <path id="Path_18801" data-name="Path 18801" d="M104.281,235.24a5.991,5.991,0,0,1-.584.816c-.389.487-.936,1.153-1.573,1.85s-1.236,1.318-1.685,1.745a5.34,5.34,0,0,1-.749.667,7.574,7.574,0,0,1,.674-.749c.434-.449,1.019-1.071,1.655-1.775s1.191-1.348,1.6-1.813a7.357,7.357,0,0,1,.667-.742Z" transform="translate(-85.234 -161.786)" fill="#263238"/>
          <path id="Path_18802" data-name="Path 18802" d="M186.57,229a2.546,2.546,0,0,1,.09-.629c.075-.389.195-.921.33-1.5s.27-1.116.375-1.5a3.169,3.169,0,0,1,.195-.607,2.547,2.547,0,0,1-.09.637c-.075.382-.187.914-.33,1.5s-.262,1.109-.367,1.5A2.39,2.39,0,0,1,186.57,229Z" transform="translate(-107.04 -159.158)" fill="#263238"/>
          <path id="Path_18803" data-name="Path 18803" d="M189.459,229.3a19.034,19.034,0,0,1-.629-2.4,21.06,21.06,0,0,1-.479-2.442,19.477,19.477,0,0,1,.629,2.4,21.057,21.057,0,0,1,.479,2.442Z" transform="translate(-107.487 -159.078)" fill="#263238"/>
          <path id="Path_18804" data-name="Path 18804" d="M157.493,217.888l-.247-.225-.7-.682c-.6-.592-1.5-1.453-2.517-2.554a41.2,41.2,0,0,1-3.415-4.075,23.444,23.444,0,0,1-3.108-5.715,16.051,16.051,0,0,1-1.026-6.412,13.19,13.19,0,0,1,1.153-5.176,7.6,7.6,0,0,1,2.247-2.764,7.343,7.343,0,0,1,.816-.539,3.2,3.2,0,0,1,.3-.157,8.753,8.753,0,0,0-1.079.749,7.707,7.707,0,0,0-2.187,2.771,13.355,13.355,0,0,0-1.116,5.131,15.909,15.909,0,0,0,1.034,6.352,29.625,29.625,0,0,0,6.456,9.737c1.026,1.109,1.888,1.977,2.479,2.584l.682.7C157.418,217.8,157.493,217.888,157.493,217.888Z" transform="translate(-96.972 -150.329)" fill="#263238"/>
          <path id="Path_18805" data-name="Path 18805" d="M151.255,197.445c0,.1-9.408.195-21.017.195s-21.017-.09-21.017-.195,9.408-.195,21.017-.195S151.255,197.332,151.255,197.445Z" transform="translate(-87.626 -152.251)" fill="#263238"/>
          <path id="Path_18806" data-name="Path 18806" d="M154.739,205.585c0,.1-11.7.195-26.126.195s-26.133-.09-26.133-.195,11.7-.195,26.133-.195S154.739,205.472,154.739,205.585Z" transform="translate(-85.934 -154.294)" fill="#263238"/>
          <path id="Path_18807" data-name="Path 18807" d="M159.737,214c0,.112-14.081.195-31.458.195S96.82,214.117,96.82,214s14.074-.195,31.458-.195S159.737,213.9,159.737,214Z" transform="translate(-84.514 -156.407)" fill="#263238"/>
          <path id="Path_18808" data-name="Path 18808" d="M162.615,222.995c0,.1-16.1.195-35.953.195s-35.953-.09-35.953-.195,16.1-.195,35.953-.195S162.615,222.882,162.615,222.995Z" transform="translate(-82.98 -158.664)" fill="#263238"/>
          <path id="Path_18809" data-name="Path 18809" d="M141.307,233.395a4.8,4.8,0,0,1-.569.037l-1.61.037-5.932.06-19.587.06-19.587-.06-5.932-.06-1.61-.037a4.8,4.8,0,0,1-.569-.037,2.807,2.807,0,0,1,.569-.045h1.61l5.932-.06,19.587-.06,19.587.06,5.932.06h1.61A2.807,2.807,0,0,1,141.307,233.395Z" transform="translate(-81.775 -161.282)" fill="#263238"/>
          <path id="Path_18810" data-name="Path 18810" d="M199.446,233.935c0,.1-7.438.195-16.613.195s-16.613-.09-16.613-.195,7.438-.195,16.613-.195S199.446,233.83,199.446,233.935Z" transform="translate(-101.932 -161.41)" fill="#263238"/>
          <path id="Path_18811" data-name="Path 18811" d="M191.024,243.2c0,.112-3.61.195-8.052.195s-8.052-.082-8.052-.195,3.6-.195,8.052-.195S191.024,243.1,191.024,243.2Z" transform="translate(-104.116 -163.736)" fill="#263238"/>
          <path id="Path_18812" data-name="Path 18812" d="M215.813,223.835c0,.1-5.513.195-12.306.195s-12.306-.09-12.306-.195,5.513-.195,12.306-.195S215.813,223.722,215.813,223.835Z" transform="translate(-108.202 -158.875)" fill="#263238"/>
          <path id="Path_18813" data-name="Path 18813" d="M141.149,244.265c0,.1-12.965.195-28.949.195s-28.949-.09-28.949-.195,12.958-.195,28.949-.195S141.149,244.16,141.149,244.265Z" transform="translate(-81.108 -164.002)" fill="#263238"/>
          <path id="Path_18814" data-name="Path 18814" d="M147.042,256.345c0,.112-9.453.195-21.107.195s-21.115-.082-21.115-.195,9.453-.195,21.115-.195S147.042,256.24,147.042,256.345Z" transform="translate(-86.522 -167.034)" fill="#263238"/>
          <path id="Path_18815" data-name="Path 18815" d="M147.042,266.085c0,.1-9.453.195-21.107.195s-21.115-.09-21.115-.195,9.453-.195,21.115-.195S147.042,265.972,147.042,266.085Z" transform="translate(-86.522 -169.479)" fill="#263238"/>
          <path id="Path_18816" data-name="Path 18816" d="M147.042,277.275c0,.1-9.453.195-21.107.195s-21.115-.09-21.115-.195,9.453-.195,21.115-.195S147.042,277.162,147.042,277.275Z" transform="translate(-86.522 -172.288)" fill="#263238"/>
          <path id="Path_18817" data-name="Path 18817" d="M218.422,216.845c0,.1-3.857.195-8.621.195s-8.621-.09-8.621-.195,3.857-.195,8.621-.195S218.422,216.74,218.422,216.845Z" transform="translate(-110.707 -157.12)" fill="#263238"/>
          <path id="Path_18818" data-name="Path 18818" d="M82.278,456.41l-1.888,7.655,13.018,1.468.472-7.587Z" transform="translate(-80.39 -217.297)" fill="#427729"/>
          <path id="Path_18819" data-name="Path 18819" d="M90.343,456.91a16.1,16.1,0,0,1-.427,3.52,16.427,16.427,0,0,1-.816,3.453,16.1,16.1,0,0,1,.427-3.513,16.577,16.577,0,0,1,.816-3.46Z" transform="translate(-82.576 -217.423)" fill="#263238"/>
          <path id="Path_18820" data-name="Path 18820" d="M93.581,466.77a10.707,10.707,0,0,1-1.888-.21l-4.494-.667c-1.76-.27-3.356-.539-4.494-.749a9.106,9.106,0,0,1-1.835-.464,10.322,10.322,0,0,1,1.888.217l4.494.667c1.76.262,3.356.532,4.494.749A9.1,9.1,0,0,1,93.581,466.77Z" transform="translate(-80.51 -219.373)" fill="#263238"/>
          <path id="Path_18821" data-name="Path 18821" d="M157.616,460.428l-.045-1.5-14.231.352.09,4.973.876.037c3.91.127,19.864.375,22.47-.472C169.683,462.862,157.616,460.428,157.616,460.428Z" transform="translate(-96.19 -217.93)" fill="#427729"/>
          <g id="Group_36888" data-name="Group 36888" transform="translate(47.203 242.111)" opacity="0.4">
            <path id="Path_18822" data-name="Path 18822" d="M148.608,464.388a4.853,4.853,0,0,0-1.873-3,4.748,4.748,0,0,0-3.326-.959l.09,3.955Z" transform="translate(-143.41 -460.413)" fill="#fff"/>
          </g>
          <g id="Group_36889" data-name="Group 36889" transform="translate(47.3 243.899)" opacity="0.4">
            <path id="Path_18823" data-name="Path 18823" d="M163.569,462.8s4.232,1.124,3.745,1.828-16.643,1.056-23.774.592V464.9l18.823-.247S162.745,462.852,163.569,462.8Z" transform="translate(-143.54 -462.8)" fill="#fff"/>
          </g>
          <path id="Path_18824" data-name="Path 18824" d="M143.24,465.429h.936l2.577.06c2.165,0,5.168,0,8.479-.037s6.314-.2,8.479-.322l2.569-.15.7-.06h-.7l-2.569.1c-2.165.1-5.161.2-8.471.277s-6.307.082-8.479.082H143.48A1.5,1.5,0,0,0,143.24,465.429Z" transform="translate(-96.165 -219.433)" fill="#263238"/>
          <path id="Path_18825" data-name="Path 18825" d="M168.655,464.81a5.991,5.991,0,0,1,.457-1.236,5.626,5.626,0,0,1,.854-1,1.88,1.88,0,0,0-1,.914A1.962,1.962,0,0,0,168.655,464.81Z" transform="translate(-102.54 -218.843)" fill="#263238"/>
          <path id="Path_18826" data-name="Path 18826" d="M163,462.461a1.839,1.839,0,0,0,.427-.554,1.543,1.543,0,0,0,.292-.637,1.611,1.611,0,0,0-.434.547A2.626,2.626,0,0,0,163,462.461Z" transform="translate(-101.124 -218.517)" fill="#263238"/>
          <path id="Path_18827" data-name="Path 18827" d="M161.489,461.807c0,.037.255-.112.494-.337s.4-.434.367-.472-.247.12-.487.345S161.459,461.747,161.489,461.807Z" transform="translate(-100.744 -218.448)" fill="#263238"/>
          <path id="Path_18828" data-name="Path 18828" d="M160.49,460.293a1.79,1.79,0,0,0,.749.075,1.548,1.548,0,0,0,.749-.1,1.7,1.7,0,0,0-.749-.075C160.82,460.2,160.482,460.241,160.49,460.293Z" transform="translate(-100.494 -218.244)" fill="#263238"/>
          <path id="Path_18829" data-name="Path 18829" d="M160.13,459.078a2.112,2.112,0,0,0,1.67.09,4.263,4.263,0,0,0-.839-.045A3.82,3.82,0,0,0,160.13,459.078Z" transform="translate(-100.404 -217.966)" fill="#263238"/>
          <path id="Path_18830" data-name="Path 18830" d="M163.64,460.775a2.742,2.742,0,0,0,.906,0,5.393,5.393,0,0,0,.966-.232,2.829,2.829,0,0,0,.547-.24.472.472,0,0,0,.217-.285.36.36,0,0,0-.142-.359,1.685,1.685,0,0,0-2.337,1.146v.24a2.457,2.457,0,0,1,.4-.749,1.633,1.633,0,0,1,.749-.524,1.438,1.438,0,0,1,1.086.052c.142.1.09.277-.067.374a2.844,2.844,0,0,1-.509.225,6.747,6.747,0,0,1-.929.27A5.935,5.935,0,0,0,163.64,460.775Z" transform="translate(-101.285 -218.075)" fill="#263238"/>
          <path id="Path_18831" data-name="Path 18831" d="M163.6,460.668a.9.9,0,0,0,.1-.629,1.536,1.536,0,0,0-.262-.659.921.921,0,0,0-.749-.449.367.367,0,0,0-.27.427,1.094,1.094,0,0,0,.165.4,2.841,2.841,0,0,0,.442.539c.292.27.517.375.524.352s-.18-.157-.442-.434a3.359,3.359,0,0,1-.389-.539c-.127-.187-.225-.532,0-.577s.464.195.607.367a1.663,1.663,0,0,1,.27.592,3.124,3.124,0,0,1,.007.607Z" transform="translate(-100.976 -217.93)" fill="#263238"/>
          <path id="Path_18832" data-name="Path 18832" d="M143.51,460.388a6.36,6.36,0,0,1,1.041,0,4.494,4.494,0,0,1,2.3.884,4.6,4.6,0,0,1,1.5,1.985c.232.6.262,1,.292,1a.839.839,0,0,0,0-.285,3.369,3.369,0,0,0-.172-.749,4.277,4.277,0,0,0-3.872-2.944,3.3,3.3,0,0,0-.749,0A1.025,1.025,0,0,0,143.51,460.388Z" transform="translate(-96.232 -218.264)" fill="#263238"/>
          <path id="Path_18833" data-name="Path 18833" d="M152.68,463.806a11.288,11.288,0,0,0,4.135-.052,18.165,18.165,0,0,0-2.067.045C153.609,463.844,152.688,463.761,152.68,463.806Z" transform="translate(-98.534 -219.136)" fill="#263238"/>
          <path id="Path_18834" data-name="Path 18834" d="M149,463.908c-.037,0,.075.195.172.4s.157.4.21.389.067-.225-.052-.464S149,463.87,149,463.908Z" transform="translate(-97.608 -219.178)" fill="#263238"/>
          <path id="Path_18835" data-name="Path 18835" d="M147.55,462.2a.744.744,0,0,0,.217.33c.15.15.292.232.33.2s-.067-.18-.217-.33S147.587,462.168,147.55,462.2Z" transform="translate(-97.246 -218.749)" fill="#263238"/>
          <path id="Path_18836" data-name="Path 18836" d="M145.54,461.432c0,.045.2.037.412.1s.36.18.4.142-.09-.225-.345-.3S145.525,461.387,145.54,461.432Z" transform="translate(-96.742 -218.537)" fill="#263238"/>
          <path id="Path_18837" data-name="Path 18837" d="M144.12,461.1c0,.045.06.12.18.157s.232.045.247,0-.067-.112-.187-.157S144.135,461.054,144.12,461.1Z" transform="translate(-96.386 -218.466)" fill="#263238"/>
        </g>
      </g>
    </g>
  </g>
</svg>
