<svg xmlns="http://www.w3.org/2000/svg" width="76.379" height="95.654" viewBox="0 0 76.379 95.654">
  <g id="logo" transform="translate(-147.56 -58.62)">
    <g id="Group_36847" data-name="Group 36847" transform="translate(184.18 75.154)">
      <path id="Path_18260" data-name="Path 18260" d="M499.925,261.917a25.209,25.209,0,0,1-14.405-4.487l3.37-4.872a19.426,19.426,0,1,0,1.987-33.192l-2.764-5.241a25.355,25.355,0,1,1,11.812,47.792Z" transform="translate(-485.52 -211.21)" fill="#d9d7cb"/>
    </g>
    <g id="Group_36848" data-name="Group 36848" transform="translate(159.397 58.62)">
      <path id="Path_18261" data-name="Path 18261" d="M293.594,106.6l-2.676-5.287a19.431,19.431,0,1,0-19.6-1.214q.549.371,1.123.7l-2.957,5.135c-.492-.283-.988-.594-1.475-.921a25.357,25.357,0,1,1,25.581,1.584Z" transform="translate(-256.8 -58.62)" fill="#91b880"/>
    </g>
    <g id="Group_36849" data-name="Group 36849" transform="translate(147.703 74.496)">
      <path id="Path_18262" data-name="Path 18262" d="M174.224,256.563c-.206,0-.406,0-.6-.008a25.35,25.35,0,0,1-24.171-30.706,25.395,25.395,0,0,1,8.779-14.3,25.351,25.351,0,0,1,26.446-3.446l.276-.3,2.429-2.656,2.139,2.894a69.007,69.007,0,0,1,4.86,7.554c2.071,3.734,3.706,6.682,4.562,10.987a24.472,24.472,0,0,1,.421,8.04,25.346,25.346,0,0,1-25.142,21.948Zm.015-44.786a19.447,19.447,0,0,0-13.941,5.9,19.751,19.751,0,0,0-5.054,9.427,19.424,19.424,0,0,0,.6,10.378,19.431,19.431,0,0,0,17.923,13.15,19.4,19.4,0,0,0,15.978-7.718,19.151,19.151,0,0,0,3.735-9,18.78,18.78,0,0,0-.349-6.187c-.645-3.244-1.792-5.41-3.932-9.269-.721-1.3-1.494-2.583-2.315-3.841a48.315,48.315,0,0,0-6.733,10.694,21.062,21.062,0,0,0-1.767,6.082c-.328,2.562-.476,4.088.3,5.7a4.7,4.7,0,0,0,2.069,2.313,4.242,4.242,0,0,0,1.716.529c.561-2.283.973-8.851.973-13.8h5.925c0,16.558-2.207,18.011-3.15,18.632-1.552,1.022-4.209,1.843-8.057-.029a10.466,10.466,0,0,1-4.811-5.065c-1.583-3.273-1.191-6.33-.845-9.027a27.079,27.079,0,0,1,2.234-7.746,52.344,52.344,0,0,1,5.976-10.007,19.476,19.476,0,0,0-6.479-1.113Z" transform="translate(-148.881 -205.14)" fill="#427729"/>
    </g>
    <g id="Group_36854" data-name="Group 36854" transform="translate(147.56 130.756)">
      <g id="Group_36850" data-name="Group 36850" transform="translate(0 0.001)">
        <path id="Path_18263" data-name="Path 18263" d="M162.845,726.65q-.645.967-2,2.9a12.987,12.987,0,0,0-5.119-1.253q-2.971,0-2.971,2.219a1.949,1.949,0,0,0,.68,1.576,11.121,11.121,0,0,0,2.828,1.4,15.772,15.772,0,0,1,5.566,3.257,5.852,5.852,0,0,1,1.7,4.225,6.241,6.241,0,0,1-2.614,5.368,8.912,8.912,0,0,1-5.333,1.54,15.062,15.062,0,0,1-8.018-2.72l2.076-2.9a9.373,9.373,0,0,0,5.333,1.4q3.686,0,3.686-2.97,0-1.933-3.973-3.294-6.407-2.147-6.407-6.872a5.472,5.472,0,0,1,2.148-4.547,8.263,8.263,0,0,1,5.333-1.61A12.173,12.173,0,0,1,162.845,726.65Z" transform="translate(-147.56 -724.36)" fill="#427729"/>
      </g>
      <g id="Group_36851" data-name="Group 36851" transform="translate(17.754 0.43)">
        <path id="Path_18264" data-name="Path 18264" d="M311.41,728.32h5.047q2.5,5.082,5.083,10.166l4.976-10.166h5.047l-7.7,13.709v8.948h-4.69v-8.948Q315.1,734.87,311.41,728.32Z" transform="translate(-311.41 -728.32)" fill="#427729"/>
      </g>
      <g id="Group_36852" data-name="Group 36852" transform="translate(36.295 0.43)">
        <path id="Path_18265" data-name="Path 18265" d="M490.86,728.32H494.8l8.34,22.657h-4.76q-.609-1.789-1.5-4.725h-8.127q-.5,1.611-1.539,4.725h-4.69Zm2,6.12q-1,2.828-2.756,7.946h5.441Q493.866,737.448,492.865,734.44Z" transform="translate(-482.52 -728.32)" fill="#427729"/>
      </g>
      <g id="Group_36853" data-name="Group 36853" transform="translate(57.808)">
        <path id="Path_18266" data-name="Path 18266" d="M699.243,745.54a16.7,16.7,0,0,1-8.126,2.326,8.93,8.93,0,0,1-8.053-4.188,13.472,13.472,0,0,1-2-7.517,12.5,12.5,0,0,1,3.006-8.591,9.154,9.154,0,0,1,7.2-3.221,10.155,10.155,0,0,1,7.122,2.9l-1.825,2.971a8.6,8.6,0,0,0-5.011-1.862,4.768,4.768,0,0,0-4.028,2.255,9.629,9.629,0,0,0-1.593,5.691,8.071,8.071,0,0,0,2.04,5.8,5.388,5.388,0,0,0,4.08,1.79,7.84,7.84,0,0,0,2.757-.466v-4.689h-4.045v-4.081h8.483V745.54Z" transform="translate(-681.06 -724.35)" fill="#427729"/>
      </g>
    </g>
  </g>
</svg>
