<svg xmlns="http://www.w3.org/2000/svg" xmlns:xlink="http://www.w3.org/1999/xlink" width="155" height="112" viewBox="0 0 155 112">
  <defs>
    <clipPath id="clip-path">
      <path id="Rectangle_2388" data-name="Rectangle 2388" d="M10,0H145a10,10,0,0,1,10,10V112a0,0,0,0,1,0,0H0a0,0,0,0,1,0,0V10A10,10,0,0,1,10,0Z" transform="translate(23 20)" fill="#f3f7f9"/>
    </clipPath>
  </defs>
  <g id="user" transform="translate(-23 -20)">
    <path id="Rectangle_2201" data-name="Rectangle 2201" d="M10,0H145a10,10,0,0,1,10,10V112a0,0,0,0,1,0,0H0a0,0,0,0,1,0,0V10A10,10,0,0,1,10,0Z" transform="translate(23 20)" fill="#f3f7f9"/>
    <g id="Mask_Group_61" data-name="Mask Group 61" clip-path="url(#clip-path)">
      <g id="Portfolio-amico" transform="translate(18.761 -11.417)">
        <g id="freepik--Floor--inject-3" transform="translate(22.31 77.668)">
          <path id="Path_18838" data-name="Path 18838" d="M40.413,256.528c24.133,12.606,63.261,12.606,87.395,0s24.133-33.05,0-45.656-63.261-12.609-87.4,0S16.277,243.919,40.413,256.528Z" transform="translate(-22.31 -201.416)" fill="#fafafa"/>
        </g>
        <g id="freepik--Shadow--inject-3" transform="translate(58.257 126.721)">
          <ellipse id="Ellipse_1123" data-name="Ellipse 1123" cx="7.505" cy="3.577" rx="7.505" ry="3.577" transform="translate(0)" fill="#ebebeb"/>
        </g>
        <g id="freepik--Plants--inject-3" transform="translate(33.193 77.48)">
          <path id="Path_18839" data-name="Path 18839" d="M79.25,214.955l1.237-.313a30.257,30.257,0,0,0,.768-4.975c.319-4.016-1.242-7.047-3.186-8.3-2.308-1.486-3.518-.129-3.379.94.147,1.127,1.366,2.72,1.947,3.821A21.614,21.614,0,0,1,79.25,214.955Z" transform="translate(-71.54 -200.711)" fill="#427729"/>
          <path id="Path_18840" data-name="Path 18840" d="M79.25,214.955l1.237-.313a30.257,30.257,0,0,0,.768-4.975c.319-4.016-1.242-7.047-3.186-8.3-2.308-1.486-3.518-.129-3.379.94.147,1.127,1.366,2.72,1.947,3.821A21.614,21.614,0,0,1,79.25,214.955Z" transform="translate(-71.54 -200.711)" opacity="0.2"/>
          <path id="Path_18841" data-name="Path 18841" d="M84.23,216.658h-.019a.091.091,0,0,1-.072-.107c1.478-7.147-1.558-12.242-3.435-13.262a.091.091,0,0,1-.035-.123.088.088,0,0,1,.123-.037c1.976,1.071,5.039,6.129,3.526,13.46A.094.094,0,0,1,84.23,216.658Z" transform="translate(-75.917 -202.472)" fill="#fff"/>
          <path id="Path_18842" data-name="Path 18842" d="M70.665,230.439a10.314,10.314,0,0,0-.511-3.957c-.7-1.968-1.8-3.792-4.016-4.466s-3.936.926-2.846,2.394,5.146,2.38,5.936,6.983Z" transform="translate(-62.955 -216.194)" fill="#427729"/>
          <path id="Path_18843" data-name="Path 18843" d="M74.048,233.085h0a.094.094,0,0,1-.083-.1c.332-3.706-2.169-7.382-5.457-8.033a.091.091,0,0,1-.072-.107.088.088,0,0,1,.107-.072c3.376.664,5.942,4.429,5.6,8.223a.088.088,0,0,1-.1.088Z" transform="translate(-66.967 -218.329)" fill="#fff"/>
          <path id="Path_18844" data-name="Path 18844" d="M391.22,341.2a13,13,0,0,1,2.9-6.643c2.477-2.67,5.125-2.646,6.158-1.687s-.029,2.45-2.33,3.9a16.651,16.651,0,0,0-5.377,5.976Z" transform="translate(-303.323 -297.052)" fill="#427729"/>
          <path id="Path_18845" data-name="Path 18845" d="M391.22,341.2a13,13,0,0,1,2.9-6.643c2.477-2.67,5.125-2.646,6.158-1.687s-.029,2.45-2.33,3.9a16.651,16.651,0,0,0-5.377,5.976Z" transform="translate(-303.323 -297.052)" opacity="0.2"/>
          <path id="Path_18846" data-name="Path 18846" d="M393.089,344.209h-.024a.091.091,0,0,1-.07-.107c1.052-4.054,4.587-8.137,7.564-8.737a.092.092,0,0,1,.038.179c-2.916.589-6.386,4.611-7.425,8.606A.091.091,0,0,1,393.089,344.209Z" transform="translate(-304.622 -299.308)" fill="#fff"/>
          <path id="Path_18847" data-name="Path 18847" d="M392.146,368.572a4.2,4.2,0,0,0,3.149-.388c1.127-.776.846-1.607.977-2.241s.683-.983,1.607-1.1c1.135-.147,2.2-.327,2.394-1.526.177-1.058-1.569-1.628-1.05-2.662a6.724,6.724,0,0,1,2.005-1.874c.728-.576.295-1.834-1.446-1.837-2.158,0-2.608.8-3.569.929s-1.5-.428-2.552-.289c-1.165.153-1.735,1.266-1.762,2.656Z" transform="translate(-303.821 -315.108)" fill="#427729"/>
          <path id="Path_18848" data-name="Path 18848" d="M392.12,366.447h-.029a.091.091,0,0,1-.056-.118c.961-2.712,6.145-6.488,8.317-6.873a.092.092,0,1,1,.032.182c-2.142.38-7.23,4.086-8.175,6.748A.1.1,0,0,1,392.12,366.447Z" transform="translate(-303.916 -316.949)" fill="#fff"/>
          <path id="Path_18849" data-name="Path 18849" d="M403.694,376.524a.085.085,0,0,1-.043,0,9.025,9.025,0,0,0-5.387-.822.094.094,0,0,1-.04-.182,9.252,9.252,0,0,1,5.513.841.091.091,0,0,1,.04.123A.1.1,0,0,1,403.694,376.524Z" transform="translate(-308.405 -328.617)" fill="#fff"/>
          <path id="Path_18850" data-name="Path 18850" d="M400.2,365.762h0a.091.091,0,0,1-.091-.091,4.322,4.322,0,0,0-.549-2.41.092.092,0,0,1,.15-.107,4.51,4.51,0,0,1,.584,2.522.094.094,0,0,1-.094.086Z" transform="translate(-309.42 -319.63)" fill="#fff"/>
        </g>
        <g id="freepik--Resume--inject-3" transform="translate(55.831 32.417)">
          <path id="Path_18851" data-name="Path 18851" d="M147.963,32.621l.161-.094a1.026,1.026,0,0,1,.926,0l26.265,15.166a1.026,1.026,0,0,1,.463.8V85.1a1.031,1.031,0,0,1-.463.8l-.161.091a1.009,1.009,0,0,1-.926,0L147.963,70.833a1.02,1.02,0,0,1-.463-.8V33.425A1.023,1.023,0,0,1,147.963,32.621Z" transform="translate(-147.5 -32.417)" fill="#fafafa"/>
          <path id="Path_18852" data-name="Path 18852" d="M248.636,109.519v-18.3a.924.924,0,0,0-.137-.458l-1.5.868v37.045l.083.046a1.009,1.009,0,0,0,.926,0l.161-.091a1.031,1.031,0,0,0,.463-.8Z" transform="translate(-220.358 -75.138)" fill="#e0e0e0"/>
          <path id="Path_18853" data-name="Path 18853" d="M147.963,35.008l26.265,15.163a1.031,1.031,0,0,1,.463.8V87.58c0,.3-.209.418-.463.268L147.963,72.685a1.02,1.02,0,0,1-.463-.8V35.276C147.5,34.981,147.706,34.861,147.963,35.008Z" transform="translate(-147.5 -34.268)" fill="#f5f5f5"/>
          <path id="Path_18854" data-name="Path 18854" d="M160.143,51.411l19.739,11.4a1.02,1.02,0,0,1,.463.8V65.05c0,.295-.206.415-.463.268L160.143,53.928a1.031,1.031,0,0,1-.463-.8V51.678C159.68,51.381,159.889,51.25,160.143,51.411Z" transform="translate(-156.419 -46.274)" fill="#e0e0e0"/>
          <ellipse id="Ellipse_1124" data-name="Ellipse 1124" cx="2.22" cy="3.845" rx="2.22" ry="3.845" transform="translate(2.137 12.379) rotate(-30)" fill="#e0e0e0"/>
          <path id="Path_18855" data-name="Path 18855" d="M167.313,78.642c-.536-.305-.953-.059-.953.549a2.1,2.1,0,0,0,.953,1.652c.536.305.953.059.953-.536A2.1,2.1,0,0,0,167.313,78.642Z" transform="translate(-161.31 -66.169)" fill="#427729"/>
          <path id="Path_18856" data-name="Path 18856" d="M165.095,87.45l-.536-.313c-.868-.5-1.569-.094-1.569.905v.137a5.489,5.489,0,0,0,1.84,1.89,1.953,1.953,0,0,0,1.837.23v-.142a3.465,3.465,0,0,0-1.572-2.707Z" transform="translate(-158.842 -72.329)" fill="#427729"/>
          <path id="Path_18857" data-name="Path 18857" d="M160.261,103.221l4.284,2.471a1.245,1.245,0,0,1,.578.964c0,.345-.268.477-.578.292l-4.284-2.469a1.245,1.245,0,0,1-.581-.964C159.68,103.168,159.94,103.036,160.261,103.221Z" transform="translate(-156.419 -84.201)" fill="#e0e0e0"/>
          <path id="Path_18858" data-name="Path 18858" d="M160.261,112.6l4.284,2.471a1.245,1.245,0,0,1,.578.961c0,.348-.268.479-.578.295l-4.284-2.471a1.242,1.242,0,0,1-.581-.964C159.68,112.547,159.94,112.416,160.261,112.6Z" transform="translate(-156.419 -91.069)" fill="#e0e0e0"/>
          <path id="Path_18859" data-name="Path 18859" d="M160.254,121.97l4.284,2.471a1.245,1.245,0,0,1,.576.956c0,.345-.268.477-.578.292l-4.284-2.469a1.245,1.245,0,0,1-.581-.964C159.673,121.917,159.932,121.786,160.254,121.97Z" transform="translate(-156.411 -97.93)" fill="#e0e0e0"/>
          <path id="Path_18860" data-name="Path 18860" d="M160.254,131.351l4.284,2.471a1.245,1.245,0,0,1,.576.961c0,.348-.268.479-.578.295l-4.284-2.471a1.242,1.242,0,0,1-.581-.964C159.673,131.3,159.932,131.166,160.254,131.351Z" transform="translate(-156.411 -104.799)" fill="#e0e0e0"/>
          <path id="Path_18861" data-name="Path 18861" d="M160.261,145.452l4.284,2.469a1.285,1.285,0,0,1,.578,1v2.429c0,.37-.268.519-.578.335l-4.284-2.469a1.28,1.28,0,0,1-.581-1v-2.429C159.68,145.415,159.94,145.275,160.261,145.452Z" transform="translate(-156.419 -115.13)" fill="#427729"/>
          <path id="Path_18862" data-name="Path 18862" d="M192.758,84.455,203.565,90.7a1.245,1.245,0,0,1,.578.961c0,.348-.268.479-.578.295l-10.807-6.239a1.245,1.245,0,0,1-.578-.961C192.18,84.4,192.44,84.273,192.758,84.455Z" transform="translate(-180.216 -70.461)" fill="#427729"/>
          <path id="Path_18863" data-name="Path 18863" d="M192.758,93.831l10.807,6.239a1.245,1.245,0,0,1,.578.961c0,.348-.268.479-.578.295l-10.807-6.239a1.245,1.245,0,0,1-.578-.961C192.18,93.778,192.44,93.646,192.758,93.831Z" transform="translate(-180.216 -77.326)" fill="#427729"/>
          <path id="Path_18864" data-name="Path 18864" d="M192.758,103.211l10.807,6.239a1.245,1.245,0,0,1,.578.961c0,.348-.268.479-.578.295l-10.807-6.239a1.245,1.245,0,0,1-.578-.961C192.18,103.158,192.44,103.026,192.758,103.211Z" transform="translate(-180.216 -84.194)" fill="#427729"/>
        </g>
        <g id="freepik--photo-2--inject-3" transform="translate(104.762 55.063)">
          <path id="Path_18865" data-name="Path 18865" d="M330.839,117.718l1.017-.586a1.283,1.283,0,0,1,1.159,0l22.76,13.147a1.28,1.28,0,0,1,.581,1v28.8a1.28,1.28,0,0,1-.581,1l-1.015.586a1.283,1.283,0,0,1-1.159,0l-22.773-13.147a1.285,1.285,0,0,1-.578-1v-28.8A1.285,1.285,0,0,1,330.839,117.718Z" transform="translate(-330.247 -116.993)" fill="#455a64"/>
          <path id="Path_18866" data-name="Path 18866" d="M418.854,183.193v-14.4a1.171,1.171,0,0,0-.171-.573l-3.093,1.786v28.886l.509.295a1.283,1.283,0,0,0,1.159,0l1.015-.586a1.28,1.28,0,0,0,.581-1Z" transform="translate(-392.737 -154.503)" fill="#263238"/>
          <path id="Path_18867" data-name="Path 18867" d="M330.832,121.984l22.76,13.147a1.285,1.285,0,0,1,.578,1v28.8c0,.37-.268.519-.578.335l-22.773-13.147a1.285,1.285,0,0,1-.578-1v-28.8C330.253,121.949,330.513,121.8,330.832,121.984Z" transform="translate(-330.24 -120.589)" fill="#37474f"/>
          <path id="Path_18868" data-name="Path 18868" d="M356.465,143.756l-19.506-11.262c-.321-.185-.578-.035-.578.335v21.9a1.285,1.285,0,0,0,.578,1l19.506,11.262c.321.185.581.035.581-.335v-21.9a1.28,1.28,0,0,0-.581-1Z" transform="translate(-334.736 -128.285)" fill="#fff"/>
          <path id="Path_18869" data-name="Path 18869" d="M348.114,150.292a4.153,4.153,0,0,1,1.874,3.253c0,1.2-.841,1.684-1.874,1.084a4.148,4.148,0,0,1-1.874-3.253C346.237,150.174,347.078,149.69,348.114,150.292Z" transform="translate(-341.956 -141.186)" fill="#427729"/>
          <path id="Path_18870" data-name="Path 18870" d="M345.773,180.512l-3.481-5.264a1.271,1.271,0,0,0-2.18-.1l-3.733,4.624v4.758a1.28,1.28,0,0,0,.581,1l19.5,11.246c.321.185.581.035.581-.335V184.1L352.2,173.845a.963.963,0,0,0-1.826-.142Z" transform="translate(-334.736 -158.082)" fill="#427729"/>
        </g>
        <g id="freepik--Briefcase--inject-3" transform="translate(63.443 51.492)">
          <path id="Path_18871" data-name="Path 18871" d="M222.772,172.926l6.381-3.684a2.56,2.56,0,0,0,1.159-2.008V130.976a2.565,2.565,0,0,0-1.159-2.008l-43.361-25.036a2.562,2.562,0,0,0-2.319,0l-6.383,3.684a2.565,2.565,0,0,0-1.159,2.008v36.258a2.565,2.565,0,0,0,1.159,2.008l43.377,25.036A2.563,2.563,0,0,0,222.772,172.926Z" transform="translate(-175.93 -103.654)" fill="#455a64"/>
          <path id="Path_18872" data-name="Path 18872" d="M352.259,202.563a2.383,2.383,0,0,0-.337-1.143l-9.441,5.457v37.669a2.568,2.568,0,0,0,2.244-.032l6.386-3.687a2.557,2.557,0,0,0,1.149-2.006Z" transform="translate(-297.884 -175.242)" fill="#37474f"/>
          <path id="Path_18873" data-name="Path 18873" d="M220.453,148.1l-43.364-25.036c-.64-.37-1.159-.07-1.159.669v36.244a2.565,2.565,0,0,0,1.159,2.008l43.377,25.036c.64.37,1.159.07,1.159-.669V150.1A2.565,2.565,0,0,0,220.453,148.1Z" transform="translate(-175.93 -117.753)" fill="#37474f"/>
          <path id="Path_18874" data-name="Path 18874" d="M234.663,136.734a2.565,2.565,0,0,1,1.159,2.008v37.594l1.087-.627v-37.6a2.565,2.565,0,0,0-1.159-2.008L191.227,110.4l-1.087.629Z" transform="translate(-186.335 -108.594)" fill="#263238"/>
          <path id="Path_18875" data-name="Path 18875" d="M235.86,136.222,191.412,110.56l-1.122.608,44.486,25.684a2.364,2.364,0,0,1,.819.865l1.087-.627h0A2.351,2.351,0,0,0,235.86,136.222Z" transform="translate(-186.445 -108.711)" fill="#37474f"/>
          <path id="Path_18876" data-name="Path 18876" d="M320.651,183.243l-.766-.442a1.283,1.283,0,0,0-1.159,0l-2.945,1.7-.49-.147v.627h0a.407.407,0,0,0,.241.335l1.015.586a1.283,1.283,0,0,0,1.159,0l3.192-1.842a.407.407,0,0,0,.238-.335h0v-.629Z" transform="translate(-277.975 -161.507)" fill="#263238"/>
          <path id="Path_18877" data-name="Path 18877" d="M320.915,181.018l-1.017-.586a1.283,1.283,0,0,0-1.159,0l-3.189,1.845a.351.351,0,0,0,0,.667l1.015.589a1.282,1.282,0,0,0,1.159,0l3.192-1.845a.353.353,0,0,0,0-.669Z" transform="translate(-277.988 -159.772)" fill="#455a64"/>
          <path id="Path_18878" data-name="Path 18878" d="M223.183,126.963l-.755-.442a1.288,1.288,0,0,0-1.162,0l-2.945,1.7-.49-.147v.619h0a.407.407,0,0,0,.241.335l1.015.586a1.282,1.282,0,0,0,1.159,0l3.192-1.842a.4.4,0,0,0,.238-.335h0v-.619Z" transform="translate(-206.611 -120.297)" fill="#263238"/>
          <path id="Path_18879" data-name="Path 18879" d="M223.43,124.76l-1.017-.589a1.283,1.283,0,0,0-1.159,0l-3.189,1.845a.353.353,0,0,0,0,.669l1.015.586a1.283,1.283,0,0,0,1.159,0l3.192-1.842a.353.353,0,0,0,0-.669Z" transform="translate(-206.607 -118.576)" fill="#455a64"/>
          <path id="Path_18880" data-name="Path 18880" d="M263.414,125.117v3.767l-2.174,1.256v-5.746c0-.3.206-.415.463-.268Z" transform="translate(-238.397 -118.599)" fill="#263238"/>
          <path id="Path_18881" data-name="Path 18881" d="M271.868,121.27v7l-1.607.934-1.087-.629v-5.743a1.031,1.031,0,0,0-.463-.8l-8.26-4.753-1.7-.991c-.268-.147-.463-.029-.463.268V122.3l-1.09-.629v-7a.533.533,0,0,1,0-.091,1.031,1.031,0,0,1,.458-.712l.688-.4a1.026,1.026,0,0,1,.926,0l12.124,7A1.028,1.028,0,0,1,271.868,121.27Z" transform="translate(-235.434 -110.759)" fill="#455a64"/>
          <path id="Path_18882" data-name="Path 18882" d="M270.24,124.89v7l-1.087-.629v-5.743a1.031,1.031,0,0,0-.463-.8l-8.239-4.753-1.7-.991c-.268-.147-.463-.029-.463.268v5.743l-1.09-.629v-7a.533.533,0,0,1,0-.091c.04-.228.23-.308.458-.177l12.124,7A1.034,1.034,0,0,1,270.24,124.89Z" transform="translate(-235.434 -113.444)" fill="#37474f"/>
        </g>
        <g id="freepik--Folder--inject-3" transform="translate(75.517 79.187)">
          <path id="Path_18883" data-name="Path 18883" d="M274.625,261.26l1.087-.629-1.087-31.341a1.288,1.288,0,0,0-.581-1L253.45,216.394a2.075,2.075,0,0,1-.8-.967L252,213.553a2.038,2.038,0,0,0-.8-.959l-9.706-5.43c-.321-.179-.586-.027-.586.343v33.617a1.291,1.291,0,0,0,.581,1Z" transform="translate(-235.577 -207.089)" fill="#427729"/>
          <path id="Path_18884" data-name="Path 18884" d="M274.625,261.26l1.087-.629-1.087-31.341a1.288,1.288,0,0,0-.581-1L253.45,216.394a2.075,2.075,0,0,1-.8-.967L252,213.553a2.038,2.038,0,0,0-.8-.959l-9.706-5.43c-.321-.179-.586-.027-.586.343v33.617a1.291,1.291,0,0,0,.581,1Z" transform="translate(-235.577 -207.089)" opacity="0.2"/>
          <path id="Path_18885" data-name="Path 18885" d="M306.383,210.893l23,13.281a1.02,1.02,0,0,1,.463.8v37.861c0,.3-.206.415-.463.268l-23-13.278a1.028,1.028,0,0,1-.463-.8V211.161A.284.284,0,0,1,306.383,210.893Z" transform="translate(-283.187 -209.83)" fill="#fff"/>
          <g id="Group_36890" data-name="Group 36890" transform="translate(22.597 0.859)" opacity="0.5">
            <path id="Path_18886" data-name="Path 18886" d="M329.222,262.913a.559.559,0,0,1-.268-.08l-23-13.281a1.157,1.157,0,0,1-.536-.918V210.769a.412.412,0,0,1,.664-.383l23,13.278a1.162,1.162,0,0,1,.535.921v37.861a.46.46,0,0,1-.2.418A.374.374,0,0,1,329.222,262.913Zm-23.416-52.339a.123.123,0,0,0-.056,0,.214.214,0,0,0-.067.185v37.875a.892.892,0,0,0,.4.677l23,13.281a.206.206,0,0,0,.2.032.209.209,0,0,0,.067-.185V224.586a.892.892,0,0,0-.4-.688l-23-13.278A.268.268,0,0,0,305.806,210.574Z" transform="translate(-305.414 -210.297)" fill="#e0e0e0"/>
          </g>
          <path id="Path_18887" data-name="Path 18887" d="M314.62,229.841l10.8,6.239a1.24,1.24,0,0,1,.578.964c0,.345-.268.477-.578.292l-10.8-6.236a1.245,1.245,0,0,1-.581-.964C314.028,229.788,314.3,229.656,314.62,229.841Z" transform="translate(-289.132 -223.688)" fill="#37474f"/>
          <path id="Path_18888" data-name="Path 18888" d="M314.627,243.928l18.419,10.633a1.242,1.242,0,0,1,.581.961c0,.348-.268.479-.578.295L314.63,245.184a1.243,1.243,0,0,1-.581-.964C314.035,243.888,314.3,243.743,314.627,243.928Z" transform="translate(-289.139 -234.005)" fill="#e0e0e0"/>
          <path id="Path_18889" data-name="Path 18889" d="M314.627,257.988l18.419,10.633a1.243,1.243,0,0,1,.581.961c0,.348-.268.479-.578.295L314.63,259.244a1.243,1.243,0,0,1-.581-.964C314.035,257.929,314.3,257.8,314.627,257.988Z" transform="translate(-289.139 -244.297)" fill="#e0e0e0"/>
          <path id="Path_18890" data-name="Path 18890" d="M314.62,272.062l18.419,10.633a1.242,1.242,0,0,1,.581.964c0,.345-.268.477-.578.292L314.62,273.323a1.242,1.242,0,0,1-.581-.961C314.028,272.008,314.3,271.877,314.62,272.062Z" transform="translate(-289.132 -254.603)" fill="#e0e0e0"/>
          <path id="Path_18891" data-name="Path 18891" d="M314.627,286.131l18.419,10.633a1.243,1.243,0,0,1,.581.964c0,.345-.268.477-.578.292L314.63,287.387a1.242,1.242,0,0,1-.581-.961C314.035,286.078,314.3,285.946,314.627,286.131Z" transform="translate(-289.139 -264.906)" fill="#e0e0e0"/>
          <path id="Path_18892" data-name="Path 18892" d="M314.627,300.2l18.419,10.633a1.245,1.245,0,0,1,.581.964c0,.348-.268.479-.578.295L314.63,301.457a1.242,1.242,0,0,1-.581-.961C314.035,300.148,314.3,300.016,314.627,300.2Z" transform="translate(-289.139 -275.208)" fill="#e0e0e0"/>
          <path id="Path_18893" data-name="Path 18893" d="M314.62,314.281l18.419,10.633a1.243,1.243,0,0,1,.581.961c0,.348-.268.479-.578.295L314.62,315.537a1.242,1.242,0,0,1-.581-.964C314.028,314.227,314.3,314.1,314.62,314.281Z" transform="translate(-289.132 -285.518)" fill="#e0e0e0"/>
          <path id="Path_18894" data-name="Path 18894" d="M314.627,328.351l18.419,10.633a1.242,1.242,0,0,1,.581.961c0,.348-.268.479-.578.295L314.63,329.607a1.242,1.242,0,0,1-.581-.964C314.035,328.3,314.3,328.166,314.627,328.351Z" transform="translate(-289.139 -295.82)" fill="#e0e0e0"/>
          <path id="Path_18895" data-name="Path 18895" d="M294.193,217.919l23,13.281a1.023,1.023,0,0,1,.466.8v37.861c0,.295-.209.415-.466.268l-23-13.281a1.025,1.025,0,0,1-.463-.8V218.187C293.73,217.9,293.939,217.772,294.193,217.919Z" transform="translate(-274.261 -214.974)" fill="#fff"/>
          <path id="Path_18896" data-name="Path 18896" d="M317.034,269.95a.56.56,0,0,1-.268-.08l-23-13.278a1.157,1.157,0,0,1-.536-.921V217.809a.415.415,0,0,1,.664-.383l23,13.278a1.154,1.154,0,0,1,.536.921v37.861a.455.455,0,0,1-.2.415A.375.375,0,0,1,317.034,269.95Zm-23.416-52.339a.1.1,0,0,0-.054.013.206.206,0,0,0-.07.185V255.67a.892.892,0,0,0,.4.688l23,13.281a.155.155,0,0,0,.268-.153V231.625a.889.889,0,0,0-.4-.688l-23-13.281A.292.292,0,0,0,293.619,217.611Z" transform="translate(-273.893 -214.595)" fill="#e0e0e0"/>
          <path id="Path_18897" data-name="Path 18897" d="M302.411,236.871l10.8,6.239a1.243,1.243,0,0,1,.581.964c0,.345-.268.477-.581.292l-10.8-6.239a1.242,1.242,0,0,1-.581-.961C301.835,236.818,302.1,236.686,302.411,236.871Z" transform="translate(-280.192 -228.835)" fill="#e0e0e0"/>
          <path id="Path_18898" data-name="Path 18898" d="M302.411,250.945l18.419,10.633a1.25,1.25,0,0,1,.578.964c0,.348-.268.479-.578.295L302.411,252.2a1.242,1.242,0,0,1-.581-.961C301.835,250.9,302.1,250.761,302.411,250.945Z" transform="translate(-280.192 -239.142)" fill="#e0e0e0"/>
          <path id="Path_18899" data-name="Path 18899" d="M302.411,265.021l18.425,10.643a1.245,1.245,0,0,1,.578.961c0,.348-.268.479-.578.294l-18.425-10.643a1.242,1.242,0,0,1-.581-.964C301.835,264.967,302.1,264.836,302.411,265.021Z" transform="translate(-280.192 -249.448)" fill="#e0e0e0"/>
          <path id="Path_18900" data-name="Path 18900" d="M302.411,279.091l18.425,10.625a1.245,1.245,0,0,1,.578.961c0,.348-.268.479-.578.294l-18.425-10.627a1.242,1.242,0,0,1-.581-.964C301.835,279.037,302.1,278.906,302.411,279.091Z" transform="translate(-280.192 -259.75)" fill="#e0e0e0"/>
          <path id="Path_18901" data-name="Path 18901" d="M302.411,293.161l18.419,10.633a1.245,1.245,0,0,1,.578.964c0,.345-.268.477-.578.292l-18.419-10.633a1.242,1.242,0,0,1-.581-.961C301.835,293.108,302.1,292.976,302.411,293.161Z" transform="translate(-280.192 -270.053)" fill="#e0e0e0"/>
          <path id="Path_18902" data-name="Path 18902" d="M302.411,307.231l18.419,10.633a1.245,1.245,0,0,1,.578.964c0,.345-.268.477-.578.292l-18.419-10.633a1.243,1.243,0,0,1-.581-.961C301.835,307.178,302.1,307.046,302.411,307.231Z" transform="translate(-280.192 -280.356)" fill="#e0e0e0"/>
          <path id="Path_18903" data-name="Path 18903" d="M302.411,321.3l18.419,10.633a1.245,1.245,0,0,1,.578.964c0,.348-.268.479-.578.295l-18.419-10.636a1.242,1.242,0,0,1-.581-.961C301.835,321.248,302.1,321.116,302.411,321.3Z" transform="translate(-280.192 -290.658)" fill="#e0e0e0"/>
          <path id="Path_18904" data-name="Path 18904" d="M302.411,335.381l18.419,10.633a1.245,1.245,0,0,1,.578.961c0,.348-.268.479-.578.295l-18.419-10.633a1.243,1.243,0,0,1-.581-.964C301.835,335.327,302.1,335.2,302.411,335.381Z" transform="translate(-280.192 -300.968)" fill="#e0e0e0"/>
          <path id="Path_18905" data-name="Path 18905" d="M260.068,276.148l-5.315-28.857a1.66,1.66,0,0,0-.7-.993l-32.557-18.8c-.319-.185-.535-.037-.458.324l5.195,28.2a1.66,1.66,0,0,0,.7.993Z" transform="translate(-221.021 -221.978)" fill="#427729"/>
        </g>
        <g id="freepik--photo-1--inject-3" transform="translate(74.319 97.1)">
          <path id="Path_18906" data-name="Path 18906" d="M216.548,275.121v18.743a1.28,1.28,0,0,0,.581,1l12.978,7.5a1.09,1.09,0,0,0,1.668-.964V282.656a1.285,1.285,0,0,0-.578-1l-12.981-7.5a1.09,1.09,0,0,0-1.668.961Z" transform="translate(-216.548 -273.988)" fill="#455a64"/>
          <path id="Path_18907" data-name="Path 18907" d="M268.492,314.2V304.83a1.186,1.186,0,0,0-.169-.57l-1.633.943v19.279l.134.078a1.242,1.242,0,0,0,1.125.019h0a1.24,1.24,0,0,0,.536-.983Z" transform="translate(-253.264 -296.154)" fill="#263238"/>
          <path id="Path_18908" data-name="Path 18908" d="M217.131,276.771l12.978,7.5a1.28,1.28,0,0,1,.581,1v18.757c0,.37-.268.519-.581.335l-12.978-7.5a1.28,1.28,0,0,1-.581-1V277.119C216.55,276.728,216.81,276.578,217.131,276.771Z" transform="translate(-216.549 -275.964)" fill="#37474f"/>
          <path id="Path_18909" data-name="Path 18909" d="M221.191,283.788l10.8,6.236a1.285,1.285,0,0,1,.581,1v13.733c0,.37-.268.519-.581.335l-10.8-6.239a1.28,1.28,0,0,1-.581-1V284.126C220.61,283.756,220.87,283.606,221.191,283.788Z" transform="translate(-219.522 -281.108)" fill="#fff"/>
          <path id="Path_18910" data-name="Path 18910" d="M226.865,295.511a2.838,2.838,0,0,1,1.283,2.225c0,.819-.573,1.151-1.283.742a2.841,2.841,0,0,1-1.285-2.225C225.58,295.428,226.156,295.1,226.865,295.511Z" transform="translate(-223.162 -289.617)" fill="#427729"/>
          <path id="Path_18911" data-name="Path 18911" d="M228.705,313.268l-2.678,3.936-2.022-3.047a.736.736,0,0,0-1.264-.059l-2.142,2.678v2.469a1.28,1.28,0,0,0,.581,1l10.8,6.239c.321.185.581.035.581-.335V319.29l-2.806-5.939C229.511,312.816,229.037,312.778,228.705,313.268Z" transform="translate(-219.515 -302.498)" fill="#427729"/>
          <path id="Path_18912" data-name="Path 18912" d="M228.705,313.268l-2.678,3.936-2.022-3.047a.736.736,0,0,0-1.264-.059l-2.142,2.678v2.469a1.28,1.28,0,0,0,.581,1l10.8,6.239c.321.185.581.035.581-.335V319.29l-2.806-5.939C229.511,312.816,229.037,312.778,228.705,313.268Z" transform="translate(-219.515 -302.498)" opacity="0.2"/>
        </g>
        <g id="freepik--Certificate--inject-3" transform="translate(33.13 60.591)">
          <path id="Path_18913" data-name="Path 18913" d="M63.4,172.2a28.276,28.276,0,0,0,13.677-24.219v-9.511c0-.295.209-.415.463-.268l24.1,13.908a1.031,1.031,0,0,1,.463.8v9.511a28.278,28.278,0,0,1-13.584,24.144,1.109,1.109,0,0,1-1.133,0L63.4,172.737a.287.287,0,0,1,0-.541Z" transform="translate(-63.078 -138.002)" fill="#fff"/>
          <path id="Path_18914" data-name="Path 18914" d="M87.592,186.505a1.245,1.245,0,0,1-.632-.171L62.977,172.488a.418.418,0,0,1,0-.771h0a28.289,28.289,0,0,0,13.613-24.1V138.1a.458.458,0,0,1,.2-.415.45.45,0,0,1,.461.032l24.1,13.908a1.157,1.157,0,0,1,.536.918v9.511a28.575,28.575,0,0,1-13.656,24.27,1.207,1.207,0,0,1-.64.179ZM63.111,171.947c-.08.048-.126.1-.126.158s.046.1.126.15L87.094,186.1a.983.983,0,0,0,1,0A28.308,28.308,0,0,0,101.6,162.061v-9.516a.9.9,0,0,0-.4-.688l-24.1-13.908a.209.209,0,0,0-.193-.032.206.206,0,0,0-.07.185v9.511A28.57,28.57,0,0,1,63.1,171.947Z" transform="translate(-62.72 -137.638)" fill="#e0e0e0"/>
          <path id="Path_18915" data-name="Path 18915" d="M168.418,182.954l6.456,3.727a1.245,1.245,0,0,1,.578.961c0,.348-.268.479-.578.295l-6.456-3.727a1.245,1.245,0,0,1-.578-.964C167.831,182.906,168.091,182.769,168.418,182.954Z" transform="translate(-139.692 -170.76)" fill="#e0e0e0"/>
          <path id="Path_18916" data-name="Path 18916" d="M134.8,182.95c0,.345-.268.477-.581.292l-6.453-3.725a1.245,1.245,0,0,1-.578-.961c0-.348.268-.479.578-.295l6.453,3.725A1.242,1.242,0,0,1,134.8,182.95Z" transform="translate(-109.927 -167.323)" fill="#e0e0e0"/>
          <path id="Path_18917" data-name="Path 18917" d="M144.494,207.414c-.048.319-.353.426-.675.241l-17.327-10a.991.991,0,0,1-.487-.913c.048-.319.34-.428.659-.244L144,206.5A1,1,0,0,1,144.494,207.414Z" transform="translate(-109.059 -180.669)" fill="#e0e0e0"/>
          <path id="Path_18918" data-name="Path 18918" d="M141.8,220.035c-.086.3-.418.388-.739.2l-17.327-10.006a.838.838,0,0,1-.423-.873c.083-.3.4-.394.723-.209l17.329,10.006A.852.852,0,0,1,141.8,220.035Z" transform="translate(-107.077 -189.933)" fill="#e0e0e0"/>
          <path id="Path_18919" data-name="Path 18919" d="M137.7,231.832a.54.54,0,0,1-.8.171l-17.33-10a.72.72,0,0,1-.364-.841.517.517,0,0,1,.779-.177l17.354,10.006a.731.731,0,0,1,.364.843Z" transform="translate(-104.058 -198.587)" fill="#e0e0e0"/>
          <path id="Path_18920" data-name="Path 18920" d="M132.4,242.964a.61.61,0,0,1-.849.137l-17.327-10a.627.627,0,0,1-.311-.8.594.594,0,0,1,.835-.145l17.33,10A.635.635,0,0,1,132.4,242.964Z" transform="translate(-100.17 -206.765)" fill="#e0e0e0"/>
          <path id="Path_18921" data-name="Path 18921" d="M115.769,252.239a.728.728,0,0,1-.918.1l-9.714-5.6a.535.535,0,0,1-.238-.766.718.718,0,0,1,.91-.1l9.717,5.623A.51.51,0,0,1,115.769,252.239Z" transform="translate(-93.548 -216.798)" fill="#e0e0e0"/>
          <path id="Path_18922" data-name="Path 18922" d="M101.83,289.41A24.494,24.494,0,0,1,90.63,293c1.245.72,4.054,1.017,6.223.72,0,0-.3,1.261-2.49,2.873,0,0,3.561.961,9.958-5.749Z" transform="translate(-83.157 -248.771)" fill="#427729"/>
          <path id="Path_18923" data-name="Path 18923" d="M135.839,282.669a4.212,4.212,0,0,1-4.79.335c-1.5-.868-1.738-2.364-.648-3.481a3.91,3.91,0,0,1,4.589-.536C136.492,279.85,136.929,281.566,135.839,282.669Z" transform="translate(-111.783 -240.77)" fill="#427729"/>
          <path id="Path_18924" data-name="Path 18924" d="M135.839,282.669a4.212,4.212,0,0,1-4.79.335c-1.5-.868-1.738-2.364-.648-3.481a3.91,3.91,0,0,1,4.589-.536C136.492,279.85,136.929,281.566,135.839,282.669Z" transform="translate(-111.783 -240.77)" opacity="0.2"/>
          <path id="Path_18925" data-name="Path 18925" d="M135.839,281.418a4.217,4.217,0,0,1-4.79.335c-1.5-.865-1.738-2.367-.648-3.481a3.91,3.91,0,0,1,4.589-.535C136.492,278.6,136.929,280.31,135.839,281.418Z" transform="translate(-111.783 -239.853)" fill="#427729"/>
          <path id="Path_18926" data-name="Path 18926" d="M135.5,283.762a3.787,3.787,0,0,1-1.874-.474,1.649,1.649,0,0,1-.913-1.135,1.32,1.32,0,0,1,.434-1.071,2.945,2.945,0,0,1,2.081-.8,3.058,3.058,0,0,1,1.537.4,1.981,1.981,0,0,1,1.042,1.371,1.208,1.208,0,0,1-.364,1.042A2.739,2.739,0,0,1,135.5,283.762Z" transform="translate(-113.968 -242.085)" fill="#427729"/>
          <path id="Path_18927" data-name="Path 18927" d="M135.5,283.762a3.787,3.787,0,0,1-1.874-.474,1.649,1.649,0,0,1-.913-1.135,1.32,1.32,0,0,1,.434-1.071,2.945,2.945,0,0,1,2.081-.8,3.058,3.058,0,0,1,1.537.4,1.981,1.981,0,0,1,1.042,1.371,1.208,1.208,0,0,1-.364,1.042A2.739,2.739,0,0,1,135.5,283.762Z" transform="translate(-113.968 -242.085)" opacity="0.3"/>
          <path id="Path_18928" data-name="Path 18928" d="M136.826,281.907a3.085,3.085,0,0,0-1.537-.4,2.945,2.945,0,0,0-2.08.8,1.508,1.508,0,0,0-.428.771,1.684,1.684,0,0,0,.908,1.106,3.786,3.786,0,0,0,1.874.474,2.739,2.739,0,0,0,1.952-.675,1.245,1.245,0,0,0,.364-.712A2,2,0,0,0,136.826,281.907Z" transform="translate(-114.021 -242.985)" fill="#427729"/>
          <path id="Path_18929" data-name="Path 18929" d="M136.826,281.907a3.085,3.085,0,0,0-1.537-.4,2.945,2.945,0,0,0-2.08.8,1.508,1.508,0,0,0-.428.771,1.684,1.684,0,0,0,.908,1.106,3.786,3.786,0,0,0,1.874.474,2.739,2.739,0,0,0,1.952-.675,1.245,1.245,0,0,0,.364-.712A2,2,0,0,0,136.826,281.907Z" transform="translate(-114.021 -242.985)" opacity="0.2"/>
        </g>
        <g id="freepik--Character--inject-3" transform="translate(58.834 90.946)">
          <circle id="Ellipse_1125" data-name="Ellipse 1125" cx="2.016" cy="2.016" r="2.016" transform="matrix(0.246, -0.969, 0.969, 0.246, 3.952, 3.955)" fill="#263238"/>
          <rect id="Rectangle_2506" data-name="Rectangle 2506" width="1.419" height="2.431" transform="translate(9.815 36.61)" fill="#ffa8a7"/>
          <path id="Path_18930" data-name="Path 18930" d="M178.211,380.213l-1.419.048-.072-2.573,1.491-.048Z" transform="translate(-171.899 -343.732)" fill="#ffa8a7"/>
          <path id="Path_18931" data-name="Path 18931" d="M180.87,309.933c0,1.355.177,11.134.177,11.134a8.522,8.522,0,0,1,.319,2.608c-.107,2.035-.34,8.3-.34,8.3a1.874,1.874,0,0,1-1.582.029s-1.25-8.325-1.507-10.341c-.22-1.762-.6-6.544-.6-6.544l-.768,5.749a8.111,8.111,0,0,1,.174,2.255c-.067.935-.613,6.71-.613,6.71a1.941,1.941,0,0,1-1.639.126s-.718-8.236-.734-9.09c-.019-.977.471-10.938.471-10.938Z" transform="translate(-169.73 -294.152)" fill="#37474f"/>
          <path id="Path_18932" data-name="Path 18932" d="M181.079,277.589s.536.321.536,1.607v2.782l.04,5.251a6.308,6.308,0,0,1-6.785-.45s.1-6.75.1-7.856a2.474,2.474,0,0,1,2.313-2.643l2.19.509Z" transform="translate(-170.545 -269.512)" fill="#fff"/>
          <path id="Path_18933" data-name="Path 18933" d="M163.149,285.774a57.176,57.176,0,0,0,.988-6.244l-1.823,2.913s-.4,2.263-.61,3.462a23.173,23.173,0,0,1-1.135,3.775,1.3,1.3,0,0,1-.511.415,3.615,3.615,0,0,0-.86.651c-.236.2-.423.233-.4.305a.348.348,0,0,0,.428.209,2.445,2.445,0,0,0,.536-.217,3.273,3.273,0,0,1-.627.838c-.573.56-.64.937.378,1.071.637.078,1.192-.268,1.831-1.607a11.441,11.441,0,0,0,.629-1.526C162.377,288.446,162.95,286.618,163.149,285.774Z" transform="translate(-158.716 -271.892)" fill="#ffa8a7"/>
          <path id="Path_18934" data-name="Path 18934" d="M169.82,276.185a1.416,1.416,0,0,0-1.457.407c-.268.284-.536.755-1,3.588-.4,2.463-1.537,6.531-1.537,6.531a1.724,1.724,0,0,0,1.55.56l2-7.366Z" transform="translate(-163.925 -269.412)" fill="#37474f"/>
          <path id="Path_18935" data-name="Path 18935" d="M176.545,276.411a3.05,3.05,0,0,0-.975,1.51c-.209.9-.244,10.962-.244,10.962a4.561,4.561,0,0,1-1.566-.589V279.1C173.76,277.782,174.055,275.779,176.545,276.411Z" transform="translate(-169.732 -269.52)" fill="#37474f"/>
          <path id="Path_18936" data-name="Path 18936" d="M188.811,278.64s-1.189,1.234-1.216,4.247-.075,8.3-.075,8.3a5.777,5.777,0,0,0,3.588-.466s-.169-7.545-.2-8.678c-.032-1.3.345-2.4-.383-2.761A11.021,11.021,0,0,0,188.811,278.64Z" transform="translate(-179.807 -271.24)" fill="#37474f"/>
          <path id="Path_18937" data-name="Path 18937" d="M193.31,265.72a17.338,17.338,0,0,1-.458,1.786.7.7,0,0,1-.4.324l.021-1.071Z" transform="translate(-183.417 -261.779)" fill="#263238"/>
          <path id="Path_18938" data-name="Path 18938" d="M193.566,257.5a.747.747,0,0,1,.624.22c.268.268.12,1.135-.214,1.979l-.616.07Z" transform="translate(-184.084 -255.753)" fill="#263238"/>
          <path id="Path_18939" data-name="Path 18939" d="M180.669,257.2c.123.075.3-.163.453-.321a.535.535,0,0,1,.894.145,1.1,1.1,0,0,1-.608,1.358c-.675.211-.777-.22-.777-.22l-.051,2.429-2.335,1.54a3.4,3.4,0,0,1,.142-1.607v-.739a4.251,4.251,0,0,1-.908.048,1.246,1.246,0,0,1-.959-1,7.243,7.243,0,0,1-.129-3.253c.225-1.856,2.386-1.874,3.551-1.141S180.669,257.2,180.669,257.2Z" transform="translate(-171.577 -253.187)" fill="#ffa8a7"/>
          <path id="Path_18940" data-name="Path 18940" d="M183.62,278.342l2.343-1.906v-.305a.891.891,0,0,1,.616.868l-1.422,2.166-.6-1.127Z" transform="translate(-176.952 -269.402)" fill="#f0f0f0"/>
          <path id="Path_18941" data-name="Path 18941" d="M180.455,275.64a1.1,1.1,0,0,0-.728.436,13.69,13.69,0,0,0-.627,1.906l.755-.584.455.584a4.82,4.82,0,0,1,.142-1.607Z" transform="translate(-173.642 -269.043)" fill="#f0f0f0"/>
          <path id="Path_18942" data-name="Path 18942" d="M180.117,255.222c.062,0,.3-.391.453-.536.212-.2-.062-1.947-.062-1.947a.83.83,0,0,0-.206-.886c-.292-.321-.779-.359-1.607-.487-.436-.07-1.1-.193-1.532-.268-.536-.1-.951-.2-1.32.12a.929.929,0,0,0-.254,1.034.876.876,0,0,0,.147.22.865.865,0,0,0,.375.268,2.053,2.053,0,0,0,1.018.3,11.488,11.488,0,0,0,2.185-.043c.23-.029.268.19.4.8C179.82,254.315,179.908,255.217,180.117,255.222Z" transform="translate(-171.026 -251.003)" fill="#263238"/>
          <path id="Path_18943" data-name="Path 18943" d="M193.994,256.258l.747-.4a.412.412,0,0,0-.565-.187A.45.45,0,0,0,193.994,256.258Z" transform="translate(-184.515 -254.385)" fill="#263238"/>
          <path id="Path_18944" data-name="Path 18944" d="M184.16,273a8.462,8.462,0,0,0,1.494-.428,1.267,1.267,0,0,0,.536-.536,1.759,1.759,0,0,1-.3.624c-.284.361-1.724.627-1.724.627Z" transform="translate(-177.347 -266.407)" fill="#f28f8f"/>
          <path id="Path_18945" data-name="Path 18945" d="M185.15,264.392a.222.222,0,1,0,.222-.222A.222.222,0,0,0,185.15,264.392Z" transform="translate(-178.072 -260.645)" fill="#263238"/>
          <path id="Path_18946" data-name="Path 18946" d="M186,261.431l.474.268a.284.284,0,0,0-.11-.378.268.268,0,0,0-.364.11Z" transform="translate(-178.694 -258.535)" fill="#263238"/>
          <path id="Path_18947" data-name="Path 18947" d="M183.153,270.67l-.5.19a.269.269,0,1,0,.5-.19Z" transform="translate(-176.241 -265.404)" fill="#f28f8f"/>
          <path id="Path_18948" data-name="Path 18948" d="M177.628,261.3l.434-.332a.268.268,0,0,0-.378-.059A.289.289,0,0,0,177.628,261.3Z" transform="translate(-172.526 -258.215)" fill="#263238"/>
          <path id="Path_18949" data-name="Path 18949" d="M178.27,264.08a.222.222,0,1,0,.222-.23.225.225,0,0,0-.222.23Z" transform="translate(-173.034 -260.41)" fill="#263238"/>
          <path id="Path_18950" data-name="Path 18950" d="M180.388,263.93l-.075,1.333-.694-.238Z" transform="translate(-174.023 -260.469)" fill="#f28f8f"/>
          <path id="Path_18951" data-name="Path 18951" d="M189.232,393.633v-.2c-.137.059-.453,1.264-1.015,1.778-.447.407-1.071.881-1.216,1.339s.851.734,1.269.659a3,3,0,0,0,1.542-.744c.2-.316.311-.785.482-1.018s.568-.493.661-.763a1.711,1.711,0,0,0-.083-.744c-.064-.252-.137-.536-.222-.5v.15a1.119,1.119,0,0,1-.71.241C189.732,393.832,189.229,393.791,189.232,393.633Z" transform="translate(-179.417 -355.294)" fill="#263238"/>
          <path id="Path_18952" data-name="Path 18952" d="M167.708,385.539c-.072,0-.134.107-.295.284a3.158,3.158,0,0,1-.835.6c-.536.268-1.566.675-2.035.886-.292.131-.268.485.024.685a2.727,2.727,0,0,0,1.906.15c.479-.107,1.1-.536,1.491-.522a3.1,3.1,0,0,0,1.419-.182c.289-.2.174-.629.091-1s-.2-1.023-.332-1v.147a1.52,1.52,0,0,1-1.427.174Z" transform="translate(-162.831 -349.448)" fill="#263238"/>
          <path id="Path_18953" data-name="Path 18953" d="M181.726,326.223a5.236,5.236,0,0,1-1.976-1.133,4.07,4.07,0,0,0,1.516,1.379l-.244,5.023Z" transform="translate(-174.118 -305.252)" fill="#263238"/>
          <path id="Path_18954" data-name="Path 18954" d="M183.382,282.776c-.08-.193-.359-.281-.621-.287a.4.4,0,0,0-.4.412,1.735,1.735,0,0,0,.137.64.972.972,0,0,1,.592.054A1.874,1.874,0,0,0,183.382,282.776Z" transform="translate(-176.028 -274.059)" fill="#263238"/>
          <path id="Path_18955" data-name="Path 18955" d="M181.551,286.219s-.493,4.051-.482,4.284.517,1.641.776,1.641.76-1.261.774-1.459-.477-4.418-.477-4.418A.506.506,0,0,0,181.551,286.219Z" transform="translate(-175.084 -276.736)" fill="#263238"/>
          <path id="Path_18956" data-name="Path 18956" d="M191.859,337.4l-1.042-.608a.412.412,0,0,1-.187-.327v-5.9a.42.42,0,0,1,.187-.329l7.066-4.078a.415.415,0,0,1,.38,0l1.039.6a.415.415,0,0,1,.19.327v5.91a.421.421,0,0,1-.2.319l-7.066,4.081A.426.426,0,0,1,191.859,337.4Z" transform="translate(-182.085 -305.998)" fill="#427729"/>
          <path id="Path_18957" data-name="Path 18957" d="M190.63,342.227a.406.406,0,0,1,.054-.187l1.542.889v6.14a.429.429,0,0,1-.367,0l-1.042-.613a.412.412,0,0,1-.187-.327Z" transform="translate(-182.085 -317.664)" fill="#f28f8f"/>
          <path id="Path_18958" data-name="Path 18958" d="M190.63,342.227a.406.406,0,0,1,.054-.187l1.542.889v6.14a.429.429,0,0,1-.367,0l-1.042-.613a.412.412,0,0,1-.187-.327Z" transform="translate(-182.085 -317.664)" fill="#427729"/>
          <path id="Path_18959" data-name="Path 18959" d="M190.63,342.227a.406.406,0,0,1,.054-.187l1.542.889v6.14a.429.429,0,0,1-.367,0l-1.042-.613a.412.412,0,0,1-.187-.327Z" transform="translate(-182.085 -317.664)" opacity="0.2"/>
          <path id="Path_18960" data-name="Path 18960" d="M196.1,333.347l7.061-4.081a.118.118,0,0,1,.19.11v5.91a.42.42,0,0,1-.19.319l-7.066,4.081a.118.118,0,0,1-.19-.11v-5.9A.42.42,0,0,1,196.1,333.347Z" transform="translate(-185.944 -308.294)" fill="#427729"/>
          <path id="Path_18961" data-name="Path 18961" d="M193.351,331.5a.42.42,0,0,0-.187.329v6.126l-.163-.091v-6.14a.418.418,0,0,1,.187-.327l7.256-4.188.177.1Z" transform="translate(-183.82 -306.805)" fill="#427729"/>
          <path id="Path_18962" data-name="Path 18962" d="M193.351,331.5a.42.42,0,0,0-.187.329v6.126l-.163-.091v-6.14a.418.418,0,0,1,.187-.327l7.256-4.188.177.1Z" transform="translate(-183.82 -306.805)" opacity="0.3"/>
          <path id="Path_18963" data-name="Path 18963" d="M193.247,331.412l7.23-4.182.185.1-7.251,4.185a.429.429,0,0,0-.134.142l-.177-.1h0A.4.4,0,0,1,193.247,331.412Z" transform="translate(-183.893 -306.82)" fill="#427729"/>
          <path id="Path_18964" data-name="Path 18964" d="M193.247,331.412l7.23-4.182.185.1-7.251,4.185a.429.429,0,0,0-.134.142l-.177-.1h0A.4.4,0,0,1,193.247,331.412Z" transform="translate(-183.893 -306.82)" opacity="0.2"/>
          <path id="Path_18965" data-name="Path 18965" d="M197.53,339.081l.126-.072a.209.209,0,0,1,.187,0l.479.268.08-.024v.1h0a.07.07,0,0,1-.038.056l-.166.094a.2.2,0,0,1-.19,0l-.519-.3a.064.064,0,0,1-.04-.054h0v-.1Z" transform="translate(-187.079 -315.428)" fill="#427729"/>
          <path id="Path_18966" data-name="Path 18966" d="M197.53,339.081l.126-.072a.209.209,0,0,1,.187,0l.479.268.08-.024v.1h0a.07.07,0,0,1-.038.056l-.166.094a.2.2,0,0,1-.19,0l-.519-.3a.064.064,0,0,1-.04-.054h0v-.1Z" transform="translate(-187.079 -315.428)" opacity="0.2"/>
          <path id="Path_18967" data-name="Path 18967" d="M197.512,338.678l.166-.094a.2.2,0,0,1,.187,0l.536.3a.056.056,0,0,1,0,.107l-.166.1a.217.217,0,0,1-.19,0l-.519-.3a.059.059,0,0,1-.013-.11Z" transform="translate(-187.101 -315.116)" fill="#427729"/>
          <path id="Path_18968" data-name="Path 18968" d="M212.53,331.082l.126-.072a.209.209,0,0,1,.187,0l.479.268.08-.024v.1h0a.07.07,0,0,1-.037.056l-.166.094a.2.2,0,0,1-.19,0l-.519-.3a.064.064,0,0,1-.04-.054h0v-.1Z" transform="translate(-198.062 -309.571)" fill="#427729"/>
          <path id="Path_18969" data-name="Path 18969" d="M212.53,331.082l.126-.072a.209.209,0,0,1,.187,0l.479.268.08-.024v.1h0a.07.07,0,0,1-.037.056l-.166.094a.2.2,0,0,1-.19,0l-.519-.3a.064.064,0,0,1-.04-.054h0v-.1Z" transform="translate(-198.062 -309.571)" opacity="0.2"/>
          <path id="Path_18970" data-name="Path 18970" d="M212.512,330.678l.166-.094a.2.2,0,0,1,.187,0l.535.3a.056.056,0,0,1,0,.107l-.166.1a.217.217,0,0,1-.19,0l-.519-.3a.059.059,0,0,1-.013-.11Z" transform="translate(-198.084 -309.258)" fill="#427729"/>
          <path id="Path_18971" data-name="Path 18971" d="M208.5,329.6v.616l.353.2v-.934c0-.051-.032-.07-.075-.046Z" transform="translate(-195.17 -308.431)" fill="#427729"/>
          <path id="Path_18972" data-name="Path 18972" d="M208.5,329.6v.616l.353.2v-.934c0-.051-.032-.07-.075-.046Z" transform="translate(-195.17 -308.431)" opacity="0.3"/>
          <path id="Path_18973" data-name="Path 18973" d="M201.56,328.982v1.141l.268.153.177-.1v-.935a.166.166,0,0,1,.078-.131l1.339-.777.268-.161c.043-.024.075,0,.075.046v.935l.179-.1v-1.141a.034.034,0,0,0,0-.016.171.171,0,0,0-.075-.115l-.112-.064a.163.163,0,0,0-.15,0l-1.971,1.135A.171.171,0,0,0,201.56,328.982Z" transform="translate(-190.088 -307.158)" fill="#427729"/>
          <path id="Path_18974" data-name="Path 18974" d="M202.54,329.569v1.143l.177-.1v-.934a.166.166,0,0,1,.078-.131l1.339-.776.268-.161c.043-.024.075,0,.075.046v.934l.179-.1v-1.141a.035.035,0,0,0,0-.016c0-.038-.037-.048-.075-.027l-1.976,1.141A.171.171,0,0,0,202.54,329.569Z" transform="translate(-190.806 -307.595)" fill="#427729"/>
          <path id="Path_18975" data-name="Path 18975" d="M202.54,329.569v1.143l.177-.1v-.934a.166.166,0,0,1,.078-.131l1.339-.776.268-.161c.043-.024.075,0,.075.046v.934l.179-.1v-1.141a.035.035,0,0,0,0-.016c0-.038-.037-.048-.075-.027l-1.976,1.141A.171.171,0,0,0,202.54,329.569Z" transform="translate(-190.806 -307.595)" opacity="0.2"/>
          <path id="Path_18976" data-name="Path 18976" d="M203.771,322.178v.506a10.838,10.838,0,0,1,.206,1.406c.037.166-.193.5-.573.675-.163.078-.447.34-.576.353a1.026,1.026,0,0,1-.332-.137l.161-.094s.222-.324-.021-.5l-.482.268a1.186,1.186,0,0,1,0-.439c.046-.241.051-.552.088-.8a1.659,1.659,0,0,1,.268-.554l-.08-.8Z" transform="translate(-190.508 -303.034)" fill="#ffa8a7"/>
          <path id="Path_18977" data-name="Path 18977" d="M195.925,280.27a5.606,5.606,0,0,1,1.2.594,42.078,42.078,0,0,1,2.1,5.655c.067.447-.19,5.154-.19,5.154a1.607,1.607,0,0,1-1.574.1l-.268-4.718-1.494-3.885A3.754,3.754,0,0,1,195.925,280.27Z" transform="translate(-185.65 -272.434)" fill="#37474f"/>
        </g>
      </g>
    </g>
  </g>
</svg>
