<svg id="SYAG_logo" data-name="SYAG logo" xmlns="http://www.w3.org/2000/svg" width="130.756" height="199.43" viewBox="0 0 130.756 199.43">
  <g id="Group_36847" data-name="Group 36847" transform="translate(62.691 34.466)">
    <path id="Path_18260" data-name="Path 18260" d="M79.281,129.478a38.032,38.032,0,0,1-24.66-9.354l5.769-10.157c13.427,11.27,31.584,9.021,42.872-5.31s12.38-36.516,2.575-52.384-27.611-20.739-42.046-11.5L59.06,29.846c15.964-10.233,35.461-7.375,48.975,7.179S126.26,74.8,119.87,95.341,97.321,129.477,79.281,129.478Z" transform="translate(-54.621 -23.76)" fill="#fefeff"/>
  </g>
  <g id="Group_36848" data-name="Group 36848" transform="translate(20.257 0)">
    <path id="Path_18261" data-name="Path 18261" d="M91.886,106.633,87.3,95.613c13.4-8.248,20.609-26.41,17.58-44.324S89.343,20.155,74.353,19.026,45.612,29.141,40.794,46.463s.494,36.428,12.962,46.624q.941.772,1.921,1.462l-5.062,10.7c-.842-.589-1.692-1.238-2.525-1.92C31.825,90.023,24.9,65.092,31.19,42.49S55.425,5.221,74.985,6.7s35.882,18.726,39.834,42.1-5.446,47.075-22.936,57.84Z" transform="translate(-28.889 -6.594)" fill="#fefeff"/>
  </g>
  <g id="Group_36849" data-name="Group 36849" transform="translate(0.248 33.109)">
    <path id="Path_18262" data-name="Path 18262" d="M60.132,130.275c-.353,0-.7,0-1.026-.016-12.935-.378-25.058-7.765-33.061-20.147S14.995,81.646,17.732,66.246c2.09-11.726,7.389-22.239,15.029-29.817C45.515,23.782,63.045,21,78.033,29.25l.473-.634,4.159-5.537,3.661,6.034a150.7,150.7,0,0,1,8.32,15.747c3.545,7.784,6.344,13.931,7.81,22.906a61.9,61.9,0,0,1,.722,16.761c-2.914,26.224-21.309,45.779-43.04,45.754Zm.026-93.365c-8.993.006-17.6,4.441-23.866,12.3a44.577,44.577,0,0,0-8.651,19.653A48.938,48.938,0,0,0,28.668,90.5c4.5,16.063,16.749,27.006,30.682,27.414,10.715.328,20.9-5.663,27.353-16.086A44.967,44.967,0,0,0,93.1,83.065a47.494,47.494,0,0,0-.6-12.9c-1.1-6.763-3.068-11.279-6.731-19.323-1.234-2.708-2.558-5.385-3.962-8.008A105.949,105.949,0,0,0,70.28,65.132a51.362,51.362,0,0,0-3.025,12.68c-.562,5.34-.814,8.523.52,11.882a9.4,9.4,0,0,0,3.541,4.823,6.367,6.367,0,0,0,2.939,1.1c.961-4.759,1.666-18.451,1.666-28.776H86.064c0,34.518-3.778,37.548-5.393,38.842-2.656,2.127-7.205,3.842-13.793-.061a20.6,20.6,0,0,1-8.236-10.558c-2.711-6.824-2.038-13.2-1.446-18.819A66.08,66.08,0,0,1,61.017,60.1a116.112,116.112,0,0,1,10.23-20.861,28.035,28.035,0,0,0-11.091-2.32Z" transform="translate(-16.749 -23.079)" fill="#fefeff"/>
  </g>
  <g id="Group_36854" data-name="Group 36854" transform="translate(0 150.371)">
    <g id="Group_36850" data-name="Group 36850">
      <path id="Path_18263" data-name="Path 18263" d="M42.768,86.282q-1.1,2.015-3.432,6.045a19.09,19.09,0,0,0-8.763-2.611q-5.086,0-5.086,4.626a4.51,4.51,0,0,0,1.165,3.285,17.93,17.93,0,0,0,4.842,2.91q6.617,3.135,9.529,6.791a13.706,13.706,0,0,1,2.91,8.807,14.166,14.166,0,0,1-4.476,11.191,13.353,13.353,0,0,1-9.13,3.211q-6.433,0-13.727-5.67l3.554-6.045a13.911,13.911,0,0,0,9.13,2.91q6.311,0,6.311-6.193,0-4.028-6.8-6.868Q17.825,104.2,17.825,94.346A12.084,12.084,0,0,1,30.632,81.511a18.445,18.445,0,0,1,12.136,4.771Z" transform="translate(-16.6 -81.489)" fill="#fefeff"/>
    </g>
    <g id="Group_36851" data-name="Group 36851" transform="translate(30.394 0.915)">
      <path id="Path_18264" data-name="Path 18264" d="M35.034,81.936h8.641q4.288,10.6,8.7,21.193l8.515-21.193h8.641L56.357,110.518V129.17H48.329V110.515Q41.346,95.59,35.034,81.936Z" transform="translate(-35.034 -81.936)" fill="#fefeff"/>
    </g>
    <g id="Group_36852" data-name="Group 36852" transform="translate(62.134 0.915)">
      <path id="Path_18265" data-name="Path 18265" d="M68.563,81.936H75.3L89.581,129.17H81.432q-1.044-3.73-2.573-9.851H64.946q-.857,3.358-2.634,9.851H54.284ZM71.995,94.7q-1.717,5.9-4.717,16.564h9.314q-2.885-10.3-4.6-16.568Z" transform="translate(-54.284 -81.936)" fill="#fefeff"/>
    </g>
    <g id="Group_36853" data-name="Group 36853" transform="translate(98.95 0.013)">
      <path id="Path_18266" data-name="Path 18266" d="M107.759,125.669a24.923,24.923,0,0,1-13.91,4.85q-9.191,0-13.785-8.73a32.885,32.885,0,0,1-3.431-15.67,29.76,29.76,0,0,1,5.146-17.908c3.063-4.387,7.59-6.856,12.317-6.716a15.933,15.933,0,0,1,12.193,6.045l-3.124,6.194a13.271,13.271,0,0,0-8.579-3.881,7.975,7.975,0,0,0-6.895,4.7,23.41,23.41,0,0,0-2.729,11.864q0,7.613,3.493,12.087a8.572,8.572,0,0,0,6.987,3.732,11.29,11.29,0,0,0,4.719-.972V111.49H93.235v-8.508h14.519v22.686Z" transform="translate(-76.618 -81.489)" fill="#fefeff"/>
    </g>
  </g>
</svg>
