<svg xmlns="http://www.w3.org/2000/svg" xmlns:xlink="http://www.w3.org/1999/xlink" width="121" height="27.538" viewBox="0 0 121 27.538">
  <defs>
    <linearGradient id="linear-gradient" y1="0.5" x2="1" y2="0.5" gradientUnits="objectBoundingBox">
      <stop offset="0" stop-color="#8bcfb7"/>
      <stop offset="1" stop-color="#76bee9"/>
    </linearGradient>
  </defs>
  <g id="wothoq" transform="translate(-143.5 -297)">
    <g id="الشعار_باللون_الاسود" data-name="الشعار باللون الاسود" transform="translate(-129.787 297)">
      <g id="Group_5204" data-name="Group 5204" transform="translate(369.271 7.464)">
        <g id="Group_5203" data-name="Group 5203" transform="translate(0 0)">
          <path id="Path_12277" data-name="Path 12277" d="M422.6,351.9l2.521-2.162a22.277,22.277,0,0,0,3.008,3.752q3.769,3.769,6.649.88l.325-.325-1.7-1.7q-5.82-5.82-.786-10.863a7.575,7.575,0,0,1,5.179-2.419,8.073,8.073,0,0,1,6.034,2.726,18.068,18.068,0,0,1,3.786,5.29l-9.769,9.786a6.911,6.911,0,0,1-5.419,2.256q-3.346-.167-6.812-3.624A27.553,27.553,0,0,1,422.6,351.9Zm20.35-5.692a6.824,6.824,0,0,0-1.675-2.461,3.323,3.323,0,0,0-2.726-1.068,4.389,4.389,0,0,0-2.786,1.41c-2.026,2.026-1.957,4.137.222,6.307l1.393,1.393Z" transform="translate(-422.6 -339.058)" fill="#646464"/>
        </g>
      </g>
      <path id="Path_12278" data-name="Path 12278" d="M381.091,252.629a3.1,3.1,0,0,0-5.282,2.06v.12a3.126,3.126,0,0,0,.385,1.5,1.761,1.761,0,0,1-1.41,1.65,3.164,3.164,0,0,0-1.949-.462c-.017,0-.043.009-.06.009a3.084,3.084,0,0,0-2.342,4.572,1.76,1.76,0,0,1-1.41,1.632c-.009,0-.009,0-.017.009a3.069,3.069,0,0,0-1.923-.453.127.127,0,0,0-.06.009,3.09,3.09,0,0,0-1.966,5.128,3.1,3.1,0,0,0,5.384-1.709l.009-.085a3.111,3.111,0,0,0-.41-1.82h0v-.017a1.763,1.763,0,0,1,1.675-1.436,3.1,3.1,0,0,0,3.607-.564,3.026,3.026,0,0,0,.88-1.829.235.235,0,0,0,.009-.077,3.085,3.085,0,0,0-.419-1.855,1.758,1.758,0,0,1,1.692-1.436h0a3.119,3.119,0,0,0,1.376.342h.154a3.105,3.105,0,0,0,2.077-5.29Z" transform="translate(0 -251.725)" fill="url(#linear-gradient)"/>
    </g>
    <line id="Line_220" data-name="Line 220" y2="17" transform="translate(224.5 302.5)" fill="none" stroke="#646464" stroke-width="1"/>
    <text id="powered_by" data-name="powered by" transform="translate(179.5 316)" fill="#646464" font-size="14" font-family="Cairo-SemiBold, Cairo" font-weight="600"><tspan x="-35" y="0">Powered by</tspan></text>
  </g>
</svg>
