<svg xmlns="http://www.w3.org/2000/svg" width="35" height="35" viewBox="0 0 35 35">
  <g id="gmail" transform="translate(0 1)">
    <g id="Rectangle_2385" data-name="Rectangle 2385" transform="translate(0 -1)" fill="#fff" stroke="#f3f7f9" stroke-width="1">
      <rect width="35" height="35" rx="4" stroke="none"/>
      <rect x="0.5" y="0.5" width="34" height="34" rx="3.5" fill="none"/>
    </g>
    <g id="Group_6138" data-name="Group 6138" transform="translate(3.496 0.704)">
      <path id="Path_12240" data-name="Path 12240" d="M91.136,135.987h15.559l.21,13.27h-16l-.721-11.516Z" transform="translate(-84.399 -126.691)" fill="#f2f2f2"/>
      <g id="Group_4988" data-name="Group 4988" transform="translate(14.504 9.296)">
        <path id="Path_12241" data-name="Path 12241" d="M263.792,135.987H256v13.27h8l.105-11.131Z" transform="translate(-256 -135.987)" fill="#f8f8f8"/>
      </g>
      <path id="Path_12242" data-name="Path 12242" d="M83.9,149.256v-11.04a.229.229,0,0,0-.123-.2.211.211,0,0,0-.234.018l-7.644,6.417L68.25,138.03a.211.211,0,0,0-.234-.018.229.229,0,0,0-.123.2v11.04a2,2,0,0,1-2-2v-9.045a2.224,2.224,0,0,1,3.524-1.805l6.476,5.577,6.476-5.577a2.216,2.216,0,0,1,2.339-.161,2.262,2.262,0,0,1,1.185,2.007v9A2,2,0,0,1,83.9,149.256Z" transform="translate(-61.39 -126.691)" fill="#c5cee0"/>
      <path id="Path_12243" data-name="Path 12243" d="M264.815,136.247a2.216,2.216,0,0,0-2.339.161L256,141.979v2.463l7.644-6.412a.211.211,0,0,1,.234-.018.229.229,0,0,1,.123.2v11.04a2,2,0,0,0,2-2v-9A2.262,2.262,0,0,0,264.815,136.247Z" transform="translate(-241.496 -126.691)" fill="#c5cee0"/>
    </g>
  </g>
</svg>
