<svg xmlns="http://www.w3.org/2000/svg" width="35" height="35" viewBox="0 0 35 35">
  <g id="phone" transform="translate(0 1)">
    <g id="Rectangle_2385" data-name="Rectangle 2385" transform="translate(0 -1)" fill="#fff" stroke="#f3f7f9" stroke-width="1">
      <rect width="35" height="35" rx="4" stroke="none"/>
      <rect x="0.5" y="0.5" width="34" height="34" rx="3.5" fill="none"/>
    </g>
    <path id="Path_17873" data-name="Path 17873" d="M116.017,110.183a1.389,1.389,0,0,0-1.565,0l-.678.466a2.116,2.116,0,0,1-2.487-.069,17.666,17.666,0,0,1-3.649-3.649,2.116,2.116,0,0,1-.069-2.487l.466-.678a1.389,1.389,0,0,0,0-1.565L106.1,99.342a1.883,1.883,0,0,0-2.428-.614h0a3.648,3.648,0,0,0-1.645,4.721,26.268,26.268,0,0,0,4.472,6.895l1.382,1.382a26.271,26.271,0,0,0,6.895,4.472,3.648,3.648,0,0,0,4.721-1.645h0a1.883,1.883,0,0,0-.614-2.428Z" transform="translate(-93.706 -90.515)" fill="#c5cee0"/>
  </g>
</svg>
