<svg xmlns="http://www.w3.org/2000/svg" width="33.54" height="33.54" viewBox="0 0 33.54 33.54">
  <g id="Group_31" data-name="Group 31" transform="translate(106.756 -809.17)">
    <circle id="Ellipse_5" data-name="Ellipse 5" cx="16.77" cy="16.77" r="16.77" transform="translate(-106.756 809.17)" fill="#73af00"/>
    <g id="Group_30" data-name="Group 30" transform="translate(-102.315 817.737)">
      <g id="Group_29" data-name="Group 29" transform="translate(0 0)">
        <g id="Group_28" data-name="Group 28">
          <g id="Group_26" data-name="Group 26">
            <path id="Path_18" data-name="Path 18" d="M190.218,261.863c-.054.774-.122,2.131.534,2.269.789.078.353-1.338.642-1.6.054-.127.152-.127.162.034v1.2a.577.577,0,0,0,.451.588c.206-.015.343-.01.426.191.034.7.064,1.387.1,2.082,0,0,.48.137.5-1.166a12.615,12.615,0,0,1-.049-1.563c.005-.147.191-.157.319-.083.211.147.3.323.622.255.49-.137.784-.372.794-.75a3.356,3.356,0,0,0-.22-1.073c.02-.064-.1-.235-.074-.3.083.137.221.123.25,0a1.075,1.075,0,0,0-.421-.656c-.176-.152-.431-.118-.524.2a1.736,1.736,0,0,0,.4,1.156,1.132,1.132,0,0,1,.1.578.3.3,0,0,1-.4-.078s-.392-.294-.392-.358a1.43,1.43,0,0,0-.034-.921,1.22,1.22,0,0,0-.26-.51.178.178,0,0,0-.294,0,1.771,1.771,0,0,0,.034,1.23c.088.265.225.431.162.431-.054.147-.162.113-.245-.059a4.38,4.38,0,0,1-.137-1.127c-.034-.3-.074-.931-.27-1.093-.118-.162-.294-.083-.358.069a6.206,6.206,0,0,0,.02.857,8.872,8.872,0,0,1,.24,1.382c.02.652-.377.284-.358-.039a2.871,2.871,0,0,0-.015-1.25c-.064-.167-.137-.211-.294-.181-.128-.01-.446.338-.534.921a4.463,4.463,0,0,0-.108.559c-.044.3-.24.51-.382-.039-.118-.4-.191-1.391-.392-1.161Zm21.828,6.541c.054.064.088.127,0,.245-.088.079-.147.123-.24.2-.039.074-.064.181.064.216.235.069.774-.284.774-.294a.162.162,0,0,0,.054-.191c-.054-.059-.167-.024-.245-.034-.039,0-.157-.02-.1-.127a.845.845,0,0,0,.1-.186c.034-.083,0-.137-.128-.181a1.115,1.115,0,0,0-.338,0c-.083.015-.113.054-.127.152.01.147.1.137.191.2Zm-8.81-.353a1.737,1.737,0,0,1,.363-.314.25.25,0,0,1,.24.044c.02.122-.078.24-.044.407.024.068.044.142.167.113a.912.912,0,0,1,.583-.176c.157.01.162.27.064.27a4.962,4.962,0,0,0-.8.279.183.183,0,0,1-.23-.029.24.24,0,0,1-.025-.235c.01-.132-.044-.206-.152-.191-.083.049-.157.073-.2-.02-.02-.069-.025-.108.029-.147Zm7.487-2.793c.22.108.309.76.284.936.01.343-.211.617-.3.573s.01-.426-.034-.563c-.049-.191-.235-.549-.206-.652a.217.217,0,0,1,.255-.294Zm-1.147,0c.03-.029,1.289-.921,1.289-.921.127-.049.1.461.039.456a5.077,5.077,0,0,1-1.328.926c-.064.044-.127-.348,0-.46Zm-9.153-4.655a3.714,3.714,0,0,0-.108.715c-.039.176.191.255.294.025a2.144,2.144,0,0,0,.167-.779c-.049-.274-.235-.265-.353.039Zm-1.455-.26a.877.877,0,0,0-.368.617c0,.162-.039.162.069.265.078.113.157.1.309.02a.322.322,0,0,0,.147-.221c.039-.181-.191.088-.221-.118-.054-.186.1-.265.235-.451,0-.122,0-.216-.171-.113Zm-1.8,2.347a.563.563,0,0,0-.186.745.367.367,0,0,0,.392.123c.235.034.372-.441.372-.441s.01-.132-.269.122c-.118.02-.132-.025-.162-.088a.612.612,0,0,1,.034-.372c.044-.118-.049-.167-.181-.088Zm-6.183-2.171c.309.1.328.554.309.691-.044.245-.157.51-.235.475s0-.363-.044-.465c-.044-.147-.309-.412-.279-.49-.064-.167.118-.235.25-.211Zm5.669,5.37c.216.078.338.534.314.666-.044.235-.157.49-.235.456s.02-.353-.024-.451c-.015-.24-.314-.368-.3-.47-.059-.2.118-.23.25-.2Zm16.488-4.513c.225.108.353.725.328.9-.044.323-.162.671-.245.627s.02-.48-.024-.613c-.049-.2-.353-.544-.323-.647a.209.209,0,0,1,.265-.27Zm-4.155,5.63a7.711,7.711,0,0,0-.049-1.3c-.02-.343-.4-3.165-.475-3.43-.088-.495.372-.064.318-.353-.157-.367-.554-.9-.676-1.215-.078-.137-.044-.26-.215-.034a2.751,2.751,0,0,0-.147,1.235,27.147,27.147,0,0,1,.745,5.963c.186,0,.407-.431.5-.862Zm-3.067-6.335a.88.88,0,0,1,.358.833c-.049.3-.176.617-.269.578s.068-.3-.029-.568c-.054-.176-.382-.5-.348-.593-.069-.2.142-.289.289-.25Zm2.283,6.041a1.654,1.654,0,0,0-.157,1.612,1.232,1.232,0,0,0,.583.662.412.412,0,0,0,.613-.064c.279-.289.279-1.024.412-1.171a.246.246,0,0,1,.436-.1,1.035,1.035,0,0,0,.392.338.665.665,0,0,0,.877.064.992.992,0,0,0,.465-.568,19.76,19.76,0,0,0,.039-3.209c.2.274.392.559.583.843a20.886,20.886,0,0,1,.093,2.631c-.02.167.588-.5.588-.823,0-.275,0-.529,0-.764.294.47.578.951.847,1.435.167-.088.108-1.039,0-1.171-.279-.465-.647-.98-.926-1.377-.054-.5-.132-1.1-.167-1.274-.054-.284-.1-.706-.186-1.039a4.066,4.066,0,0,1-.068-.593c.034-.093.157,0,.22-.1a3.788,3.788,0,0,0-.529-1.465c-.073-.137-.211-.088-.377.132-.157.142-.1.475-.039.794.157.8.294,1.622.4,2.44-.2-.3-.451-.666-.691-1.014-.02-.093-.03-.157-.03-.157s-.034-.661-.064-.813c0-.064-.02-.083.049-.073a.377.377,0,0,0,.118.083c.073.015.132-.108.093-.216-.216-.4-.436-.8-.647-1.2-.054-.054-.123-.108-.206.015a.473.473,0,0,0-.162.353c.024.284.074.573.093.857l.02.113q-.052-.059-.074-.088c-.549-.578.255-.093-.1-.539a3.888,3.888,0,0,0-.657-.637c-.127-.083-.206-.245-.25.029a6.1,6.1,0,0,0-.02.72.984.984,0,0,0,.22.451c.368.451.745.931,1.122,1.436.079,1.024.1,1.965.181,2.989-.01.441-.147,1.024-.274,1.078,0,0-.2.113-.328-.015a3.847,3.847,0,0,1-.475-.632.289.289,0,0,0-.461,0,6.354,6.354,0,0,0-.813,1.534c-.064.108-.255.2-.466-.01a2.148,2.148,0,0,1-.284-1.494Zm-2.406-3.5c.269.127.784.074.759-.367,0-.039-.01-.167-.01-.2-.059-.132-.211-.1-.24.034-.015.044.015.113-.025.137-.02.02-.108.01-.1-.113a.184.184,0,0,0-.049-.1c-.015-.015-.025-.015-.059-.015s-.034.01-.059.039a.751.751,0,0,0-.02.1c0,.044-.02.059-.054.064s-.025.005-.054-.015-.039-.024-.039-.054a.388.388,0,0,0-.015-.113.3.3,0,0,0-.068-.034c-.147,0-.162.171-.152.235-.01.015-.015.314.186.4Zm-4.645,1.392c.274.127.921.059.764-.363,0-.039-.01-.172-.015-.206-.054-.127-.206-.1-.24.039-.01.039.02.113-.02.137s-.113,0-.108-.113a.263.263,0,0,0-.044-.108.111.111,0,0,0-.064-.015c-.034,0-.034.015-.054.044a.351.351,0,0,0-.02.1c-.01.039-.024.059-.054.064s-.029,0-.059-.015-.039-.025-.039-.059a.38.38,0,0,0-.015-.108.1.1,0,0,0-.069-.034c-.147,0-.157.167-.147.23-.01.015-.02.318.181.4Zm-7.962-3.371c.274.132.784.078.764-.363,0-.039-.01-.172-.015-.206-.054-.127-.206-.1-.24.039-.015.044.015.113-.02.137s-.113.005-.108-.113a.2.2,0,0,0-.044-.1.083.083,0,0,0-.064-.02c-.034,0-.034.015-.054.044a.351.351,0,0,0-.024.1c0,.044-.02.059-.054.064s-.024,0-.054-.015-.039-.025-.039-.059a.381.381,0,0,0-.015-.108.1.1,0,0,0-.069-.034c-.147,0-.157.171-.152.235-.01.01-.015.314.186.4Zm7.58,5.223h.025a6.968,6.968,0,0,0,.99.113c.274.015.407.23.152.319s-.495.157-.495.524c.029.181.025.274,0,.318a.011.011,0,0,1-.01.01v0h0v0h0s-.01,0-.015.01h0c-.064.01-.152-.049-.22-.083a1.351,1.351,0,0,1-.657-.965.248.248,0,0,1,.25-.255Zm2.2-1.994a.349.349,0,0,1,.181.049.244.244,0,0,1,.147.2v.01l0,0v0l0,0v0l-.015.015a.237.237,0,0,1-.245-.02c-.093-.059-.152-.137-.147-.2v-.01s0-.015.01-.02a.017.017,0,0,0,0-.01h0s.01-.01.015-.01a.132.132,0,0,1,.059-.025Zm-3.449-.857s0,0-.01,0h0a1.387,1.387,0,0,1-.132.118c-.118.132-.137.23-.127.495,0,.029.22.637.407,1.058a3.275,3.275,0,0,1,.152,1.431,3.506,3.506,0,0,1-1.441,1.5.729.729,0,0,1-.6,0h0a.368.368,0,0,1-.157-.343h0a3.415,3.415,0,0,0,1.445-1.5,1.535,1.535,0,0,0,.044-1.078,1.03,1.03,0,0,0-.25-.5h0c.083-.039.289.118.323.015a1.569,1.569,0,0,0-.417-.764.345.345,0,0,0-.5-.029c-.176.1-.216.446-.132.755.093.23.348.27.529.735h0a.864.864,0,0,1-.029.475A5.587,5.587,0,0,1,197.528,267l0,0v0h0v0h0v0h0v0a1.351,1.351,0,0,0,0-.147c0-.137.054-.451.049-.509h0v0h0c-.314.2-.416.818-.475,1a15.218,15.218,0,0,0-2.2,1.5c-.269.421,1.857-.48,2.107-.588l0,0a1.474,1.474,0,0,0,.191.392,1.127,1.127,0,0,0,1.147.372,3.626,3.626,0,0,0,1.656-1.382c.064-.093.167-.167.26-.093a2.605,2.605,0,0,0,2.352,1.235c.265-.323.137-.485.029-.554-.034-.019-.573-.23-.656-.441-.054-.191.073-.368.333-.495a11.566,11.566,0,0,0,2.171-.416,1.9,1.9,0,0,1,.235-.745.373.373,0,0,1,.122-.132h0v0h0v0a.037.037,0,0,0,0-.019l-.118-.069-2.362-.01a.247.247,0,0,1-.064-.034l0,0v0h0v0h0v-.024h0a.147.147,0,0,1,.073-.049c.563-.074,1.563-.24,1.632-1.2a.791.791,0,1,0-1.553.034c-.02.127.044.382-.088.411-.867.079-1.813.622-1.842,1.009h0l0,0h0l0,0h-.015l-.01,0a.222.222,0,0,1-.113-.24,4.643,4.643,0,0,0-.6-2.014c-.122-.122-.172-.171-.211-.176h-.015Zm-1.357-2.381c-.407,1.151.23,2.411.671,2.288.314.132.515-.47.647-1.137.088-.181.157-.2.2-.108-.01.882.064,1.073.289,1.343a.741.741,0,0,0,.955.02c.029-.034.392-.4.392-.4a.235.235,0,0,1,.328-.015c.118.108.1.3.358.426a.789.789,0,0,0,.784-.167c.142-.245.181-.328.245-.426.1-.137.279-.073.279-.029-.015.078-.118.152-.049.289.122.093.152.034.221.015.255-.122.451-.681.451-.681.01-.206-.108-.191-.181-.147-.1.059-.1.078-.2.142-.127.015-.368.1-.49-.088a7.008,7.008,0,0,1-.216-.759c0-.015-.167-.353-.015-.377.078.015.24.059.265-.078.083-.132-.172-.515-.343-.7a.368.368,0,0,0-.554-.02c-.137.132-.118.274-.147.412a.628.628,0,0,0,.132.554,1.716,1.716,0,0,1,.309,1.127.444.444,0,0,1-.407.206c-.108-.025-.284-.069-.377-.759a4.982,4.982,0,0,0-.206-1.6c-.078-.206-.137-.407-.333-.054a.821.821,0,0,0-.118.784,2.275,2.275,0,0,1,.127,1.225,2.521,2.521,0,0,1-.23.328.385.385,0,0,1-.5.069.533.533,0,0,1-.3-.417,5.536,5.536,0,0,0-.044-1.352.243.243,0,0,0-.407-.083,3.082,3.082,0,0,0-.745,1.519c-.113.372-.235.265-.318.118-.211-.2-.225-1.72-.475-1.47Zm7.384,6.218a22.832,22.832,0,0,0-.029-2.3c0-.157-.015-.343-.024-.539.49.809.97,1.661,1.436,2.6.171-.083.137-1.044.034-1.176-.372-.808-.892-1.607-1.058-1.911-.059-.113-.26-.421-.5-.779-.044-.51-.088-.936-.122-1.068-.079-.534.22.059.181-.255a3.516,3.516,0,0,0-.745-1.392c-.113-.157-.108-.191-.284.039a1.033,1.033,0,0,0-.073.613c-.044-.064-.1-.142-.181-.235-.3-.26-.323-.279-.573-.49-.127-.088-.436-.25-.49.02a1.536,1.536,0,0,0,.029.568,2.012,2.012,0,0,0,.318.485c.456.612.892,1.23,1.318,1.867.064.47.113.931.147,1.392a28.988,28.988,0,0,1,.024,3.332c.191,0,.5-.309.6-.764Zm-1.122-5.86c.01.049.02.1.029.157l.074.338c-.1-.147-.181-.25-.22-.294-.225-.265,0-.172.117-.2Zm5.757,2.759c-.255,0-.779-.49-.931-.774a.521.521,0,0,1,.029-.412c.093-.059.235-.127.343-.064,0,0,.113.152.088.176.137.064.2.024.211-.029.01-.1-.039-.157-.039-.265a.291.291,0,0,1,.514-.152,1.124,1.124,0,0,1,.142.519c0,.083-.137-.015-.216,0s-.093.108-.1.186c-.01.216-.039.554-.039.808Zm2.651,4.371c-.4.23-.4.495-.078.5a1.984,1.984,0,0,0,1.666-.794,2.6,2.6,0,0,0,.269-1.029,23.888,23.888,0,0,0-.3-5.037,3.192,3.192,0,0,1-.054-.475c.039-.088.221.01.284-.1.093-.093-.47-.818-.666-1.127-.073-.142-.1-.23-.211.015a1.432,1.432,0,0,0-.118.877,48.171,48.171,0,0,1,.559,5.693,1.779,1.779,0,0,1-.108.47,4.075,4.075,0,0,1-.549.637c-.181.132-.568.264-.691.363Zm-7.516.01c-.073.083.181.436.514.436a1.949,1.949,0,0,0,1.5-1.2,2.106,2.106,0,0,0,.343-.916,20,20,0,0,0-.377-4.664.783.783,0,0,1,.02-.328c.034-.044.157,0,.22-.108.093-.093-.25-.9-.451-1.21-.069-.137-.093-.23-.211.02a1.73,1.73,0,0,0-.2.877c.265,1.837.348,3.445.524,5.282a.76.76,0,0,1-.132.539,5.188,5.188,0,0,1-1.754,1.274Zm-14.934-1.71a2.045,2.045,0,0,0-.206,1.818.456.456,0,0,0,.436.147.811.811,0,0,0,.294-.784c-.078-.128-.142-.147-.225-.039-.172.348-.245.108-.26-.083a4.657,4.657,0,0,1,.049-.98c.044-.274,0-.191-.088-.078Zm7.026-6.051a.2.2,0,0,1,.181.132c.039.088.02.172-.044.191a.2.2,0,0,1-.191-.132c-.039-.088-.02-.176.044-.191Zm.049-.367a.553.553,0,0,0-.245.069.468.468,0,0,0-.078.622c.137.064.274.2.181.279-.392.417-1.406,1.112-1.455,1.24a0,0,0,0,0,0,0v0h0l0,0h0v0h0a2.99,2.99,0,0,0,.755,0l0,0h0a10.726,10.726,0,0,0,1.254-1.269c-.054-.044-.1-.078-.157-.122a.089.089,0,0,1,0-.147.415.415,0,0,0,.044-.632.683.683,0,0,0-.314-.059Zm-3.425,4.395a.175.175,0,0,1,.2.118.218.218,0,0,1-.039.211v0h0c-.025.039-.123.024-.191.024a.185.185,0,0,1-.171-.088c-.025-.074.049-.147.078-.2h0c0-.01,0-.015.015-.02a.2.2,0,0,1,.113-.049Zm.98-4.331c-.039,0-.083.029-.132.039a.39.39,0,0,0-.279.48c.2,1.21.333,2.136.529,3.346.029.142-.088.328-.24.309-.26-.176-.323-.534-.769-.514a.867.867,0,0,0-.74.691,1.782,1.782,0,0,0,0,.789.656.656,0,0,0,.74.186c.2-.083.358-.279.426-.23h0c.044.078,0,.706-.921,1.2-.563.25-1.014.309-1.254-.147-.147-.289.015-1.382-.353-1.132-1.093,2.808,2.548,3.194,2.95.118.029-.088.108-.176.167-.152a.115.115,0,0,1,.054.1c-.083,2.793-2.812,2.979-3.278,2.107a2.71,2.71,0,0,1-.157-.946c-.024-.167-.064-.265-.113-.3-.113-.083-.26.132-.289.51a3.175,3.175,0,0,0-.034.676c.142,2.2,3.655,1.254,4.228-.564a6.15,6.15,0,0,0,.088-1.739h0l0,0h0a.017.017,0,0,0,.01,0c.353.377.843.049.951-.078a.157.157,0,0,1,.24-.024.564.564,0,0,0,.848-.24,7.229,7.229,0,0,0,.118-1.044,1,1,0,0,0-.377.157.068.068,0,0,0-.024.049c-.015.1-.034.2-.049.3,0,.01,0,.015,0,.024a.179.179,0,0,1-.034.029c-.064.034-.172.015-.176-.078-.088-.382-.431-.431-.642.162-.142.117-.4.137-.431-.034.039-.4-.122-.451-.446-.265-.1-.789-.206-1.543-.309-2.332.132,0,.255.1.377-.059a4.485,4.485,0,0,0-.568-1.333h0a.059.059,0,0,0-.025-.024.016.016,0,0,0-.01,0s0,0-.01-.01-.015,0-.02,0a.069.069,0,0,0-.044,0Zm-2.636,4.366c-.7.343-1.377.661-2.063.995a2.1,2.1,0,0,1,1.632-1.328c.426.015.319.167.431.333Z" transform="translate(-190.042 -260.305)" fill="#fefefe"/>
          </g>
          <g id="Group_27" data-name="Group 27" transform="translate(1.972 13.77)">
            <path id="Path_19" data-name="Path 19" d="M240.621,496.443h.005c.663.032,1.282.005,1.944.038a.232.232,0,0,1-.016.328c0,.005-.005.005-.011.005h-.016l-.555-.016c0-.011-.005-.021-.005-.032-.054-.151-.42-.14-.512-.022v.005a.017.017,0,0,0-.005.011.017.017,0,0,0-.005.011v.016a.027.027,0,0,0-.005.016,4.943,4.943,0,0,1-.845-.016c-.081-.108-.075-.3.027-.344Zm-.307-1.642h-.005a.413.413,0,0,0-.14.759c-4.544,0-11.512-.081-13.009-.081-.835,0-3.478-.1-3.532-.1a2.676,2.676,0,0,0,2.466,1.012c2.019,0,11.366-.022,14.027-.022a.931.931,0,0,0,.167.975.019.019,0,0,0,.011.005.02.02,0,0,0,.016.005h.005c.178.043.253-.086.317-.178a18.31,18.31,0,0,0,2.041,0v-.005c.1.145.2.286.388.259.334-.07.592-.1.6-.775,0,0-.032-1.147-.786-1.077-.177.027-.678.075-.678.075-.582-.065-1.007-.075-1.653-.1.059-.081.162-.388.032-.5a.182.182,0,0,0-.151-.032h-.011v-.005h-.005c-.005-.006-.011-.011-.011-.016H240.4a1.47,1.47,0,0,1-.07-.2h-.006V494.8h-.011Z" transform="translate(-223.628 -494.801)" fill="#fefefe"/>
          </g>
        </g>
      </g>
    </g>
  </g>
</svg>
