<svg xmlns="http://www.w3.org/2000/svg" width="35" height="35" viewBox="0 0 35 35">
  <g id="twitter" transform="translate(0 1)">
    <g id="Rectangle_2385" data-name="Rectangle 2385" transform="translate(0 -1)" fill="#fff" stroke="#f3f7f9" stroke-width="1">
      <rect width="35" height="35" rx="4" stroke="none"/>
      <rect x="0.5" y="0.5" width="34" height="34" rx="3.5" fill="none"/>
    </g>
    <path id="Path_17872" data-name="Path 17872" d="M126.2,135.759a6.72,6.72,0,0,1-1.172.4,3.653,3.653,0,0,0,.965-1.536.192.192,0,0,0-.28-.223,6.762,6.762,0,0,1-1.792.74.453.453,0,0,1-.112.014.475.475,0,0,1-.314-.12,3.665,3.665,0,0,0-2.425-.915,3.917,3.917,0,0,0-1.161.179,3.551,3.551,0,0,0-2.393,2.558,3.91,3.91,0,0,0-.087,1.349.132.132,0,0,1-.033.1.136.136,0,0,1-.1.046h-.013a9.61,9.61,0,0,1-6.605-3.529.192.192,0,0,0-.314.024,3.67,3.67,0,0,0,.6,4.455,3.285,3.285,0,0,1-.836-.324.192.192,0,0,0-.285.165,3.67,3.67,0,0,0,2.141,3.381H111.9a3.282,3.282,0,0,1-.617-.059.192.192,0,0,0-.219.247,3.673,3.673,0,0,0,2.9,2.5,6.763,6.763,0,0,1-3.788,1.15h-.424a.28.28,0,0,0-.274.212.29.29,0,0,0,.139.321,10.059,10.059,0,0,0,5.055,1.363,10.194,10.194,0,0,0,4.32-.916,9.539,9.539,0,0,0,3.161-2.368,10.382,10.382,0,0,0,1.935-3.241,10.24,10.24,0,0,0,.658-3.547v-.056a.624.624,0,0,1,.233-.486,7.246,7.246,0,0,0,1.457-1.6.192.192,0,0,0-.237-.282Z" transform="translate(-100.465 -125.114)" fill="#c5cee0"/>
  </g>
</svg>
