<svg xmlns="http://www.w3.org/2000/svg" width="35" height="35" viewBox="0 0 35 35">
  <g id="whatsapp" transform="translate(0 1)">
    <g id="Rectangle_2385" data-name="Rectangle 2385" transform="translate(0 -1)" fill="#fff" stroke="#f3f7f9" stroke-width="1">
      <rect width="35" height="35" rx="4" stroke="none"/>
      <rect x="0.5" y="0.5" width="34" height="34" rx="3.5" fill="none"/>
    </g>
    <g id="Group_6148" data-name="Group 6148" transform="translate(9 8)">
      <path id="Path_12247" data-name="Path 12247" d="M118.027,108.287a9,9,0,0,0-7.58,13.077L109.492,126a.35.35,0,0,0,.424.412l4.545-1.077a9,9,0,1,0,3.567-17.05Zm5.423,13.972a7.052,7.052,0,0,1-8.119,1.329l-.633-.315-2.787.66.586-2.847-.312-.611a7.053,7.053,0,0,1,1.3-8.182,7.047,7.047,0,0,1,9.966,9.966Z" transform="translate(-109.467 -108.276)" fill="#c5cee0"/>
      <path id="Path_12248" data-name="Path 12248" d="M191.075,190.465l-1.743-.5a.65.65,0,0,0-.643.169l-.426.434a.635.635,0,0,1-.69.146,9.305,9.305,0,0,1-3-2.648.635.635,0,0,1,.05-.7l.372-.481a.65.65,0,0,0,.08-.66l-.733-1.659a.65.65,0,0,0-1.015-.232,2.932,2.932,0,0,0-1.134,1.73c-.124,1.221.4,2.761,2.381,4.61,2.288,2.136,4.121,2.418,5.314,2.129a2.93,2.93,0,0,0,1.559-1.359.65.65,0,0,0-.369-.974Z" transform="translate(-177.707 -179.514)" fill="#c5cee0"/>
    </g>
  </g>
</svg>
